<svg width="37" height="37" viewBox="0 0 37 37" fill="none" xmlns="http://www.w3.org/2000/svg">
<path d="M32.8408 12.4992C36.6363 12.3827 36.7482 10.6269 36.7504 10.5498C36.7504 10.5364 36.7311 8.60077 35.5777 8.60077C34.5143 8.60077 33.2975 10.0274 32.8412 10.6804L32.8408 12.4992Z" fill="#E7871E"/>
<path d="M3.90961 12.4992V10.6807C3.45221 10.0275 2.23322 8.6004 1.17306 8.6004C0.019405 8.60073 0 10.5364 0 10.5563C0.0022969 10.6272 0.114189 12.3827 3.90961 12.4992Z" fill="#E7871E"/>
<path d="M13.6839 27.3672H23.0667C25.4505 27.3646 27.7362 26.4163 29.4221 24.7307C31.1076 23.0448 32.0559 20.7594 32.0586 18.3752V10.9471H4.69141V18.3752C4.69403 20.7594 5.64229 23.0448 7.32791 24.7307C9.01379 26.4162 11.2995 27.3645 13.6834 27.3672H13.6839ZM7.03769 13.6836C7.03868 13.4683 7.21324 13.2944 7.42849 13.2944C7.64374 13.2944 7.81862 13.4683 7.81961 13.6836V16.0294C7.81994 16.1334 7.77892 16.2331 7.70575 16.307C7.63225 16.3805 7.5325 16.4221 7.42848 16.4221C7.32446 16.4221 7.22504 16.3805 7.15154 16.307C7.07804 16.2331 7.03702 16.1334 7.03768 16.0294L7.03769 13.6836ZM7.42849 17.984C7.53218 17.984 7.63193 18.0253 7.7051 18.0985C7.7786 18.172 7.81962 18.2714 7.81962 18.3751C7.82126 19.9298 8.43977 21.4204 9.53901 22.52C10.6386 23.6195 12.1292 24.2377 13.6839 24.2394C13.7879 24.2391 13.8877 24.2801 13.9615 24.3532C14.0353 24.4267 14.0767 24.5265 14.0767 24.6305C14.0767 24.7345 14.0353 24.8343 13.9615 24.9074C13.8877 24.981 13.7879 25.022 13.6839 25.0213C11.9218 25.0193 10.2323 24.3185 8.98646 23.0726C7.74057 21.8267 7.03968 20.1372 7.03774 18.3752C7.03774 18.2715 7.07876 18.172 7.15226 18.0985C7.22543 18.0254 7.32486 17.984 7.42855 17.9843L7.42849 17.984Z" fill="#EFAF00"/>
<path d="M31.9655 10.1649C31.3621 8.83236 27.8705 6.93312 22.4911 6.28506C22.1043 6.68505 21.0153 7.03712 18.3758 7.03712C15.7364 7.03712 14.6473 6.68538 14.2605 6.28506C8.88088 6.93311 5.38925 8.83194 4.78613 10.1649H31.9655Z" fill="#E7871E"/>
<path d="M15.3301 5.96902C16.3276 6.1997 17.3516 6.29616 18.3747 6.25548C19.3979 6.29617 20.4219 6.1997 21.4194 5.96902C20.5935 5.34066 20.394 3.84307 20.3455 3.12781H16.404C16.3555 3.84312 16.156 5.34104 15.3301 5.96902Z" fill="#BDB4A7"/>
<path d="M16.0292 2.34578H20.7207C21.3675 2.34414 21.8908 1.81947 21.8908 1.17272C21.8908 0.526319 21.3675 0.00168 20.7207 0H16.0292C15.3824 0.0016406 14.8594 0.52631 14.8594 1.17272C14.8594 1.81946 15.3824 2.3441 16.0292 2.34578Z" fill="#4E4E4E"/>
<path d="M0 36.75H36.75V32.0584H0V36.75ZM15.2477 34.4042H21.5031C21.7183 34.4052 21.8922 34.5801 21.8922 34.7953C21.8922 35.0106 21.7183 35.1852 21.5031 35.1861H15.2477C15.0324 35.1852 14.8585 35.0106 14.8585 34.7953C14.8585 34.5801 15.0324 34.4052 15.2477 34.4042Z" fill="#4E4E4E"/>
<path d="M36.75 28.1492H0V31.2766H36.75V28.1492Z" fill="#BDB4A7"/>
</svg>
