<svg width="46" height="46" viewBox="0 0 46 46" fill="none" xmlns="http://www.w3.org/2000/svg">
<g filter="url(#filter0_d_493_3506)">
<path d="M6.9748 37.1674H8.09138C8.23944 37.1674 8.38145 37.1086 8.48615 37.0039C8.59085 36.8992 8.64967 36.7572 8.64967 36.6091V31.5833H6.41651V36.6068C6.41621 36.6803 6.43043 36.7532 6.45835 36.8212C6.48627 36.8892 6.52735 36.951 6.57922 37.0031C6.63109 37.0551 6.69274 37.0965 6.76062 37.1247C6.82851 37.1529 6.90129 37.1674 6.9748 37.1674Z" fill="#070707"/>
<path d="M36.7202 31.5833V36.6068C36.7202 36.7549 36.779 36.8969 36.8837 37.0016C36.9884 37.1063 37.1304 37.1651 37.2785 37.1651H38.3951C38.4684 37.1651 38.541 37.1507 38.6087 37.1226C38.6765 37.0945 38.738 37.0534 38.7899 37.0016C38.8417 36.9497 38.8828 36.8882 38.9109 36.8205C38.9389 36.7527 38.9534 36.6801 38.9534 36.6068V31.5833H36.7202Z" fill="#070707"/>
<path d="M5.29932 6.30562H40.0703V11.8897H5.29932V6.30562Z" fill="#808080"/>
<path d="M40.6265 7.98334H38.951L35.603 4.07189L38.9533 0.16272H40.6265C40.7746 0.16272 40.9166 0.221539 41.0213 0.326239C41.126 0.430939 41.1848 0.572942 41.1848 0.721009V7.4222C41.1852 7.49575 41.171 7.56866 41.1431 7.63672C41.1152 7.70479 41.0741 7.76667 41.0223 7.81881C40.9704 7.87096 40.9087 7.91234 40.8408 7.94057C40.7729 7.96881 40.7 7.98334 40.6265 7.98334Z" fill="#B3B3B3"/>
<path d="M38.9536 7.98334H4.74091C4.66736 7.98334 4.59453 7.96881 4.5266 7.94057C4.45868 7.91234 4.39701 7.87096 4.34513 7.81881C4.29325 7.76667 4.25219 7.70479 4.2243 7.63672C4.19641 7.56866 4.18225 7.49575 4.18262 7.4222V0.721009C4.18262 0.572942 4.24144 0.430939 4.34614 0.326239C4.45084 0.221539 4.59285 0.16272 4.74091 0.16272L38.9536 0.16272V7.98334Z" fill="#CCCCCC"/>
<path d="M41.1877 30.4668L36.7202 25.9993L38.9539 34.9342H40.6294C40.7774 34.9342 40.9195 34.8754 41.0242 34.7707C41.1289 34.666 41.1877 34.524 41.1877 34.3759V30.4668Z" fill="#B3B3B3"/>
<path d="M38.9535 21.5318L4.18262 30.4668V34.3759C4.18262 34.524 4.24144 34.666 4.34614 34.7707C4.45084 34.8754 4.59284 34.9342 4.74091 34.9342H38.9535V21.5318Z" fill="#BDB4A7"/>
<path d="M41.1871 30.4662H38.9533L35.603 20.3405L38.9533 10.2142H40.6265C40.7746 10.2142 40.9166 10.273 41.0213 10.3777C41.126 10.4824 41.1848 10.6244 41.1848 10.7725L41.1871 30.4662Z" fill="#070707"/>
<path d="M4.18262 10.7725V30.4668H38.9535V10.2142H4.74091C4.59284 10.2142 4.45084 10.273 4.34614 10.3777C4.24144 10.4824 4.18262 10.6244 4.18262 10.7725V10.7725Z" fill="#4E4E4E"/>
<path d="M31.869 5.77073C32.6572 5.77073 33.2961 5.004 33.2961 4.05819C33.2961 3.11237 32.6572 2.34564 31.869 2.34564C31.0808 2.34564 30.4419 3.11237 30.4419 4.05819C30.4419 5.004 31.0808 5.77073 31.869 5.77073Z" fill="#808080"/>
<path d="M13.8869 5.77073C14.8327 5.77073 15.5994 5.004 15.5994 4.05819C15.5994 3.11237 14.8327 2.34564 13.8869 2.34564C12.941 2.34564 12.1743 3.11237 12.1743 4.05819C12.1743 5.004 12.941 5.77073 13.8869 5.77073Z" fill="#808080"/>
<path d="M36.7198 28.233H34.486L31.1357 22.5742L34.486 16.9154H36.7198V28.233Z" fill="#E7871E"/>
<path d="M8.65039 16.9154H34.487V28.233H8.65039V16.9154Z" fill="#EFAF00"/>
<path d="M35.6029 12.4479H33.3691V14.6817H35.6029C35.8991 14.6817 36.1832 14.564 36.3926 14.3545C36.6021 14.1451 36.7197 13.861 36.7197 13.5648C36.7197 13.2686 36.6021 12.9845 36.3926 12.7751C36.1832 12.5656 35.8991 12.4479 35.6029 12.4479Z" fill="#808080"/>
<path d="M9.76677 14.6817H33.3679C33.6641 14.6817 33.9482 14.564 34.1577 14.3545C34.3671 14.1451 34.4848 13.861 34.4848 13.5648C34.4848 13.2686 34.3671 12.9845 34.1577 12.7751C33.9482 12.5656 33.6641 12.4479 33.3679 12.4479H9.76677C9.47056 12.4479 9.18648 12.5656 8.97702 12.7751C8.76757 12.9845 8.6499 13.2686 8.6499 13.5648C8.6499 13.861 8.76757 14.1451 8.97702 14.3545C9.18648 14.564 9.47056 14.6817 9.76677 14.6817Z" fill="#B3B3B3"/>
<path d="M27.7852 5.74675H25.5515L22.2012 4.07188L25.5515 2.39644H27.7852V5.74675Z" fill="#070707"/>
<path d="M17.585 2.39644H25.5517V5.74675H17.585V2.39644Z" fill="#4F4F4F"/>
</g>
<defs>
<filter id="filter0_d_493_3506" x="0.182617" y="0.16272" width="45.0049" height="45.0047" filterUnits="userSpaceOnUse" color-interpolation-filters="sRGB">
<feFlood flood-opacity="0" result="BackgroundImageFix"/>
<feColorMatrix in="SourceAlpha" type="matrix" values="0 0 0 0 0 0 0 0 0 0 0 0 0 0 0 0 0 0 127 0" result="hardAlpha"/>
<feOffset dy="4"/>
<feGaussianBlur stdDeviation="2"/>
<feComposite in2="hardAlpha" operator="out"/>
<feColorMatrix type="matrix" values="0 0 0 0 0 0 0 0 0 0 0 0 0 0 0 0 0 0 0.25 0"/>
<feBlend mode="normal" in2="BackgroundImageFix" result="effect1_dropShadow_493_3506"/>
<feBlend mode="normal" in="SourceGraphic" in2="effect1_dropShadow_493_3506" result="shape"/>
</filter>
</defs>
</svg>
