<svg width="48" height="43" viewBox="0 0 48 43" fill="none" xmlns="http://www.w3.org/2000/svg">
<path d="M41.1918 24.5508H22.7671C22.4519 24.5508 22.1963 24.8063 22.1963 25.1216V26.9335C22.1963 27.2487 22.4519 27.5043 22.7671 27.5043H41.1918C41.5071 27.5043 41.7627 27.2487 41.7627 26.9335V25.1216C41.7627 24.8063 41.5071 24.5508 41.1918 24.5508Z" fill="#E7871E"/>
<path d="M16.29 20.8585V37.2869C16.29 37.8744 16.5234 38.4377 16.9388 38.8531C17.3541 39.2685 17.9175 39.5018 18.5049 39.5018H20.7198V42.0861C20.7198 42.2819 20.7976 42.4697 20.9361 42.6082C21.0746 42.7467 21.2624 42.8245 21.4582 42.8245C21.654 42.8245 21.8419 42.7467 21.9803 42.6082C22.1188 42.4697 22.1966 42.2819 22.1966 42.0861V39.5024H41.763V42.0866C41.763 42.2825 41.8408 42.4703 41.9793 42.6088C42.1177 42.7472 42.3056 42.825 42.5014 42.825C42.6972 42.825 42.885 42.7472 43.0235 42.6088C43.162 42.4703 43.2398 42.2825 43.2398 42.0866V39.5024H45.4547C46.0421 39.5024 46.6055 39.2691 47.0208 38.8537C47.4362 38.4383 47.6696 37.8749 47.6696 37.2875V18.6436H18.5049C17.9175 18.6436 17.3541 18.877 16.9388 19.2923C16.5234 19.7077 16.29 20.2711 16.29 20.8585ZM20.7204 25.2889C20.7204 24.7014 20.9537 24.1381 21.3691 23.7227C21.7845 23.3073 22.3479 23.074 22.9353 23.074H41.0249C41.6123 23.074 42.1757 23.3073 42.5911 23.7227C43.0064 24.1381 43.2398 24.7014 43.2398 25.2889V26.7656C43.2398 27.3531 43.0064 27.9164 42.5911 28.3318C42.1757 28.7472 41.6123 28.9805 41.0249 28.9805H22.9353C22.3479 28.9805 21.7845 28.7472 21.3691 28.3318C20.9537 27.9164 20.7204 27.3531 20.7204 26.7656V25.2889ZM21.4585 33.5953H42.5017C42.6975 33.5953 42.8853 33.6731 43.0238 33.8115C43.1623 33.95 43.2401 34.1378 43.2401 34.3337C43.2401 34.5295 43.1623 34.7173 43.0238 34.8558C42.8853 34.9943 42.6975 35.0721 42.5017 35.0721H21.4585C21.2627 35.0721 21.0749 34.9943 20.9364 34.8558C20.7979 34.7173 20.7201 34.5295 20.7201 34.3337C20.7201 34.1378 20.7979 33.95 20.9364 33.8115C21.0749 33.6731 21.2627 33.5953 21.4585 33.5953Z" fill="#BDB4A7"/>
<path d="M45.455 10.3372H43.6666C43.3756 10.3364 43.0874 10.3934 42.8186 10.5048C42.5498 10.6162 42.3058 10.7799 42.1007 10.9863L38.5358 14.5512C38.3292 14.7564 38.1655 15.0006 38.0541 15.2696C37.9427 15.5386 37.8858 15.8271 37.8867 16.1182V17.1674H47.6699V12.5521C47.6699 11.9647 47.4366 11.4013 47.0212 10.986C46.6058 10.5706 46.0425 10.3372 45.455 10.3372Z" fill="#E7871E"/>
<path d="M35.487 9.78347H7.65702L6.96572 7.71072C6.81871 7.2697 6.53667 6.88612 6.15953 6.61431C5.7824 6.3425 5.32931 6.19624 4.86443 6.19626H1.15392C0.958086 6.19626 0.770273 6.27405 0.631797 6.41253C0.493322 6.551 0.415527 6.73882 0.415527 6.93465C0.415527 7.13048 0.493322 7.3183 0.631797 7.45677C0.770273 7.59525 0.958086 7.67304 1.15392 7.67304H4.86443C5.01952 7.673 5.17069 7.72178 5.29651 7.81245C5.42233 7.90313 5.51641 8.03111 5.56543 8.17824L10.5193 23.0369C10.6661 23.4779 10.9481 23.8615 11.3251 24.1334C11.7021 24.4053 12.1551 24.5517 12.62 24.5519H29.9932C30.4575 24.5511 30.9099 24.4045 31.2864 24.1326C31.6628 23.8607 31.9443 23.4774 32.091 23.0369L36.1846 10.7556C36.2213 10.645 36.2312 10.5272 36.2137 10.412C36.1961 10.2968 36.1515 10.1874 36.0835 10.0927C36.0155 9.99803 35.9261 9.92081 35.8225 9.86736C35.7189 9.81391 35.6041 9.78575 35.4876 9.78518L35.487 9.78347ZM8.14852 11.2597H15.855L16.1975 14.2133H9.13381L8.14852 11.2597ZM10.6106 18.6453L9.62588 15.6917H16.3704L16.713 18.6453H10.6106ZM12.6188 23.0757C12.4639 23.0756 12.313 23.0267 12.1874 22.936C12.0618 22.8454 11.9679 22.7175 11.919 22.5705L11.1032 20.1221H16.8842L17.2267 23.0757H12.6188ZM23.8988 23.0757H18.7132L18.3707 20.1221H24.2413L23.8988 23.0757ZM24.4154 18.6453H18.1994L17.8569 15.6917H24.7545L24.4154 18.6453ZM24.932 14.215H17.6823L17.3397 11.2614H25.2683L24.932 14.215ZM30.6976 22.5705C30.6487 22.7176 30.5547 22.8455 30.429 22.9362C30.3033 23.0269 30.1522 23.0757 29.9972 23.0757H25.3921L25.7346 20.1221H31.5162L30.6976 22.5705ZM32.0077 18.6453H25.8996L26.2421 15.6917H32.9861L32.0077 18.6453ZM33.4845 14.215H26.4185L26.761 11.2614H34.4623L33.4845 14.215Z" fill="#4E4E4E"/>
<path d="M11.5226 7.38364C11.7184 7.38364 11.9061 7.30587 12.0445 7.16745C12.183 7.02903 12.2607 6.84129 12.2607 6.64553C12.2607 5.47472 12.8173 4.91871 13.5212 4.21429C14.0398 3.79361 14.4601 3.26441 14.7523 2.6639C15.0445 2.06338 15.2016 1.40614 15.2126 0.738392C15.2126 0.542558 15.1348 0.354745 14.9963 0.21627C14.8578 0.0777947 14.67 0 14.4742 0C14.2784 0 14.0905 0.0777947 13.9521 0.21627C13.8136 0.354745 13.7358 0.542558 13.7358 0.738392C13.7358 1.9092 13.1798 2.46521 12.4754 3.16963C11.9567 3.59034 11.5364 4.11944 11.2439 4.7198C10.9514 5.32016 10.7939 5.97724 10.7822 6.64496C10.7822 6.74213 10.8013 6.83836 10.8385 6.92812C10.8757 7.01789 10.9302 7.09943 10.999 7.16806C11.0678 7.23669 11.1495 7.29106 11.2393 7.32805C11.3292 7.36505 11.4254 7.38394 11.5226 7.38364Z" fill="#4E4E4E"/>
<path d="M19.8285 7.38364C20.0243 7.38364 20.212 7.30588 20.3504 7.16746C20.4889 7.02904 20.5666 6.8413 20.5666 6.64554C20.5666 5.47473 21.1232 4.91872 21.8271 4.2143C22.346 3.79385 22.7665 3.26481 23.059 2.66439C23.3515 2.06397 23.509 1.40676 23.5202 0.738972C23.5202 0.543138 23.4424 0.355325 23.3039 0.21685C23.1655 0.0783745 22.9776 0.000579834 22.7818 0.000579834C22.586 0.000579834 22.3982 0.0783745 22.2597 0.21685C22.1212 0.355325 22.0434 0.543138 22.0434 0.738972C22.0434 1.90978 21.4874 2.46579 20.783 3.17021C20.2643 3.59092 19.844 4.12002 19.5515 4.72038C19.2591 5.32074 19.1015 5.97782 19.0898 6.64554C19.0898 6.74252 19.109 6.83854 19.1461 6.92813C19.1832 7.01772 19.2376 7.09911 19.3062 7.16766C19.3748 7.23621 19.4563 7.29056 19.5459 7.32762C19.6355 7.36468 19.7315 7.38372 19.8285 7.38364Z" fill="#4E4E4E"/>
<path d="M28.136 7.38364C28.3317 7.38364 28.5195 7.30587 28.6579 7.16745C28.7963 7.02903 28.8741 6.84129 28.8741 6.64553C28.8741 5.47472 29.4301 4.91871 30.1345 4.21429C30.6528 3.79329 31.0727 3.26401 31.3648 2.66356C31.6569 2.06311 31.8141 1.40602 31.8254 0.738392C31.8254 0.542558 31.7476 0.354745 31.6091 0.21627C31.4706 0.0777946 31.2828 0 31.087 0C30.8911 0 30.7033 0.0777946 30.5649 0.21627C30.4264 0.354745 30.3486 0.542558 30.3486 0.738392C30.3486 1.9092 29.7926 2.46521 29.0882 3.16963C28.5692 3.59008 28.1487 4.11912 27.8562 4.71954C27.5637 5.31996 27.4063 5.97717 27.395 6.64496C27.3949 6.74218 27.4141 6.83845 27.4513 6.92826C27.4885 7.01806 27.5432 7.09962 27.612 7.16826C27.6809 7.2369 27.7626 7.29126 27.8525 7.32822C27.9424 7.36518 28.0388 7.38401 28.136 7.38364Z" fill="#4E4E4E"/>
</svg>
