<svg width="52" height="38" viewBox="0 0 52 38" fill="none" xmlns="http://www.w3.org/2000/svg">
<path d="M9.10509 37.3301H5.9112C5.38372 37.3301 4.87786 37.1206 4.50488 36.7476C4.1319 36.3746 3.92236 35.8687 3.92236 35.3413V33.2023H11.0945V35.3413C11.0945 35.6025 11.043 35.8612 10.9431 36.1025C10.8431 36.3438 10.6965 36.5631 10.5118 36.7478C10.327 36.9325 10.1077 37.079 9.86636 37.1789C9.625 37.2788 9.36632 37.3302 9.10509 37.3301Z" fill="#4E4E4E"/>
<path d="M45.3233 37.3301H42.1294C41.602 37.3301 41.0961 37.1206 40.7231 36.7476C40.3501 36.3746 40.1406 35.8687 40.1406 35.3413V33.2023H47.3128V35.3413C47.3128 35.6025 47.2613 35.8612 47.1613 36.1025C47.0613 36.3438 46.9148 36.5631 46.73 36.7478C46.5453 36.9325 46.326 37.079 46.0846 37.1789C45.8433 37.2788 45.5846 37.3302 45.3233 37.3301Z" fill="#4E4E4E"/>
<path d="M51.0764 1.86217V32.688C51.0762 33.0955 50.9143 33.4863 50.6261 33.7744C50.338 34.0626 49.9472 34.2245 49.5397 34.2247H37.8093L37.041 33.6099L36.2726 34.2247H1.69346C1.28614 34.2245 0.89553 34.0627 0.607404 33.7748C0.319278 33.4869 0.157192 33.0964 0.156738 32.6891L0.156738 1.86331C0.15689 1.45579 0.318842 1.06501 0.607001 0.776849C0.89516 0.48869 1.28594 0.326735 1.69346 0.326584H36.2726L37.041 0.840348L37.8093 0.326584H49.5408C49.9479 0.327037 50.3383 0.48897 50.6261 0.776849C50.914 1.06473 51.0759 1.45504 51.0764 1.86217Z" fill="#BDB4A7"/>
<path d="M8.8656 34.2264H1.69346C1.28584 34.2263 0.894975 34.0642 0.606799 33.7759C0.318624 33.4877 0.156738 33.0967 0.156738 32.6891L0.156738 1.86331C0.15689 1.45579 0.318842 1.06501 0.607001 0.776849C0.89516 0.48869 1.28594 0.326735 1.69346 0.326584H8.8656C8.45808 0.326735 8.0673 0.48869 7.77914 0.776849C7.49098 1.06501 7.32903 1.45579 7.32887 1.86331V32.6891C7.32887 33.0967 7.49076 33.4877 7.77894 33.7759C8.06711 34.0642 8.45798 34.2263 8.8656 34.2264Z" fill="#787878"/>
<path d="M36.2725 0.325439H37.8092V34.2264H36.2725V0.325439Z" fill="#EEFAFF"/>
<path d="M45.9242 13.7347H42.1955C42.0108 13.7347 41.8336 13.6613 41.703 13.5307C41.5724 13.4001 41.499 13.2229 41.499 13.0382V5.11999C41.499 4.93528 41.5724 4.75814 41.703 4.62753C41.8336 4.49693 42.0108 4.42355 42.1955 4.42355H45.926C46.1107 4.42355 46.2878 4.49693 46.4184 4.62753C46.549 4.75814 46.6224 4.93528 46.6224 5.11999V13.0388C46.6223 13.1303 46.6042 13.221 46.569 13.3055C46.5339 13.3901 46.4825 13.4669 46.4176 13.5315C46.3528 13.5961 46.2758 13.6473 46.1912 13.6822C46.1065 13.7171 46.0158 13.7349 45.9242 13.7347Z" fill="#EFAF00"/>
<path d="M44.0594 22.4435C45.4741 22.4435 46.6208 21.2968 46.6208 19.8821C46.6208 18.4675 45.4741 17.3207 44.0594 17.3207C42.6448 17.3207 41.498 18.4675 41.498 19.8821C41.498 21.2968 42.6448 22.4435 44.0594 22.4435Z" fill="#E0E0E0"/>
<path d="M46.621 27.1913H41.4993C41.2955 27.1913 41.1001 27.1103 40.956 26.9662C40.8119 26.8221 40.731 26.6267 40.731 26.4229C40.731 26.2191 40.8119 26.0237 40.956 25.8796C41.1001 25.7355 41.2955 25.6545 41.4993 25.6545H46.6221C46.8259 25.6545 47.0213 25.7355 47.1654 25.8796C47.3095 26.0237 47.3905 26.2191 47.3905 26.4229C47.3905 26.6267 47.3095 26.8221 47.1654 26.9662C47.0213 27.1103 46.8259 27.1913 46.6221 27.1913H46.621Z" fill="#EEFAFF"/>
<path d="M46.621 30.8961H41.4993C41.2955 30.8961 41.1001 30.8151 40.956 30.671C40.8119 30.5269 40.731 30.3315 40.731 30.1277C40.731 29.9239 40.8119 29.7285 40.956 29.5844C41.1001 29.4403 41.2955 29.3593 41.4993 29.3593H46.6221C46.8259 29.3593 47.0213 29.4403 47.1654 29.5844C47.3095 29.7285 47.3905 29.9239 47.3905 30.1277C47.3905 30.3315 47.3095 30.5269 47.1654 30.671C47.0213 30.8151 46.8259 30.8961 46.6221 30.8961H46.621Z" fill="#EEFAFF"/>
<path d="M5.27858 29.1007L4.25391 25.3959V5.11999C4.25391 4.93528 4.32728 4.75814 4.45789 4.62753C4.58849 4.49693 4.76563 4.42355 4.95034 4.42355H32.2466C32.4313 4.42355 32.6084 4.49693 32.739 4.62753C32.8696 4.75814 32.943 4.93528 32.943 5.11999V25.3988L31.9183 29.1036H5.27858V29.1007Z" fill="#E0E0E0"/>
<path d="M32.9429 25.3982H4.25488V29.4313C4.25488 29.616 4.32826 29.7931 4.45886 29.9237C4.58947 30.0543 4.76661 30.1277 4.95132 30.1277H32.2464C32.4311 30.1277 32.6083 30.0543 32.7389 29.9237C32.8695 29.7931 32.9429 29.616 32.9429 29.4313V25.3982Z" fill="#EFAF00"/>
<path d="M22.8986 25.3988H14.2999C13.5722 25.3988 12.8682 25.1407 12.313 24.6703C11.7579 24.1999 11.3876 23.5478 11.2681 22.83L10.8063 20.062C10.7897 19.9624 10.795 19.8604 10.8218 19.763C10.8486 19.6657 10.8962 19.5754 10.9614 19.4983C11.0265 19.4212 11.1077 19.3591 11.1992 19.3165C11.2907 19.2739 11.3904 19.2516 11.4913 19.2513H25.7054C25.8064 19.2516 25.9061 19.2739 25.9976 19.3165C26.0891 19.3591 26.1702 19.4212 26.2354 19.4983C26.3005 19.5754 26.3481 19.6657 26.3749 19.763C26.4017 19.8604 26.407 19.9624 26.3905 20.062L25.9292 22.83C25.8097 23.5475 25.4395 24.1994 24.8846 24.6698C24.3297 25.1401 23.626 25.3984 22.8986 25.3988Z" fill="#F37C7B"/>
<path d="M20.993 15.7161C20.8368 15.7163 20.6843 15.6688 20.5558 15.5801C20.4273 15.4914 20.3288 15.3656 20.2736 15.2196C20.2183 15.0735 20.2089 14.9141 20.2466 14.7625C20.2842 14.6109 20.3672 14.4744 20.4844 14.3712C21.166 13.7701 21.2173 13.4527 21.2173 13.3699C21.2173 13.1251 20.8115 12.7745 20.4541 12.4651C19.8793 11.9674 19.164 11.348 19.168 10.4055C19.1708 9.67884 19.5927 8.98241 20.4946 8.21519C20.6498 8.08309 20.8511 8.01805 21.0543 8.03438C21.2574 8.0507 21.4457 8.14706 21.5778 8.30224C21.7099 8.45742 21.775 8.65873 21.7586 8.86186C21.7423 9.065 21.646 9.25333 21.4908 9.38543C20.7629 10.0048 20.7053 10.3279 20.7047 10.4129C20.7047 10.6493 21.1043 10.9969 21.4599 11.304C22.0348 11.8018 22.7495 12.4212 22.7535 13.3637C22.7569 14.0715 22.347 14.7782 21.4976 15.5243C21.3575 15.6485 21.1768 15.7169 20.9896 15.7167L20.993 15.7161Z" fill="white"/>
<path d="M16.2689 15.7161C16.1128 15.7162 15.9603 15.6688 15.8318 15.5801C15.7032 15.4913 15.6048 15.3656 15.5495 15.2195C15.4943 15.0734 15.4849 14.914 15.5225 14.7624C15.5602 14.6109 15.6431 14.4744 15.7603 14.3712C16.4419 13.7701 16.4933 13.4527 16.4927 13.3699C16.4927 13.125 16.0869 12.7745 15.7295 12.4651C15.1547 11.9673 14.4394 11.3479 14.4434 10.4055C14.4462 9.67878 14.8681 8.98235 15.77 8.21513C15.9252 8.08303 16.1265 8.01799 16.3297 8.03432C16.5328 8.05064 16.7211 8.147 16.8532 8.30218C16.9853 8.45736 17.0503 8.65866 17.034 8.8618C17.0177 9.06494 16.9213 9.25327 16.7662 9.38537C16.0383 10.0047 15.9807 10.3278 15.9801 10.4129C15.9801 10.6492 16.3797 10.9969 16.7353 11.304C17.3102 11.8018 18.0249 12.4211 18.0289 13.3636C18.0323 14.0715 17.6219 14.7782 16.773 15.5243C16.6338 15.6472 16.4547 15.7154 16.2689 15.7161Z" fill="white"/>
<path d="M7.3289 4.42355V30.1283H4.95132C4.76661 30.1283 4.58947 30.0549 4.45886 29.9243C4.32826 29.7937 4.25488 29.6165 4.25488 29.4318V5.11999C4.25488 4.93528 4.32826 4.75814 4.45886 4.62753C4.58947 4.49693 4.76661 4.42355 4.95132 4.42355H7.3289Z" fill="#A39B9B"/>
<path d="M7.3289 25.3982V30.1277H4.95132C4.76661 30.1277 4.58947 30.0543 4.45886 29.9237C4.32826 29.7931 4.25488 29.616 4.25488 29.4313V25.3982H7.3289Z" fill="#E7871E"/>
</svg>
