<svg width="33" height="43" viewBox="0 0 33 43" fill="none" xmlns="http://www.w3.org/2000/svg">
<path d="M5.48596 12.5561L3.61814 10.585L1.08986 7.91511C1.01123 7.83198 0.958677 7.72763 0.938691 7.61496C0.918705 7.50229 0.932159 7.38623 0.977396 7.28112C1.02263 7.17601 1.09767 7.08646 1.19324 7.02352C1.2888 6.96058 1.40071 6.92702 1.51514 6.92697H5.08808L5.48596 12.5561Z" fill="#BDB4A7"/>
<path d="M32.4495 11.2272V16.1787C32.4478 17.9637 31.7535 19.6783 30.5128 20.9616C29.2721 22.2449 27.5819 22.9966 25.798 23.0586C25.7215 23.0586 25.6433 23.0632 25.5657 23.0632H20.9458V19.6209H25.5657C26.0179 19.6215 26.4657 19.5328 26.8836 19.36C27.3014 19.1872 27.6811 18.9337 28.0009 18.6139C28.3206 18.2942 28.5741 17.9145 28.7469 17.4966C28.9197 17.0788 29.0084 16.6309 29.0079 16.1787V11.2272C29.0077 10.9991 28.917 10.7804 28.7557 10.6191C28.5944 10.4578 28.3757 10.3671 28.1476 10.3669H21.7627V6.92471H28.1476C29.2882 6.92622 30.3816 7.38002 31.1881 8.18658C31.9945 8.99314 32.4482 10.0866 32.4495 11.2272Z" fill="#BDB4A7"/>
<path d="M21.4526 27.3354L20.364 26.4751H9.74622L8.86198 27.3354C8.22661 27.3353 7.61354 27.5695 7.1401 27.9932C6.66667 28.417 6.36613 29.0004 6.29602 29.6319L4.83008 42.8248H25.4822L24.0163 29.6319C23.9462 29.0004 23.6456 28.417 23.1722 27.9932C22.6988 27.5695 22.0857 27.3353 21.4503 27.3354H21.4526Z" fill="#E0E0E0"/>
<path d="M23.8864 29.0565H13.1658C12.53 29.0557 11.9162 29.2896 11.4422 29.7134C10.9681 30.1372 10.6672 30.721 10.597 31.353L9.32233 42.8271H4.82861L6.29398 29.6348C6.36414 29.0028 6.66509 28.4189 7.13913 27.9952C7.61317 27.5714 8.22694 27.3374 8.86279 27.3382H21.4523C21.9859 27.3377 22.5065 27.5027 22.9425 27.8104C23.3784 28.1182 23.7082 28.5535 23.8864 29.0565Z" fill="#CCCCCC"/>
<path d="M19.0303 3.87294H11.2861V1.67289C11.2861 1.22939 11.4623 0.80405 11.7758 0.490396C12.0894 0.176742 12.5146 0.00045654 12.9581 0.000305176L17.3571 0.000305176C17.8007 0.000305176 18.2261 0.176523 18.5398 0.490194C18.8535 0.803865 19.0297 1.22929 19.0297 1.67289L19.0303 3.87294Z" fill="#CCCCCC"/>
<path d="M5.08816 6.92468L5.56482 7.70617L5.79887 11.6348L5.48604 12.5561L3.6188 10.5844L3.35449 6.92639L5.08816 6.92468Z" fill="#4E4E4E"/>
<path d="M25.5652 19.6215C25.7268 19.6216 25.8881 19.6103 26.0481 19.5878L25.7975 23.0591C25.721 23.0591 25.6428 23.0637 25.5652 23.0637H20.9453V19.6215H25.5652Z" fill="#4E4E4E"/>
<path d="M26.962 6.92468L26.7131 10.3669H21.7627V6.92468H26.962Z" fill="#4E4E4E"/>
<path d="M5.87551 6.32928L5.08203 6.92582L5.64261 14.6985L5.85839 16.5897H24.4612L24.677 14.6985L25.2398 6.89385L24.903 6.32986L5.87551 6.32928Z" fill="#E0E0E0"/>
<path d="M9.94305 14.6979L9.38305 6.9247L9.33966 6.32874H5.87347L5.08057 6.9247L5.64057 14.6979L5.777 16.5892H10.0801L10.023 15.802L9.94305 14.6979Z" fill="#CCCCCC"/>
<path d="M25.2847 6.25053L25.2385 6.89331L25.2048 6.92528H5.08071L5.03162 6.25053C5.00605 5.8968 5.05365 5.54159 5.17145 5.20706C5.28924 4.87254 5.47471 4.56587 5.71627 4.3062C5.95784 4.04653 6.25033 3.83943 6.57548 3.6978C6.90064 3.55618 7.25149 3.48308 7.60615 3.48306H22.7096C23.0644 3.483 23.4153 3.55605 23.7405 3.69763C24.0657 3.83922 24.3583 4.04632 24.5999 4.306C24.8415 4.56567 25.027 4.87236 25.1449 5.20693C25.2627 5.54149 25.3103 5.89675 25.2847 6.25053Z" fill="#BDB4A7"/>
<path d="M9.3341 6.25053L9.3832 6.92528H5.08071L5.03162 6.25053C5.00605 5.8968 5.05365 5.54159 5.17144 5.20706C5.28924 4.87254 5.47471 4.56587 5.71627 4.3062C5.95784 4.04653 6.25033 3.83943 6.57548 3.6978C6.90064 3.55618 7.25149 3.48308 7.60615 3.48306H11.9075C11.5529 3.48324 11.2022 3.55645 10.8772 3.69815C10.5522 3.83984 10.2598 4.04697 10.0184 4.30662C9.77692 4.56627 9.59156 4.87288 9.47383 5.20733C9.35611 5.54178 9.30854 5.89689 9.3341 6.25053Z" fill="#4E4E4E"/>
<path d="M24.675 14.698L23.9357 24.9395C23.8893 25.5906 23.5978 26.2 23.1202 26.6448C22.6425 27.0897 22.014 27.337 21.3612 27.3371H8.9544C8.30165 27.337 7.67316 27.0897 7.19547 26.6448C6.71778 26.2 6.42636 25.5906 6.37988 24.9395L5.64062 14.698C11.9325 18.1425 15.1578 12.2342 24.675 14.698Z" fill="#EFAF00"/>
<path d="M13.2569 27.3354H8.9544C8.30165 27.3353 7.67316 27.0879 7.19547 26.6431C6.71778 26.1982 6.42636 25.5889 6.37988 24.9378L5.64062 14.6962C6.96959 15.4664 8.48777 15.8489 10.023 15.8002L10.6824 24.9378C10.7288 25.5889 11.0203 26.1982 11.498 26.6431C11.9756 27.0879 12.6041 27.3353 13.2569 27.3354Z" fill="#E7871E"/>
<path d="M15.1575 39.3826C16.5832 39.3826 17.7389 38.2268 17.7389 36.8012C17.7389 35.3755 16.5832 34.2198 15.1575 34.2198C13.7319 34.2198 12.5762 35.3755 12.5762 36.8012C12.5762 38.2268 13.7319 39.3826 15.1575 39.3826Z" fill="#EFAF00"/>
<path d="M15.1578 32.8857C14.9866 32.8857 14.8224 32.8177 14.7013 32.6966C14.5802 32.5755 14.5122 32.4113 14.5122 32.2401V30.9494C14.5172 30.7816 14.5874 30.6223 14.7079 30.5053C14.8283 30.3884 14.9896 30.323 15.1575 30.323C15.3255 30.323 15.4868 30.3884 15.6072 30.5053C15.7277 30.6223 15.7979 30.7816 15.8029 30.9494V32.2407C15.8027 32.4117 15.7347 32.5757 15.6138 32.6966C15.4929 32.8176 15.3289 32.8856 15.1578 32.8857Z" fill="#E7871E"/>
<path d="M11.9322 34.2215C11.8474 34.2217 11.7634 34.2051 11.685 34.1727C11.6067 34.1403 11.5355 34.0926 11.4756 34.0326L10.5622 33.1192C10.4411 32.9981 10.373 32.8339 10.373 32.6626C10.373 32.4913 10.4411 32.327 10.5622 32.2059C10.6833 32.0848 10.8476 32.0167 11.0189 32.0167C11.1902 32.0167 11.3544 32.0848 11.4756 32.2059L12.3889 33.1192C12.4791 33.2096 12.5404 33.3246 12.5653 33.4498C12.5901 33.5749 12.5773 33.7047 12.5284 33.8226C12.4795 33.9405 12.3968 34.0412 12.2907 34.1121C12.1846 34.1831 12.0599 34.2209 11.9322 34.221V34.2215Z" fill="#E7871E"/>
<path d="M10.5981 37.4463H9.3074C9.22104 37.4489 9.13504 37.4341 9.0545 37.4028C8.97395 37.3715 8.90052 37.3244 8.83852 37.2642C8.77652 37.204 8.72723 37.132 8.69358 37.0524C8.65992 36.9729 8.64258 36.8873 8.64258 36.8009C8.64258 36.7145 8.65992 36.629 8.69358 36.5494C8.72723 36.4699 8.77652 36.3979 8.83852 36.3377C8.90052 36.2775 8.97395 36.2304 9.0545 36.1991C9.13504 36.1678 9.22104 36.153 9.3074 36.1556H10.5981C10.6845 36.153 10.7704 36.1678 10.851 36.1991C10.9315 36.2304 11.005 36.2775 11.067 36.3377C11.129 36.3979 11.1783 36.4699 11.2119 36.5494C11.2456 36.629 11.2629 36.7145 11.2629 36.8009C11.2629 36.8873 11.2456 36.9729 11.2119 37.0524C11.1783 37.132 11.129 37.204 11.067 37.2642C11.005 37.3244 10.9315 37.3715 10.851 37.4028C10.7704 37.4341 10.6845 37.4489 10.5981 37.4463Z" fill="#E7871E"/>
<path d="M21.0112 37.4463H19.7205C19.6341 37.4489 19.5481 37.4341 19.4676 37.4028C19.387 37.3715 19.3136 37.3244 19.2516 37.2642C19.1896 37.204 19.1403 37.132 19.1067 37.0524C19.073 36.9729 19.0557 36.8873 19.0557 36.8009C19.0557 36.7145 19.073 36.629 19.1067 36.5494C19.1403 36.4699 19.1896 36.3979 19.2516 36.3377C19.3136 36.2775 19.387 36.2304 19.4676 36.1991C19.5481 36.1678 19.6341 36.153 19.7205 36.1556H21.0112C21.179 36.1606 21.3383 36.2308 21.4553 36.3512C21.5722 36.4717 21.6376 36.633 21.6376 36.8009C21.6376 36.9688 21.5722 37.1302 21.4553 37.2506C21.3383 37.3711 21.179 37.4413 21.0112 37.4463Z" fill="#E7871E"/>
<path d="M18.3827 34.2215C18.255 34.2215 18.1303 34.1836 18.0242 34.1127C17.9181 34.0418 17.8354 33.941 17.7865 33.8231C17.7376 33.7052 17.7248 33.5755 17.7496 33.4503C17.7745 33.3251 17.8358 33.2101 17.926 33.1198L18.8393 32.2064C18.9605 32.0853 19.1247 32.0173 19.296 32.0173C19.4673 32.0173 19.6316 32.0853 19.7527 32.2064C19.8738 32.3275 19.9419 32.4918 19.9419 32.6631C19.9419 32.8344 19.8738 32.9987 19.7527 33.1198L18.8393 34.0332C18.7794 34.0931 18.7082 34.1406 18.6298 34.173C18.5514 34.2053 18.4674 34.2218 18.3827 34.2215Z" fill="#E7871E"/>
<path d="M15.1581 36.1555C14.9869 36.1555 14.8227 36.0875 14.7016 35.9664C14.5805 35.8453 14.5125 35.6811 14.5125 35.5099V34.2192C14.5099 34.1328 14.5247 34.0468 14.556 33.9663C14.5873 33.8858 14.6344 33.8123 14.6946 33.7503C14.7547 33.6883 14.8268 33.639 14.9063 33.6054C14.9859 33.5717 15.0714 33.5544 15.1578 33.5544C15.2442 33.5544 15.3298 33.5717 15.4093 33.6054C15.4889 33.639 15.5609 33.6883 15.6211 33.7503C15.6813 33.8123 15.7284 33.8858 15.7597 33.9663C15.791 34.0468 15.8057 34.1328 15.8032 34.2192V35.5099C15.8032 35.681 15.7352 35.8452 15.6143 35.9662C15.4933 36.0873 15.3293 36.1554 15.1581 36.1555Z" fill="#E0E0E0"/>
</svg>
