<svg width="44" height="40" viewBox="0 0 44 40" fill="none" xmlns="http://www.w3.org/2000/svg">
<path d="M37.6141 31.1683C37.6094 31.956 37.2945 32.71 36.7375 33.267C36.1805 33.824 35.4265 34.1389 34.6388 34.1436H9.27946C8.49181 34.1389 7.73773 33.824 7.18077 33.267C6.6238 32.71 6.30884 31.956 6.3042 31.1683V25.3599C6.30884 24.5723 6.6238 23.8182 7.18077 23.2612C7.73773 22.7043 8.49181 22.3893 9.27946 22.3847H34.6388C35.4265 22.3893 36.1805 22.7043 36.7375 23.2612C37.2945 23.8182 37.6094 24.5723 37.6141 25.3599V31.1683Z" fill="#4E4E4E"/>
<path d="M37.6141 31.7346C37.6096 32.5223 37.2947 33.2766 36.7377 33.8337C36.1807 34.3907 35.4266 34.7058 34.6388 34.7104H9.27946C8.49181 34.7058 7.73773 34.3908 7.18077 33.8339C6.6238 33.2769 6.30884 32.5228 6.3042 31.7352V25.9262C6.30884 25.1386 6.6238 24.3845 7.18077 23.8275C7.73773 23.2705 8.49181 22.9556 9.27946 22.9509H34.6388C35.4265 22.9556 36.1805 23.2705 36.7375 23.8275C37.2945 24.3845 37.6094 25.1386 37.6141 25.9262V31.7346Z" fill="#BDB4A7"/>
<path d="M16.4339 19.1263H7.43737V16.4347C7.43737 16.1529 7.32542 15.8826 7.12614 15.6833C6.92685 15.484 6.65657 15.3721 6.37474 15.3721C6.09291 15.3721 5.82263 15.484 5.62335 15.6833C5.42406 15.8826 5.31211 16.1529 5.31211 16.4347V19.1263H3.47055L2.4082 20.1886V25.3616C2.4082 25.6435 2.52016 25.9137 2.71944 26.113C2.91872 26.3123 3.18901 26.4243 3.47084 26.4243C3.75267 26.4243 4.02295 26.3123 4.22223 26.113C4.42151 25.9137 4.53347 25.6435 4.53347 25.3616V21.1825H16.4339C16.7136 21.1757 16.9798 21.0615 17.1776 20.8638C17.3754 20.666 17.4895 20.3997 17.4963 20.1201C17.4756 19.8516 17.355 19.6006 17.1584 19.4166C16.9617 19.2326 16.7032 19.129 16.4339 19.1263Z" fill="#BDB4A7"/>
<path d="M5.38346 18.3465V21.038H3.47112L2.4082 22.101V25.3594C2.4082 25.6412 2.52016 25.9115 2.71944 26.1108C2.91872 26.31 3.18901 26.422 3.47084 26.422C3.75266 26.422 4.02295 26.31 4.22223 26.1108C4.42151 25.9115 4.53347 25.6412 4.53347 25.3594V21.1094H16.4339C16.5793 21.1207 16.7253 21.0964 16.8592 21.0386C16.7253 20.9808 16.5793 20.9566 16.4339 20.9678H7.43737" fill="#BDB4A7"/>
<path d="M27.4847 19.1263H36.4807V16.4347C36.4807 16.1529 36.5927 15.8826 36.7919 15.6833C36.9912 15.484 37.2615 15.3721 37.5433 15.3721C37.8252 15.3721 38.0955 15.484 38.2947 15.6833C38.494 15.8826 38.606 16.1529 38.606 16.4347V19.1263H40.5183L41.5807 20.1886V25.3616C41.5807 25.6435 41.4687 25.9137 41.2694 26.113C41.0702 26.3123 40.7999 26.4243 40.518 26.4243C40.2362 26.4243 39.9659 26.3123 39.7666 26.113C39.5674 25.9137 39.4554 25.6435 39.4554 25.3616V21.1825H27.4847C27.2051 21.1757 26.9388 21.0615 26.7411 20.8638C26.5433 20.666 26.4292 20.3997 26.4224 20.1201C26.4431 19.8516 26.5636 19.6006 26.7603 19.4166C26.957 19.2326 27.2154 19.129 27.4847 19.1263Z" fill="#BDB4A7"/>
<path d="M38.5341 18.3465V21.0381H40.4464L41.5088 22.1004V25.3588C41.5088 25.6406 41.3968 25.9109 41.1976 26.1102C40.9983 26.3095 40.728 26.4214 40.4462 26.4214C40.1643 26.4214 39.894 26.3095 39.6948 26.1102C39.4955 25.9109 39.3835 25.6406 39.3835 25.3588V21.1094H27.4853C27.3399 21.1207 27.194 21.0964 27.0601 21.0386C27.194 20.9809 27.3399 20.9566 27.4853 20.9678H36.4791" fill="#BDB4A7"/>
<path d="M6.65921 38.5351C6.65482 38.7779 6.5564 39.0096 6.38466 39.1813C6.21292 39.3531 5.98126 39.4515 5.73843 39.4559H3.25867C3.01584 39.4515 2.78418 39.3531 2.61244 39.1813C2.44071 39.0096 2.34229 38.7779 2.33789 38.5351V35.8436C2.34229 35.6007 2.44071 35.3691 2.61244 35.1973C2.78418 35.0256 3.01584 34.9272 3.25867 34.9228H5.73786C5.98069 34.9272 6.21235 35.0256 6.38409 35.1973C6.55582 35.3691 6.65425 35.6007 6.65864 35.8436L6.65921 38.5351Z" fill="#BDB4A7"/>
<path d="M41.5103 38.5351C41.5059 38.7779 41.4075 39.0096 41.2357 39.1813C41.064 39.3531 40.8323 39.4515 40.5895 39.4559H38.1103C37.8674 39.4516 37.6356 39.3533 37.4637 39.1815C37.2919 39.0098 37.1934 38.778 37.189 38.5351V35.8436C37.1934 35.6007 37.2918 35.3691 37.4635 35.1973C37.6353 35.0256 37.8669 34.9272 38.1097 34.9228H40.5889C40.8318 34.9272 41.0634 35.0256 41.2352 35.1973C41.4069 35.3691 41.5053 35.6007 41.5097 35.8436L41.5103 38.5351Z" fill="#BDB4A7"/>
<path d="M43.9188 35.0643C43.9188 36.6228 43.3519 37.898 41.7935 37.898H2.12527C0.566852 37.8992 0 36.6228 0 35.0643V26.9183C0.00210884 26.1674 0.301335 25.4479 0.832298 24.9169C1.36326 24.386 2.0828 24.0868 2.83369 24.0847H41.0851C41.836 24.0868 42.5555 24.386 43.0865 24.9169C43.6174 25.4479 43.9167 26.1674 43.9188 26.9183V35.0643Z" fill="#4E4E4E"/>
<path d="M0 26.9183C0.00210884 26.1674 0.301335 25.4479 0.832298 24.9169C1.36326 24.386 2.0828 24.0868 2.83369 24.0847H41.0851C41.836 24.0868 42.5555 24.386 43.0865 24.9169C43.6174 25.4479 43.9167 26.1674 43.9188 26.9183V35.0643C43.9188 36.6228 43.3519 37.898 41.7935 37.898" fill="#BDB4A7"/>
<path d="M25.3599 30.4599C25.3599 31.3617 25.0017 32.2266 24.364 32.8642C23.7263 33.5019 22.8615 33.8601 21.9597 33.8601C21.0579 33.8601 20.193 33.5019 19.5553 32.8642C18.9177 32.2266 18.5594 31.3617 18.5594 30.4599C18.5394 29.5322 18.8845 28.6337 19.5204 27.958C20.1563 27.2823 21.0322 26.8833 21.9594 26.847C23.8015 26.847 25.3599 28.6166 25.3599 30.4599Z" fill="#CBE8EF"/>
<path d="M25.36 30.4599C25.36 32.3014 23.8724 35.4183 21.96 35.4183C20.1185 35.4183 18.5601 32.3722 18.5601 30.4599C18.5601 28.5475 20.0477 27.2723 21.96 27.2723C22.3934 27.2548 22.826 27.3238 23.2325 27.4751C23.639 27.6265 24.0113 27.8572 24.3277 28.1539C24.6442 28.4506 24.8984 28.8072 25.0756 29.2031C25.2529 29.599 25.3495 30.0262 25.36 30.4599Z" fill="#071823"/>
<path d="M21.9595 33.8599C23.8373 33.8599 25.3595 32.3376 25.3595 30.4599C25.3595 28.5821 23.8373 27.0599 21.9595 27.0599C20.0818 27.0599 18.5596 28.5821 18.5596 30.4599C18.5596 32.3376 20.0818 33.8599 21.9595 33.8599Z" fill="#EFAF00"/>
<path d="M24.3676 28.0515C24.9937 28.6928 25.3418 29.5551 25.3364 30.4514C25.331 31.3477 24.9725 32.2057 24.3388 32.8395C23.705 33.4732 22.847 33.8317 21.9507 33.8371C21.0544 33.8425 20.1921 33.4944 19.5508 32.8683" fill="#E7871E"/>
<path d="M23.6596 29.1133C23.816 29.1133 23.9427 28.9865 23.9427 28.8301C23.9427 28.6737 23.816 28.547 23.6596 28.547C23.5032 28.547 23.3765 28.6737 23.3765 28.8301C23.3765 28.9865 23.5032 29.1133 23.6596 29.1133Z" fill="#4E4E4E"/>
<path d="M22.243 0C19.1262 1.34606 16.8594 5.59431 16.8594 10.6966C16.8594 15.7988 19.1262 20.047 22.243 21.3931V0Z" fill="#E7871E"/>
<path d="M22.2422 5.45447C24.5798 6.44603 26.2798 9.63364 26.2798 13.4589C26.2798 17.2842 24.5798 20.401 22.2422 21.4633V5.45447Z" fill="#E7871E"/>
<path d="M17.6387 11.7589C17.6387 16.2218 19.551 19.9763 22.2431 21.251V2.26683C19.551 3.54211 17.6387 7.296 17.6387 11.7589Z" fill="#EFAF00"/>
</svg>
