<svg width="49" height="41" viewBox="0 0 49 41" fill="none" xmlns="http://www.w3.org/2000/svg">
<path d="M47.5866 24.9517H12.2762C11.9013 24.9517 11.5418 25.1006 11.2768 25.3657C11.0117 25.6308 10.8628 25.9903 10.8628 26.3651V39.4113C10.8628 39.7862 11.0117 40.1457 11.2768 40.4107C11.5418 40.6758 11.9013 40.8247 12.2762 40.8247H47.5866C47.9615 40.8247 48.321 40.6758 48.586 40.4107C48.8511 40.1457 49 39.7862 49 39.4113V26.3651C49 25.9903 48.8511 25.6308 48.586 25.3657C48.321 25.1006 47.9615 24.9517 47.5866 24.9517Z" fill="#BDB4A7"/>
<path d="M7.26205 13.5662H4.88675C3.79301 13.5675 2.74446 14.0026 1.97107 14.776C1.19768 15.5494 0.76259 16.5979 0.76123 17.6917L0.76123 25.1355C0.76259 26.2293 1.19768 27.2778 1.97107 28.0512C2.74446 28.8246 3.79301 29.2597 4.88675 29.2611H7.26205C8.35589 29.2598 9.40459 28.8248 10.1781 28.0514C10.9516 27.278 11.3868 26.2294 11.3881 25.1355V17.6917C11.3868 16.5978 10.9516 15.5492 10.1781 14.7758C9.40459 14.0024 8.35589 13.5674 7.26205 13.5662ZM8.5613 25.1355C8.56085 25.48 8.42382 25.8102 8.18026 26.0537C7.9367 26.2973 7.60649 26.4343 7.26205 26.4348H4.88675C4.54231 26.4343 4.2121 26.2973 3.96854 26.0537C3.72498 25.8102 3.58795 25.48 3.5875 25.1355V17.6917C3.58795 17.3472 3.72498 17.017 3.96854 16.7735C4.2121 16.5299 4.54231 16.3929 4.88675 16.3924H7.26205C7.60649 16.3929 7.9367 16.5299 8.18026 16.7735C8.42382 17.017 8.56085 17.3472 8.5613 17.6917V25.1355Z" fill="#BDB4A7"/>
<path d="M27.1492 2.49741C26.5547 1.83695 25.828 1.30877 25.0163 0.947084C24.2046 0.585395 23.326 0.398268 22.4374 0.397827L10.2475 0.397827C9.35894 0.398038 8.48036 0.585131 7.6688 0.946958C6.85724 1.30879 6.13085 1.83726 5.53681 2.49806C4.94276 3.15885 4.49434 3.93721 4.22065 4.78257C3.94697 5.62794 3.85414 6.52142 3.9482 7.40499L7.37329 39.5614C7.41035 39.9083 7.57439 40.2293 7.83385 40.4625C8.0933 40.6957 8.42985 40.8247 8.77872 40.8247H23.9119C24.2608 40.8247 24.5973 40.6957 24.8568 40.4625C25.1162 40.2293 25.2803 39.9083 25.3173 39.5614L28.7424 7.40499C28.8363 6.52101 28.7433 5.62717 28.4696 4.78144C28.1958 3.9357 27.7473 3.15695 27.1532 2.49569L27.1492 2.49741Z" fill="#EFAF00"/>
<path d="M27.1489 2.49741C26.5544 1.83695 25.8278 1.30877 25.0161 0.947084C24.2044 0.585395 23.3258 0.398268 22.4371 0.397827L16.3428 0.397827V40.8247H23.9094C24.2582 40.8247 24.5948 40.6957 24.8542 40.4625C25.1137 40.2293 25.2777 39.9083 25.3148 39.5614L28.7399 7.40499C28.8338 6.52101 28.7408 5.62717 28.467 4.78144C28.1932 3.9357 27.7447 3.15695 27.1506 2.49569L27.1489 2.49741Z" fill="#E7871E"/>
<path d="M28.7379 7.40499C28.8319 6.52132 28.7391 5.62775 28.4653 4.7823C28.1916 3.93686 27.743 3.15845 27.1489 2.49763C26.5547 1.83681 25.8282 1.30837 25.0165 0.94661C24.2048 0.584853 23.3261 0.397878 22.4374 0.397827L10.2475 0.397827C9.35894 0.398038 8.48036 0.585131 7.6688 0.946958C6.85724 1.30879 6.13085 1.83726 5.53681 2.49806C4.94276 3.15885 4.49434 3.93721 4.22065 4.78257C3.94697 5.62794 3.85414 6.52142 3.9482 7.40499L4.05438 8.40569H28.6317L28.7379 7.40499Z" fill="#F5F6FA"/>
<path d="M7.37077 39.5614C7.40782 39.9083 7.57187 40.2293 7.83132 40.4625C8.09078 40.6957 8.42733 40.8247 8.7762 40.8247H23.9094C24.2581 40.8245 24.5943 40.6953 24.8535 40.4621C25.1128 40.2289 25.2766 39.9081 25.3137 39.5614L27.975 14.5663H4.70947L7.37077 39.5614Z" fill="#F5F6FA"/>
<path d="M27.1489 2.49741C26.5544 1.83695 25.8278 1.30877 25.0161 0.947084C24.2044 0.585395 23.3258 0.398268 22.4371 0.397827L16.3428 0.397827V8.40569H28.632L28.7382 7.40499C28.8321 6.52101 28.7391 5.62717 28.4653 4.78144C28.1915 3.9357 27.743 3.15695 27.1489 2.49569V2.49741Z" fill="#CDCDCD"/>
<path d="M16.3428 14.5663V40.8253H23.9094C24.2582 40.8253 24.5948 40.6963 24.8542 40.4631C25.1137 40.2298 25.2777 39.9089 25.3148 39.562L27.9761 14.5669L16.3428 14.5663Z" fill="#CDCDCD"/>
<path d="M10.993 21.1447H9.40032C9.21235 21.1409 9.02553 21.1747 8.85077 21.244C8.67601 21.3133 8.51684 21.4168 8.38257 21.5484C8.2483 21.68 8.14164 21.8371 8.06882 22.0104C7.996 22.1837 7.9585 22.3699 7.9585 22.5579C7.9585 22.7459 7.996 22.932 8.06882 23.1053C8.14164 23.2786 8.2483 23.4357 8.38257 23.5673C8.51684 23.6989 8.67601 23.8024 8.85077 23.8717C9.02553 23.941 9.21235 23.9748 9.40032 23.971H10.993C11.181 23.9748 11.3678 23.941 11.5425 23.8717C11.7173 23.8024 11.8765 23.6989 12.0107 23.5673C12.145 23.4357 12.2517 23.2786 12.3245 23.1053C12.3973 22.932 12.4348 22.7459 12.4348 22.5579C12.4348 22.3699 12.3973 22.1837 12.3245 22.0104C12.2517 21.8371 12.145 21.68 12.0107 21.5484C11.8765 21.4168 11.7173 21.3133 11.5425 21.244C11.3678 21.1747 11.181 21.1409 10.993 21.1447Z" fill="#FFC144"/>
<path d="M33.8208 33.6549C33.8188 33.2813 33.669 32.9237 33.4042 32.6602C33.1393 32.3968 32.7809 32.2489 32.4074 32.2489H6.13007C5.93162 32.2485 5.73532 32.2899 5.55394 32.3704C5.37257 32.4509 5.21019 32.5687 5.07738 32.7162C4.94458 32.8636 4.84433 33.0374 4.78315 33.2262C4.72198 33.415 4.70127 33.6145 4.72236 33.8118L5.3343 39.5614C5.37136 39.9083 5.5354 40.2293 5.79486 40.4625C6.05432 40.6957 6.39086 40.8247 6.73973 40.8247H32.4376C32.6239 40.8248 32.8083 40.7881 32.9803 40.7166C33.1523 40.6451 33.3085 40.5403 33.4398 40.4083C33.5712 40.2762 33.6752 40.1195 33.7457 39.9471C33.8163 39.7748 33.8521 39.5901 33.851 39.4039L33.8208 33.6549Z" fill="#EFAF00"/>
<path d="M33.8227 33.6549C33.8208 33.2813 33.671 32.9237 33.4061 32.6602C33.1413 32.3967 32.7829 32.2489 32.4093 32.2489H16.3428V40.8247H32.4407C32.627 40.8248 32.8114 40.788 32.9834 40.7166C33.1554 40.6451 33.3116 40.5403 33.4429 40.4083C33.5743 40.2762 33.6783 40.1195 33.7488 39.9471C33.8194 39.7748 33.8552 39.5901 33.8541 39.4039L33.8227 33.6549Z" fill="#E7871E"/>
<path d="M42.4243 12.9017H37.6006C36.737 12.9016 35.8819 13.0716 35.084 13.402C34.2862 13.7325 33.5612 14.2168 32.9506 14.8274C32.3399 15.438 31.8555 16.1629 31.525 16.9608C31.1945 17.7586 31.0244 18.6137 31.0244 19.4773V40.827H47.5864C47.7721 40.8271 47.9559 40.7906 48.1274 40.7196C48.2989 40.6486 48.4548 40.5444 48.586 40.4132C48.7173 40.2819 48.8214 40.1261 48.8924 39.9546C48.9634 39.783 48.9999 39.5992 48.9999 39.4136V19.4796C48.9999 18.616 48.8298 17.7609 48.4993 16.9631C48.1688 16.1652 47.6844 15.4403 47.0737 14.8297C46.463 14.2191 45.7381 13.7348 44.9402 13.4043C44.1424 13.0739 43.2872 12.9039 42.4237 12.904L42.4243 12.9017Z" fill="#F5F6FA"/>
<path d="M42.424 12.9017H40.0122V40.8247H47.5868C47.9616 40.8247 48.3212 40.6758 48.5862 40.4107C48.8513 40.1457 49.0002 39.7862 49.0002 39.4113V19.4773C49.0002 18.6137 48.8301 17.7586 48.4996 16.9608C48.1691 16.1629 47.6847 15.438 47.074 14.8274C46.4634 14.2168 45.7384 13.7325 44.9406 13.402C44.1427 13.0716 43.2876 12.9016 42.424 12.9017Z" fill="#CDCDCD"/>
<path d="M39.2157 22.8265H40.8084C41.1783 22.819 41.5305 22.6669 41.7894 22.4027C42.0484 22.1385 42.1934 21.7833 42.1934 21.4133C42.1934 21.0434 42.0484 20.6882 41.7894 20.424C41.5305 20.1598 41.1783 20.0076 40.8084 20.0002H39.2157C39.0278 19.9964 38.841 20.0302 38.6662 20.0995C38.4915 20.1688 38.3323 20.2723 38.198 20.4039C38.0637 20.5355 37.9571 20.6926 37.8843 20.8659C37.8114 21.0392 37.7739 21.2253 37.7739 21.4133C37.7739 21.6013 37.8114 21.7874 37.8843 21.9608C37.9571 22.1341 38.0637 22.2912 38.198 22.4228C38.3323 22.5543 38.4915 22.6578 38.6662 22.7272C38.841 22.7965 39.0278 22.8302 39.2157 22.8265Z" fill="#EFAF00"/>
<path d="M40.8085 20.0002H40.0122V22.8265H40.8085C40.9965 22.8302 41.1833 22.7965 41.3581 22.7272C41.5329 22.6578 41.692 22.5543 41.8263 22.4228C41.9605 22.2912 42.0672 22.1341 42.14 21.9608C42.2128 21.7874 42.2504 21.6013 42.2504 21.4133C42.2504 21.2253 42.2128 21.0392 42.14 20.8659C42.0672 20.6926 41.9605 20.5355 41.8263 20.4039C41.692 20.2723 41.5329 20.1688 41.3581 20.0995C41.1833 20.0302 40.9965 19.9964 40.8085 20.0002Z" fill="#E7871E"/>
<path d="M40.0119 28.334C39.1897 28.334 38.386 28.5778 37.7024 29.0345C37.0188 29.4913 36.486 30.1405 36.1714 30.9001C35.8568 31.6597 35.7745 32.4955 35.9349 33.3019C36.0953 34.1082 36.4912 34.8489 37.0725 35.4303C37.6539 36.0116 38.3946 36.4075 39.2009 36.5679C40.0073 36.7283 40.8431 36.646 41.6027 36.3314C42.3623 36.0168 43.0115 35.484 43.4683 34.8004C43.925 34.1168 44.1688 33.3131 44.1688 32.4909C44.1676 31.3888 43.7293 30.3322 42.9499 29.5529C42.1706 28.7735 41.114 28.3352 40.0119 28.334Z" fill="#EFAF00"/>
<path d="M40.0122 28.334V36.6478C41.1147 36.6478 42.172 36.2099 42.9516 35.4303C43.7312 34.6507 44.1691 33.5934 44.1691 32.4909C44.1691 31.3884 43.7312 30.3311 42.9516 29.5515C42.172 28.7719 41.1147 28.334 40.0122 28.334Z" fill="#E7871E"/>
<path d="M39.2161 26.9937H40.8087C41.1786 26.9862 41.5308 26.8341 41.7898 26.5699C42.0487 26.3057 42.1938 25.9505 42.1938 25.5805C42.1938 25.2106 42.0487 24.8554 41.7898 24.5912C41.5308 24.327 41.1786 24.1748 40.8087 24.1674H39.2161C38.8462 24.1748 38.494 24.327 38.235 24.5912C37.9761 24.8554 37.8311 25.2106 37.8311 25.5805C37.8311 25.9505 37.9761 26.3057 38.235 26.5699C38.494 26.8341 38.8462 26.9862 39.2161 26.9937Z" fill="#EFAF00"/>
<path d="M40.8085 24.1674H40.0122V26.9936H40.8085C40.9965 26.9974 41.1833 26.9637 41.3581 26.8943C41.5329 26.825 41.692 26.7215 41.8263 26.5899C41.9605 26.4583 42.0672 26.3013 42.14 26.1279C42.2128 25.9546 42.2504 25.7685 42.2504 25.5805C42.2504 25.3925 42.2128 25.2064 42.14 25.0331C42.0672 24.8597 41.9605 24.7027 41.8263 24.5711C41.692 24.4395 41.5329 24.336 41.3581 24.2667C41.1833 24.1973 40.9965 24.1636 40.8085 24.1674Z" fill="#E7871E"/>
</svg>
