<svg width="28" height="28" viewBox="0 0 28 28" fill="none" xmlns="http://www.w3.org/2000/svg">
<path d="M27.2574 13.4782C27.1363 13.7232 27.0463 13.991 26.8872 14.2082C26.6236 14.566 26.2361 14.7348 25.7939 14.7694C25.7338 14.7742 25.6729 14.7694 25.6127 14.7694H2.38864C1.56386 14.7694 0.948731 14.3003 0.779208 13.5488C0.730595 13.3292 0.730334 13.1017 0.778444 12.882C0.826553 12.6623 0.921879 12.4557 1.05781 12.2765C1.19375 12.0973 1.36704 11.9498 1.56566 11.8443C1.76428 11.7388 1.98347 11.6777 2.20805 11.6654C2.32014 11.6599 2.43293 11.6654 2.54502 11.6654C10.148 11.6654 17.7512 11.6622 25.3546 11.6557C26.2499 11.6557 26.9661 11.9387 27.2574 12.96V13.4782Z" fill="#D1D1D1"/>
<path d="M2.50416 16.3387H25.5116C25.4701 16.6958 25.4362 17.0431 25.3871 17.3884C25.1068 19.3639 24.702 21.311 23.9845 23.1799C23.5963 24.1908 23.1175 25.154 22.3716 25.9594C21.598 26.7945 20.6619 27.2166 19.5042 27.2104C15.8536 27.1917 12.2023 27.1855 8.55165 27.2104C7.23698 27.2208 6.22053 26.6997 5.40682 25.7117C4.67752 24.8267 4.21946 23.7957 3.84443 22.726C3.14627 20.7339 2.75533 18.674 2.50416 16.5768C2.49992 16.4975 2.49992 16.418 2.50416 16.3387ZM7.00172 17.8811C6.74294 17.8811 6.48485 17.8748 6.22675 17.8811C6.02204 17.881 5.82557 17.9618 5.67997 18.1057C5.53437 18.2496 5.45139 18.4451 5.44902 18.6498C5.44802 18.7513 5.46702 18.8519 5.50495 18.9461C5.54287 19.0402 5.59897 19.1259 5.67005 19.1983C5.74112 19.2707 5.82577 19.3284 5.91916 19.3681C6.01254 19.4078 6.11283 19.4287 6.2143 19.4296C6.73879 19.4407 7.26373 19.4407 7.78914 19.4296C7.89064 19.4286 7.99095 19.4076 8.08434 19.3679C8.17773 19.3281 8.26237 19.2703 8.33344 19.1979C8.4045 19.1254 8.46059 19.0396 8.49851 18.9455C8.53642 18.8513 8.55542 18.7506 8.55442 18.6491C8.55169 18.4445 8.46847 18.2491 8.32279 18.1054C8.1771 17.9616 7.98066 17.881 7.77599 17.8811C7.52205 17.8748 7.26396 17.8811 7.00587 17.8811H7.00172ZM11.6653 19.4351C11.9317 19.4351 12.1988 19.4434 12.4652 19.4351C12.6655 19.4293 12.8558 19.3464 12.9964 19.2037C13.137 19.061 13.2172 18.8695 13.2201 18.6692C13.2225 18.4647 13.1438 18.2675 13.0011 18.121C12.8584 17.9744 12.6635 17.8904 12.459 17.8873C11.9338 17.8762 11.4086 17.8769 10.8835 17.8873C10.6792 17.8889 10.4839 17.9712 10.34 18.1163C10.1961 18.2613 10.1154 18.4573 10.1154 18.6616C10.1169 18.8665 10.199 19.0626 10.3441 19.2074C10.4891 19.3522 10.6854 19.4341 10.8904 19.4351C11.1485 19.44 11.4066 19.4351 11.6653 19.4351ZM16.3297 19.4351C16.5794 19.4351 16.8292 19.4351 17.079 19.4351C17.5378 19.4268 17.8782 19.0968 17.8817 18.6643C17.8851 18.2319 17.5447 17.8908 17.0887 17.8845C16.5813 17.8776 16.0739 17.8776 15.5665 17.8845C15.4628 17.8827 15.3599 17.9016 15.2637 17.9402C15.1675 17.9787 15.0799 18.0362 15.0063 18.1091C14.9327 18.1821 14.8744 18.269 14.8348 18.3648C14.7953 18.4607 14.7754 18.5635 14.7763 18.6671C14.779 18.8719 14.8623 19.0673 15.0082 19.2111C15.154 19.3548 15.3506 19.4353 15.5554 19.4351C15.8135 19.44 16.0716 19.4351 16.3297 19.4351ZM20.9878 19.4351C21.2548 19.4351 21.5219 19.4434 21.7883 19.4351C21.9885 19.4293 22.1787 19.3463 22.3192 19.2036C22.4598 19.0609 22.5398 18.8694 22.5425 18.6692C22.5451 18.4646 22.4664 18.2674 22.3237 18.1208C22.181 17.9742 21.986 17.8902 21.7814 17.8873C21.2569 17.8762 20.7317 17.8769 20.2066 17.8873C20.0017 17.8891 19.8059 17.9721 19.6621 18.118C19.5182 18.2639 19.4381 18.4608 19.4392 18.6657C19.4417 18.8698 19.5243 19.0648 19.6691 19.2087C19.8139 19.3526 20.0094 19.4339 20.2135 19.4351C20.4716 19.44 20.7297 19.4351 20.9878 19.4351ZM11.6667 25.6508C11.9248 25.6508 12.1829 25.6563 12.441 25.6508C12.6458 25.6512 12.8426 25.5707 12.9884 25.4269C13.1343 25.2831 13.2176 25.0875 13.2201 24.8827C13.2209 24.779 13.2009 24.6763 13.1613 24.5804C13.1217 24.4846 13.0633 24.3977 12.9896 24.3247C12.9159 24.2518 12.8284 24.1944 12.7321 24.1558C12.6359 24.1172 12.5329 24.0983 12.4292 24.1002C11.9221 24.0932 11.4135 24.0932 10.907 24.1002C10.8036 24.0982 10.7009 24.1169 10.6048 24.1552C10.5088 24.1935 10.4213 24.2505 10.3476 24.323C10.2739 24.3955 10.2154 24.482 10.1755 24.5774C10.1356 24.6728 10.1152 24.7752 10.1154 24.8786C10.1154 25.309 10.4614 25.6397 10.9194 25.6487C11.1672 25.6535 11.4169 25.6494 11.6667 25.6494V25.6508ZM16.3283 25.6508C16.5864 25.6508 16.8445 25.6563 17.1025 25.6508C17.3074 25.6512 17.5041 25.5707 17.65 25.4269C17.7959 25.2831 17.8791 25.0875 17.8817 24.8827C17.8824 24.779 17.8624 24.6763 17.8228 24.5804C17.7833 24.4846 17.7249 24.3977 17.6512 24.3247C17.5775 24.2518 17.4899 24.1944 17.3937 24.1558C17.2974 24.1172 17.1945 24.0983 17.0908 24.1002C16.5834 24.0932 16.076 24.0932 15.5685 24.1002C15.4649 24.0981 15.3618 24.1169 15.2655 24.1553C15.1692 24.1937 15.0816 24.2509 15.0077 24.3237C14.9339 24.3965 14.8754 24.4834 14.8356 24.5791C14.7959 24.6749 14.7757 24.7777 14.7763 24.8813C14.7763 25.3117 15.1222 25.6425 15.5796 25.6515C15.8287 25.6535 16.0785 25.6494 16.3283 25.6494V25.6508ZM9.32454 22.5419C9.57433 22.5419 9.82411 22.5454 10.0732 22.5419C10.5486 22.5343 10.8938 22.2015 10.889 21.758C10.8848 21.3255 10.543 20.9968 10.0843 20.9906C9.58563 20.9851 9.08651 20.9851 8.58694 20.9906C8.12888 20.9954 7.78637 21.329 7.7836 21.76C7.78084 22.1911 8.12265 22.5308 8.57587 22.5412C8.82496 22.5488 9.07752 22.5419 9.32454 22.5419ZM13.9785 22.5419C14.2449 22.5419 14.512 22.5488 14.7784 22.5419C14.9832 22.5406 15.1793 22.4585 15.3239 22.3134C15.4686 22.1682 15.55 21.9718 15.5505 21.767C15.5507 21.6655 15.5309 21.5649 15.4922 21.4711C15.4536 21.3772 15.3968 21.2919 15.3252 21.22C15.2535 21.1481 15.1684 21.0911 15.0747 21.052C14.981 21.013 14.8805 20.9929 14.779 20.9927C14.2629 20.9837 13.746 20.9851 13.2298 20.9927C13.0252 20.9908 12.8281 21.0697 12.6812 21.2121C12.5343 21.3546 12.4495 21.5492 12.4452 21.7538C12.4445 21.8571 12.4643 21.9594 12.5035 22.055C12.5426 22.1506 12.6003 22.2374 12.6732 22.3106C12.7461 22.3837 12.8327 22.4417 12.9281 22.4812C13.0236 22.5206 13.1259 22.5408 13.2291 22.5405C13.4789 22.5488 13.7287 22.5419 13.9785 22.5412V22.5419ZM18.6504 22.5419C18.9085 22.5419 19.1666 22.5468 19.4247 22.5419C19.88 22.5309 20.2176 22.189 20.2121 21.7559C20.2086 21.5515 20.1245 21.3568 19.978 21.2142C19.8315 21.0716 19.6346 20.9927 19.4302 20.9948C18.914 20.9865 18.3976 20.9865 17.881 20.9948C17.6764 20.9944 17.4801 21.0748 17.3345 21.2185C17.189 21.3622 17.1061 21.5576 17.1039 21.7621C17.1045 21.9667 17.1853 22.1628 17.3291 22.3083C17.4729 22.4538 17.6681 22.5369 17.8727 22.5398C18.1335 22.5488 18.3923 22.5412 18.6504 22.5419Z" fill="#D1D1D1"/>
<path d="M16.322 10.1023H11.6826C11.6771 10.0214 11.6681 9.94735 11.6681 9.87262C11.6681 7.63076 11.6626 5.38821 11.6681 3.14565C11.6681 1.81023 12.7226 0.773019 14.0338 0.789625C15.2246 0.804848 16.2875 1.74588 16.3082 2.93462C16.3518 5.31486 16.322 7.69511 16.322 10.1023Z" fill="#D1D1D1"/>
<path d="M17.8167 10.1113C18.0934 9.42632 18.3321 8.78075 18.6117 8.15316C19.2912 6.63091 20.0758 5.16471 21.1566 3.88048C21.6202 3.33039 22.1302 2.82666 22.7875 2.50561C23.9672 1.92992 25.0833 2.43088 25.4431 3.69504C25.6846 4.54266 25.6424 5.40411 25.5262 6.26211C25.457 6.77276 25.3442 7.27718 25.2445 7.82034C25.0847 7.75461 24.9602 7.70548 24.837 7.65289C24.3381 7.44116 23.8406 7.2239 23.339 7.01701C22.8941 6.83365 22.4491 7.00386 22.2762 7.4121C22.1032 7.82034 22.2928 8.25903 22.7349 8.45C23.4068 8.73854 24.0807 9.02223 24.7768 9.31768C24.691 9.55502 24.6163 9.78197 24.5222 10.0006C24.5047 10.0303 24.4805 10.0554 24.4515 10.074C24.4226 10.0926 24.3896 10.1042 24.3554 10.1079C22.1993 10.112 20.0433 10.1113 17.8167 10.1113Z" fill="#D1D1D1"/>
<path d="M3.20923 10.0996C3.36061 9.33755 3.74249 8.64045 4.30317 8.10265C4.77674 7.63126 5.3701 7.29821 6.01917 7.13948C6.22052 7.09035 6.26549 7.00109 6.28625 6.80943C6.36305 6.09951 6.54227 5.41795 6.96781 4.82704C7.288 4.35806 7.77898 4.03297 8.33576 3.9213C8.81112 3.82443 9.22558 4.07975 9.32107 4.52605C9.41102 4.94882 9.12041 5.32039 8.65612 5.45393C8.47381 5.517 8.31437 5.63285 8.19806 5.78675C7.97111 6.07944 7.83618 6.63575 7.83411 7.07859C9.39441 7.5062 10.4005 8.49082 10.8094 10.0996H3.20923Z" fill="#D1D1D1"/>
</svg>
