<svg width="28" height="29" viewBox="0 0 28 29" fill="none" xmlns="http://www.w3.org/2000/svg">
    <rect x="1.55884" y="7.36359" width="24.8824" height="19.5882"/>
    <path d="M24.1589 2.07998H22.3539V1.67915C22.3566 1.5897 22.3414 1.50063 22.309 1.4172C22.2766 1.33377 22.2279 1.25769 22.1656 1.19347C22.1032 1.12924 22.0287 1.07818 21.9463 1.04331C21.8638 1.00845 21.7753 0.990479 21.6858 0.990479C21.5963 0.990479 21.5077 1.00845 21.4253 1.04331C21.3429 1.07818 21.2683 1.12924 21.206 1.19347C21.1437 1.25769 21.0949 1.33377 21.0626 1.4172C21.0302 1.50063 21.0149 1.5897 21.0176 1.67915V2.07998H6.98298V1.67915C6.98298 1.50186 6.91255 1.33184 6.78719 1.20647C6.66183 1.08111 6.49181 1.01069 6.31452 1.01069C6.13723 1.01069 5.96721 1.08111 5.84185 1.20647C5.71649 1.33184 5.64606 1.50186 5.64606 1.67915V2.07998H3.84231C2.95638 2.08095 2.107 2.43323 1.48044 3.05956C0.853883 3.68589 0.501294 4.53514 0.5 5.42107V24.6684C0.501294 25.5543 0.853883 26.4036 1.48044 27.0299C2.107 27.6562 2.95638 28.0085 3.84231 28.0095H24.1589C25.0447 28.0083 25.8938 27.656 26.5202 27.0296C27.1465 26.4033 27.4989 25.5541 27.5 24.6684V5.42107C27.4987 4.53535 27.1463 3.68629 26.52 3.05999C25.8937 2.4337 25.0446 2.08127 24.1589 2.07998ZM26.1637 24.669C26.1632 25.2005 25.9518 25.7102 25.576 26.086C25.2001 26.4619 24.6905 26.6733 24.1589 26.6738H3.84231C3.31075 26.6731 2.80114 26.4617 2.42522 26.0859C2.04929 25.7101 1.83773 25.2005 1.83692 24.669V7.36363H26.1631L26.1637 24.669Z"
          fill="#070707"/>
    <path d="M2.42547 4.0038C2.04948 4.37968 1.83802 4.88941 1.83754 5.42107V6.62418H26.1637L26.1643 5.42107C26.1638 4.88952 25.9524 4.37988 25.5766 4.00401C25.2007 3.62815 24.6911 3.41678 24.1595 3.41629H22.3546V3.81774C22.3573 3.90718 22.342 3.99626 22.3096 4.07969C22.2773 4.16311 22.2285 4.2392 22.1662 4.30342C22.1039 4.36764 22.0293 4.4187 21.9469 4.45357C21.8645 4.48844 21.7759 4.50641 21.6864 4.50641C21.5969 4.50641 21.5083 4.48844 21.4259 4.45357C21.3435 4.4187 21.2689 4.36764 21.2066 4.30342C21.1443 4.2392 21.0955 4.16311 21.0632 4.07969C21.0308 3.99626 21.0155 3.90718 21.0182 3.81774V3.41629H6.98359V3.81774C6.98359 3.99502 6.91317 4.16505 6.7878 4.29041C6.66244 4.41577 6.49242 4.4862 6.31513 4.4862C6.13784 4.4862 5.96782 4.41577 5.84246 4.29041C5.7171 4.16505 5.64667 3.99502 5.64667 3.81774V3.41629M24.1589 2.07998H22.3539V1.67915C22.3566 1.5897 22.3414 1.50063 22.309 1.4172C22.2766 1.33377 22.2279 1.25769 22.1656 1.19347C22.1032 1.12924 22.0287 1.07818 21.9463 1.04331C21.8638 1.00845 21.7753 0.990479 21.6858 0.990479C21.5963 0.990479 21.5077 1.00845 21.4253 1.04331C21.3429 1.07818 21.2683 1.12924 21.206 1.19347C21.1437 1.25769 21.0949 1.33377 21.0626 1.4172C21.0302 1.50063 21.0149 1.5897 21.0176 1.67915V2.07998H6.98298V1.67915C6.98298 1.50186 6.91255 1.33184 6.78719 1.20647C6.66183 1.08111 6.49181 1.01069 6.31452 1.01069C6.13723 1.01069 5.96721 1.08111 5.84185 1.20647C5.71649 1.33184 5.64606 1.50186 5.64606 1.67915V2.07998H3.84231C2.95638 2.08095 2.107 2.43323 1.48044 3.05956C0.853883 3.68589 0.501294 4.53514 0.5 5.42107V24.6684C0.501294 25.5543 0.853883 26.4036 1.48044 27.0299C2.107 27.6562 2.95638 28.0085 3.84231 28.0095H24.1589C25.0447 28.0083 25.8938 27.656 26.5202 27.0296C27.1465 26.4033 27.4989 25.5541 27.5 24.6684V5.42107C27.4987 4.53535 27.1463 3.68629 26.52 3.05999C25.8937 2.4337 25.0446 2.08127 24.1589 2.07998ZM26.1637 24.669C26.1632 25.2005 25.9518 25.7102 25.576 26.086C25.2001 26.4619 24.6905 26.6733 24.1589 26.6738H3.84231C3.31075 26.6731 2.80114 26.4617 2.42522 26.0859C2.04929 25.7101 1.83773 25.2005 1.83692 24.669V7.36363H26.1631L26.1637 24.669Z"
          stroke="#070707" stroke-width="0.5"/>
    <rect x="4.20581" y="11.5187" width="4.15508" height="4.15508" rx="1" fill="#070707"/>
    <rect x="11.9224" y="11.5187" width="4.15508" height="4.15508" rx="1" fill="#070707"/>
    <rect x="19.6389" y="11.5187" width="4.15508" height="4.15508" rx="1" fill="#070707"/>
    <rect x="4.20581" y="18.6417" width="4.15508" height="4.15508" rx="1" fill="#070707"/>
    <rect x="11.9224" y="18.6417" width="4.15508" height="4.15508" rx="1" fill="#070707"/>
    <rect x="19.6389" y="18.6417" width="4.15508" height="4.15508" rx="1" fill="#070707"/>
</svg>
