<svg width="28" height="29" viewBox="0 0 28 29" fill="none" xmlns="http://www.w3.org/2000/svg">
    <mask id="path-1-inside-1_139_995" fill="white">
        <path fill-rule="evenodd" clip-rule="evenodd"
              d="M20.0531 4.13256C20.3468 4.09475 20.6462 4.07517 20.9501 4.07517C24.7885 4.07517 27.9001 7.18698 27.9001 11.0257C27.9001 14.2643 25.6852 16.9853 22.6876 17.7572V24.0579C19.7918 23.4787 16.8958 23.1892 14.0001 23.1892C11.1044 23.1892 8.20827 23.4787 5.3126 24.0579V17.7572C2.31501 16.9856 0.100098 14.2644 0.100098 11.0257C0.100098 7.18688 3.21171 4.07517 7.0501 4.07517C7.35397 4.07517 7.65336 4.09475 7.94715 4.13256C9.14031 2.02353 11.4039 0.599976 14.0001 0.599976C16.5963 0.599976 18.8599 2.02353 20.0531 4.13256ZM5.3126 24.999C8.20837 24.3716 11.1044 24.0579 14.0001 24.0579C16.8958 24.0579 19.7919 24.3716 22.6876 24.999V26.6622C22.6876 27.6219 21.9096 28.3997 20.9499 28.3997C20.8545 28.3997 20.7593 28.3919 20.665 28.3762C18.4433 28.007 16.2218 27.8224 14 27.8224C11.7782 27.8224 9.55675 28.007 7.33494 28.3762C6.38825 28.5337 5.49328 27.8938 5.33582 26.9471C5.3203 26.853 5.31235 26.7576 5.31235 26.6622L5.3126 24.999Z"/>
    </mask>
    <path fill-rule="evenodd" clip-rule="evenodd"
          d="M20.0531 4.13256C20.3468 4.09475 20.6462 4.07517 20.9501 4.07517C24.7885 4.07517 27.9001 7.18698 27.9001 11.0257C27.9001 14.2643 25.6852 16.9853 22.6876 17.7572V24.0579C19.7918 23.4787 16.8958 23.1892 14.0001 23.1892C11.1044 23.1892 8.20827 23.4787 5.3126 24.0579V17.7572C2.31501 16.9856 0.100098 14.2644 0.100098 11.0257C0.100098 7.18688 3.21171 4.07517 7.0501 4.07517C7.35397 4.07517 7.65336 4.09475 7.94715 4.13256C9.14031 2.02353 11.4039 0.599976 14.0001 0.599976C16.5963 0.599976 18.8599 2.02353 20.0531 4.13256ZM5.3126 24.999C8.20837 24.3716 11.1044 24.0579 14.0001 24.0579C16.8958 24.0579 19.7919 24.3716 22.6876 24.999V26.6622C22.6876 27.6219 21.9096 28.3997 20.9499 28.3997C20.8545 28.3997 20.7593 28.3919 20.665 28.3762C18.4433 28.007 16.2218 27.8224 14 27.8224C11.7782 27.8224 9.55675 28.007 7.33494 28.3762C6.38825 28.5337 5.49328 27.8938 5.33582 26.9471C5.3203 26.853 5.31235 26.7576 5.31235 26.6622L5.3126 24.999Z"
          fill="white" stroke="#070707" stroke-width="4" stroke-linejoin="round" mask="url(#path-1-inside-1_139_995)"/>
</svg>
