<svg width="635" height="490" viewBox="0 0 635 490" fill="none" xmlns="http://www.w3.org/2000/svg">
<path d="M402.108 334.904C398.629 382.714 390.418 418.733 391.223 426.641C391.223 426.641 407.419 485.894 400.171 551.404C400.171 551.404 371.549 554.154 359.376 551.404C359.376 551.404 358.204 544.059 355.906 533.044C351.495 511.889 347.428 477.192 342.633 454.924C341.041 447.545 334.676 418.851 328.505 387.902C319.489 409.087 311.043 422.788 303.683 441.379C303.683 441.379 304.945 513.232 275.753 553.239L229.665 550.556C229.665 550.556 242.734 493.533 248.814 443.767L287.809 230.604H357.435C357.435 230.604 406.197 268.491 402.108 334.904Z" fill="#F7F3EF" stroke="#4E4E4E" stroke-width="2" stroke-linecap="round" stroke-linejoin="round"/>
<path d="M328.148 390.219L318.965 326.921" stroke="#4E4E4E" stroke-width="2" stroke-linecap="round" stroke-linejoin="round"/>
<path d="M348.27 111.504C357.937 113.712 382.311 119.509 389.436 129.352C398.719 142.154 413.996 203.808 413.996 203.808L387.355 196.521C387.355 196.521 370.274 167.805 369.12 167.805C367.966 167.805 357.426 230.609 357.426 230.609H287.809L282.028 198.867C282.028 198.867 267.239 187.718 268.167 180.86C269.094 174.001 269.37 172.003 269.37 172.003C269.37 172.003 261.458 174.702 239.744 194.636L214.338 184.302C214.338 184.302 253.614 132.777 264.932 126.598C276.251 120.42 289.65 119.139 289.65 119.139L348.27 111.504Z" fill="#F7F3EF" stroke="#4E4E4E" stroke-width="2" stroke-linecap="round" stroke-linejoin="round"/>
<path d="M314.748 68.8865C314.748 68.8865 323.448 101.417 352.296 112.738C352.296 112.738 331.224 126.279 286.895 121.255C286.895 121.255 302.62 104.654 299.648 86.2223L314.748 68.8865Z" fill="#FCBE9F" stroke="#4E4E4E" stroke-width="2" stroke-linecap="round" stroke-linejoin="round"/>
<path d="M295.5 115.286C294.295 115.325 293.097 115.101 292.003 114.631C296.3 108.108 301.503 97.5094 299.693 86.2223L314.264 69.47C314.857 70.2255 315.169 70.6872 315.169 70.6872C317.187 76.5554 318.399 114.362 295.5 115.286Z" fill="#4E4E4E"/>
<path d="M314.749 68.8865C316.798 74.7631 313.975 102.748 297.241 104.654C284.661 106.085 270.736 82.6418 268.931 77.3697C267.126 72.0976 269.334 59.5093 282.792 55.7315C300.833 50.6525 314.749 68.8865 314.749 68.8865Z" fill="#FCBE9F" stroke="#4E4E4E" stroke-width="2" stroke-linecap="round" stroke-linejoin="round"/>
<path d="M275.835 62.691C275.835 62.691 288.262 72.4712 314.739 68.8865C314.739 68.8865 322.471 101.95 352.287 112.738C352.287 112.738 371.54 92.4934 358.593 78.5702C350.373 69.7554 331.903 77.4957 331.903 77.4957C331.903 77.4957 348.333 39.1051 307.547 38.9246C266.76 38.7441 258.002 78.927 270.252 80.4171C270.302 80.4171 264.285 68.8865 275.835 62.691Z" fill="#4E4E4E"/>
<path d="M360.561 75.145C346.451 65.1801 331.156 77.6636 331.156 77.6636" stroke="#4E4E4E" stroke-width="2" stroke-linecap="round" stroke-linejoin="round"/>
<path d="M275.446 62.3342C275.446 62.3342 282.39 76.803 308.877 73.2184" stroke="#4E4E4E" stroke-width="2" stroke-linecap="round" stroke-linejoin="round"/>
<path d="M265.258 72.2403C265.258 72.2403 261.209 58.1241 265.462 51.4878C269.714 44.8515 289.04 31.5789 302.765 30.6849C316.49 29.7908 346.451 45.2125 346.451 45.2125C346.451 45.2125 321.367 46.3836 316.802 75.1198C316.802 75.1198 305.352 51.1604 284.941 55.232C264.53 59.3036 265.258 72.2403 265.258 72.2403Z" fill="#EFAF00" stroke="#4E4E4E" stroke-width="2" stroke-linecap="round" stroke-linejoin="round"/>
<path d="M340.475 107.361C340.475 107.361 331.69 129.969 330.785 146.524C330.785 146.524 299.992 150.57 292.876 146.944C288.447 144.681 294.093 113.401 294.093 113.401L283.457 120.151C283.457 120.151 270.574 163.125 269.37 172.003C268.167 180.881 264.471 186.237 282.037 198.867L287.809 230.6L268.981 319.924C268.981 319.924 341.176 324.704 366.817 318.488C392.458 312.271 357.435 230.6 357.435 230.6L362.637 200.412C362.637 200.412 333.323 175.084 348.279 111.504L340.475 107.361Z" fill="#EFAF00" stroke="#4E4E4E" stroke-width="2" stroke-linecap="round" stroke-linejoin="round"/>
<path d="M387.527 210.897C385.505 210.129 379.43 192.848 394.06 189.116C413.25 184.247 417.077 193.452 416.566 201.066C415.589 215.741 405.541 217.756 387.527 210.897Z" fill="#F7F3EF" stroke="#4E4E4E" stroke-width="2" stroke-linecap="round" stroke-linejoin="round"/>
<path d="M315.454 227.515L315.246 227.414C315.061 227.325 314.897 227.202 314.764 227.053C314.63 226.905 314.529 226.733 314.467 226.548C314.405 226.363 314.382 226.169 314.401 225.976C314.42 225.784 314.48 225.596 314.576 225.425L326.669 201.117C326.865 200.77 327.202 200.51 327.604 200.394C328.007 200.277 328.444 200.314 328.817 200.496L331.559 201.826C331.744 201.916 331.909 202.039 332.043 202.188C332.177 202.337 332.278 202.508 332.341 202.694C332.404 202.879 332.426 203.074 332.408 203.267C332.389 203.46 332.33 203.648 332.233 203.82L317.598 226.906C317.501 227.077 317.368 227.229 317.207 227.352C317.047 227.475 316.862 227.567 316.662 227.624C316.463 227.68 316.254 227.7 316.047 227.681C315.839 227.662 315.638 227.606 315.454 227.515Z" fill="#F7F3EF" stroke="#4E4E4E" stroke-width="2" stroke-linecap="round" stroke-linejoin="round"/>
<path d="M314.659 226.616L292.618 265.686L294.429 266.566L316.47 227.495L314.659 226.616Z" fill="#F7F3EF" stroke="#4E4E4E" stroke-width="2" stroke-linecap="round" stroke-linejoin="round"/>
<path d="M296.35 276.622C293.5 281.684 286.583 286.528 283.009 284.794C279.436 283.061 279.788 275.027 282.643 269.965C285.498 264.902 290.134 264.248 293.64 265.952C297.146 267.656 299.205 271.564 296.35 276.622Z" fill="#F7F3EF" stroke="#4E4E4E" stroke-width="2" stroke-linecap="round" stroke-linejoin="round"/>
<path d="M403.166 214.725C386.139 224.153 351.251 238.034 331.505 242.101C329.093 247.101 321.059 254.845 319.06 255.231C316.757 255.676 315.893 254.627 313.631 253.85C309.754 252.528 311.613 249.934 309.053 249.468C306.493 249.002 305.918 245.422 305.918 245.422C305.918 245.422 303.507 245.716 302.059 249.397C300.25 254.014 297.612 252.935 297.612 252.935C297.612 252.935 298.969 245.476 300.109 244.07C301.984 241.792 304.107 239.699 306.443 237.824C307.881 236.699 320.277 234.538 326.429 234.596C341.837 222.319 368.089 204.328 385.415 197.658C397.855 192.902 418.47 206.238 403.166 214.725Z" fill="#FCBE9F" stroke="#4E4E4E" stroke-width="2" stroke-linecap="round" stroke-linejoin="round"/>
<path d="M207.982 207.212C205.96 206.448 199.957 187.781 214.515 183.819C229.072 179.856 239.576 189.125 240.155 196.735C240.427 200.303 225.996 214.049 207.982 207.212Z" fill="#F7F3EF" stroke="#4E4E4E" stroke-width="2" stroke-linecap="round" stroke-linejoin="round"/>
<path d="M222.594 221.139C220.282 220.3 196.899 206.922 211.167 196.495C229.819 182.87 236.469 207.375 236.469 207.375L222.594 221.139Z" fill="#FCBE9F" stroke="#4E4E4E" stroke-width="2" stroke-linecap="round" stroke-linejoin="round"/>
<path d="M245.285 211.602L245.068 211.686C244.683 211.839 244.247 211.843 243.858 211.699C243.469 211.554 243.157 211.272 242.992 210.914L230.416 186.816C230.251 186.458 230.246 186.054 230.402 185.693C230.558 185.332 230.863 185.043 231.248 184.889L234.098 183.764C234.486 183.612 234.924 183.608 235.315 183.755C235.706 183.901 236.018 184.185 236.184 184.545L246.136 209.68C246.217 209.858 246.26 210.05 246.261 210.243C246.262 210.437 246.223 210.629 246.144 210.808C246.066 210.987 245.95 211.15 245.803 211.288C245.657 211.426 245.482 211.535 245.29 211.611L245.285 211.602Z" fill="#F7F3EF" stroke="#4E4E4E" stroke-width="2" stroke-linecap="round" stroke-linejoin="round"/>
<path d="M245.898 210.863L244.015 211.604L262.578 252.2L264.46 251.459L245.898 210.863Z" fill="#F7F3EF" stroke="#4E4E4E" stroke-width="2" stroke-linecap="round" stroke-linejoin="round"/>
<path d="M274.061 256.457C276.463 261.717 276.115 269.751 272.406 271.211C268.696 272.672 262.223 267.324 259.82 262.065C257.418 256.805 259.82 253.065 263.439 251.63C267.163 250.169 271.655 251.202 274.061 256.457Z" fill="#F7F3EF" stroke="#4E4E4E" stroke-width="2" stroke-linecap="round" stroke-linejoin="round"/>
<path d="M234.804 207.464C236.039 206.721 239.124 205.415 243.44 209.025C247.755 212.635 259.508 224.799 257.853 226.336C254.686 229.274 248.402 219.401 247.149 220.514C246.792 220.833 246.946 221.601 246.824 222.411C246.701 223.221 246.303 224.065 244.833 224.539C242.87 225.181 244.833 227.515 242.092 228.917C239.35 230.319 240.68 231.016 238.703 233.194C236.441 235.658 223.806 228.367 221.807 224.447C219.807 220.526 229.543 210.641 234.804 207.464Z" fill="#FCBE9F" stroke="#4E4E4E" stroke-width="2" stroke-linecap="round" stroke-linejoin="round"/>
<path d="M275.713 83.6912C275.713 83.6912 279.924 85.8319 281.63 81.5505" stroke="#4E4E4E" stroke-width="2" stroke-linecap="round" stroke-linejoin="round"/>
<path d="M290.017 78.6877C290.017 78.6877 294.708 81.307 298.16 76.2364" stroke="#4E4E4E" stroke-width="2" stroke-linecap="round" stroke-linejoin="round"/>
<path d="M285.027 80.9334V87.7712L288.379 89.9119" stroke="#4E4E4E" stroke-width="2" stroke-linecap="round" stroke-linejoin="round"/>
<path d="M291.157 94.2018C291.157 94.2018 295.816 92.8418 296.472 89.6433" stroke="#4E4E4E" stroke-width="2" stroke-linecap="round" stroke-linejoin="round"/>
<path d="M291.324 154.403H330.107" stroke="#4E4E4E" stroke-width="2" stroke-linecap="round" stroke-linejoin="round"/>
<path d="M293.002 214.666H312.256" stroke="#4E4E4E" stroke-width="2" stroke-linecap="round" stroke-linejoin="round"/>
<path d="M333.219 80.9796C337.475 76.6274 339.487 71.8883 337.712 70.3944C335.938 68.9004 331.049 71.2174 326.793 75.5696C322.537 79.9217 320.526 84.6608 322.3 86.1548C324.075 87.6487 328.963 85.3317 333.219 80.9796Z" fill="#E57B07" stroke="#4E4E4E" stroke-width="2" stroke-linecap="round" stroke-linejoin="round"/>
<path d="M597.251 334.904H36.8783V526.832H597.251V334.904Z" fill="#F7F3EF"/>
<path d="M601.843 433.324L579.215 336.898L597.884 334.8L615.287 433.324" fill="#F7F3EF"/>
<path d="M601.843 433.324L579.215 336.898L597.884 334.8L615.287 433.324" stroke="#4E4E4E" stroke-width="2" stroke-linecap="round" stroke-linejoin="round"/>
<path d="M579.215 336.898L597.884 334.8L599.716 345.188L580.54 342.536L579.215 336.898Z" fill="#4E4E4E"/>
<path d="M33.4311 433.324L56.0592 336.898L37.3895 334.8L19.9819 433.324" fill="#F7F3EF"/>
<path d="M33.4311 433.324L56.0592 336.898L37.3895 334.8L19.9819 433.324" stroke="#4E4E4E" stroke-width="2" stroke-linecap="round" stroke-linejoin="round"/>
<path d="M37.3895 334.8L56.0592 336.898L53.3766 348.332L36.6159 339.19L37.3895 334.8Z" fill="#4E4E4E"/>
<path d="M317.44 334.909C492.198 334.909 633.867 325.227 633.867 313.283C633.867 301.34 492.198 291.657 317.44 291.657C142.683 291.657 1.01355 301.34 1.01355 313.283C1.01355 325.227 142.683 334.909 317.44 334.909Z" fill="#F7F3EF" stroke="#4E4E4E" stroke-width="2" stroke-linecap="round" stroke-linejoin="round"/>
<path d="M633.88 313.283V324.747C633.88 336.693 492.208 346.372 317.454 346.372C164.608 346.372 37.0773 338.968 7.49618 329.12C3.2619 327.731 1 326.249 1 324.747V313.283C1 314.782 3.23023 316.242 7.47356 317.653C8.85182 318.109 10.4427 318.564 12.2462 319.017C49.0157 328.176 171.719 334.905 317.431 334.905C463.143 334.905 585.842 328.188 622.611 319.017C629.949 317.191 633.88 315.264 633.88 313.283Z" fill="#F7F3EF" stroke="#4E4E4E" stroke-width="2" stroke-linecap="round" stroke-linejoin="round"/>
<path d="M444.446 333.028C435.285 387.651 334.893 420.076 261.318 413.663C171.036 405.775 122.586 365.358 102.482 343.262C100.726 341.337 99.601 338.985 99.2425 336.485C98.8841 333.985 99.3067 331.442 100.46 329.158C156.886 332.726 232.365 334.905 315.296 334.905C361.298 334.905 405.007 334.233 444.446 333.028Z" fill="#F7F3EF" stroke="#4E4E4E" stroke-width="2" stroke-linecap="round" stroke-linejoin="round"/>
<path d="M538.392 297.475L537.338 297.874L444.459 332.957V333.028C405.021 334.233 361.312 334.904 315.309 334.904C232.379 334.904 156.899 332.726 100.474 329.158C101.994 326.093 104.727 323.688 108.106 322.442L185.711 293.597C185.711 293.597 187.688 293.509 191.425 293.362C223.119 292.132 381.33 286.797 538.392 297.475Z" fill="#F7F3EF" stroke="#4E4E4E" stroke-width="2" stroke-linecap="round" stroke-linejoin="round"/>
<path d="M165.214 320.415C168.535 323.051 172.312 324.532 176.257 323.399L179.817 322.375C182.314 321.661 184.042 320.276 185.521 318.48C186.942 316.771 187.25 313.631 186.503 311.344C184.988 306.685 179.071 304.208 174.063 305.656L171.294 306.45C167.643 307.499 165.798 309.056 164.667 311.067C164.083 312.091 163.735 313.636 162.975 314.576C162.287 315.415 161.206 315.995 161.577 317.598C161.948 319.202 163.106 318.752 165.214 320.415Z" fill="#F7F3EF" stroke="#4E4E4E" stroke-width="2" stroke-linecap="round" stroke-linejoin="round"/>
<path d="M221.992 298.197C222.232 298.197 222.462 298.286 222.632 298.443C222.802 298.601 222.897 298.814 222.897 299.037V299.087C222.445 306.126 216.433 311.68 209.104 311.68C201.775 311.68 195.781 306.114 195.311 299.087C195.304 298.977 195.32 298.866 195.359 298.762C195.397 298.657 195.458 298.561 195.537 298.478C195.616 298.396 195.712 298.328 195.819 298.28C195.926 298.232 196.043 298.204 196.161 298.197H221.992Z" fill="#F7F3EF" stroke="#4E4E4E" stroke-width="2" stroke-linecap="round" stroke-linejoin="round"/>
<path d="M222.187 298.197C222.187 304.913 216.306 308.565 209.095 308.565C201.884 308.565 196.003 304.905 196.003 298.197H222.187Z" fill="#F7F3EF" stroke="#4E4E4E" stroke-width="2" stroke-linecap="round" stroke-linejoin="round"/>
<path d="M211.579 305.547C211.614 305.653 211.602 305.768 211.546 305.867C211.49 305.965 211.395 306.039 211.28 306.072H211.235C209.815 306.252 208.375 306.252 206.955 306.072C206.897 306.061 206.842 306.039 206.792 306.008C206.743 305.977 206.701 305.938 206.668 305.892C206.635 305.846 206.613 305.794 206.601 305.74C206.59 305.686 206.59 305.63 206.602 305.576V305.534L208.683 300.371C208.713 300.295 208.767 300.229 208.839 300.182C208.911 300.135 208.996 300.11 209.084 300.11C209.171 300.11 209.257 300.135 209.328 300.182C209.4 300.229 209.454 300.295 209.484 300.371L211.579 305.547Z" fill="#F7F3EF" stroke="#4E4E4E" stroke-width="2" stroke-linecap="round" stroke-linejoin="round"/>
<path d="M219.744 298.445C219.675 299.444 219.41 300.422 218.961 301.333C218.931 301.389 218.878 301.433 218.814 301.453C218.749 301.473 218.679 301.469 218.618 301.442L212.682 298.638C212.643 298.61 212.613 298.572 212.596 298.529C212.58 298.485 212.577 298.438 212.589 298.393C212.601 298.349 212.627 298.308 212.664 298.277C212.701 298.246 212.746 298.225 212.795 298.218H219.5C219.563 298.221 219.624 298.246 219.669 298.288C219.714 298.33 219.741 298.386 219.744 298.445Z" fill="#F7F3EF" stroke="#4E4E4E" stroke-width="2" stroke-linecap="round" stroke-linejoin="round"/>
<path d="M205.259 298.768L199.631 301.429C199.594 301.451 199.553 301.466 199.51 301.472C199.467 301.479 199.423 301.477 199.381 301.467C199.338 301.457 199.299 301.439 199.264 301.415C199.229 301.39 199.2 301.36 199.179 301.324V301.287C198.753 300.415 198.501 299.479 198.432 298.525C198.429 298.487 198.434 298.448 198.447 298.412C198.46 298.376 198.481 298.342 198.508 298.313C198.534 298.285 198.567 298.261 198.604 298.244C198.641 298.227 198.681 298.217 198.722 298.214H205.082C205.156 298.207 205.23 298.224 205.291 298.262C205.353 298.3 205.398 298.357 205.419 298.423C205.44 298.489 205.435 298.559 205.406 298.622C205.377 298.685 205.325 298.737 205.259 298.768Z" fill="#F7F3EF" stroke="#4E4E4E" stroke-width="2" stroke-linecap="round" stroke-linejoin="round"/>
<path d="M217.69 303.104C216.585 304.236 215.182 305.082 213.619 305.56C213.517 305.593 213.406 305.588 213.308 305.546C213.21 305.505 213.134 305.43 213.094 305.337L210.832 300.002C210.8 299.929 210.792 299.849 210.811 299.772C210.83 299.696 210.873 299.626 210.936 299.573C210.999 299.52 211.078 299.487 211.162 299.477C211.246 299.468 211.332 299.482 211.407 299.519L217.591 302.512C217.638 302.538 217.679 302.572 217.712 302.612C217.746 302.653 217.77 302.699 217.784 302.748C217.797 302.797 217.801 302.848 217.793 302.899C217.786 302.949 217.768 302.997 217.74 303.041L217.69 303.104Z" fill="#F7F3EF" stroke="#4E4E4E" stroke-width="2" stroke-linecap="round" stroke-linejoin="round"/>
<path d="M207.086 300.069L204.897 305.241C204.852 305.34 204.767 305.42 204.66 305.463C204.553 305.506 204.432 305.509 204.322 305.472C202.824 304.981 201.484 304.146 200.427 303.045C200.39 303.002 200.362 302.953 200.345 302.9C200.328 302.847 200.322 302.791 200.329 302.736C200.335 302.681 200.353 302.628 200.382 302.58C200.41 302.531 200.449 302.488 200.495 302.454C200.516 302.437 200.539 302.423 200.563 302.412L206.467 299.553C206.575 299.506 206.7 299.5 206.812 299.538C206.925 299.576 207.017 299.654 207.068 299.754C207.118 299.853 207.125 299.966 207.086 300.069Z" fill="#F7F3EF" stroke="#4E4E4E" stroke-width="2" stroke-linecap="round" stroke-linejoin="round"/>
<path d="M580.364 232.372C576.745 245.057 565.702 280.421 555.338 279.669C542.712 278.754 558.333 225.731 558.333 225.731C558.333 225.731 570.904 179.076 583.557 179.479C596.21 179.882 580.364 232.372 580.364 232.372Z" fill="#F7F3EF" stroke="#4E4E4E" stroke-width="2" stroke-linecap="round" stroke-linejoin="round"/>
<path d="M565.465 255.965C565.501 255.199 563.494 254.495 560.983 254.393C558.472 254.291 556.407 254.83 556.371 255.597C556.335 256.364 558.342 257.067 560.853 257.169C563.364 257.271 565.429 256.732 565.465 255.965Z" fill="#F7F3EF" stroke="#4E4E4E" stroke-width="2" stroke-linecap="round" stroke-linejoin="round"/>
<path d="M578.997 198.733C581.511 198.733 583.548 198.111 583.548 197.343C583.548 196.576 581.511 195.954 578.997 195.954C576.484 195.954 574.446 196.576 574.446 197.343C574.446 198.111 576.484 198.733 578.997 198.733Z" fill="#F7F3EF" stroke="#4E4E4E" stroke-width="2" stroke-linecap="round" stroke-linejoin="round"/>
<path d="M575.777 211.031C579.129 211.031 581.847 210.201 581.847 209.176C581.847 208.151 579.129 207.321 575.777 207.321C572.424 207.321 569.706 208.151 569.706 209.176C569.706 210.201 572.424 211.031 575.777 211.031Z" fill="#F7F3EF" stroke="#4E4E4E" stroke-width="2" stroke-linecap="round" stroke-linejoin="round"/>
<path d="M570.57 223.431C574.332 223.431 577.382 222.499 577.382 221.349C577.382 220.199 574.332 219.267 570.57 219.267C566.807 219.267 563.757 220.199 563.757 221.349C563.757 222.499 566.807 223.431 570.57 223.431Z" fill="#F7F3EF" stroke="#4E4E4E" stroke-width="2" stroke-linecap="round" stroke-linejoin="round"/>
<path d="M570.528 245.014C570.577 243.99 567.9 243.05 564.55 242.915C561.201 242.779 558.446 243.499 558.398 244.523C558.35 245.546 561.026 246.486 564.376 246.622C567.726 246.757 570.48 246.038 570.528 245.014Z" fill="#F7F3EF" stroke="#4E4E4E" stroke-width="2" stroke-linecap="round" stroke-linejoin="round"/>
<path d="M573.162 235.425C573.217 234.276 570.213 233.222 566.454 233.069C562.695 232.917 559.604 233.725 559.55 234.874C559.496 236.022 562.499 237.077 566.258 237.229C570.017 237.382 573.108 236.574 573.162 235.425Z" fill="#F7F3EF" stroke="#4E4E4E" stroke-width="2" stroke-linecap="round" stroke-linejoin="round"/>
<path d="M512.642 221.139C512.642 221.139 515.171 218.024 511.317 214.784L512.638 214.339C513.649 214.926 514.513 215.707 515.172 216.629C515.831 217.552 516.271 218.594 516.46 219.687L512.642 221.139Z" fill="#F7F3EF" stroke="#4E4E4E" stroke-width="2" stroke-linecap="round" stroke-linejoin="round"/>
<path d="M517.659 248.024C516.096 248.552 514.377 248.526 512.833 247.95C511.29 247.375 510.029 246.29 509.295 244.905L501.636 232.074C499.867 228.716 502.346 224.459 506.114 223.187L506.218 223.15C507.899 222.581 509.753 222.655 511.375 223.355C512.997 224.055 514.253 225.323 514.868 226.881L521.69 240.003C522.3 241.562 522.219 243.283 521.463 244.787C520.707 246.291 519.339 247.455 517.659 248.024Z" fill="#EFAF00" stroke="#4E4E4E" stroke-width="2" stroke-linecap="round" stroke-linejoin="round"/>
<path d="M530.909 243.541C532.473 243.013 533.771 241.966 534.554 240.603C535.336 239.24 535.548 237.657 535.148 236.158L532.253 221.714C531.289 218.104 526.282 216.362 522.518 217.638L522.409 217.672C521.577 217.953 520.813 218.384 520.16 218.939C519.507 219.494 518.978 220.164 518.605 220.908C518.231 221.653 518.019 222.459 517.981 223.28C517.943 224.101 518.079 224.921 518.383 225.693L522.264 239.801C522.876 241.361 524.131 242.631 525.752 243.332C527.373 244.034 529.228 244.109 530.909 243.541Z" fill="#EFAF00" stroke="#4E4E4E" stroke-width="2" stroke-linecap="round" stroke-linejoin="round"/>
<path d="M524.739 246.593C524.036 246.831 523.29 246.939 522.543 246.91C521.795 246.881 521.061 246.715 520.383 246.423C519.705 246.131 519.095 245.717 518.589 245.206C518.082 244.695 517.69 244.097 517.433 243.445L510.873 226.76C510.356 225.441 510.424 223.986 511.063 222.714C511.702 221.442 512.859 220.457 514.28 219.976C514.983 219.738 515.73 219.63 516.478 219.66C517.225 219.689 517.96 219.855 518.639 220.148C519.317 220.44 519.928 220.854 520.434 221.366C520.94 221.877 521.333 222.476 521.59 223.129L528.15 239.814C528.664 241.133 528.594 242.587 527.954 243.858C527.315 245.128 526.159 246.112 524.739 246.593Z" fill="#EFAF00" stroke="#4E4E4E" stroke-width="2" stroke-linecap="round" stroke-linejoin="round"/>
<path d="M494.217 233.077C494.217 233.077 484.038 215.296 454.1 229.841L494.217 233.077Z" fill="#F7F3EF"/>
<path d="M494.217 233.077C494.217 233.077 484.038 215.296 454.1 229.841" stroke="#4E4E4E" stroke-width="2" stroke-linecap="round" stroke-linejoin="round"/>
<path d="M467.481 224.992C467.481 224.992 461.306 226.499 461.306 227.977C461.306 229.454 464.391 228.657 464.391 228.657C464.391 228.657 459.917 230.709 460.071 232.074C460.225 233.438 463.391 232.074 463.391 232.074C463.391 232.074 461.243 236.233 462.939 236.691C464.635 237.148 464.708 233.925 464.708 233.925C464.708 233.925 466.866 235.503 467.485 234.941C468.105 234.378 466.02 230.47 466.02 230.47C466.02 230.47 468.024 232.917 469.259 232.053C470.494 231.188 466.952 227.381 467.481 224.992Z" fill="#F7F3EF" stroke="#4E4E4E" stroke-width="2" stroke-linecap="round" stroke-linejoin="round"/>
<path d="M456.787 228.598C456.787 228.598 451.132 227.179 450.286 228.598C449.44 230.017 452.15 229.404 452.15 229.404C452.15 229.404 446.979 231.578 447.4 233.077C447.821 234.575 450.539 233.077 450.539 233.077C450.539 233.077 450.087 236.649 452.082 235.961C454.077 235.272 453.711 230.42 456.787 228.598Z" fill="#F7F3EF" stroke="#4E4E4E" stroke-width="2" stroke-linecap="round" stroke-linejoin="round"/>
<path d="M487.915 214.545C487.915 214.545 492.439 212.551 492.281 211.266C492.122 209.982 490.607 211.72 490.607 211.72C490.607 211.72 492.936 207.804 491.864 207.103C490.792 206.402 489.756 208.685 489.756 208.685C489.756 208.685 488.2 206.288 487.205 207.72C486.21 209.151 489.023 211.879 487.915 214.545Z" fill="#F7F3EF" stroke="#4E4E4E" stroke-width="2" stroke-linecap="round" stroke-linejoin="round"/>
<path d="M495.904 233.077C495.904 233.077 490.928 215.733 469.105 216.786" stroke="#4E4E4E" stroke-width="2" stroke-linecap="round" stroke-linejoin="round"/>
<path d="M470.281 216.551C470.281 216.551 467.825 222.47 465.373 221.303C462.921 220.136 466.409 219.082 466.409 219.082C466.409 219.082 459.234 220.761 459.515 218.381C459.795 216.001 464.893 216.942 464.893 216.942C464.893 216.942 462.179 215.531 464.893 214.918C467.608 214.305 470.281 216.551 470.281 216.551Z" fill="#F7F3EF" stroke="#4E4E4E" stroke-width="2" stroke-linecap="round" stroke-linejoin="round"/>
<path d="M482.496 218.889C482.496 218.889 481.736 213.105 479.148 213.105C476.56 213.105 479.673 216.74 479.673 216.74C479.673 216.74 476.556 214.335 475.99 215.997C475.425 217.659 479.157 218.465 479.157 218.465C479.157 218.465 476.755 221.269 478.551 221.131C480.347 220.992 482.496 218.889 482.496 218.889Z" fill="#F7F3EF" stroke="#4E4E4E" stroke-width="2" stroke-linecap="round" stroke-linejoin="round"/>
<path d="M482.12 224.967C482.12 224.967 476.135 223.208 475.058 225.387C473.982 227.565 478.84 226.449 478.84 226.449C478.84 226.449 475.19 228.082 476.578 229.253C477.967 230.424 480.306 227.612 480.306 227.612C480.306 227.612 482.061 230.802 482.667 229.228C483.274 227.654 482.12 224.967 482.12 224.967Z" fill="#F7F3EF" stroke="#4E4E4E" stroke-width="2" stroke-linecap="round" stroke-linejoin="round"/>
<path d="M486.585 219.284C486.585 219.284 491.561 216.656 490.657 215.376C489.752 214.096 486.707 217.391 486.707 217.391C486.707 217.391 485.653 213.735 484.396 214.314C483.138 214.893 486.585 219.284 486.585 219.284Z" fill="#F7F3EF" stroke="#4E4E4E" stroke-width="2" stroke-linecap="round" stroke-linejoin="round"/>
<path d="M490.77 232.867C490.77 232.867 482.695 218.327 489.096 212.899" stroke="#4E4E4E" stroke-width="2" stroke-linecap="round" stroke-linejoin="round"/>
<path d="M530.543 192.923C530.543 192.923 537.428 204.156 534.985 249.565L539.844 249.707C539.844 249.707 541.45 206.981 530.543 192.923Z" fill="#F7F3EF" stroke="#4E4E4E" stroke-width="2" stroke-linecap="round" stroke-linejoin="round"/>
<path d="M534.985 249.565C534.985 249.565 544.295 191.177 537.7 176.767C537.7 176.767 547.937 191.211 539.826 249.707L534.985 249.565Z" fill="#F7F3EF" stroke="#4E4E4E" stroke-width="2" stroke-linecap="round" stroke-linejoin="round"/>
<path d="M534.985 249.565C537.786 228.598 557.812 201.293 557.812 201.293C557.812 201.293 541.807 234.307 539.844 249.695L534.985 249.565Z" fill="#F7F3EF" stroke="#4E4E4E" stroke-width="2" stroke-linecap="round" stroke-linejoin="round"/>
<path d="M532.896 266.195C532.896 266.195 534.379 258.191 534.985 249.565C534.985 249.565 537.569 247.596 539.844 249.707C539.372 255.677 539.448 261.673 540.07 267.631L532.896 266.195Z" fill="#F7F3EF" stroke="#4E4E4E" stroke-width="2" stroke-linecap="round" stroke-linejoin="round"/>
<path d="M540.051 268.126C540.381 267.054 539.052 265.762 537.082 265.239C535.112 264.717 533.248 265.162 532.917 266.235C532.587 267.307 533.916 268.599 535.886 269.122C537.856 269.644 539.72 269.198 540.051 268.126Z" fill="#F7F3EF" stroke="#4E4E4E" stroke-width="2" stroke-linecap="round" stroke-linejoin="round"/>
<path d="M539.306 267.883V267.904C539.212 268.139 539.052 268.347 538.843 268.507C538.634 268.666 538.383 268.771 538.116 268.81C537.448 268.951 536.752 268.926 536.098 268.739C534.583 268.319 533.601 267.345 533.836 266.476V266.447C533.93 266.212 534.09 266.003 534.299 265.844C534.508 265.685 534.759 265.58 535.026 265.54C535.694 265.4 536.389 265.425 537.044 265.612C538.573 266.027 539.554 267.014 539.306 267.883ZM534.252 266.573C534.067 267.215 534.958 268.034 536.211 268.365C536.798 268.534 537.422 268.557 538.021 268.433C538.219 268.41 538.407 268.339 538.566 268.227C538.725 268.115 538.849 267.966 538.926 267.795C539.111 267.156 538.22 266.338 536.967 266.006C536.38 265.838 535.756 265.814 535.157 265.939C534.959 265.962 534.771 266.032 534.612 266.145C534.453 266.257 534.329 266.406 534.252 266.577V266.573Z" fill="#F7F3EF" stroke="#4E4E4E" stroke-width="2" stroke-linecap="round" stroke-linejoin="round"/>
<path d="M537.826 267.505C537.691 267.946 537.012 268.139 536.279 267.946C535.546 267.753 535.089 267.261 535.216 266.825C535.352 266.405 536.03 266.191 536.763 266.405C537.487 266.573 537.976 267.064 537.826 267.505ZM535.619 266.93C535.56 267.127 535.877 267.446 536.392 267.58C536.908 267.715 537.36 267.58 537.419 267.408C537.478 267.215 537.161 266.896 536.646 266.758C536.13 266.623 535.678 266.758 535.619 266.934V266.93Z" fill="#F7F3EF" stroke="#4E4E4E" stroke-width="2" stroke-linecap="round" stroke-linejoin="round"/>
<path d="M588.041 232.859L576.03 317.804H570.71L556.985 232.859H588.041Z" fill="#F7F3EF" stroke="#4E4E4E" stroke-width="2" stroke-linecap="round" stroke-linejoin="round"/>
<path d="M591.429 235.608L579.631 318.228H574.315L560.798 235.608H591.429Z" fill="#F7F3EF" stroke="#4E4E4E" stroke-width="2" stroke-linecap="round" stroke-linejoin="round"/>
<path d="M588.384 232.859L576.374 317.804H571.054L557.324 232.859H588.384Z" fill="#F7F3EF" stroke="#4E4E4E" stroke-width="2" stroke-linecap="round" stroke-linejoin="round"/>
<path d="M571.054 317.804H496.284L484.269 232.859H557.324L571.054 317.804Z" fill="#F7F3EF" stroke="#4E4E4E" stroke-width="2" stroke-linecap="round" stroke-linejoin="round"/>
<path d="M455.262 274.616C455.262 274.616 458.479 272.685 456.289 268.739H457.583C458.253 269.579 458.725 270.539 458.971 271.558C459.216 272.578 459.229 273.633 459.008 274.657L455.262 274.616Z" fill="#F7F3EF" stroke="#4E4E4E" stroke-width="2" stroke-linecap="round" stroke-linejoin="round"/>
<path d="M450.114 299.314C448.58 299.298 447.107 298.756 445.977 297.793C444.847 296.83 444.141 295.513 443.993 294.096L441.885 280.719C441.532 277.306 445.165 274.368 448.861 274.422H448.97C450.619 274.44 452.193 275.065 453.345 276.159C454.498 277.253 455.136 278.727 455.117 280.257L456.398 293.626C456.388 294.382 456.217 295.129 455.896 295.825C455.575 296.52 455.109 297.149 454.526 297.678C453.942 298.206 453.252 298.622 452.495 298.903C451.738 299.183 450.929 299.323 450.114 299.314Z" fill="#EA631F" stroke="#4E4E4E" stroke-width="2" stroke-linecap="round" stroke-linejoin="round"/>
<path d="M463.116 299.448C464.65 299.465 466.137 298.954 467.29 298.014C468.443 297.074 469.18 295.771 469.358 294.356L471.928 281.025C472.38 277.621 468.653 274.607 464.957 274.569H464.853C463.204 274.553 461.615 275.144 460.436 276.214C459.257 277.283 458.584 278.744 458.565 280.274L456.968 293.613C456.95 295.143 457.587 296.618 458.74 297.712C459.893 298.806 461.467 299.43 463.116 299.448Z" fill="#EA631F" stroke="#4E4E4E" stroke-width="2" stroke-linecap="round" stroke-linejoin="round"/>
<path d="M456.723 300.216C455.329 300.202 453.997 299.674 453.022 298.749C452.046 297.825 451.507 296.578 451.521 295.284L451.716 278.914C451.731 277.62 452.3 276.384 453.296 275.479C454.293 274.574 455.636 274.073 457.031 274.087C458.426 274.101 459.757 274.629 460.733 275.553C461.708 276.478 462.248 277.725 462.233 279.019L462.039 295.389C462.032 296.03 461.889 296.663 461.618 297.252C461.347 297.841 460.954 298.375 460.461 298.823C459.968 299.272 459.384 299.625 458.744 299.864C458.103 300.103 457.418 300.223 456.728 300.216H456.723Z" fill="#EA631F" stroke="#4E4E4E" stroke-width="2" stroke-linecap="round" stroke-linejoin="round"/>
<path d="M335.097 256.709C335.097 269.898 329.45 282.546 319.399 291.872C309.349 301.198 295.717 306.437 281.503 306.437C267.29 306.436 253.659 301.196 243.608 291.871C233.558 282.545 227.911 269.897 227.91 256.709H335.097Z" fill="#F7F3EF" stroke="#4E4E4E" stroke-width="2" stroke-linecap="round" stroke-linejoin="round"/>
<path d="M334.925 256.549C334.923 269.738 329.277 282.386 319.226 291.711C309.176 301.037 295.545 306.276 281.331 306.277C267.118 306.276 253.487 301.037 243.436 291.711C233.386 282.386 227.739 269.738 227.738 256.549H334.925Z" fill="#F7F3EF" stroke="#4E4E4E" stroke-width="2" stroke-linecap="round" stroke-linejoin="round"/>
<path d="M290.725 299.757C295.505 298.235 298.39 294.322 297.168 291.017C295.946 287.713 291.08 286.268 286.299 287.79C281.518 289.313 278.634 293.225 279.856 296.53C281.078 299.834 285.944 301.279 290.725 299.757Z" fill="#F7F3EF" stroke="#4E4E4E" stroke-width="2" stroke-linecap="round" stroke-linejoin="round"/>
<path d="M289.93 299.43C294.1 297.904 296.466 294.282 295.215 291.341C293.964 288.399 289.571 287.252 285.401 288.778C281.232 290.305 278.866 293.927 280.116 296.868C281.367 299.809 285.761 300.957 289.93 299.43Z" fill="#F7F3EF" stroke="#4E4E4E" stroke-width="2" stroke-linecap="round" stroke-linejoin="round"/>
<path d="M289.203 292.107C289.103 292.526 287.778 293.655 287.778 293.655C287.778 293.655 287.008 292.522 287.108 292.107C287.202 291.877 287.371 291.68 287.592 291.545C287.813 291.409 288.074 291.341 288.338 291.351C288.918 291.351 289.307 291.691 289.203 292.107Z" fill="#F7F3EF" stroke="#4E4E4E" stroke-width="2" stroke-linecap="round" stroke-linejoin="round"/>
<path d="M286.14 296.069C286.239 295.649 287.565 294.52 287.565 294.52C287.565 294.52 288.334 295.649 288.234 296.069C288.14 296.298 287.97 296.494 287.75 296.629C287.529 296.763 287.268 296.83 287.004 296.82C286.425 296.82 286.036 296.485 286.14 296.069Z" fill="#F7F3EF" stroke="#4E4E4E" stroke-width="2" stroke-linecap="round" stroke-linejoin="round"/>
<path d="M285.095 293.332C285.674 293.332 287.058 294.088 287.058 294.088C287.058 294.088 285.303 294.843 284.724 294.843C284.145 294.843 283.76 294.503 283.864 294.088C283.957 293.857 284.126 293.66 284.347 293.524C284.568 293.388 284.83 293.321 285.095 293.332Z" fill="#F7F3EF" stroke="#4E4E4E" stroke-width="2" stroke-linecap="round" stroke-linejoin="round"/>
<path d="M290.234 294.843C289.655 294.843 288.271 294.088 288.271 294.088C288.271 294.088 290.026 293.332 290.605 293.332C291.184 293.332 291.569 293.672 291.464 294.088C291.372 294.318 291.203 294.516 290.982 294.651C290.761 294.787 290.499 294.854 290.234 294.843Z" fill="#F7F3EF" stroke="#4E4E4E" stroke-width="2" stroke-linecap="round" stroke-linejoin="round"/>
<path d="M274.441 294.289C276.31 294.289 277.825 292.884 277.825 291.15C277.825 289.416 276.31 288.01 274.441 288.01C272.572 288.01 271.057 289.416 271.057 291.15C271.057 292.884 272.572 294.289 274.441 294.289Z" fill="#F7F3EF" stroke="#4E4E4E" stroke-width="2" stroke-linecap="round" stroke-linejoin="round"/>
<path d="M301.661 289.382C303.9 289.382 305.714 287.699 305.714 285.621C305.714 283.544 303.9 281.86 301.661 281.86C299.422 281.86 297.608 283.544 297.608 285.621C297.608 287.699 299.422 289.382 301.661 289.382Z" fill="#F7F3EF" stroke="#4E4E4E" stroke-width="2" stroke-linecap="round" stroke-linejoin="round"/>
<path d="M245.489 287.032C247.728 287.032 249.542 285.348 249.542 283.271C249.542 281.194 247.728 279.51 245.489 279.51C243.25 279.51 241.436 281.194 241.436 283.271C241.436 285.348 243.25 287.032 245.489 287.032Z" fill="#F7F3EF" stroke="#4E4E4E" stroke-width="2" stroke-linecap="round" stroke-linejoin="round"/>
<path d="M258.498 297.098C260.332 296.542 260.605 292.649 259.11 288.403C257.614 284.157 254.915 281.166 253.082 281.722C251.248 282.278 250.975 286.171 252.47 290.417C253.966 294.663 256.665 297.654 258.498 297.098Z" fill="#F7F3EF" stroke="#4E4E4E" stroke-width="2" stroke-linecap="round" stroke-linejoin="round"/>
<path d="M255.238 283.304C256.667 283.191 258.699 286.125 259.545 289.949C260.205 292.921 260.169 295.616 258.368 295.758C257.387 295.838 255.876 293.773 254.749 289.999C253.623 286.226 253.451 283.447 255.238 283.304Z" fill="#F7F3EF" stroke="#4E4E4E" stroke-width="2" stroke-linecap="round" stroke-linejoin="round"/>
<path d="M281.131 270.578C283.428 266.652 284.37 263.006 283.235 262.434C282.1 261.862 279.317 264.581 277.02 268.507C274.723 272.433 273.781 276.079 274.916 276.651C276.051 277.223 278.834 274.504 281.131 270.578Z" fill="#F7F3EF" stroke="#4E4E4E" stroke-width="2" stroke-linecap="round" stroke-linejoin="round"/>
<path d="M275.115 274.33C274.455 273.638 275.64 270.384 277.916 267.123C279.68 264.583 281.535 262.627 282.376 263.5C282.828 263.975 282.028 266.304 279.897 269.679C277.766 273.054 275.943 275.199 275.115 274.33Z" fill="#F7F3EF" stroke="#4E4E4E" stroke-width="2" stroke-linecap="round" stroke-linejoin="round"/>
<path d="M296.667 279.791C300.634 278.204 306.334 277.478 313.224 280.945L296.667 279.791Z" fill="#F7F3EF"/>
<path d="M296.667 279.791C300.634 278.204 306.334 277.478 313.224 280.945" stroke="#4E4E4E" stroke-width="2" stroke-linecap="round" stroke-linejoin="round"/>
<path d="M312.536 280.458C312.536 280.458 312.156 284.988 314.133 284.937C316.11 284.887 314.201 283.204 314.201 283.204C314.201 283.204 318.272 286.335 318.892 284.723C319.512 283.111 315.893 282.251 315.893 282.251C315.893 282.251 318.119 282.116 316.567 280.941C315.015 279.766 312.536 280.458 312.536 280.458Z" fill="#F7F3EF" stroke="#4E4E4E" stroke-width="2" stroke-linecap="round" stroke-linejoin="round"/>
<path d="M303.855 278.473C303.855 278.473 306.266 274.947 307.927 275.686C309.587 276.425 306.375 277.89 306.375 277.89C306.375 277.89 309.193 277.222 309.008 278.465C308.822 279.707 306.144 279.157 306.144 279.157C306.144 279.157 306.764 281.676 305.651 281.055C304.538 280.433 303.855 278.473 303.855 278.473Z" fill="#F7F3EF" stroke="#4E4E4E" stroke-width="2" stroke-linecap="round" stroke-linejoin="round"/>
<path d="M263.743 292.938C264.503 296.208 267.515 301.11 278.368 303.251L263.743 292.938Z" fill="#F7F3EF"/>
<path d="M263.743 292.938C264.503 296.208 267.515 301.11 278.368 303.251" stroke="#4E4E4E" stroke-width="2" stroke-linecap="round" stroke-linejoin="round"/>
<path d="M271.347 301.098C271.347 301.098 274.328 302.382 274.853 301.794C275.378 301.207 273.871 300.586 273.871 300.586C273.871 300.586 276.369 301.135 276.794 300.548C277.219 299.96 275.477 299.536 275.477 299.536C275.477 299.536 277.798 298.541 277.287 297.857C276.776 297.173 275.609 298.415 275.609 298.415C275.609 298.415 275.31 297.131 274.867 297.156C274.423 297.181 273.867 299.377 273.867 299.377C273.867 299.377 273.939 297.794 273.143 297.761C272.347 297.727 272.428 300.313 271.347 301.098Z" fill="#F7F3EF" stroke="#4E4E4E" stroke-width="2" stroke-linecap="round" stroke-linejoin="round"/>
<path d="M276.862 302.924C276.862 302.924 278.603 305.211 279.44 304.905C280.277 304.598 278.988 304.019 278.988 304.019C278.988 304.019 281.806 304.733 282.154 304.019C282.503 303.306 280.91 303.062 280.91 303.062C280.91 303.062 282.367 301.803 281.322 301.446C280.277 301.089 278.73 303.142 276.862 302.924Z" fill="#F7F3EF" stroke="#4E4E4E" stroke-width="2" stroke-linecap="round" stroke-linejoin="round"/>
<path d="M265.534 296.644C265.534 296.644 267.285 299.163 268.484 298.63C269.682 298.097 267.362 297.056 267.362 297.056C267.362 297.056 269.388 297.521 269.248 296.636C269.108 295.75 267.19 296.149 267.19 296.149C267.19 296.149 267.642 294.352 266.823 294.789C266.004 295.225 265.534 296.644 265.534 296.644Z" fill="#F7F3EF" stroke="#4E4E4E" stroke-width="2" stroke-linecap="round" stroke-linejoin="round"/>
<path d="M295.4 300.225C298.883 301.093 304.959 300.846 311.966 292.862L295.4 300.225Z" fill="#F7F3EF"/>
<path d="M295.4 300.225C298.883 301.093 304.959 300.846 311.966 292.862" stroke="#4E4E4E" stroke-width="2" stroke-linecap="round" stroke-linejoin="round"/>
<path d="M306.696 297.677C306.696 297.677 309.288 295.8 308.958 295.099C308.628 294.398 307.347 295.36 307.347 295.36C307.347 295.36 309.017 293.546 308.646 292.929C308.275 292.312 307.076 293.555 307.076 293.555C307.076 293.555 307.185 291.183 306.28 291.275C305.375 291.368 306.045 292.917 306.045 292.917C306.045 292.917 304.687 292.573 304.507 292.959C304.326 293.345 306.18 294.797 306.18 294.797C306.18 294.797 304.697 294.016 304.298 294.659C303.9 295.301 306.429 296.443 306.696 297.677Z" fill="#F7F3EF" stroke="#4E4E4E" stroke-width="2" stroke-linecap="round" stroke-linejoin="round"/>
<path d="M310.967 293.958C310.967 293.958 313.952 293.563 314.043 292.732C314.133 291.901 312.984 292.703 312.984 292.703C312.984 292.703 314.957 290.7 314.432 290.071C313.907 289.441 312.943 290.663 312.943 290.663C312.943 290.663 312.387 288.883 311.586 289.588C310.786 290.293 312.025 292.514 310.967 293.958Z" fill="#F7F3EF" stroke="#4E4E4E" stroke-width="2" stroke-linecap="round" stroke-linejoin="round"/>
<path d="M299.775 300.447C299.775 300.447 302.991 300.153 303.023 298.919C303.054 297.685 301.001 299.125 301.001 299.125C301.001 299.125 302.358 297.668 301.453 297.379C300.548 297.089 300.051 298.856 300.051 298.856C300.051 298.856 298.522 297.677 298.576 298.533C298.63 299.389 299.775 300.447 299.775 300.447Z" fill="#F7F3EF" stroke="#4E4E4E" stroke-width="2" stroke-linecap="round" stroke-linejoin="round"/>
<path d="M265.421 280.018C265.421 280.018 268.678 276.462 267.945 275.358C267.212 274.255 266.62 276.416 266.62 276.416C266.62 276.416 267.004 271.95 265.715 271.736C264.426 271.522 264.466 274.72 264.466 274.72C264.466 274.72 262.082 272.546 261.815 274.229C261.548 275.913 263.969 278.133 265.421 280.018Z" fill="#F7F3EF" stroke="#4E4E4E" stroke-width="2" stroke-linecap="round" stroke-linejoin="round"/>
<path d="M266.326 284.845C266.326 284.845 269.691 280.542 268.275 279.732C266.859 278.922 265.561 283.09 265.561 283.09C265.561 283.09 262.974 280.152 262.087 281.176C261.2 282.2 266.326 284.845 266.326 284.845Z" fill="#F7F3EF" stroke="#4E4E4E" stroke-width="2" stroke-linecap="round" stroke-linejoin="round"/>
<path d="M268.054 287.569C265.833 284.522 264.376 281.063 265.765 278.057L268.054 287.569Z" fill="#F7F3EF"/>
<path d="M268.054 287.569C265.833 284.522 264.376 281.063 265.765 278.057" stroke="#4E4E4E" stroke-width="2" stroke-linecap="round" stroke-linejoin="round"/>
<path d="M454.982 304.468C454.986 304.702 454.913 304.931 454.771 305.125C454.629 305.318 454.426 305.465 454.19 305.547L451.236 306.664L423.795 317.027C422.344 317.581 420.79 317.867 419.221 317.867H311.478C311.312 317.87 311.148 317.842 310.994 317.786C310.841 317.729 310.7 317.645 310.582 317.538C310.463 317.431 310.369 317.304 310.303 317.163C310.238 317.022 310.204 316.87 310.202 316.717V316.671C310.2 316.437 310.275 316.208 310.417 316.015C310.56 315.822 310.762 315.674 310.998 315.592L341.394 304.107C342.844 303.558 344.396 303.272 345.963 303.268H453.706C453.871 303.265 454.036 303.293 454.189 303.349C454.343 303.405 454.483 303.49 454.602 303.596C454.721 303.703 454.815 303.831 454.88 303.972C454.946 304.113 454.98 304.265 454.982 304.418V304.468Z" fill="#F7F3EF" stroke="#4E4E4E" stroke-width="2" stroke-linecap="round" stroke-linejoin="round"/>
<path d="M454.982 304.468V307.86C454.986 308.094 454.913 308.323 454.771 308.516C454.629 308.709 454.426 308.857 454.19 308.939L423.795 320.419C422.344 320.973 420.79 321.258 419.221 321.258H311.478C311.312 321.261 311.148 321.234 310.994 321.177C310.841 321.121 310.7 321.037 310.582 320.93C310.463 320.823 310.369 320.695 310.303 320.554C310.238 320.413 310.204 320.262 310.202 320.108V316.671C310.198 316.824 310.226 316.976 310.285 317.119C310.345 317.262 310.434 317.393 310.548 317.504C310.662 317.615 310.798 317.705 310.949 317.767C311.1 317.829 311.263 317.863 311.428 317.867H419.221C420.79 317.867 422.344 317.581 423.795 317.027L451.236 306.664L454.19 305.547C454.426 305.465 454.629 305.318 454.771 305.125C454.913 304.931 454.986 304.702 454.982 304.468Z" fill="#F7F3EF" stroke="#4E4E4E" stroke-width="2" stroke-linecap="round" stroke-linejoin="round"/>
<path d="M370.115 305.95L392.838 300.019C392.975 299.984 393.103 299.924 393.216 299.843C393.328 299.762 393.421 299.662 393.492 299.547C393.562 299.433 393.607 299.306 393.624 299.175C393.642 299.045 393.632 298.912 393.594 298.785V298.76L392.657 295.821C392.62 295.695 392.556 295.577 392.468 295.473C392.381 295.37 392.273 295.284 392.15 295.219C392.027 295.155 391.891 295.114 391.751 295.098C391.61 295.083 391.468 295.093 391.332 295.129L368.604 301.06C368.466 301.097 368.336 301.158 368.224 301.242C368.111 301.325 368.017 301.428 367.947 301.545C367.877 301.662 367.833 301.79 367.817 301.923C367.801 302.056 367.813 302.191 367.853 302.319L368.79 305.257C368.828 305.387 368.894 305.507 368.984 305.612C369.073 305.717 369.184 305.805 369.311 305.869C369.437 305.934 369.576 305.974 369.72 305.988C369.864 306.002 370.009 305.989 370.147 305.95H370.115Z" fill="#F7F3EF" stroke="#4E4E4E" stroke-width="2" stroke-linecap="round" stroke-linejoin="round"/>
<path d="M333.631 310.769L367.749 301.862L370.043 309.417C370.043 309.417 347.781 318.622 333.631 310.769Z" fill="#F7F3EF" stroke="#4E4E4E" stroke-width="2" stroke-linecap="round" stroke-linejoin="round"/>
<path d="M421.917 310.735C427.966 310.735 432.869 306.582 432.869 301.459C432.869 296.335 427.966 292.182 421.917 292.182C415.869 292.182 410.965 296.335 410.965 301.459C410.965 306.582 415.869 310.735 421.917 310.735Z" fill="#F7F3EF" stroke="#4E4E4E" stroke-width="2" stroke-linecap="round" stroke-linejoin="round"/>
<path d="M419.882 310.311C424.626 310.311 428.472 306.656 428.472 302.147C428.472 297.638 424.626 293.983 419.882 293.983C415.137 293.983 411.291 297.638 411.291 302.147C411.291 306.656 415.137 310.311 419.882 310.311Z" fill="#F7F3EF" stroke="#4E4E4E" stroke-width="2" stroke-linecap="round" stroke-linejoin="round"/>
<path d="M421.044 299.452C421.044 300.019 419.882 301.551 419.882 301.551C419.882 301.551 418.723 300.011 418.723 299.452C418.742 299.178 418.872 298.921 419.088 298.733C419.303 298.545 419.588 298.441 419.884 298.441C420.18 298.441 420.464 298.545 420.68 298.733C420.895 298.921 421.026 299.178 421.044 299.452Z" fill="#F7F3EF" stroke="#4E4E4E" stroke-width="2" stroke-linecap="round" stroke-linejoin="round"/>
<path d="M418.723 304.842C418.723 304.275 419.882 302.743 419.882 302.743C419.882 302.743 421.044 304.279 421.044 304.842C421.026 305.116 420.895 305.373 420.68 305.561C420.464 305.749 420.18 305.853 419.884 305.853C419.588 305.853 419.303 305.749 419.088 305.561C418.872 305.373 418.742 305.116 418.723 304.842Z" fill="#F7F3EF" stroke="#4E4E4E" stroke-width="2" stroke-linecap="round" stroke-linejoin="round"/>
<path d="M416.837 301.119C417.475 301.119 419.217 302.147 419.217 302.147C419.217 302.147 417.475 303.175 416.837 303.175C416.543 303.175 416.261 303.067 416.053 302.874C415.845 302.681 415.729 302.42 415.729 302.147C415.729 301.874 415.845 301.613 416.053 301.42C416.261 301.227 416.543 301.119 416.837 301.119Z" fill="#F7F3EF" stroke="#4E4E4E" stroke-width="2" stroke-linecap="round" stroke-linejoin="round"/>
<path d="M422.931 303.175C422.288 303.175 420.551 302.147 420.551 302.147C420.551 302.147 422.288 301.119 422.931 301.119C423.225 301.119 423.506 301.227 423.714 301.42C423.922 301.613 424.039 301.874 424.039 302.147C424.039 302.42 423.922 302.681 423.714 302.874C423.506 303.067 423.225 303.175 422.931 303.175Z" fill="#F7F3EF" stroke="#4E4E4E" stroke-width="2" stroke-linecap="round" stroke-linejoin="round"/>
<path d="M417.714 310.412C422.476 307.741 424.435 302.658 422.09 299.06C419.744 295.461 413.984 294.709 409.222 297.381C404.461 300.052 402.502 305.135 404.847 308.733C407.192 312.332 412.953 313.084 417.714 310.412Z" fill="#F7F3EF" stroke="#4E4E4E" stroke-width="2" stroke-linecap="round" stroke-linejoin="round"/>
<path d="M410.525 310.283C414.53 307.622 415.871 302.995 413.52 299.95C411.17 296.904 406.018 296.592 402.013 299.253C398.008 301.914 396.667 306.54 399.017 309.586C401.368 312.631 406.52 312.943 410.525 310.283Z" fill="#F7F3EF" stroke="#4E4E4E" stroke-width="2" stroke-linecap="round" stroke-linejoin="round"/>
<path d="M410.811 300.573C410.703 301.085 409.282 302.47 409.282 302.47C409.282 302.47 408.459 301.085 408.568 300.573C408.646 300.305 408.819 300.068 409.058 299.9C409.297 299.733 409.589 299.643 409.888 299.645C409.999 299.634 410.111 299.644 410.217 299.673C410.324 299.702 410.424 299.75 410.51 299.815C410.597 299.879 410.669 299.959 410.722 300.05C410.775 300.14 410.809 300.24 410.82 300.342C410.829 300.419 410.826 300.497 410.811 300.573Z" fill="#F7F3EF" stroke="#4E4E4E" stroke-width="2" stroke-linecap="round" stroke-linejoin="round"/>
<path d="M407.532 305.43C407.64 304.917 409.056 303.532 409.056 303.532C409.056 303.532 409.884 304.917 409.775 305.43C409.696 305.697 409.523 305.933 409.284 306.1C409.045 306.267 408.754 306.356 408.454 306.353C408.344 306.364 408.232 306.355 408.126 306.326C408.019 306.297 407.919 306.248 407.833 306.184C407.746 306.119 407.674 306.039 407.621 305.949C407.568 305.858 407.534 305.759 407.523 305.656C407.515 305.581 407.518 305.504 407.532 305.43Z" fill="#F7F3EF" stroke="#4E4E4E" stroke-width="2" stroke-linecap="round" stroke-linejoin="round"/>
<path d="M406.428 302.076C407.048 302.076 408.527 302.999 408.527 302.999C408.527 302.999 406.654 303.927 406.034 303.927C405.813 303.942 405.593 303.876 405.424 303.742C405.255 303.609 405.149 303.419 405.129 303.213C405.12 303.142 405.12 303.07 405.129 302.999C405.208 302.735 405.377 302.502 405.612 302.336C405.846 302.169 406.133 302.078 406.428 302.076Z" fill="#F7F3EF" stroke="#4E4E4E" stroke-width="2" stroke-linecap="round" stroke-linejoin="round"/>
<path d="M411.915 303.927C411.295 303.927 409.816 302.999 409.816 302.999C409.816 302.999 411.689 302.076 412.309 302.076C412.531 302.059 412.75 302.125 412.92 302.259C413.089 302.393 413.195 302.584 413.213 302.789C413.225 302.859 413.225 302.93 413.213 302.999C413.136 303.264 412.967 303.498 412.732 303.665C412.498 303.833 412.211 303.925 411.915 303.927Z" fill="#F7F3EF" stroke="#4E4E4E" stroke-width="2" stroke-linecap="round" stroke-linejoin="round"/>
<path d="M405.676 310.09C410.457 308.568 413.341 304.655 412.119 301.351C410.897 298.047 406.031 296.602 401.25 298.124C396.47 299.646 393.585 303.559 394.807 306.863C396.029 310.168 400.895 311.613 405.676 310.09Z" fill="#F7F3EF" stroke="#4E4E4E" stroke-width="2" stroke-linecap="round" stroke-linejoin="round"/>
<path d="M404.883 309.775C409.052 308.249 411.418 304.627 410.167 301.685C408.917 298.744 404.523 297.597 400.354 299.123C396.184 300.649 393.818 304.271 395.069 307.213C396.319 310.154 400.713 311.301 404.883 309.775Z" fill="#F7F3EF" stroke="#4E4E4E" stroke-width="2" stroke-linecap="round" stroke-linejoin="round"/>
<path d="M404.161 302.445C404.057 302.865 402.732 303.994 402.732 303.994C402.732 303.994 401.963 302.865 402.067 302.445C402.159 302.215 402.328 302.017 402.55 301.881C402.771 301.746 403.032 301.678 403.297 301.69C403.876 301.706 404.261 302.03 404.161 302.445Z" fill="#F7F3EF" stroke="#4E4E4E" stroke-width="2" stroke-linecap="round" stroke-linejoin="round"/>
<path d="M401.094 306.408C401.198 305.988 402.524 304.859 402.524 304.859C402.524 304.859 403.293 305.988 403.189 306.408C403.096 306.638 402.927 306.834 402.706 306.97C402.484 307.105 402.223 307.171 401.958 307.159C401.379 307.163 400.995 306.823 401.094 306.408Z" fill="#F7F3EF" stroke="#4E4E4E" stroke-width="2" stroke-linecap="round" stroke-linejoin="round"/>
<path d="M400.067 303.671C400.642 303.671 402.026 304.426 402.026 304.426C402.026 304.426 400.275 305.182 399.696 305.182C399.117 305.182 398.733 304.842 398.832 304.426C398.926 304.196 399.096 303.999 399.318 303.863C399.54 303.727 399.802 303.66 400.067 303.671Z" fill="#F7F3EF" stroke="#4E4E4E" stroke-width="2" stroke-linecap="round" stroke-linejoin="round"/>
<path d="M405.188 305.182C404.614 305.182 403.229 304.426 403.229 304.426C403.229 304.426 404.98 303.671 405.559 303.671C406.138 303.671 406.523 304.011 406.423 304.426C406.329 304.657 406.159 304.854 405.938 304.99C405.716 305.125 405.454 305.193 405.188 305.182Z" fill="#F7F3EF" stroke="#4E4E4E" stroke-width="2" stroke-linecap="round" stroke-linejoin="round"/>
<path d="M169.928 208.773H176.438C176.996 208.773 177.531 208.979 177.925 209.345C178.32 209.711 178.541 210.207 178.541 210.725V223.67H167.824V210.725C167.824 210.207 168.046 209.711 168.441 209.345C168.835 208.979 169.37 208.773 169.928 208.773Z" fill="#F7F3EF" stroke="#4E4E4E" stroke-width="2" stroke-linecap="round" stroke-linejoin="round"/>
<path d="M175.501 223.67H178.035C181.263 223.67 184.36 224.86 186.643 226.979C188.926 229.097 190.208 231.97 190.208 234.966V298.168C190.208 299.058 189.827 299.912 189.148 300.542C188.469 301.172 187.549 301.526 186.589 301.526H166.969C166.01 301.526 165.089 301.172 164.41 300.542C163.732 299.912 163.35 299.058 163.35 298.168V234.966C163.35 231.974 164.63 229.104 166.908 226.986C169.186 224.868 172.277 223.676 175.501 223.67Z" fill="#4E4E4E"/>
<path d="M168.752 223.67H171.285C174.514 223.67 177.61 224.86 179.893 226.979C182.176 229.097 183.459 231.97 183.459 234.966V298.168C183.459 299.058 183.077 299.912 182.399 300.542C181.72 301.172 180.799 301.526 179.84 301.526H160.238C159.278 301.526 158.358 301.172 157.679 300.542C157 299.912 156.619 299.058 156.619 298.168V234.966C156.619 231.976 157.896 229.109 160.17 226.992C162.444 224.875 165.53 223.68 168.752 223.67Z" fill="#F7F3EF" stroke="#4E4E4E" stroke-width="2" stroke-linecap="round" stroke-linejoin="round"/>
<path d="M188.58 236.015V296.338C188.58 298.856 187.082 300.254 184.594 300.254H162.428C159.939 300.254 158.447 298.697 158.447 296.174V236.015H188.58Z" fill="#4E4E4E"/>
<path d="M177.795 254.61H162.138C160.774 254.61 159.668 255.636 159.668 256.902V266.443C159.668 267.709 160.774 268.735 162.138 268.735H177.795C179.159 268.735 180.265 267.709 180.265 266.443V256.902C180.265 255.636 179.159 254.61 177.795 254.61Z" fill="#F7F3EF" stroke="#4E4E4E" stroke-width="2" stroke-linecap="round" stroke-linejoin="round"/>
<path d="M168.752 223.67H171.285C174.514 223.67 177.61 224.86 179.893 226.979C182.176 229.097 183.459 231.97 183.459 234.966V298.168C183.459 299.058 183.077 299.912 182.399 300.542C181.72 301.172 180.799 301.526 179.84 301.526H160.238C159.278 301.526 158.358 301.172 157.679 300.542C157 299.912 156.619 299.058 156.619 298.168V234.966C156.619 231.976 157.896 229.109 160.17 226.992C162.444 224.875 165.53 223.68 168.752 223.67Z" fill="#F7F3EF" stroke="#4E4E4E" stroke-width="2" stroke-linecap="round" stroke-linejoin="round"/>
<path d="M69.8161 288.916C73.9985 288.916 77.389 285.771 77.389 281.89C77.389 278.009 73.9985 274.863 69.8161 274.863C65.6338 274.863 62.2433 278.009 62.2433 281.89C62.2433 285.771 65.6338 288.916 69.8161 288.916Z" fill="#F7F3EF" stroke="#4E4E4E" stroke-width="2" stroke-linecap="round" stroke-linejoin="round"/>
<path d="M68.5993 287.922C72.9066 287.922 76.3983 284.682 76.3983 280.685C76.3983 276.689 72.9066 273.449 68.5993 273.449C64.292 273.449 60.8002 276.689 60.8002 280.685C60.8002 284.682 64.292 287.922 68.5993 287.922Z" fill="#F7F3EF" stroke="#4E4E4E" stroke-width="2" stroke-linecap="round" stroke-linejoin="round"/>
<path d="M67.7262 286.57H75.1904C76.8701 286.57 78.481 287.189 79.6688 288.291C80.8565 289.393 81.5238 290.888 81.5238 292.447V306.198C81.5238 306.672 81.3207 307.127 80.9593 307.462C80.5979 307.797 80.1077 307.986 79.5966 307.986H63.3109C62.7998 307.986 62.3096 307.797 61.9482 307.462C61.5868 307.127 61.3838 306.672 61.3838 306.198V292.472C61.3802 291.7 61.5405 290.935 61.8555 290.221C62.1705 289.507 62.634 288.857 63.2196 288.309C63.8052 287.761 64.5013 287.325 65.2684 287.027C66.0354 286.729 66.8583 286.573 67.69 286.57H67.7262Z" fill="#F7F3EF" stroke="#4E4E4E" stroke-width="2" stroke-linecap="round" stroke-linejoin="round"/>
<path d="M67.5542 286.57H75.0366C76.7163 286.57 78.3272 287.189 79.515 288.291C80.7027 289.393 81.3699 290.888 81.3699 292.447V306.198C81.3699 306.672 81.1669 307.127 80.8055 307.462C80.4441 307.797 79.9539 307.986 79.4428 307.986H63.13C62.6189 307.986 62.1287 307.797 61.7673 307.462C61.4059 307.127 61.2028 306.672 61.2028 306.198V292.472C61.1956 290.915 61.8547 289.419 63.0354 288.312C64.2161 287.205 65.8218 286.579 67.5 286.57H67.5542Z" fill="#4E4E4E"/>
<path d="M62.1573 286.57H69.6397C71.3194 286.57 72.9303 287.189 74.118 288.291C75.3058 289.393 75.973 290.888 75.973 292.447V306.198C75.973 306.672 75.77 307.127 75.4086 307.462C75.0472 307.797 74.557 307.986 74.0459 307.986H57.7331C57.2219 307.986 56.7318 307.797 56.3704 307.462C56.009 307.127 55.8059 306.672 55.8059 306.198V292.472C55.8023 291.7 55.9626 290.935 56.2776 290.221C56.5926 289.507 57.0561 288.857 57.6417 288.309C58.2273 287.761 58.9235 287.325 59.6905 287.027C60.4575 286.729 61.2804 286.573 62.1121 286.57H62.1573Z" fill="#F7F3EF" stroke="#4E4E4E" stroke-width="2" stroke-linecap="round" stroke-linejoin="round"/>
<path d="M71.9243 294.373H62.0805C61.226 294.373 60.5333 295.016 60.5333 295.809V300.43C60.5333 301.223 61.226 301.866 62.0805 301.866H71.9243C72.7787 301.866 73.4714 301.223 73.4714 300.43V295.809C73.4714 295.016 72.7787 294.373 71.9243 294.373Z" fill="#F7F3EF" stroke="#4E4E4E" stroke-width="2" stroke-linecap="round" stroke-linejoin="round"/>
<path d="M70.7073 293.404H60.8635C60.0091 293.404 59.3164 294.046 59.3164 294.839V299.461C59.3164 300.253 60.0091 300.896 60.8635 300.896H70.7073C71.5618 300.896 72.2545 300.253 72.2545 299.461V294.839C72.2545 294.046 71.5618 293.404 70.7073 293.404Z" fill="#F7F3EF" stroke="#4E4E4E" stroke-width="2" stroke-linecap="round" stroke-linejoin="round"/>
<path d="M104.631 282.603C108.814 282.603 112.204 279.457 112.204 275.577C112.204 271.696 108.814 268.55 104.631 268.55C100.449 268.55 97.0585 271.696 97.0585 275.577C97.0585 279.457 100.449 282.603 104.631 282.603Z" fill="#F7F3EF" stroke="#4E4E4E" stroke-width="2" stroke-linecap="round" stroke-linejoin="round"/>
<path d="M103.546 281.445C107.853 281.445 111.345 278.205 111.345 274.208C111.345 270.212 107.853 266.972 103.546 266.972C99.2384 266.972 95.7466 270.212 95.7466 274.208C95.7466 278.205 99.2384 281.445 103.546 281.445Z" fill="#F7F3EF" stroke="#4E4E4E" stroke-width="2" stroke-linecap="round" stroke-linejoin="round"/>
<path d="M102.496 280.11H109.979C111.658 280.11 113.269 280.729 114.457 281.831C115.645 282.933 116.312 284.428 116.312 285.987V299.738C116.312 300.212 116.109 300.667 115.747 301.002C115.386 301.337 114.896 301.526 114.385 301.526H98.099C97.5879 301.526 97.0977 301.337 96.7363 301.002C96.3749 300.667 96.1719 300.212 96.1719 299.738V285.987C96.1719 284.428 96.8391 282.933 98.0269 281.831C99.2146 280.729 100.825 280.11 102.505 280.11H102.496Z" fill="#F7F3EF" stroke="#4E4E4E" stroke-width="2" stroke-linecap="round" stroke-linejoin="round"/>
<path d="M102.496 280.11H109.979C111.658 280.11 113.269 280.729 114.457 281.831C115.645 282.933 116.312 284.428 116.312 285.987V299.738C116.312 300.212 116.109 300.667 115.747 301.002C115.386 301.337 114.896 301.526 114.385 301.526H98.099C97.5879 301.526 97.0977 301.337 96.7363 301.002C96.3749 300.667 96.1719 300.212 96.1719 299.738V285.987C96.1719 284.428 96.8391 282.933 98.0269 281.831C99.2146 280.729 100.825 280.11 102.505 280.11H102.496Z" fill="#4E4E4E"/>
<path d="M97.1037 280.11H104.595C106.275 280.11 107.886 280.729 109.073 281.831C110.261 282.933 110.928 284.428 110.928 285.987V299.738C110.928 300.212 110.725 300.667 110.364 301.002C110.003 301.337 109.512 301.526 109.001 301.526H92.6795C92.1684 301.526 91.6782 301.337 91.3168 301.002C90.9554 300.667 90.7523 300.212 90.7523 299.738V285.987C90.7523 284.428 91.4196 282.933 92.6073 281.831C93.795 280.729 95.406 280.11 97.0857 280.11H97.1037Z" fill="#F7F3EF" stroke="#4E4E4E" stroke-width="2" stroke-linecap="round" stroke-linejoin="round"/>
<path d="M106.898 288.001H97.054C96.1995 288.001 95.5068 288.644 95.5068 289.437V294.058C95.5068 294.851 96.1995 295.494 97.054 295.494H106.898C107.752 295.494 108.445 294.851 108.445 294.058V289.437C108.445 288.644 107.752 288.001 106.898 288.001Z" fill="#F7F3EF" stroke="#4E4E4E" stroke-width="2" stroke-linecap="round" stroke-linejoin="round"/>
<path d="M105.676 287.032H95.8325C94.9781 287.032 94.2854 287.674 94.2854 288.467V293.089C94.2854 293.882 94.9781 294.524 95.8325 294.524H105.676C106.531 294.524 107.223 293.882 107.223 293.089V288.467C107.223 287.674 106.531 287.032 105.676 287.032Z" fill="#F7F3EF" stroke="#4E4E4E" stroke-width="2" stroke-linecap="round" stroke-linejoin="round"/>
<path d="M453.756 130.632V183.407H499.718V134.401C499.718 132.303 497.406 130.624 494.547 130.624L453.756 130.632Z" fill="#4E4E4E"/>
<path d="M425.862 114.094H437.529V120.008L425.862 118.182V114.094Z" fill="#F7F3EF" stroke="#4E4E4E" stroke-width="2" stroke-linecap="round" stroke-linejoin="round"/>
<path d="M437.357 132.492H623.136" stroke="#4E4E4E" stroke-width="2" stroke-linecap="round" stroke-linejoin="round"/>
<path d="M644.081 103.268H416.76V114.098H644.081V103.268Z" fill="#F7F3EF" stroke="#4E4E4E" stroke-width="2" stroke-linecap="round" stroke-linejoin="round"/>
<path d="M437.533 114.094H425.862V132.492H437.533V114.094Z" fill="#F7F3EF" stroke="#4E4E4E" stroke-width="2" stroke-linecap="round" stroke-linejoin="round"/>
<path d="M623.489 114.094H635.156V120.008L623.489 118.182V114.094Z" fill="#F7F3EF" stroke="#4E4E4E" stroke-width="2" stroke-linecap="round" stroke-linejoin="round"/>
<path d="M635.156 114.094H623.484V132.492H635.156V114.094Z" fill="#F7F3EF" stroke="#4E4E4E" stroke-width="2" stroke-linecap="round" stroke-linejoin="round"/>
<path d="M494.583 130.632C491.579 130.632 489.155 132.311 489.155 134.41V171.835H446.445V134.401C446.445 132.303 448.875 130.624 451.874 130.624L494.583 130.632Z" fill="#F7F3EF" stroke="#4E4E4E" stroke-width="2" stroke-linecap="round" stroke-linejoin="round"/>
<path d="M457.578 102.567C476.444 102.567 491.738 88.3769 491.738 70.872C491.738 53.367 476.444 39.1765 457.578 39.1765C438.713 39.1765 423.419 53.367 423.419 70.872C423.419 88.3769 438.713 102.567 457.578 102.567Z" fill="#F7F3EF" stroke="#4E4E4E" stroke-width="2" stroke-linecap="round" stroke-linejoin="round"/>
<path d="M475.474 76.9093C479.063 67.7402 473.961 57.6077 464.079 54.2776C454.197 50.9476 443.277 55.6811 439.688 64.8502C436.099 74.0193 441.201 84.1519 451.083 87.482C460.965 90.812 471.885 86.0785 475.474 76.9093Z" fill="#F7F3EF" stroke="#4E4E4E" stroke-width="2" stroke-linecap="round" stroke-linejoin="round"/>
<path d="M512.158 82.1087H557.636C557.634 82.9797 557.26 83.8144 556.596 84.4303C555.932 85.0462 555.032 85.3932 554.094 85.3954H515.696C514.757 85.3943 513.857 85.0475 513.194 84.4313C512.531 83.815 512.158 82.9797 512.158 82.1087Z" fill="#F7F3EF" stroke="#4E4E4E" stroke-width="2" stroke-linecap="round" stroke-linejoin="round"/>
<path d="M507.969 89.4082H561.802C561.802 90.4402 561.36 91.4299 560.574 92.1596C559.788 92.8893 558.721 93.2993 557.609 93.2993H512.163C511.05 93.2993 509.984 92.8893 509.197 92.1596C508.411 91.4299 507.969 90.4402 507.969 89.4082Z" fill="#F7F3EF" stroke="#4E4E4E" stroke-width="2" stroke-linecap="round" stroke-linejoin="round"/>
<path d="M502.237 97.8494H567.561C567.561 99.1007 567.025 100.301 566.072 101.186C565.118 102.07 563.825 102.567 562.476 102.567H507.318C505.97 102.565 504.679 102.067 503.726 101.183C502.774 100.298 502.239 99.0997 502.237 97.8494Z" fill="#F7F3EF" stroke="#4E4E4E" stroke-width="2" stroke-linecap="round" stroke-linejoin="round"/>
<path d="M505.879 78.7087H563.915C564.058 78.7112 564.195 78.7597 564.303 78.8459C564.412 78.9321 564.485 79.0506 564.509 79.1811C564.534 79.3116 564.509 79.446 564.438 79.5612C564.368 79.6765 564.256 79.7653 564.123 79.8127L557.971 81.9114H511.828L505.671 79.8127C505.538 79.7653 505.426 79.6765 505.356 79.5612C505.285 79.446 505.26 79.3116 505.285 79.1811C505.309 79.0506 505.382 78.9321 505.49 78.8459C505.599 78.7597 505.736 78.7112 505.879 78.7087Z" fill="#F7F3EF" stroke="#4E4E4E" stroke-width="2" stroke-linecap="round" stroke-linejoin="round"/>
<path d="M511.823 81.8946H557.966C557.96 82.7772 557.58 83.6222 556.908 84.2467C556.236 84.8712 555.325 85.2251 554.374 85.2317H515.411C514.939 85.2322 514.472 85.1464 514.035 84.9791C513.599 84.8118 513.203 84.5663 512.87 84.2567C512.536 83.9471 512.271 83.5795 512.091 83.1749C511.911 82.7703 511.818 82.3367 511.819 81.8988L511.823 81.8946Z" fill="#F7F3EF" stroke="#4E4E4E" stroke-width="2" stroke-linecap="round" stroke-linejoin="round"/>
<path d="M500.532 85.2652H569.257C569.428 85.2661 569.593 85.3224 569.723 85.4245C569.854 85.5265 569.941 85.6678 569.971 85.8237C570 85.9796 569.97 86.1401 569.885 86.2774C569.8 86.4147 569.666 86.5199 569.506 86.5749L562.218 89.043H507.571L500.283 86.5749C500.123 86.5199 499.989 86.4147 499.904 86.2774C499.819 86.1401 499.789 85.9796 499.818 85.8237C499.848 85.6678 499.936 85.5265 500.066 85.4245C500.196 85.3224 500.361 85.2661 500.532 85.2652Z" fill="#F7F3EF" stroke="#4E4E4E" stroke-width="2" stroke-linecap="round" stroke-linejoin="round"/>
<path d="M507.571 89.043H562.219C562.219 90.0895 561.771 91.093 560.973 91.833C560.176 92.573 559.094 92.9887 557.966 92.9887H511.823C511.265 92.9892 510.712 92.8877 510.196 92.6899C509.68 92.4921 509.21 92.202 508.815 91.836C508.42 91.47 508.106 91.0353 507.892 90.5568C507.678 90.0783 507.567 89.5654 507.566 89.0472L507.571 89.043Z" fill="#F7F3EF" stroke="#4E4E4E" stroke-width="2" stroke-linecap="round" stroke-linejoin="round"/>
<path d="M493.217 93.0265H576.577C576.785 93.0238 576.988 93.09 577.148 93.213C577.309 93.3361 577.417 93.5081 577.453 93.6982C577.49 93.8884 577.452 94.0844 577.347 94.2513C577.242 94.4181 577.077 94.5449 576.88 94.6089L568.041 97.606H501.753L492.914 94.6089C492.718 94.5449 492.552 94.4181 492.447 94.2513C492.342 94.0844 492.305 93.8884 492.341 93.6982C492.377 93.5081 492.485 93.3361 492.646 93.213C492.806 93.09 493.009 93.0238 493.217 93.0265Z" fill="#F7F3EF" stroke="#4E4E4E" stroke-width="2" stroke-linecap="round" stroke-linejoin="round"/>
<path d="M501.753 97.606H568.041C568.041 98.2345 567.908 98.857 567.649 99.4378C567.39 100.019 567.011 100.546 566.532 100.991C566.053 101.435 565.484 101.788 564.858 102.028C564.232 102.268 563.561 102.392 562.884 102.391H506.915C506.238 102.392 505.567 102.269 504.94 102.03C504.314 101.79 503.745 101.438 503.266 100.994C502.786 100.55 502.406 100.022 502.146 99.4417C501.887 98.8611 501.753 98.2387 501.753 97.6102V97.606Z" fill="#F7F3EF" stroke="#4E4E4E" stroke-width="2" stroke-linecap="round" stroke-linejoin="round"/>
<path d="M524.992 135.144L539.713 148.845C541.857 150.839 541.744 154.172 539.455 156.283L533.859 161.463C531.574 163.562 527.978 163.675 525.843 161.681L511.118 147.98L524.992 135.144Z" fill="#F7F3EF" stroke="#4E4E4E" stroke-width="2" stroke-linecap="round" stroke-linejoin="round"/>
<path d="M527.96 137.906C530.561 135.497 534.646 135.388 537.089 137.659L540.061 140.425C542.499 142.696 542.368 146.486 539.767 148.895" stroke="#4E4E4E" stroke-width="2" stroke-linecap="round" stroke-linejoin="round"/>
<path d="M534.185 132.492H532.443V138.016H534.185V132.492Z" fill="#F7F3EF" stroke="#4E4E4E" stroke-width="2" stroke-linecap="round" stroke-linejoin="round"/>
<path d="M564.784 135.144L579.509 148.845C581.648 150.839 581.535 154.172 579.251 156.283L573.65 161.463C571.388 163.562 567.769 163.675 565.634 161.681L550.909 147.98L564.784 135.144Z" fill="#F7F3EF" stroke="#4E4E4E" stroke-width="2" stroke-linecap="round" stroke-linejoin="round"/>
<path d="M564.784 135.144L579.509 148.845C581.648 150.839 581.535 154.172 579.251 156.283L573.65 161.463C571.388 163.562 567.769 163.675 565.634 161.681L550.909 147.98L564.784 135.144Z" fill="#F7F3EF" stroke="#4E4E4E" stroke-width="2" stroke-linecap="round" stroke-linejoin="round"/>
<path d="M567.751 137.906C570.352 135.497 574.442 135.388 576.88 137.659L579.852 140.425C582.291 142.696 582.164 146.486 579.558 148.895" stroke="#4E4E4E" stroke-width="2" stroke-linecap="round" stroke-linejoin="round"/>
<path d="M557.944 147.07C558.146 147.258 558.283 147.497 558.339 147.757C558.395 148.018 558.366 148.288 558.256 148.533C558.146 148.778 557.961 148.988 557.723 149.135C557.485 149.283 557.205 149.362 556.919 149.362C556.633 149.362 556.353 149.283 556.115 149.135C555.877 148.988 555.691 148.778 555.582 148.533C555.472 148.288 555.443 148.018 555.499 147.757C555.555 147.497 555.692 147.258 555.894 147.07C556.029 146.945 556.188 146.845 556.364 146.778C556.54 146.71 556.729 146.675 556.919 146.675C557.109 146.675 557.298 146.71 557.474 146.778C557.649 146.845 557.809 146.945 557.944 147.07Z" fill="#F7F3EF" stroke="#4E4E4E" stroke-width="2" stroke-linecap="round" stroke-linejoin="round"/>
<path d="M565.788 139.791C565.991 139.98 566.129 140.22 566.185 140.481C566.241 140.742 566.212 141.013 566.102 141.259C565.993 141.506 565.806 141.716 565.568 141.864C565.329 142.012 565.048 142.091 564.761 142.091C564.474 142.091 564.193 142.012 563.954 141.864C563.715 141.716 563.529 141.506 563.419 141.259C563.309 141.013 563.281 140.742 563.337 140.481C563.393 140.22 563.531 139.98 563.734 139.791C564.007 139.539 564.376 139.398 564.761 139.398C565.146 139.398 565.515 139.539 565.788 139.791Z" fill="#F7F3EF" stroke="#4E4E4E" stroke-width="2" stroke-linecap="round" stroke-linejoin="round"/>
<path d="M561.866 143.43C562.068 143.618 562.205 143.858 562.261 144.118C562.317 144.379 562.288 144.649 562.178 144.894C562.069 145.139 561.883 145.349 561.645 145.496C561.407 145.644 561.127 145.722 560.841 145.722C560.555 145.722 560.275 145.644 560.037 145.496C559.799 145.349 559.614 145.139 559.504 144.894C559.394 144.649 559.365 144.379 559.421 144.118C559.477 143.858 559.614 143.618 559.816 143.43C559.951 143.305 560.111 143.206 560.286 143.138C560.462 143.071 560.651 143.036 560.841 143.036C561.031 143.036 561.22 143.071 561.396 143.138C561.572 143.206 561.731 143.305 561.866 143.43Z" fill="#F7F3EF" stroke="#4E4E4E" stroke-width="2" stroke-linecap="round" stroke-linejoin="round"/>
<path d="M558.835 152.081C559.037 152.269 559.175 152.509 559.23 152.769C559.286 153.03 559.257 153.3 559.147 153.545C559.038 153.79 558.852 154 558.614 154.147C558.376 154.295 558.096 154.373 557.81 154.373C557.524 154.373 557.244 154.295 557.006 154.147C556.768 154 556.583 153.79 556.473 153.545C556.363 153.3 556.335 153.03 556.39 152.769C556.446 152.509 556.583 152.269 556.786 152.081C556.92 151.956 557.08 151.857 557.256 151.79C557.431 151.722 557.62 151.687 557.81 151.687C558.001 151.687 558.189 151.722 558.365 151.79C558.541 151.857 558.7 151.956 558.835 152.081Z" fill="#F7F3EF" stroke="#4E4E4E" stroke-width="2" stroke-linecap="round" stroke-linejoin="round"/>
<path d="M567.073 144.442C567.275 144.63 567.412 144.869 567.468 145.13C567.524 145.39 567.495 145.66 567.385 145.905C567.275 146.151 567.09 146.36 566.852 146.508C566.614 146.655 566.334 146.734 566.048 146.734C565.762 146.734 565.482 146.655 565.244 146.508C565.006 146.36 564.82 146.151 564.711 145.905C564.601 145.66 564.572 145.39 564.628 145.13C564.684 144.869 564.821 144.63 565.023 144.442C565.158 144.317 565.318 144.218 565.493 144.15C565.669 144.082 565.858 144.048 566.048 144.048C566.238 144.048 566.427 144.082 566.603 144.15C566.778 144.218 566.938 144.317 567.073 144.442Z" fill="#F7F3EF" stroke="#4E4E4E" stroke-width="2" stroke-linecap="round" stroke-linejoin="round"/>
<path d="M571.189 140.618C571.392 140.806 571.529 141.045 571.585 141.306C571.64 141.566 571.612 141.836 571.502 142.081C571.392 142.327 571.207 142.536 570.969 142.684C570.731 142.831 570.451 142.91 570.165 142.91C569.879 142.91 569.599 142.831 569.361 142.684C569.123 142.536 568.937 142.327 568.828 142.081C568.718 141.836 568.689 141.566 568.745 141.306C568.8 141.045 568.938 140.806 569.14 140.618C569.274 140.493 569.434 140.394 569.61 140.326C569.786 140.258 569.974 140.224 570.165 140.224C570.355 140.224 570.544 140.258 570.719 140.326C570.895 140.394 571.055 140.493 571.189 140.618Z" fill="#F7F3EF" stroke="#4E4E4E" stroke-width="2" stroke-linecap="round" stroke-linejoin="round"/>
<path d="M562.956 148.262C563.158 148.45 563.296 148.689 563.351 148.949C563.407 149.21 563.378 149.48 563.268 149.725C563.159 149.97 562.973 150.18 562.735 150.328C562.497 150.475 562.217 150.554 561.931 150.554C561.645 150.554 561.365 150.475 561.127 150.328C560.889 150.18 560.704 149.97 560.594 149.725C560.484 149.48 560.456 149.21 560.511 148.949C560.567 148.689 560.704 148.45 560.907 148.262C561.041 148.137 561.201 148.037 561.377 147.97C561.552 147.902 561.741 147.867 561.931 147.867C562.122 147.867 562.31 147.902 562.486 147.97C562.662 148.037 562.821 148.137 562.956 148.262Z" fill="#F7F3EF" stroke="#4E4E4E" stroke-width="2" stroke-linecap="round" stroke-linejoin="round"/>
<path d="M564.241 152.908C564.443 153.096 564.58 153.336 564.636 153.596C564.692 153.857 564.663 154.127 564.553 154.372C564.444 154.617 564.258 154.827 564.02 154.974C563.782 155.122 563.502 155.2 563.216 155.2C562.93 155.2 562.65 155.122 562.412 154.974C562.174 154.827 561.989 154.617 561.879 154.372C561.769 154.127 561.74 153.857 561.796 153.596C561.852 153.336 561.989 153.096 562.191 152.908C562.326 152.783 562.486 152.684 562.661 152.616C562.837 152.549 563.026 152.514 563.216 152.514C563.406 152.514 563.595 152.549 563.771 152.616C563.947 152.684 564.106 152.783 564.241 152.908Z" fill="#F7F3EF" stroke="#4E4E4E" stroke-width="2" stroke-linecap="round" stroke-linejoin="round"/>
<path d="M572.08 145.634C572.283 145.822 572.42 146.061 572.476 146.322C572.531 146.582 572.503 146.852 572.393 147.098C572.283 147.343 572.098 147.552 571.86 147.7C571.622 147.847 571.342 147.926 571.056 147.926C570.77 147.926 570.49 147.847 570.252 147.7C570.014 147.552 569.828 147.343 569.719 147.098C569.609 146.852 569.58 146.582 569.636 146.322C569.691 146.061 569.829 145.822 570.031 145.634C570.166 145.509 570.325 145.41 570.501 145.342C570.677 145.274 570.865 145.24 571.056 145.24C571.246 145.24 571.435 145.274 571.61 145.342C571.786 145.41 571.946 145.509 572.08 145.634Z" fill="#F7F3EF" stroke="#4E4E4E" stroke-width="2" stroke-linecap="round" stroke-linejoin="round"/>
<path d="M568.163 149.273C568.365 149.461 568.503 149.701 568.558 149.961C568.614 150.222 568.585 150.491 568.475 150.737C568.366 150.982 568.18 151.192 567.942 151.339C567.704 151.487 567.424 151.565 567.138 151.565C566.852 151.565 566.572 151.487 566.334 151.339C566.096 151.192 565.911 150.982 565.801 150.737C565.691 150.491 565.663 150.222 565.718 149.961C565.774 149.701 565.911 149.461 566.114 149.273C566.248 149.148 566.408 149.049 566.583 148.981C566.759 148.914 566.948 148.879 567.138 148.879C567.328 148.879 567.517 148.914 567.693 148.981C567.869 149.049 568.028 149.148 568.163 149.273Z" fill="#F7F3EF" stroke="#4E4E4E" stroke-width="2" stroke-linecap="round" stroke-linejoin="round"/>
<path d="M565.118 157.924C565.32 158.112 565.458 158.352 565.514 158.612C565.569 158.873 565.54 159.143 565.431 159.388C565.321 159.633 565.136 159.843 564.898 159.99C564.66 160.138 564.38 160.216 564.094 160.216C563.808 160.216 563.528 160.138 563.29 159.99C563.052 159.843 562.866 159.633 562.757 159.388C562.647 159.143 562.618 158.873 562.674 158.612C562.729 158.352 562.867 158.112 563.069 157.924C563.204 157.799 563.363 157.7 563.539 157.633C563.715 157.565 563.903 157.53 564.094 157.53C564.284 157.53 564.473 157.565 564.648 157.633C564.824 157.7 564.984 157.799 565.118 157.924Z" fill="#F7F3EF" stroke="#4E4E4E" stroke-width="2" stroke-linecap="round" stroke-linejoin="round"/>
<path d="M572.343 152.577C573.142 152.577 573.79 151.975 573.79 151.234C573.79 150.492 573.142 149.89 572.343 149.89C571.543 149.89 570.895 150.492 570.895 151.234C570.895 151.975 571.543 152.577 572.343 152.577Z" fill="#F7F3EF" stroke="#4E4E4E" stroke-width="2" stroke-linecap="round" stroke-linejoin="round"/>
<path d="M576.464 148.757C577.264 148.757 577.912 148.156 577.912 147.414C577.912 146.672 577.264 146.071 576.464 146.071C575.665 146.071 575.016 146.672 575.016 147.414C575.016 148.156 575.665 148.757 576.464 148.757Z" fill="#F7F3EF" stroke="#4E4E4E" stroke-width="2" stroke-linecap="round" stroke-linejoin="round"/>
<path d="M569.248 154.105C569.451 154.293 569.588 154.532 569.644 154.792C569.7 155.053 569.671 155.323 569.561 155.568C569.451 155.813 569.266 156.023 569.028 156.17C568.79 156.318 568.51 156.397 568.224 156.397C567.938 156.397 567.658 156.318 567.42 156.17C567.182 156.023 566.996 155.813 566.887 155.568C566.777 155.323 566.748 155.053 566.804 154.792C566.859 154.532 566.997 154.293 567.199 154.105C567.334 153.98 567.493 153.88 567.669 153.813C567.845 153.745 568.033 153.71 568.224 153.71C568.414 153.71 568.603 153.745 568.778 153.813C568.954 153.88 569.114 153.98 569.248 154.105Z" fill="#F7F3EF" stroke="#4E4E4E" stroke-width="2" stroke-linecap="round" stroke-linejoin="round"/>
<path d="M570.547 158.751C570.749 158.939 570.887 159.179 570.942 159.439C570.998 159.7 570.969 159.97 570.859 160.215C570.75 160.46 570.564 160.67 570.326 160.817C570.088 160.965 569.809 161.043 569.522 161.043C569.236 161.043 568.956 160.965 568.718 160.817C568.48 160.67 568.295 160.46 568.185 160.215C568.076 159.97 568.047 159.7 568.102 159.439C568.158 159.179 568.295 158.939 568.498 158.751C568.632 158.626 568.792 158.527 568.968 158.459C569.143 158.392 569.332 158.357 569.522 158.357C569.713 158.357 569.901 158.392 570.077 158.459C570.253 158.527 570.413 158.626 570.547 158.751Z" fill="#F7F3EF" stroke="#4E4E4E" stroke-width="2" stroke-linecap="round" stroke-linejoin="round"/>
<path d="M578.378 151.477C578.58 151.665 578.717 151.904 578.773 152.165C578.829 152.425 578.8 152.695 578.69 152.94C578.58 153.186 578.395 153.395 578.157 153.543C577.919 153.69 577.639 153.769 577.353 153.769C577.067 153.769 576.787 153.69 576.549 153.543C576.311 153.395 576.125 153.186 576.016 152.94C575.906 152.695 575.877 152.425 575.933 152.165C575.988 151.904 576.126 151.665 576.328 151.477C576.463 151.352 576.622 151.253 576.798 151.185C576.974 151.117 577.163 151.083 577.353 151.083C577.543 151.083 577.732 151.117 577.908 151.185C578.083 151.253 578.243 151.352 578.378 151.477Z" fill="#F7F3EF" stroke="#4E4E4E" stroke-width="2" stroke-linecap="round" stroke-linejoin="round"/>
<path d="M574.46 155.116C574.663 155.305 574.801 155.545 574.857 155.806C574.913 156.067 574.885 156.338 574.775 156.585C574.665 156.831 574.479 157.041 574.24 157.189C574.001 157.337 573.72 157.416 573.433 157.416C573.146 157.416 572.865 157.337 572.626 157.189C572.388 157.041 572.201 156.831 572.092 156.585C571.982 156.338 571.953 156.067 572.009 155.806C572.065 155.545 572.203 155.305 572.406 155.116C572.679 154.865 573.048 154.723 573.433 154.723C573.818 154.723 574.187 154.865 574.46 155.116Z" fill="#F7F3EF" stroke="#4E4E4E" stroke-width="2" stroke-linecap="round" stroke-linejoin="round"/>
<path d="M573.487 132.492H571.746V138.016H573.487V132.492Z" fill="#F7F3EF" stroke="#4E4E4E" stroke-width="2" stroke-linecap="round" stroke-linejoin="round"/>
<path d="M604.575 135.144L619.3 148.845C621.44 150.839 621.327 154.172 619.042 156.283L613.442 161.463C611.18 163.562 607.561 163.675 605.425 161.681L590.7 147.98L604.575 135.144Z" fill="#F7F3EF" stroke="#4E4E4E" stroke-width="2" stroke-linecap="round" stroke-linejoin="round"/>
<path d="M607.543 137.906C610.144 135.497 614.233 135.388 616.672 137.659L619.644 140.425C622.087 142.696 621.955 146.486 619.354 148.895" stroke="#4E4E4E" stroke-width="2" stroke-linecap="round" stroke-linejoin="round"/>
<path d="M613.138 132.492H611.397V138.016H613.138V132.492Z" fill="#F7F3EF" stroke="#4E4E4E" stroke-width="2" stroke-linecap="round" stroke-linejoin="round"/>
<path d="M624.629 45.8085H620.485C619.745 45.8146 619.011 45.6851 618.325 45.4275C617.639 45.1698 617.015 44.7891 616.488 44.3071C615.961 43.8252 615.542 43.2514 615.254 42.6187C614.966 41.9861 614.816 41.307 614.812 40.6204V39.4871C614.811 38.8142 614.954 38.1479 615.233 37.5268C615.361 37.2324 615.522 36.951 615.712 36.6873C615.989 36.0657 616.132 35.3997 616.133 34.7271V33.9925C616.107 32.6168 615.496 31.3063 614.434 30.3464C613.371 29.3866 611.943 28.8549 610.46 28.8673H609.655C608.917 28.8612 608.184 28.9902 607.499 29.2468C606.815 29.5034 606.191 29.8826 605.664 30.3628C605.138 30.843 604.718 31.4148 604.429 32.0455C604.141 32.6762 603.989 33.3535 603.982 34.0387V34.7733C603.981 35.4461 604.124 36.1124 604.403 36.7335C604.592 36.9982 604.753 37.2793 604.882 37.573C605.161 38.1941 605.304 38.8604 605.303 39.5332V40.6204C605.303 43.4747 602.765 46.6313 599.63 46.6313H595.482C591.564 46.6313 588.389 48.6838 588.389 52.2601V96.4013C588.407 98.1309 589.164 99.7833 590.494 100.995C591.824 102.207 593.618 102.88 595.482 102.865H624.629C626.493 102.88 628.287 102.207 629.617 100.995C630.947 99.7833 631.704 98.1309 631.722 96.4013V52.2769C631.715 51.4203 631.525 50.5735 631.165 49.7848C630.804 48.9961 630.28 48.2811 629.622 47.6804C628.963 47.0798 628.184 46.6053 627.328 46.2841C626.472 45.9629 625.557 45.8013 624.633 45.8085H624.629ZM610.053 33.195C610.362 33.1999 610.663 33.2896 610.918 33.4526C611.172 33.6156 611.369 33.8448 611.484 34.1114C611.599 34.3779 611.626 34.6699 611.562 34.9508C611.499 35.2317 611.347 35.4888 611.126 35.69C610.906 35.8912 610.626 36.0275 610.322 36.0817C610.019 36.1358 609.704 36.1056 609.419 35.9946C609.134 35.8837 608.89 35.697 608.719 35.4581C608.548 35.2191 608.456 34.9385 608.456 34.6515C608.458 34.4586 608.501 34.2679 608.582 34.0903C608.663 33.9126 608.781 33.7516 608.93 33.6164C609.078 33.4811 609.253 33.3743 609.446 33.302C609.639 33.2297 609.845 33.1933 610.053 33.195Z" fill="#F7F3EF" stroke="#4E4E4E" stroke-width="2" stroke-linecap="round" stroke-linejoin="round"/>
<path d="M622.521 45.1328H618.377C617.632 45.1333 616.894 44.9975 616.205 44.7332C615.517 44.4689 614.891 44.0812 614.364 43.5923C613.838 43.1034 613.42 42.5229 613.135 41.884C612.85 41.2452 612.704 40.5604 612.704 39.8691V38.7315C612.705 38.048 612.848 37.3711 613.125 36.7377C613.255 36.444 613.416 36.1629 613.604 35.8982C613.884 35.264 614.027 34.5853 614.025 33.9002V33.1572C614.026 32.4665 613.88 31.7825 613.595 31.1442C613.311 30.5059 612.894 29.9257 612.368 29.437C611.842 28.9482 611.218 28.5603 610.53 28.2955C609.843 28.0307 609.106 27.8941 608.361 27.8935H607.552C606.807 27.893 606.07 28.0285 605.382 28.2923C604.694 28.5561 604.069 28.943 603.542 29.431C603.015 29.919 602.597 30.4985 602.312 31.1364C602.027 31.7743 601.879 32.4581 601.879 33.1488V33.9044C601.877 34.5895 602.02 35.2682 602.299 35.9024C602.48 36.1677 602.631 36.4489 602.752 36.7419C603.032 37.3744 603.177 38.0517 603.177 38.7357V39.8733C603.175 41.2686 602.576 42.6061 601.513 43.5928C600.45 44.5794 599.008 45.1347 597.504 45.137H593.356C591.476 45.137 589.673 45.8292 588.343 47.0617C587.013 48.2942 586.265 49.9662 586.263 51.7103V96.6237C586.263 97.4881 586.446 98.3439 586.803 99.1425C587.159 99.941 587.681 100.667 588.34 101.278C588.999 101.889 589.781 102.374 590.641 102.704C591.502 103.035 592.424 103.205 593.356 103.205H622.498C623.43 103.206 624.352 103.036 625.213 102.706C626.074 102.376 626.856 101.891 627.515 101.281C628.174 100.67 628.697 99.9447 629.054 99.1463C629.411 98.348 629.596 97.4923 629.596 96.6279V51.7145C629.597 49.9715 628.853 48.2993 627.526 47.0652C626.2 45.8311 624.399 45.1361 622.521 45.1328ZM607.95 35.2602C607.633 35.2602 607.323 35.173 607.06 35.0098C606.797 34.8465 606.591 34.6144 606.47 34.3429C606.349 34.0714 606.317 33.7726 606.379 33.4844C606.441 33.1961 606.593 32.9314 606.817 32.7235C607.041 32.5157 607.327 32.3742 607.637 32.3169C607.948 32.2596 608.27 32.289 608.563 32.4014C608.855 32.5139 609.105 32.7044 609.281 32.9487C609.457 33.1931 609.551 33.4804 609.551 33.7743C609.551 34.1672 609.383 34.5441 609.083 34.822C608.784 35.0999 608.378 35.256 607.954 35.256L607.95 35.2602Z" fill="#F7F3EF" stroke="#4E4E4E" stroke-width="2" stroke-linecap="round" stroke-linejoin="round"/>
<path d="M84.1656 54.9633H97.7777V72.0766C97.7777 73.7465 97.0628 75.348 95.7902 76.5288C94.5177 77.7096 92.7917 78.3729 90.992 78.3729C89.1923 78.3729 87.4664 77.7096 86.1938 76.5288C84.9212 75.348 84.2063 73.7465 84.2063 72.0766V54.9633H84.1656Z" fill="#F7F3EF" stroke="#4E4E4E" stroke-width="2" stroke-linecap="round" stroke-linejoin="round"/>
<path d="M90.9739 78.3603V98.5252" stroke="#4E4E4E" stroke-width="2" stroke-linecap="round" stroke-linejoin="round"/>
<path d="M98.1668 103.268L90.9739 98.6302L83.7766 103.268H98.1668Z" fill="#F7F3EF" stroke="#4E4E4E" stroke-width="2" stroke-linecap="round" stroke-linejoin="round"/>
<path d="M107.341 54.9633H120.953V72.0766C120.953 73.7465 120.238 75.348 118.966 76.5288C117.693 77.7096 115.967 78.3729 114.167 78.3729C112.368 78.3729 110.642 77.7096 109.369 76.5288C108.097 75.348 107.382 73.7465 107.382 72.0766V54.9633H107.341Z" fill="#F7F3EF" stroke="#4E4E4E" stroke-width="2" stroke-linecap="round" stroke-linejoin="round"/>
<path d="M114.149 78.3603V98.5252" stroke="#4E4E4E" stroke-width="2" stroke-linecap="round" stroke-linejoin="round"/>
<path d="M121.342 103.268L114.149 98.6302L106.957 103.268H121.342Z" fill="#F7F3EF" stroke="#4E4E4E" stroke-width="2" stroke-linecap="round" stroke-linejoin="round"/>
<path d="M130.521 54.9633H144.133V72.0766C144.133 73.7465 143.418 75.348 142.146 76.5288C140.873 77.7096 139.147 78.3729 137.347 78.3729C135.548 78.3729 133.822 77.7096 132.549 76.5288C131.277 75.348 130.562 73.7465 130.562 72.0766V54.9633H130.521Z" fill="#F7F3EF" stroke="#4E4E4E" stroke-width="2" stroke-linecap="round" stroke-linejoin="round"/>
<path d="M137.325 78.3603V98.5252" stroke="#4E4E4E" stroke-width="2" stroke-linecap="round" stroke-linejoin="round"/>
<path d="M144.522 103.268L137.329 98.6302L130.132 103.268H144.522Z" fill="#F7F3EF" stroke="#4E4E4E" stroke-width="2" stroke-linecap="round" stroke-linejoin="round"/>
<path d="M33.11 132.492H158.437" stroke="#4E4E4E" stroke-width="2" stroke-linecap="round" stroke-linejoin="round"/>
<path d="M158.32 114.094H169.991V120.008L158.32 118.182V114.094Z" fill="#F7F3EF" stroke="#4E4E4E" stroke-width="2" stroke-linecap="round" stroke-linejoin="round"/>
<path d="M21.4567 114.094H33.1281V120.008L21.4567 118.182V114.094Z" fill="#F7F3EF" stroke="#4E4E4E" stroke-width="2" stroke-linecap="round" stroke-linejoin="round"/>
<path d="M186.223 103.268H5.22974V114.098H186.223V103.268Z" fill="#F7F3EF" stroke="#4E4E4E" stroke-width="2" stroke-linecap="round" stroke-linejoin="round"/>
<path d="M33.1281 114.094H21.4567V132.492H33.1281V114.094Z" fill="#F7F3EF" stroke="#4E4E4E" stroke-width="2" stroke-linecap="round" stroke-linejoin="round"/>
<path d="M169.991 114.094H158.32V132.492H169.991V114.094Z" fill="#F7F3EF" stroke="#4E4E4E" stroke-width="2" stroke-linecap="round" stroke-linejoin="round"/>
<path d="M22.9269 79.2964H64.0935V83.6954C64.0935 88.7577 61.9265 93.6128 58.069 97.1928C54.2116 100.773 48.9796 102.785 43.5238 102.786C38.0671 102.786 32.834 100.774 28.9756 97.1943C25.1171 93.6142 22.9495 88.7584 22.9495 83.6954V79.2964H22.9269Z" fill="#E57B07" stroke="#4E4E4E" stroke-width="2" stroke-linecap="round" stroke-linejoin="round"/>
<path d="M41.4156 79.2964C41.4156 79.2964 43.0714 52.0419 53.0237 39.1765L41.4156 79.2964Z" fill="#F7F3EF"/>
<path d="M41.4156 79.2964C41.4156 79.2964 43.0714 52.0419 53.0237 39.1765" stroke="#4E4E4E" stroke-width="2" stroke-linecap="round" stroke-linejoin="round"/>
<path d="M44.9713 57.5364C44.9713 57.5364 46.6316 45.6784 58.9951 44.9858C59.0042 44.9858 60.7503 57.7757 44.9713 57.5364Z" fill="#EFAF00" stroke="#4E4E4E" stroke-width="2" stroke-linecap="round" stroke-linejoin="round"/>
<path d="M47.0795 50.2748C47.0795 50.2748 54.0868 37.5101 43.5011 32.5318C43.5238 32.536 37.2402 44.5032 47.0795 50.2748Z" fill="#EFAF00" stroke="#4E4E4E" stroke-width="2" stroke-linecap="round" stroke-linejoin="round"/>
<path d="M20.0904 60.1977C20.0904 60.1977 19.4571 45.8883 7.60022 46.3459C7.60022 46.3584 8.46427 59.6394 20.0904 60.1977Z" fill="#EFAF00" stroke="#4E4E4E" stroke-width="2" stroke-linecap="round" stroke-linejoin="round"/>
<path d="M42.515 69.6337C42.515 69.6337 47.378 55.1523 36.4938 50.279C36.4938 50.2748 30.9431 64.6807 42.515 69.6337Z" fill="#EFAF00" stroke="#4E4E4E" stroke-width="2" stroke-linecap="round" stroke-linejoin="round"/>
<path d="M42.0174 75.3004C42.0174 75.3004 40.4114 61.9229 53.0645 59.9542C53.0645 59.9542 55.8738 73.3611 42.0174 75.3004Z" fill="#EFAF00" stroke="#4E4E4E" stroke-width="2" stroke-linecap="round" stroke-linejoin="round"/>
<path d="M52.68 39.592C52.68 39.592 51.074 26.2187 63.7271 24.2501C63.7271 24.2501 66.5364 37.636 52.68 39.592Z" fill="#EFAF00" stroke="#4E4E4E" stroke-width="2" stroke-linecap="round" stroke-linejoin="round"/>
<path d="M19.7964 59.9542L35.1637 79.2964" stroke="#4E4E4E" stroke-width="2" stroke-linecap="round" stroke-linejoin="round"/>
<path d="M27.125 69.1636C27.125 69.1636 19.9457 60.5713 23.9583 51.2486C23.9719 51.2612 32.8114 57.5448 27.125 69.1636Z" fill="#EFAF00" stroke="#4E4E4E" stroke-width="2" stroke-linecap="round" stroke-linejoin="round"/>
<path d="M28.2921 70.6495C28.2921 70.6495 19.7964 75.972 11.7485 66.1498C11.7485 66.1498 21.4249 62.0278 28.2921 70.6495Z" fill="#EFAF00" stroke="#4E4E4E" stroke-width="2" stroke-linecap="round" stroke-linejoin="round"/>
<path d="M35.1638 79.2376C35.1638 79.2376 28.4143 85.1478 19.6697 77.4705C19.6697 77.4747 27.6588 72.4544 35.1638 79.2376Z" fill="#EFAF00" stroke="#4E4E4E" stroke-width="2" stroke-linecap="round" stroke-linejoin="round"/>
<path d="M35.1638 79.2964C35.1638 79.2964 28.8892 72.6517 33.3542 65.8643C33.3633 65.8727 40.5426 72.5216 35.1638 79.2964Z" fill="#EFAF00" stroke="#4E4E4E" stroke-width="2" stroke-linecap="round" stroke-linejoin="round"/>
<path d="M53.0237 79.2796C53.0237 79.2796 54.8332 69.47 64.3739 68.2695C64.392 68.2695 66.0115 79.2796 53.0237 79.2796Z" fill="#EFAF00" stroke="#4E4E4E" stroke-width="2" stroke-linecap="round" stroke-linejoin="round"/>
<path d="M92.6793 150.528H91.1774V189.679H92.6793V150.528Z" fill="#F7F3EF" stroke="#4E4E4E" stroke-width="2" stroke-linecap="round" stroke-linejoin="round"/>
<path d="M97.3841 208.479H86.4727C85.7367 208.464 85.0375 208.178 84.5286 207.685C84.0196 207.191 83.7426 206.53 83.7584 205.848C83.7615 205.727 83.7736 205.606 83.7946 205.487L84.5817 191.458C84.6676 190.852 84.986 190.295 85.4787 189.888C85.9714 189.482 86.6053 189.254 87.2643 189.246H96.597C97.2565 189.254 97.891 189.482 98.3844 189.888C98.8779 190.294 99.1972 190.852 99.2841 191.458L100.071 205.487C100.13 205.821 100.117 206.162 100.034 206.492C99.9506 206.821 99.798 207.132 99.585 207.407C99.372 207.682 99.1028 207.915 98.7927 208.093C98.4826 208.271 98.1377 208.391 97.7777 208.446C97.6474 208.465 97.516 208.476 97.3841 208.479Z" fill="#F7F3EF" stroke="#4E4E4E" stroke-width="2" stroke-linecap="round" stroke-linejoin="round"/>
<path d="M91.9284 193.2V205.121" stroke="#4E4E4E" stroke-width="2" stroke-linecap="round" stroke-linejoin="round"/>
<path d="M95.267 194.195V204.131" stroke="#4E4E4E" stroke-width="2" stroke-linecap="round" stroke-linejoin="round"/>
<path d="M88.5898 194.195V204.131" stroke="#4E4E4E" stroke-width="2" stroke-linecap="round" stroke-linejoin="round"/>
<path d="M93.9008 133.667L93.2358 149.869C93.2194 150.18 93.0742 150.473 92.8305 150.686C92.5868 150.9 92.2636 151.018 91.9284 151.015C91.5937 151.015 91.2719 150.895 91.0307 150.68C90.7894 150.465 90.6475 150.171 90.6346 149.861L89.9741 135.308C89.9741 134.829 89.8724 134.355 89.6749 133.912C89.4773 133.47 89.1877 133.068 88.8227 132.729C88.4576 132.39 88.0243 132.121 87.5473 131.938C87.0704 131.755 86.5592 131.66 86.0429 131.66C86.0559 131.223 86.2522 130.808 86.5902 130.503C86.9281 130.198 87.381 130.027 87.8524 130.028H89.9922C91.0293 130.033 92.0221 130.419 92.7542 131.1C93.4863 131.782 93.8984 132.705 93.9008 133.667Z" fill="#F7F3EF" stroke="#4E4E4E" stroke-width="2" stroke-linecap="round" stroke-linejoin="round"/>
<path d="M44.9804 150.528H43.4785V191.404H44.9804V150.528Z" fill="#F7F3EF" stroke="#4E4E4E" stroke-width="2" stroke-linecap="round" stroke-linejoin="round"/>
<path d="M26.9078 203.484C30.5992 208.391 37.4482 209.504 42.5737 205.961C47.6992 202.422 48.1063 195.572 44.4104 190.661L26.9078 203.484Z" fill="#F7F3EF" stroke="#4E4E4E" stroke-width="2" stroke-linecap="round" stroke-linejoin="round"/>
<path d="M46.1475 133.667L45.4825 149.869C45.4696 150.181 45.3272 150.475 45.0851 150.691C44.843 150.908 44.5201 151.028 44.1842 151.028C43.849 151.028 43.5268 150.908 43.2848 150.693C43.0428 150.478 42.8999 150.184 42.8858 149.874L42.2254 135.321C42.2254 134.354 41.8118 133.427 41.0755 132.743C40.3393 132.059 39.3405 131.674 38.2987 131.673C38.2981 131.456 38.3438 131.24 38.4332 131.04C38.5225 130.839 38.6538 130.656 38.8194 130.502C38.985 130.349 39.1818 130.227 39.3983 130.144C39.6148 130.061 39.8469 130.019 40.0811 130.019H42.2163C43.2589 130.019 44.2589 130.404 44.9961 131.088C45.7333 131.772 46.1475 132.699 46.1475 133.667Z" fill="#F7F3EF" stroke="#4E4E4E" stroke-width="2" stroke-linecap="round" stroke-linejoin="round"/>
<path d="M118.338 150.528H116.836V189.679H118.338V150.528Z" fill="#F7F3EF" stroke="#4E4E4E" stroke-width="2" stroke-linecap="round" stroke-linejoin="round"/>
<path d="M123.097 194.615L122.193 208.685H122.016L120.659 195.593C120.589 194.875 120.236 194.205 119.668 193.712C119.113 193.229 118.381 192.959 117.619 192.957C116.854 192.966 116.12 193.239 115.559 193.721C114.997 194.203 114.648 194.861 114.579 195.568L113.136 208.685H113.077L112.172 194.615C112.149 193.255 112.707 191.942 113.725 190.963C114.742 189.983 116.136 189.418 117.601 189.389C118.322 189.39 119.035 189.525 119.698 189.788C120.361 190.05 120.961 190.434 121.46 190.917C122.504 191.905 123.092 193.231 123.097 194.615Z" fill="#F7F3EF" stroke="#4E4E4E" stroke-width="2" stroke-linecap="round" stroke-linejoin="round"/>
<path d="M119.56 133.667L118.895 149.869C118.882 150.181 118.739 150.475 118.497 150.691C118.255 150.908 117.932 151.028 117.596 151.028C117.262 151.028 116.94 150.908 116.699 150.693C116.458 150.477 116.316 150.184 116.303 149.874L115.642 135.321C115.642 134.354 115.229 133.427 114.492 132.743C113.756 132.059 112.757 131.674 111.716 131.673C111.722 131.237 111.912 130.821 112.244 130.512C112.575 130.204 113.024 130.027 113.493 130.019H115.633C116.675 130.02 117.674 130.405 118.41 131.089C119.146 131.773 119.56 132.7 119.56 133.667Z" fill="#F7F3EF" stroke="#4E4E4E" stroke-width="2" stroke-linecap="round" stroke-linejoin="round"/>
<path d="M68.2237 150.528H66.7218V181.41H68.2237V150.528Z" fill="#F7F3EF" stroke="#4E4E4E" stroke-width="2" stroke-linecap="round" stroke-linejoin="round"/>
<path d="M74.5705 198.137C75.0229 204.643 71.8291 208.681 67.4772 208.681C63.6139 208.681 59.8275 204.038 60.3794 198.137C60.9222 192.336 64.5413 180.977 67.4772 180.977C70.4132 180.977 74.1679 192.323 74.5705 198.137Z" fill="#F7F3EF" stroke="#4E4E4E" stroke-width="2" stroke-linecap="round" stroke-linejoin="round"/>
<path d="M71.9061 198.653C72.1865 204.84 69.5356 208.681 67.4727 208.681C65.8125 208.681 62.7001 204.265 63.0439 198.653C63.3832 193.133 65.6406 181.351 67.4727 181.351C69.3049 181.351 71.6527 193.125 71.9061 198.653Z" fill="#F7F3EF" stroke="#4E4E4E" stroke-width="2" stroke-linecap="round" stroke-linejoin="round"/>
<path d="M69.133 133.667L68.468 149.869C68.4551 150.181 68.3127 150.475 68.0705 150.691C67.8284 150.908 67.5055 151.028 67.1696 151.028C66.8345 151.028 66.5122 150.908 66.2703 150.693C66.0283 150.478 65.8853 150.184 65.8713 149.874L65.2108 135.321C65.2114 134.842 65.1105 134.368 64.9137 133.926C64.7169 133.484 64.4281 133.082 64.0639 132.743C63.6997 132.404 63.2672 132.136 62.791 131.952C62.3149 131.768 61.8044 131.674 61.2887 131.673C61.298 131.239 61.4884 130.824 61.82 130.518C62.1515 130.211 62.5984 130.035 63.0666 130.028H65.2063C66.2466 130.029 67.244 130.412 67.98 131.095C68.716 131.777 69.1306 132.702 69.133 133.667Z" fill="#F7F3EF" stroke="#4E4E4E" stroke-width="2" stroke-linecap="round" stroke-linejoin="round"/>
<path d="M67.4727 181.351V208.681" stroke="#4E4E4E" stroke-width="2" stroke-linecap="round" stroke-linejoin="round"/>
<path d="M171.638 146.28C171.08 145.693 170.338 145.284 169.516 145.109L156.08 142.448L153.176 139.51L134.764 155.167L151.258 171.864C156.85 177.527 165.485 178.929 170.643 174.824C173.357 172.658 174.605 169.438 174.406 166.009C174.123 162.399 172.51 158.99 169.837 156.354L167.186 153.672C166.494 152.967 166.648 151.947 167.49 151.72L171.33 150.675C171.589 150.587 171.827 150.453 172.031 150.281C173.072 149.424 172.972 147.628 171.638 146.28Z" fill="#F7F3EF" stroke="#4E4E4E" stroke-width="2" stroke-linecap="round" stroke-linejoin="round"/>
<path d="M169.973 147.091C169.416 146.503 168.673 146.094 167.851 145.919L154.416 143.258L151.511 140.32L133.095 155.977L149.589 172.674C155.18 178.337 163.816 179.739 168.978 175.613C171.692 173.447 172.936 170.227 172.737 166.798C172.456 163.188 170.842 159.779 168.168 157.144L165.522 154.461C164.825 153.756 164.979 152.736 165.82 152.51L169.661 151.46C169.921 151.376 170.16 151.243 170.362 151.07C171.407 150.234 171.308 148.438 169.973 147.091Z" fill="#E57B07" stroke="#4E4E4E" stroke-width="2" stroke-linecap="round" stroke-linejoin="round"/>
<path d="M147.888 133.537C147.938 134.519 150.005 137.524 150.005 137.524C150.005 137.524 151.774 134.364 151.729 133.377C151.697 132.911 151.469 132.475 151.094 132.163C150.719 131.851 150.227 131.687 149.724 131.708C149.221 131.729 148.747 131.932 148.403 132.274C148.06 132.616 147.875 133.07 147.888 133.537Z" fill="#F7F3EF" stroke="#4E4E4E" stroke-width="2" stroke-linecap="round" stroke-linejoin="round"/>
<path d="M149.593 138.003L130.44 154.289C130.36 154.357 130.296 154.438 130.25 154.529C130.205 154.619 130.179 154.717 130.175 154.817C130.17 154.917 130.187 155.017 130.224 155.11C130.26 155.204 130.317 155.29 130.39 155.364L131.747 156.737C131.82 156.81 131.907 156.87 132.005 156.912C132.103 156.954 132.208 156.978 132.316 156.982C132.423 156.987 132.531 156.971 132.632 156.937C132.733 156.903 132.826 156.85 132.905 156.783L152.095 140.496C152.256 140.359 152.351 140.169 152.361 139.966C152.37 139.764 152.292 139.567 152.145 139.418L150.788 138.049C150.716 137.973 150.629 137.911 150.531 137.867C150.434 137.822 150.328 137.796 150.219 137.79C150.111 137.784 150.002 137.797 149.899 137.83C149.796 137.863 149.702 137.915 149.621 137.982L149.593 138.003Z" fill="#E57B07" stroke="#4E4E4E" stroke-width="2" stroke-linecap="round" stroke-linejoin="round"/>
<path d="M243.607 3.72H177.397V65.1549H243.607V3.72Z" fill="#4E4E4E"/>
<path d="M240.671 1H174.461V62.4349H240.671V1Z" fill="#F7F3EF" stroke="#4E4E4E" stroke-width="2" stroke-linecap="round" stroke-linejoin="round"/>
<path d="M230.126 10.7844H185.006V52.6505H230.126V10.7844Z" fill="#F7F3EF" stroke="#4E4E4E" stroke-width="2" stroke-linecap="round" stroke-linejoin="round"/>
<path d="M207.81 22.357C207.81 22.357 209.05 18.5456 206.164 17.3871L207.81 22.357Z" fill="#F7F3EF"/>
<path d="M207.81 22.357C207.81 22.357 209.05 18.5456 206.164 17.3871" stroke="#4E4E4E" stroke-width="2" stroke-linecap="round" stroke-linejoin="round"/>
<path d="M213.922 28.3427C214.184 29.7757 214.765 31.1424 215.627 32.3555C216.597 33.7048 217.155 35.2722 217.243 36.8919C217.331 38.5115 216.945 40.1231 216.126 41.5558C215.307 42.9885 214.086 44.1891 212.592 45.0303C211.098 45.8716 209.386 46.3221 207.638 46.3344C205.891 46.3466 204.172 45.92 202.664 45.0997C201.156 44.2795 199.916 43.0962 199.074 41.6751C198.232 40.2539 197.82 38.648 197.881 37.0273C197.943 35.4066 198.475 33.8315 199.423 32.4688C200.319 31.2202 200.934 29.8169 201.233 28.3427L201.291 28.0279C201.364 27.6543 201.404 27.2765 201.441 26.8945C201.567 25.6096 202.207 24.415 203.234 23.5452C204.261 22.6754 205.601 22.1932 206.991 22.1933H208.19C209.581 22.1932 210.921 22.6754 211.948 23.5452C212.975 24.415 213.614 25.6096 213.741 26.8945C213.777 27.2765 213.818 27.6543 213.89 28.0279L213.922 28.3427Z" fill="#EFAF00" stroke="#4E4E4E" stroke-width="2" stroke-linecap="round" stroke-linejoin="round"/>
<path d="M208.339 22.1513C208.339 22.1513 208.036 18.659 213.447 17.0807C213.447 17.0849 214.198 23.3644 208.339 22.1513Z" fill="#F7F3EF" stroke="#4E4E4E" stroke-width="2" stroke-linecap="round" stroke-linejoin="round"/>
</svg>
