<svg width="194" height="510" viewBox="0 0 194 510" fill="none" xmlns="http://www.w3.org/2000/svg">
<path d="M52.3173 488.814C52.3848 481.757 62.5309 467.108 65.2658 461.761L42.5637 460.95C42.5637 460.95 38.9973 474.836 33.8061 485.007C32.004 488.54 25.3651 497.639 11.8215 500.382C-0.751421 502.915 1.11827 508.528 1.11827 508.528H49.8778C60.3616 508.528 53.1487 492.364 53.1487 492.364L52.3173 488.814Z" fill="#FCBE9F" stroke="#4E4E4E" stroke-width="2" stroke-linecap="round" stroke-linejoin="round"/>
<path d="M41.8884 464.023C45.9612 465.884 53.6341 469.087 60.4587 470.029C62.4634 466.627 64.3162 463.639 65.2658 461.782L42.5637 460.967C42.5637 460.967 42.3611 462.077 41.8884 464.023Z" fill="#4E4E4E"/>
<path d="M53.1614 492.351C53.1614 492.351 60.3742 508.515 49.8905 508.515H1.10985C1.10985 508.515 -0.852698 502.4 11.813 500.37C13.573 500.087 18.6123 498.829 18.6123 498.829C18.6123 498.829 17.0465 503.641 28.1928 503.147C39.3392 502.653 44.3658 493.144 53.1614 492.351Z" fill="#E57B07" stroke="#4E4E4E" stroke-width="2" stroke-linecap="round" stroke-linejoin="round"/>
<path d="M164.663 487.189C163.101 481.665 167.457 466.264 168.66 461.761H148.401C148.401 461.761 151.064 476.832 150.773 484.973C150.642 488.578 146.629 497.702 133.566 500.349C123.901 502.763 124.323 508.494 124.323 508.494H165.629C176.117 508.494 167.149 492.33 167.149 492.33L164.663 487.189Z" fill="#FCBE9F" stroke="#4E4E4E" stroke-width="2" stroke-linecap="round" stroke-linejoin="round"/>
<path d="M168.656 461.765H148.397C148.397 461.765 148.899 464.66 149.444 468.598C156.817 469.294 164.397 466.846 167.626 465.643C168.048 464.023 168.415 462.668 168.656 461.765Z" fill="#4E4E4E"/>
<path d="M167.145 492.351C167.145 492.351 176.113 508.515 165.625 508.515H124.319C124.319 508.515 123.897 502.784 133.562 500.37C135.292 499.948 138.897 498.682 138.897 498.682C138.897 498.682 142.472 495.592 152.867 502.126C161.628 507.638 162.738 492.351 167.145 492.351Z" fill="#E57B07" stroke="#4E4E4E" stroke-width="2" stroke-linecap="round" stroke-linejoin="round"/>
<path d="M180.562 270.204C177.704 312.507 170.964 344.376 171.627 351.373C171.627 351.373 184.921 403.8 178.975 461.765C178.975 461.765 155.475 464.196 145.481 461.765C145.481 461.765 144.518 455.265 142.632 445.516C139.011 426.802 135.672 396.102 131.735 376.401C130.43 369.872 125.201 344.481 120.137 317.098C112.734 335.842 105.8 347.959 99.7558 364.419C99.7558 364.419 100.794 427.992 76.83 463.39L38.9889 461.014C38.9889 461.014 49.7174 410.562 54.7103 366.529L86.7186 177.919H143.902C143.902 177.919 183.921 211.442 180.562 270.204Z" fill="#E57B07" stroke="#4E4E4E" stroke-width="2" stroke-linecap="round" stroke-linejoin="round"/>
<path d="M119.841 319.145L112.303 263.139" stroke="#4E4E4E" stroke-width="2" stroke-linecap="round" stroke-linejoin="round"/>
<path d="M136.365 72.5411C144.299 74.491 164.309 79.6231 170.171 88.3342C177.793 99.6579 190.328 154.212 190.328 154.212L168.466 147.763C168.466 147.763 154.428 122.347 153.479 122.347C152.529 122.347 143.902 177.919 143.902 177.919H86.7187L81.979 149.848C81.979 149.848 69.8409 139.985 70.5837 133.916C71.3265 127.847 71.5713 126.066 71.5713 126.066C71.5713 126.066 65.0928 128.454 47.2527 146.092L26.4076 136.933C26.4076 136.933 58.6481 91.3519 67.9332 85.899C77.2183 80.4461 88.2254 79.2939 88.2254 79.2939L136.365 72.5411Z" fill="#F7F3EF" stroke="#4E4E4E" stroke-width="2" stroke-linecap="round" stroke-linejoin="round"/>
<path d="M108.843 34.8308C108.843 34.8308 115.984 63.6147 139.682 73.6257C139.682 73.6257 122.378 85.6035 85.9928 81.1593C85.9928 81.1593 98.8991 66.472 96.4597 50.1639L108.843 34.8308Z" fill="#FCBE9F" stroke="#4E4E4E" stroke-width="2" stroke-linecap="round" stroke-linejoin="round"/>
<path d="M93.0326 75.8879C92.0448 75.9225 91.0628 75.7229 90.1669 75.3055C93.691 69.5361 97.9537 60.1581 96.4597 50.1724L108.425 35.3499C108.91 36.0168 109.159 36.4262 109.159 36.4262C110.843 41.6174 111.827 75.0692 93.0326 75.8879Z" fill="#4E4E4E"/>
<path d="M108.843 34.8308C110.531 40.022 108.21 64.7964 94.4676 66.4846C84.14 67.7508 72.7109 47.007 71.2295 42.3518C69.7481 37.6965 71.5587 26.5502 82.6249 23.1991C97.4177 18.7 108.843 34.8308 108.843 34.8308Z" fill="#FCBE9F" stroke="#4E4E4E" stroke-width="2" stroke-linecap="round" stroke-linejoin="round"/>
<path d="M76.8976 29.3526C76.8976 29.3526 87.0985 38.0046 108.843 34.8392C108.843 34.8392 115.173 64.0958 139.682 73.6426C139.682 73.6426 155.492 55.7308 144.86 43.4069C138.108 35.5905 122.969 42.4573 122.969 42.4573C122.969 42.4573 136.474 8.4906 102.972 8.33022C69.4695 8.16984 62.2946 43.7276 72.3521 45.0486C72.3521 45.036 67.4225 34.8308 76.8976 29.3526Z" fill="#4E4E4E"/>
<path d="M146.435 40.3723C134.854 31.5515 122.314 42.6092 122.314 42.6092" stroke="#4E4E4E" stroke-width="2" stroke-linecap="round" stroke-linejoin="round"/>
<path d="M76.5768 29.0318C76.5768 29.0318 82.2787 41.8368 104.01 38.663" stroke="#4E4E4E" stroke-width="2" stroke-linecap="round" stroke-linejoin="round"/>
<path d="M68.2118 37.7978C68.2118 37.7978 64.886 25.3093 68.3764 19.4386C71.8667 13.5679 87.7401 1.8222 99.0046 1.03296C110.269 0.243728 134.879 13.8886 134.879 13.8886C134.879 13.8886 114.287 14.9269 110.535 40.3554C110.535 40.3554 101.14 19.1516 84.3679 22.7559C67.5956 26.3602 68.2118 37.7978 68.2118 37.7978Z" fill="#EFAF00" stroke="#4E4E4E" stroke-width="2" stroke-linecap="round" stroke-linejoin="round"/>
<path d="M129.975 68.865C129.975 68.865 122.77 88.8786 122.011 103.528C122.011 103.528 96.7298 107.107 90.8886 103.887C87.2505 101.882 91.8888 74.2082 91.8888 74.2082L83.127 80.1802C83.127 80.1802 72.5758 118.215 71.5755 126.066C70.5753 133.916 67.5534 138.66 81.9664 149.848L86.706 177.919L71.259 256.952C71.259 256.952 130.532 261.172 151.584 255.686C172.636 250.199 143.902 177.919 143.902 177.919L148.169 151.207C148.169 151.207 124.112 128.796 136.386 72.5411L129.975 68.865Z" fill="#EFAF00" stroke="#4E4E4E" stroke-width="2" stroke-linecap="round" stroke-linejoin="round"/>
<path d="M168.592 160.484C166.934 159.804 161.941 144.496 173.957 141.213C189.712 136.904 192.852 145.045 192.434 151.785C191.628 164.789 183.381 166.532 168.592 160.484Z" fill="#F7F3EF" stroke="#4E4E4E" stroke-width="2" stroke-linecap="round" stroke-linejoin="round"/>
<path d="M109.421 175.188L109.252 175.099C108.945 174.939 108.714 174.662 108.611 174.332C108.507 174.001 108.539 173.643 108.699 173.335L118.63 151.832C118.709 151.68 118.818 151.545 118.949 151.435C119.08 151.325 119.232 151.242 119.395 151.191C119.559 151.139 119.731 151.121 119.901 151.136C120.072 151.151 120.238 151.2 120.39 151.279L122.644 152.461C122.796 152.54 122.93 152.648 123.04 152.78C123.15 152.911 123.233 153.063 123.285 153.226C123.336 153.389 123.355 153.561 123.34 153.732C123.324 153.903 123.276 154.069 123.197 154.221L111.185 174.635C111.024 174.942 110.748 175.173 110.417 175.277C110.087 175.38 109.728 175.348 109.421 175.188Z" fill="#F7F3EF" stroke="#4E4E4E" stroke-width="2" stroke-linecap="round" stroke-linejoin="round"/>
<path d="M108.776 174.392L90.6808 208.961L92.169 209.74L110.264 175.171L108.776 174.392Z" fill="#F7F3EF" stroke="#4E4E4E" stroke-width="2" stroke-linecap="round" stroke-linejoin="round"/>
<path d="M93.7416 218.638C91.395 223.112 85.7227 227.4 82.7683 225.868C79.814 224.336 80.1263 217.224 82.4687 212.746C84.811 208.268 88.6179 207.682 91.4963 209.193C94.3747 210.704 96.084 214.169 93.7416 218.638Z" fill="#F7F3EF" stroke="#4E4E4E" stroke-width="2" stroke-linecap="round" stroke-linejoin="round"/>
<path d="M181.414 163.869C167.432 172.213 138.787 184.494 122.58 188.094C120.601 192.517 114.004 199.367 112.363 199.709C110.472 200.106 109.771 199.173 107.906 198.489C104.719 197.316 106.247 195.02 104.145 194.611C102.043 194.201 101.571 191.032 101.571 191.032C101.571 191.032 99.5913 191.289 98.4011 194.548C96.9155 198.62 94.7504 197.675 94.7504 197.675C94.7504 197.675 95.8562 191.078 96.8016 189.833C98.3473 187.817 100.097 185.966 102.022 184.309C103.2 183.313 113.375 181.401 118.427 181.451C131.089 170.588 152.614 154.668 166.854 148.785C177.071 144.56 193.996 156.348 181.414 163.869Z" fill="#FCBE9F" stroke="#4E4E4E" stroke-width="2" stroke-linecap="round" stroke-linejoin="round"/>
<path d="M21.1868 157.226C19.5282 156.546 14.6028 140.031 26.5511 136.524C38.4993 133.017 47.1261 141.217 47.603 147.953C47.8224 151.11 35.9755 163.274 21.1868 157.226Z" fill="#F7F3EF" stroke="#4E4E4E" stroke-width="2" stroke-linecap="round" stroke-linejoin="round"/>
<path d="M33.1858 169.545C31.2865 168.786 12.0832 156.968 23.8036 147.742C39.1156 135.684 44.5769 157.369 44.5769 157.369L33.1858 169.545Z" fill="#FCBE9F" stroke="#4E4E4E" stroke-width="2" stroke-linecap="round" stroke-linejoin="round"/>
<path d="M51.8024 161.108L51.6251 161.18C51.3104 161.311 50.9566 161.313 50.6406 161.185C50.3246 161.057 50.0717 160.81 49.9369 160.496L39.5924 139.17C39.4625 138.855 39.4613 138.502 39.5892 138.186C39.7171 137.871 39.9637 137.618 40.2762 137.482L42.6143 136.486C42.9335 136.352 43.2926 136.35 43.6136 136.479C43.9345 136.609 44.1912 136.86 44.3279 137.178L52.4861 159.416C52.6151 159.732 52.6158 160.085 52.4881 160.401C52.3604 160.717 52.1144 160.971 51.8024 161.108Z" fill="#F7F3EF" stroke="#4E4E4E" stroke-width="2" stroke-linecap="round" stroke-linejoin="round"/>
<path d="M52.3204 160.447L50.774 161.103L66.0136 197.023L67.5599 196.367L52.3204 160.447Z" fill="#F7F3EF" stroke="#4E4E4E" stroke-width="2" stroke-linecap="round" stroke-linejoin="round"/>
<path d="M75.4372 200.794C77.4124 205.436 77.1254 212.556 74.0782 213.848C71.031 215.139 65.7216 210.408 63.7464 205.757C61.7712 201.106 63.7464 197.793 66.7261 196.527C69.7057 195.261 73.4662 196.143 75.4372 200.794Z" fill="#F7F3EF" stroke="#4E4E4E" stroke-width="2" stroke-linecap="round" stroke-linejoin="round"/>
<path d="M43.2095 157.445C44.2224 156.787 46.7589 155.63 50.2999 158.825C53.8409 162.02 63.4932 172.787 62.1173 174.141C59.5133 176.741 54.36 168.009 53.3345 168.992C53.039 169.275 53.1656 169.955 53.0643 170.681C53.0188 171.125 52.8376 171.544 52.5454 171.882C52.2531 172.219 51.8641 172.458 51.431 172.567C49.8188 173.133 51.4521 175.196 49.1815 176.442C46.9108 177.687 48.0208 178.294 46.3959 180.24C44.56 182.422 34.1565 175.969 32.5273 172.504C30.8982 169.039 38.8877 160.26 43.2095 157.445Z" fill="#FCBE9F" stroke="#4E4E4E" stroke-width="2" stroke-linecap="round" stroke-linejoin="round"/>
<path d="M76.7963 47.9313C76.7963 47.9313 80.2529 49.8263 81.6541 46.0363" stroke="#4E4E4E" stroke-width="2" stroke-linecap="round" stroke-linejoin="round"/>
<path d="M88.5377 43.5039C88.5377 43.5039 92.3868 45.821 95.2272 41.3346" stroke="#4E4E4E" stroke-width="2" stroke-linecap="round" stroke-linejoin="round"/>
<path d="M84.4438 45.4918V51.544L87.1914 53.4348" stroke="#4E4E4E" stroke-width="2" stroke-linecap="round" stroke-linejoin="round"/>
<path d="M89.4578 57.2333C89.4578 57.2333 93.2858 56.0304 93.8218 53.1985" stroke="#4E4E4E" stroke-width="2" stroke-linecap="round" stroke-linejoin="round"/>
<path d="M89.614 110.496H121.454" stroke="#4E4E4E" stroke-width="2" stroke-linecap="round" stroke-linejoin="round"/>
<path d="M90.9899 163.818H106.796" stroke="#4E4E4E" stroke-width="2" stroke-linecap="round" stroke-linejoin="round"/>
<path d="M124.011 45.5462C127.503 41.6967 129.154 37.5044 127.697 36.1825C126.24 34.8605 122.227 36.9094 118.735 40.7588C115.242 44.6083 113.591 48.8006 115.048 50.1225C116.505 51.4445 120.518 49.3956 124.011 45.5462Z" fill="#E57B07" stroke="#4E4E4E" stroke-width="2" stroke-linecap="round" stroke-linejoin="round"/>
</svg>
