<svg width="28" height="28" viewBox="0 0 28 28" fill="none" xmlns="http://www.w3.org/2000/svg">
<path d="M19.1826 4.12497C19.3828 4.47885 19.7773 4.67629 20.1806 4.62438C20.4324 4.59197 20.6891 4.57517 20.95 4.57517C24.236 4.57517 26.9 7.2392 26.9 10.5257C26.9 13.2969 25.0047 15.6279 22.4381 16.2888C21.9963 16.4026 21.6875 16.801 21.6875 17.2572V22.3542C19.1265 21.911 16.5636 21.6892 14 21.6892C11.4364 21.6892 8.87345 21.911 6.31248 22.3542V17.2572C6.31248 16.801 6.00363 16.4025 5.56176 16.2888C2.99529 15.6282 1.09998 13.2971 1.09998 10.5257C1.09998 7.23911 3.76393 4.57517 7.04998 4.57517C7.31083 4.57517 7.56758 4.59198 7.81937 4.62438C8.22264 4.67628 8.61718 4.47885 8.81739 4.12497C9.84034 2.31681 11.7787 1.09998 14 1.09998C16.2213 1.09998 18.1596 2.31681 19.1826 4.12497ZM14 24.5579C16.5605 24.5579 19.123 24.8095 21.6875 25.3134V26.1622C21.6875 26.5695 21.3573 26.8997 20.9498 26.8997C20.9086 26.8997 20.8684 26.8963 20.8293 26.8898L20.8289 26.8898C18.5537 26.5117 16.2774 26.3224 13.9999 26.3224C11.7224 26.3224 9.44613 26.5117 7.17089 26.8898L7.17074 26.8898C6.76929 26.9566 6.38949 26.6854 6.32226 26.2837C6.31555 26.2428 6.31224 26.2021 6.31223 26.1623C6.31223 26.1623 6.31223 26.1622 6.31223 26.1622L6.31236 25.3135C8.87699 24.8095 11.4394 24.5579 14 24.5579Z" fill="#F7F3EF" stroke="#EFAF00" stroke-width="2" stroke-linejoin="round"/>
</svg>
