<svg width="24" height="28" viewBox="0 0 24 28" fill="none" xmlns="http://www.w3.org/2000/svg">
<path d="M4.95444 2.55094C4.3131 1.61544 3.09793 1.82406 2.82763 3.11496C2.4105 5.09754 2.78264 7.85074 4.99 11.3017C5.64955 12.4112 6.46679 13.419 7.41616 14.2936C7.7326 14.5755 8.12823 14.7531 8.54937 14.8025C8.97051 14.8518 9.39676 14.7705 9.77031 14.5694L17.1545 25.3404C17.352 25.6388 17.6529 25.8536 17.9994 25.9436C18.346 26.0335 18.7137 25.9923 19.0319 25.8278C19.2044 25.7329 19.3552 25.603 19.4746 25.4465C19.5941 25.29 19.6794 25.1102 19.7253 24.9188C19.7711 24.7275 19.7764 24.5286 19.7408 24.3352C19.7053 24.1417 19.6296 23.9578 19.5187 23.7954L4.95444 2.55094Z" fill="#E7871E"/>
<path d="M23.2385 3.72721L23.2198 3.71476C23.1171 3.64742 22.9919 3.62341 22.8717 3.64796C22.7514 3.67252 22.6458 3.74366 22.5779 3.84584L19.0829 9.11978C19.0226 9.21539 18.9306 9.28669 18.8229 9.32118C18.7153 9.35567 18.5989 9.35113 18.4942 9.30836C18.4324 9.28098 18.3773 9.24045 18.3328 9.1896C18.2883 9.13875 18.2554 9.07882 18.2364 9.01397C18.2175 8.94913 18.2129 8.88095 18.223 8.81419C18.2332 8.74742 18.2578 8.68369 18.2951 8.62744L21.7901 3.3535C21.8546 3.26073 21.8843 3.14821 21.8741 3.03566C21.864 2.9231 21.8145 2.81768 21.7344 2.73784C21.6852 2.69121 21.6263 2.65592 21.562 2.63444C21.4977 2.61296 21.4295 2.60582 21.3621 2.61352C21.2948 2.62122 21.2299 2.64357 21.1722 2.67901C21.1144 2.71444 21.0652 2.76209 21.0278 2.81862L17.5328 8.09257C17.4725 8.18809 17.3805 8.25932 17.2728 8.2938C17.1652 8.32828 17.0488 8.3238 16.9441 8.28115C16.8823 8.25374 16.8272 8.21319 16.7827 8.16233C16.7381 8.11147 16.7052 8.05153 16.6862 7.98667C16.6672 7.92181 16.6626 7.85361 16.6727 7.78681C16.6828 7.72001 16.7073 7.65623 16.7446 7.59992L20.2396 2.32597C20.3041 2.2332 20.3338 2.12069 20.3236 2.00813C20.3134 1.89557 20.264 1.79015 20.1839 1.71032C20.1347 1.66363 20.076 1.62828 20.0117 1.60676C19.9475 1.58524 19.8793 1.57807 19.812 1.58576C19.7447 1.59345 19.6799 1.61581 19.6222 1.65126C19.5645 1.68671 19.5153 1.73439 19.4781 1.79094L15.9831 7.06488C15.9228 7.1604 15.8307 7.23164 15.7231 7.26612C15.6155 7.30059 15.4991 7.29611 15.3944 7.25346C15.3325 7.22613 15.2773 7.18562 15.2327 7.13477C15.1881 7.08392 15.1552 7.02396 15.1362 6.95907C15.1172 6.89418 15.1126 6.82594 15.1227 6.75912C15.1328 6.6923 15.1575 6.62852 15.1948 6.57223L18.7036 1.27764C18.7711 1.17521 18.7953 1.05021 18.7709 0.929915C18.7465 0.809622 18.6755 0.703817 18.5734 0.635606L18.5541 0.622844C18.455 0.55684 18.3344 0.531472 18.2172 0.552005C18.1 0.572538 17.9952 0.637395 17.9247 0.733118C17.2053 1.71159 15.1703 4.4957 13.9648 6.31483C13.6346 6.81207 13.4436 7.38865 13.4115 7.98482C13.3794 8.58098 13.5075 9.17503 13.7823 9.70538C13.8803 9.88683 13.9374 10.0874 13.9497 10.2932C13.962 10.4989 13.9292 10.7048 13.8535 10.8965C13.0129 12.9291 11.4143 15.1434 4.94911 22.9336C3.93755 24.154 4.33462 25.2369 5.22331 25.8258C6.11201 26.4148 7.26328 26.3606 7.99285 24.9506C12.6479 15.9616 14.0646 13.626 15.6081 12.0599C15.7551 11.9157 15.9319 11.8053 16.1261 11.7366C16.3203 11.6678 16.5273 11.6423 16.7324 11.6618C17.328 11.7084 17.9251 11.5949 18.4617 11.3331C18.9984 11.0713 19.455 10.6707 19.7843 10.1728C20.9899 8.35368 22.7618 5.39322 23.3816 4.35079C23.4426 4.2485 23.4618 4.12659 23.4352 4.01044C23.4085 3.89429 23.3381 3.79284 23.2385 3.72721V3.72721Z" fill="#E7871E"/>
</svg>
