<svg width="26" height="27" viewBox="0 0 26 27" fill="none" xmlns="http://www.w3.org/2000/svg">
<mask id="path-1-inside-1_139_1033" fill="white">
<path d="M26 1.7645C25.4148 3.79586 24.0601 5.37874 22.9864 7.1168C19.2733 13.1248 15.5041 19.0949 11.7569 25.0801C10.6713 26.8125 8.55531 26.9932 7.24112 25.4368C5.05389 22.8444 2.87987 20.2416 0.71906 17.6284C-0.582219 16.0578 -0.051385 13.8438 1.77981 13.0945C2.86543 12.6526 4.0681 13.0065 4.92426 14.0293C6.24827 15.6099 7.56921 17.1932 8.88707 18.7789C8.9691 18.8782 9.05572 18.9738 9.16355 19.1034C9.25571 18.9974 9.34786 18.9094 9.42251 18.8139C13.8639 13.3181 18.3054 7.82261 22.7468 2.32745C23.1234 1.84226 23.5376 1.38916 23.9854 0.972585C24.2435 0.74362 24.613 0.614942 24.9531 0.526005C25.3964 0.411523 25.7696 0.685902 25.9023 1.13532C25.9263 1.21574 25.9604 1.29238 25.9945 1.3709L26 1.7645Z"/>
</mask>
<path d="M26 1.7645C25.4148 3.79586 24.0601 5.37874 22.9864 7.1168C19.2733 13.1248 15.5041 19.0949 11.7569 25.0801C10.6713 26.8125 8.55531 26.9932 7.24112 25.4368C5.05389 22.8444 2.87987 20.2416 0.71906 17.6284C-0.582219 16.0578 -0.051385 13.8438 1.77981 13.0945C2.86543 12.6526 4.0681 13.0065 4.92426 14.0293C6.24827 15.6099 7.56921 17.1932 8.88707 18.7789C8.9691 18.8782 9.05572 18.9738 9.16355 19.1034C9.25571 18.9974 9.34786 18.9094 9.42251 18.8139C13.8639 13.3181 18.3054 7.82261 22.7468 2.32745C23.1234 1.84226 23.5376 1.38916 23.9854 0.972585C24.2435 0.74362 24.613 0.614942 24.9531 0.526005C25.3964 0.411523 25.7696 0.685902 25.9023 1.13532C25.9263 1.21574 25.9604 1.29238 25.9945 1.3709L26 1.7645Z" fill="#070707" stroke="#070707" stroke-width="2" mask="url(#path-1-inside-1_139_1033)"/>
</svg>
