<svg width="32" height="22" viewBox="0 0 32 22" fill="none" xmlns="http://www.w3.org/2000/svg">
<rect x="4" y="6" width="27" height="15" fill="#F7F3EF"/>
<rect x="1" y="6.07608" width="27" height="15" transform="rotate(-10.7951 1 6.07608)" fill="#F7F3EF"/>
<path d="M6.6372 13.7195H7.65784C8.21012 13.7195 8.65784 14.1672 8.65784 14.7195V15.1669C8.65784 15.7192 8.21012 16.1669 7.65784 16.1669H7.21045C6.65816 16.1669 6.21045 15.7192 6.21045 15.1669V14.1462C6.21045 13.9105 6.40151 13.7195 6.6372 13.7195V13.7195Z" fill="#E7871E"/>
<path d="M14.791 13.7195H15.8158C16.3681 13.7195 16.8158 14.1672 16.8158 14.7195V15.1669C16.8158 15.7192 16.3681 16.1669 15.8158 16.1669H15.3684C14.8161 16.1669 14.3684 15.7192 14.3684 15.1669V14.1421C14.3684 13.9087 14.5576 13.7195 14.791 13.7195V13.7195Z" fill="#E7871E"/>
<path d="M10.7162 13.7195H11.7368C12.2891 13.7195 12.7368 14.1672 12.7368 14.7195V15.1669C12.7368 15.7192 12.2891 16.1669 11.7368 16.1669H11.2894C10.7371 16.1669 10.2894 15.7192 10.2894 15.1669V14.1462C10.2894 13.9105 10.4805 13.7195 10.7162 13.7195V13.7195Z" fill="#E7871E"/>
<path d="M6.21045 18.2064C6.21045 17.9811 6.39307 17.7985 6.61835 17.7985H16.4079C16.6332 17.7985 16.8158 17.9811 16.8158 18.2064V18.2064C16.8158 18.4316 16.6332 18.6143 16.4079 18.6143H6.61835C6.39307 18.6143 6.21045 18.4316 6.21045 18.2064V18.2064Z" fill="#E7871E"/>
<path d="M4.07235 10.5602L4.07235 19.9389L4.07235 19.939M4.07235 10.5602L4.68077 20.6739C4.48632 20.6736 4.29991 20.5961 4.16242 20.4584C4.02493 20.3206 3.94758 20.1339 3.94735 19.939H4.07235M4.07235 10.5602H30.7184L30.7188 19.9384L30.8438 19.939L30.7188 19.9391V19.9387C30.7178 20.1009 30.6529 20.2561 30.5382 20.3703C30.4234 20.4847 30.2682 20.5489 30.1064 20.5489H4.68092M4.07235 10.5602L4.68092 20.5489M4.07235 19.939C4.07258 20.1008 4.13682 20.2558 4.25089 20.3701C4.365 20.4844 4.51965 20.5487 4.68092 20.5489M4.07235 19.939L4.68092 20.5489M3.17686 20.1671L3.18448 20.2081C3.24948 20.5582 3.43436 20.8747 3.70733 21.1029C3.98029 21.3312 4.32422 21.4568 4.67982 21.4583H4.68032H30.1051H30.1054C30.5075 21.4572 30.893 21.297 31.1776 21.0125C31.4623 20.728 31.6231 20.3424 31.6252 19.9397V19.939L31.6252 6.78727L31.6252 6.78692C31.624 6.38358 31.4636 5.99704 31.1789 5.71177C30.8941 5.42649 30.5082 5.26566 30.1054 5.26451H30.1051H29.0118L28.3135 1.76285L28.3134 1.76224C28.2327 1.36805 28 1.02163 27.6657 0.798329C27.3315 0.575024 26.9227 0.492926 26.5283 0.569924L26.5276 0.570052C23.7418 1.12904 20.9438 1.67717 18.1428 2.2259C12.6081 3.31016 7.06157 4.39674 1.5734 5.57391L1.57337 5.57392C0.778925 5.74452 0.242519 6.53422 0.403374 7.34105C0.964679 10.2148 1.61329 13.1211 2.25839 16.0117C2.56873 17.4022 2.87825 18.7892 3.17686 20.1671ZM3.16068 6.78629V6.78683V15.8047L1.29093 7.16925C1.26396 7.01365 1.29808 6.85361 1.38618 6.72264C1.47458 6.59122 1.6104 6.49939 1.76495 6.46638C1.76515 6.46634 1.76535 6.46629 1.76555 6.46625L3.29813 6.15735C3.2089 6.35391 3.16161 6.56807 3.16068 6.78629ZM30.7184 7.84792H4.0723L4.0719 6.78734C4.0719 6.78733 4.0719 6.78731 4.0719 6.7873C4.07201 6.62502 4.13623 6.46943 4.25045 6.35451C4.3646 6.23965 4.51942 6.17475 4.68108 6.1739H30.1061C30.2681 6.17475 30.4233 6.23962 30.538 6.3545C30.6526 6.46936 30.7175 6.62495 30.7184 6.78749C30.7184 6.78762 30.7184 6.78774 30.7184 6.78787L30.7184 7.84792ZM27.1637 1.55235C27.2983 1.64207 27.3921 1.78162 27.4244 1.94051L27.4244 1.9408L28.0898 5.26451H7.75028L26.7056 1.4617C26.7056 1.4617 26.7057 1.46169 26.7057 1.46169C26.8643 1.43002 27.029 1.4626 27.1637 1.55235Z" fill="#E7871E" stroke="#E7871E" stroke-width="0.25"/>
<path d="M26.8069 16.1172C27.0536 16.1169 27.2969 16.1744 27.5175 16.2849C27.7382 16.3954 27.93 16.556 28.0778 16.7538C28.2257 16.9517 28.3254 17.1813 28.3691 17.4246C28.4129 17.6678 28.3993 17.9179 28.3297 18.155C28.26 18.392 28.1361 18.6096 27.9678 18.7902C27.7995 18.9709 27.5915 19.1098 27.3602 19.1958C27.129 19.2818 26.8809 19.3126 26.6357 19.2857C26.3905 19.2588 26.1549 19.175 25.9477 19.0409C25.7082 19.1957 25.4315 19.2829 25.1466 19.2934C24.8618 19.3039 24.5794 19.2374 24.3292 19.1007C24.0789 18.9641 23.8701 18.7624 23.7245 18.5168C23.579 18.2713 23.5022 17.991 23.5022 17.7055C23.5022 17.4199 23.579 17.1397 23.7245 16.8941C23.8701 16.6486 24.0789 16.4469 24.3292 16.3103C24.5794 16.1736 24.8618 16.107 25.1466 16.1176C25.4315 16.1281 25.7082 16.2153 25.9477 16.3701C26.203 16.2028 26.5019 16.1148 26.8069 16.1172ZM26.8069 16.8032C26.6284 16.8028 26.4538 16.8555 26.3053 16.9547C26.1567 17.0538 26.0409 17.1949 25.9724 17.36C25.9039 17.5252 25.8859 17.707 25.9207 17.8824C25.9554 18.0578 26.0413 18.219 26.1675 18.3454C26.2937 18.4719 26.4546 18.558 26.6297 18.5928C26.8047 18.6276 26.9862 18.6095 27.151 18.5409C27.3159 18.4723 27.4567 18.3563 27.5556 18.2074C27.6546 18.0586 27.7072 17.8837 27.7069 17.7048C27.7072 17.5863 27.6842 17.4689 27.6391 17.3593C27.594 17.2497 27.5277 17.1501 27.4441 17.0663C27.3604 16.9825 27.2611 16.916 27.1517 16.8708C27.0424 16.8256 26.9252 16.8029 26.8069 16.8032Z" fill="#E7871E"/>
</svg>
