<svg width="32" height="23" viewBox="0 0 32 23" fill="none" xmlns="http://www.w3.org/2000/svg">
    <rect x="4" y="6.5" width="27" height="15" />
    <rect x="1" y="6.57611" width="27" height="15" transform="rotate(-10.7951 1 6.57611)" />
    <path d="M6.63696 14.2195H7.65759C8.20988 14.2195 8.6576 14.6672 8.6576 15.2195V15.6669C8.6576 16.2192 8.20988 16.6669 7.6576 16.6669H7.21021C6.65792 16.6669 6.21021 16.2192 6.21021 15.6669V14.6462C6.21021 14.4105 6.40127 14.2195 6.63696 14.2195V14.2195Z"
          fill="#070707"/>
    <path d="M14.791 14.2195H15.8158C16.3681 14.2195 16.8158 14.6672 16.8158 15.2195V15.6669C16.8158 16.2192 16.3681 16.6669 15.8158 16.6669H15.3684C14.8161 16.6669 14.3684 16.2192 14.3684 15.6669V14.6421C14.3684 14.4087 14.5576 14.2195 14.791 14.2195V14.2195Z"
          fill="#070707"/>
    <path d="M10.7161 14.2195H11.7367C12.289 14.2195 12.7367 14.6672 12.7367 15.2195V15.6669C12.7367 16.2192 12.289 16.6669 11.7367 16.6669H11.2893C10.737 16.6669 10.2893 16.2192 10.2893 15.6669V14.6462C10.2893 14.4105 10.4804 14.2195 10.7161 14.2195V14.2195Z"
          fill="#070707"/>
    <path d="M6.21021 18.7064C6.21021 18.4811 6.39283 18.2985 6.6181 18.2985H16.4077C16.6329 18.2985 16.8156 18.4811 16.8156 18.7064V18.7064C16.8156 18.9316 16.6329 19.1143 16.4077 19.1143H6.6181C6.39283 19.1143 6.21021 18.9316 6.21021 18.7064V18.7064Z"
          fill="#070707"/>
    <mask id="path-7-outside-1_139_1021" maskUnits="userSpaceOnUse" x="-0.500244" y="0.166748" width="33" height="22"
          fill="black">
        <rect fill="white" x="-0.500244" y="0.166748" width="33" height="22"/>
        <path d="M3.30858 20.6854C2.38605 16.4255 1.35989 12.0867 0.525934 7.81712C0.378453 7.07875 0.870056 6.3528 1.59949 6.19616C9.86418 4.42345 18.2591 2.85664 26.5521 1.19264C26.9141 1.12197 27.2893 1.19731 27.5962 1.4023C27.903 1.60729 28.1167 1.92534 28.1908 2.28733L28.9091 5.88955H30.1049C30.4746 5.8906 30.8289 6.0382 31.0903 6.3001C31.3517 6.562 31.499 6.91692 31.5 7.2873V20.4391C31.4982 20.8089 31.3505 21.163 31.0891 21.4241C30.8278 21.6853 30.474 21.8324 30.1049 21.8333H4.6802C4.35377 21.832 4.03801 21.7166 3.78738 21.5071C3.53675 21.2975 3.36695 21.0069 3.30726 20.6854H3.30858ZM3.94723 8.47295H30.8432V7.2873C30.8423 7.09176 30.7644 6.9045 30.6264 6.76623C30.4883 6.62796 30.3014 6.54986 30.1063 6.54893H4.68064C4.48576 6.54987 4.29918 6.62806 4.16167 6.76642C4.02415 6.90478 3.9469 7.09205 3.94678 7.2873L3.94723 8.47295ZM30.8432 10.9352H3.94723V20.4391C3.94746 20.6339 4.02481 20.8207 4.1623 20.9584C4.29979 21.0962 4.4862 21.1737 4.68064 21.1739H30.1063C30.3012 21.1739 30.4881 21.0966 30.6263 20.9589C30.7645 20.8212 30.8426 20.6343 30.8437 20.4391L30.8432 10.9352ZM28.2422 5.88955L27.5468 2.41601C27.5081 2.22464 27.3952 2.05648 27.2329 1.94836C27.0706 1.84023 26.8721 1.80097 26.681 1.83916L6.4916 5.88955H28.2422ZM3.54243 6.4806L1.73944 6.84401C1.55285 6.88367 1.38895 6.99443 1.28234 7.1529C1.17574 7.31137 1.13478 7.50515 1.16812 7.69332L3.28555 17.4727V7.28686C3.28679 6.99796 3.37645 6.71684 3.54243 6.4806Z"/>
    </mask>
    <path d="M3.30858 20.6854C2.38605 16.4255 1.35989 12.0867 0.525934 7.81712C0.378453 7.07875 0.870056 6.3528 1.59949 6.19616C9.86418 4.42345 18.2591 2.85664 26.5521 1.19264C26.9141 1.12197 27.2893 1.19731 27.5962 1.4023C27.903 1.60729 28.1167 1.92534 28.1908 2.28733L28.9091 5.88955H30.1049C30.4746 5.8906 30.8289 6.0382 31.0903 6.3001C31.3517 6.562 31.499 6.91692 31.5 7.2873V20.4391C31.4982 20.8089 31.3505 21.163 31.0891 21.4241C30.8278 21.6853 30.474 21.8324 30.1049 21.8333H4.6802C4.35377 21.832 4.03801 21.7166 3.78738 21.5071C3.53675 21.2975 3.36695 21.0069 3.30726 20.6854H3.30858ZM3.94723 8.47295H30.8432V7.2873C30.8423 7.09176 30.7644 6.9045 30.6264 6.76623C30.4883 6.62796 30.3014 6.54986 30.1063 6.54893H4.68064C4.48576 6.54987 4.29918 6.62806 4.16167 6.76642C4.02415 6.90478 3.9469 7.09205 3.94678 7.2873L3.94723 8.47295ZM30.8432 10.9352H3.94723V20.4391C3.94746 20.6339 4.02481 20.8207 4.1623 20.9584C4.29979 21.0962 4.4862 21.1737 4.68064 21.1739H30.1063C30.3012 21.1739 30.4881 21.0966 30.6263 20.9589C30.7645 20.8212 30.8426 20.6343 30.8437 20.4391L30.8432 10.9352ZM28.2422 5.88955L27.5468 2.41601C27.5081 2.22464 27.3952 2.05648 27.2329 1.94836C27.0706 1.84023 26.8721 1.80097 26.681 1.83916L6.4916 5.88955H28.2422ZM3.54243 6.4806L1.73944 6.84401C1.55285 6.88367 1.38895 6.99443 1.28234 7.1529C1.17574 7.31137 1.13478 7.50515 1.16812 7.69332L3.28555 17.4727V7.28686C3.28679 6.99796 3.37645 6.71684 3.54243 6.4806Z"
          fill="#070707"/>
    <path d="M3.94723 10.4013H30.8432V10.1513H3.94723V10.4013ZM3.30858 20.6854V20.9354H3.61852L3.55292 20.6324L3.30858 20.6854ZM0.525934 7.81712L0.771299 7.76919L0.771091 7.76815L0.525934 7.81712ZM1.59949 6.19616L1.54706 5.95172L1.547 5.95174L1.59949 6.19616ZM26.5521 1.19264L26.5042 0.947269L26.5029 0.947525L26.5521 1.19264ZM28.1908 2.28733L28.436 2.23843L28.4357 2.23721L28.1908 2.28733ZM28.9091 5.88955L28.664 5.93844L28.7041 6.13955H28.9091V5.88955ZM30.1049 5.88955L30.1056 5.63955H30.1049V5.88955ZM31.5 7.2873L31.75 7.2873L31.75 7.28659L31.5 7.2873ZM31.5 20.4391L31.75 20.4403V20.4391H31.5ZM30.1049 21.8333V22.0833L30.1056 22.0833L30.1049 21.8333ZM4.6802 21.8333L4.6792 22.0833H4.6802V21.8333ZM3.30726 20.6854V20.4354H3.00657L3.06146 20.731L3.30726 20.6854ZM3.94723 8.47295L3.69723 8.47305L3.69732 8.72295H3.94723V8.47295ZM30.8432 8.47295V8.72295H31.0932V8.47295H30.8432ZM30.8432 7.2873L31.0932 7.2873L31.0932 7.28611L30.8432 7.2873ZM30.1063 6.54893L30.1075 6.29893H30.1063V6.54893ZM4.68064 6.54893L4.68064 6.29893L4.67944 6.29893L4.68064 6.54893ZM3.94678 7.2873L3.69678 7.28715L3.69678 7.2874L3.94678 7.2873ZM30.8432 10.9352L31.0932 10.9352L31.0932 10.6852H30.8432V10.9352ZM3.94723 10.9352V10.6852H3.69723V10.9352H3.94723ZM3.94723 20.4391L3.69723 20.4391L3.69723 20.4394L3.94723 20.4391ZM4.68064 21.1739L4.68034 21.4239H4.68064V21.1739ZM30.1063 21.1739L30.1063 20.9239H30.1063V21.1739ZM30.8437 20.4391L31.0937 20.4404L31.0937 20.4391L30.8437 20.4391ZM28.2422 5.88955V6.13955H28.5472L28.4873 5.84047L28.2422 5.88955ZM27.5468 2.41601L27.792 2.36694L27.7919 2.36636L27.5468 2.41601ZM26.681 1.83916L26.632 1.594L26.6318 1.59404L26.681 1.83916ZM6.4916 5.88955L6.44243 5.64443L6.4916 6.13955V5.88955ZM3.54243 6.4806L3.74699 6.62432L4.10712 6.11175L3.49303 6.23553L3.54243 6.4806ZM1.73944 6.84401L1.69004 6.59893L1.68747 6.59947L1.73944 6.84401ZM1.16812 7.69332L0.921775 7.73696L0.92378 7.74622L1.16812 7.69332ZM3.28555 17.4727L3.04122 17.5256L3.53555 17.4727H3.28555ZM3.28555 7.28686L3.03555 7.28579V7.28686H3.28555ZM3.55292 20.6324C2.62895 16.366 1.60467 12.0358 0.771297 7.76919L0.280571 7.86504C1.11511 12.1376 2.14315 16.4851 3.06425 20.7383L3.55292 20.6324ZM0.771091 7.76815C0.651029 7.16705 1.0529 6.56924 1.65198 6.44059L1.547 5.95174C0.687208 6.13637 0.105877 6.99044 0.280776 7.86608L0.771091 7.76815ZM1.65192 6.4406C9.91474 4.66829 18.3035 3.1027 26.6013 1.43775L26.5029 0.947525C18.2146 2.61057 9.81361 4.17861 1.54706 5.95172L1.65192 6.4406ZM26.6 1.43801C26.8972 1.37999 27.2053 1.44183 27.4573 1.61018L27.735 1.19442C27.3734 0.952797 26.931 0.863946 26.5042 0.947272L26.6 1.43801ZM27.4573 1.61018C27.7093 1.77855 27.885 2.03987 27.9459 2.33745L28.4357 2.23721C28.3485 1.81081 28.0967 1.43603 27.735 1.19442L27.4573 1.61018ZM27.9456 2.33622L28.664 5.93844L29.1543 5.84065L28.436 2.23843L27.9456 2.33622ZM28.9091 6.13955H30.1049V5.63955H28.9091V6.13955ZM30.1042 6.13954C30.4077 6.14041 30.6986 6.26157 30.9133 6.47671L31.2672 6.12349C30.9591 5.81483 30.5415 5.64079 30.1056 5.63955L30.1042 6.13954ZM30.9133 6.47671C31.1281 6.69187 31.2492 6.98353 31.25 7.28801L31.75 7.28659C31.7488 6.8503 31.5753 6.43214 31.2672 6.12349L30.9133 6.47671ZM31.25 7.2873V20.4391H31.75V7.2873H31.25ZM31.25 20.4378C31.2485 20.7418 31.1271 21.0328 30.9124 21.2473L31.2659 21.601C31.5738 21.2932 31.7478 20.876 31.75 20.4403L31.25 20.4378ZM30.9124 21.2473C30.6978 21.4618 30.4073 21.5825 30.1043 21.5833L30.1056 22.0833C30.5408 22.0822 30.9579 21.9088 31.2659 21.601L30.9124 21.2473ZM30.1049 21.5833H4.6802V22.0833H30.1049V21.5833ZM4.6812 21.5833C4.4131 21.5822 4.1537 21.4875 3.94774 21.3153L3.62702 21.6988C3.92233 21.9458 4.29444 22.0817 4.6792 22.0833L4.6812 21.5833ZM3.94774 21.3153C3.74178 21.1431 3.60215 20.9042 3.55306 20.6397L3.06146 20.731C3.13176 21.1096 3.33173 21.4519 3.62702 21.6988L3.94774 21.3153ZM3.30726 20.9354H3.30858V20.4354H3.30726V20.9354ZM3.94723 8.72295H30.8432V8.22295H3.94723V8.72295ZM31.0932 8.47295V7.2873H30.5932V8.47295H31.0932ZM31.0932 7.28611C31.092 7.02484 30.9878 6.77452 30.8033 6.58962L30.4494 6.94283C30.5409 7.03447 30.5926 7.15869 30.5932 7.28849L31.0932 7.28611ZM30.8033 6.58962C30.6187 6.4047 30.3687 6.30018 30.1075 6.29893L30.1051 6.79893C30.2342 6.79955 30.358 6.85121 30.4494 6.94283L30.8033 6.58962ZM30.1063 6.29893H4.68064V6.79893H30.1063V6.29893ZM4.67944 6.29893C4.41834 6.30019 4.16844 6.40496 3.98435 6.59018L4.33898 6.94265C4.42991 6.85117 4.55319 6.79955 4.68185 6.79893L4.67944 6.29893ZM3.98435 6.59018C3.80027 6.77539 3.69694 7.02598 3.69678 7.28715L4.19678 7.28745C4.19686 7.15811 4.24804 7.03416 4.33898 6.94265L3.98435 6.59018ZM3.69678 7.2874L3.69723 8.47305L4.19723 8.47286L4.19678 7.28721L3.69678 7.2874ZM30.8432 10.6852H3.94723V11.1852H30.8432V10.6852ZM3.69723 10.9352V20.4391H4.19723V10.9352H3.69723ZM3.69723 20.4394C3.69754 20.7002 3.8011 20.9504 3.98535 21.135L4.33924 20.7818C4.24851 20.6909 4.19738 20.5675 4.19723 20.4388L3.69723 20.4394ZM3.98535 21.135C4.16962 21.3196 4.41955 21.4236 4.68034 21.4239L4.68095 20.9239C4.55286 20.9237 4.42996 20.8727 4.33924 20.7818L3.98535 21.135ZM4.68064 21.4239H30.1063V20.9239H4.68064V21.4239ZM30.1063 21.4239C30.3674 21.4239 30.6178 21.3203 30.8028 21.136L30.4498 20.7818C30.3585 20.8729 30.2349 20.9239 30.1063 20.9239L30.1063 21.4239ZM30.8028 21.136C30.9877 20.9517 31.0923 20.7016 31.0937 20.4404L30.5937 20.4377C30.593 20.5671 30.5412 20.6908 30.4498 20.7818L30.8028 21.136ZM31.0937 20.4391L31.0932 10.9352L30.5932 10.9352L30.5937 20.4391L31.0937 20.4391ZM28.4873 5.84047L27.792 2.36694L27.3017 2.46508L27.997 5.93862L28.4873 5.84047ZM27.7919 2.36636C27.74 2.11029 27.5889 1.88513 27.3715 1.7403L27.0942 2.15641C27.2014 2.22783 27.2761 2.339 27.3018 2.46566L27.7919 2.36636ZM27.3715 1.7403C27.1541 1.59546 26.8882 1.54282 26.632 1.594L26.73 2.08431C26.8561 2.05911 26.9871 2.08501 27.0942 2.15641L27.3715 1.7403ZM26.6318 1.59404L6.44243 5.64443L6.54078 6.13466L26.7302 2.08427L26.6318 1.59404ZM6.4916 6.13955H28.2422V5.63955H6.4916V6.13955ZM3.49303 6.23553L1.69004 6.59894L1.78884 7.08908L3.59183 6.72567L3.49303 6.23553ZM1.68747 6.59947C1.43731 6.65264 1.21769 6.80111 1.07491 7.01336L1.48978 7.29244C1.5602 7.18774 1.66839 7.1147 1.79141 7.08855L1.68747 6.59947ZM1.07491 7.01336C0.932139 7.2256 0.877324 7.48504 0.921952 7.73693L1.41428 7.6497C1.39224 7.52526 1.41934 7.39715 1.48978 7.29244L1.07491 7.01336ZM0.92378 7.74622L3.04122 17.5256L3.52989 17.4198L1.41246 7.64041L0.92378 7.74622ZM3.53555 17.4727V7.28686H3.03555V17.4727H3.53555ZM3.53555 7.28793C3.53657 7.05015 3.61034 6.8188 3.74699 6.62432L3.33787 6.33687C3.14255 6.61487 3.03701 6.94577 3.03556 7.28579L3.53555 7.28793Z"
          fill="#070707" mask="url(#path-7-outside-1_139_1021)"/>
    <path d="M26.8069 16.6172C27.0536 16.617 27.2969 16.6744 27.5175 16.7849C27.7382 16.8955 27.93 17.056 28.0778 17.2539C28.2257 17.4517 28.3254 17.6814 28.3691 17.9246C28.4129 18.1678 28.3993 18.4179 28.3297 18.655C28.26 18.8921 28.1361 19.1096 27.9678 19.2903C27.7995 19.471 27.5915 19.6098 27.3602 19.6958C27.129 19.7819 26.8809 19.8126 26.6357 19.7857C26.3905 19.7589 26.1549 19.675 25.9477 19.5409C25.7082 19.6957 25.4315 19.7829 25.1466 19.7934C24.8618 19.804 24.5794 19.7374 24.3292 19.6007C24.0789 19.4641 23.8701 19.2624 23.7245 19.0169C23.579 18.7713 23.5022 18.4911 23.5022 18.2055C23.5022 17.92 23.579 17.6397 23.7245 17.3942C23.8701 17.1486 24.0789 16.9469 24.3292 16.8103C24.5794 16.6736 24.8618 16.6071 25.1466 16.6176C25.4315 16.6281 25.7082 16.7154 25.9477 16.8701C26.203 16.7028 26.5019 16.6148 26.8069 16.6172ZM26.8069 17.3032C26.6284 17.3028 26.4538 17.3556 26.3053 17.4547C26.1567 17.5538 26.0409 17.6949 25.9724 17.8601C25.9039 18.0252 25.8859 18.207 25.9207 18.3824C25.9554 18.5579 26.0413 18.719 26.1675 18.8455C26.2937 18.9719 26.4546 19.058 26.6297 19.0928C26.8047 19.1276 26.9862 19.1096 27.151 19.041C27.3159 18.9724 27.4567 18.8563 27.5556 18.7074C27.6546 18.5586 27.7072 18.3837 27.7069 18.2049C27.7072 18.0863 27.6842 17.9689 27.6391 17.8593C27.594 17.7497 27.5277 17.6502 27.4441 17.5663C27.3604 17.4825 27.2611 17.4161 27.1517 17.3708C27.0424 17.3256 26.9252 17.3029 26.8069 17.3032Z"
          fill="#070707"/>
</svg>
