<svg width="24" height="29" viewBox="0 0 24 29" fill="none" xmlns="http://www.w3.org/2000/svg">
<mask id="path-1-inside-1_139_979" fill="white">
<path d="M4.95444 3.05094C4.3131 2.11544 3.09793 2.32406 2.82763 3.61496C2.4105 5.59754 2.78264 8.35074 4.99 11.8017C5.64955 12.9112 6.46679 13.919 7.41616 14.7936C7.7326 15.0755 8.12823 15.2531 8.54937 15.3025C8.97051 15.3518 9.39676 15.2705 9.77031 15.0694L17.1545 25.8404C17.352 26.1388 17.6529 26.3536 17.9994 26.4436C18.346 26.5335 18.7137 26.4923 19.0319 26.3278C19.2044 26.2329 19.3552 26.103 19.4746 25.9465C19.5941 25.79 19.6794 25.6102 19.7253 25.4188C19.7711 25.2275 19.7764 25.0286 19.7408 24.8352C19.7053 24.6417 19.6296 24.4578 19.5187 24.2954L4.95444 3.05094Z"/>
</mask>
<path d="M4.95444 3.05094C4.3131 2.11544 3.09793 2.32406 2.82763 3.61496C2.4105 5.59754 2.78264 8.35074 4.99 11.8017C5.64955 12.9112 6.46679 13.919 7.41616 14.7936C7.7326 15.0755 8.12823 15.2531 8.54937 15.3025C8.97051 15.3518 9.39676 15.2705 9.77031 15.0694L17.1545 25.8404C17.352 26.1388 17.6529 26.3536 17.9994 26.4436C18.346 26.5335 18.7137 26.4923 19.0319 26.3278C19.2044 26.2329 19.3552 26.103 19.4746 25.9465C19.5941 25.79 19.6794 25.6102 19.7253 25.4188C19.7711 25.2275 19.7764 25.0286 19.7408 24.8352C19.7053 24.6417 19.6296 24.4578 19.5187 24.2954L4.95444 3.05094Z" fill="#070707" stroke="#070707" stroke-width="2" mask="url(#path-1-inside-1_139_979)"/>
<mask id="path-2-inside-2_139_979" fill="white">
<path d="M23.2384 4.22721L23.2196 4.21476C23.1169 4.14742 22.9918 4.12341 22.8715 4.14796C22.7513 4.17252 22.6457 4.24366 22.5778 4.34584L19.0827 9.61978C19.0225 9.71539 18.9305 9.78669 18.8228 9.82118C18.7152 9.85567 18.5988 9.85113 18.494 9.80836C18.4322 9.78098 18.3772 9.74045 18.3327 9.6896C18.2881 9.63875 18.2553 9.57882 18.2363 9.51397C18.2173 9.44913 18.2128 9.38095 18.2229 9.31419C18.233 9.24742 18.2576 9.18369 18.295 9.12744L21.79 3.8535C21.8545 3.76073 21.8842 3.64821 21.874 3.53566C21.8638 3.4231 21.8144 3.31768 21.7343 3.23784C21.685 3.19121 21.6262 3.15592 21.5619 3.13444C21.4976 3.11296 21.4293 3.10582 21.362 3.11352C21.2946 3.12122 21.2298 3.14357 21.1721 3.17901C21.1143 3.21444 21.0651 3.26209 21.0277 3.31862L17.5327 8.59257C17.4724 8.68809 17.3803 8.75932 17.2727 8.7938C17.1651 8.82828 17.0487 8.8238 16.944 8.78115C16.8822 8.75374 16.8271 8.71319 16.7825 8.66233C16.738 8.61147 16.7051 8.55153 16.6861 8.48667C16.6671 8.42181 16.6625 8.35361 16.6726 8.28681C16.6826 8.22001 16.7072 8.15623 16.7445 8.09992L20.2395 2.82597C20.304 2.7332 20.3337 2.62069 20.3235 2.50813C20.3133 2.39557 20.2638 2.29015 20.1837 2.21032C20.1346 2.16363 20.0759 2.12828 20.0116 2.10676C19.9473 2.08524 19.8792 2.07807 19.8119 2.08576C19.7446 2.09345 19.6798 2.11581 19.6221 2.15126C19.5644 2.18671 19.5152 2.23439 19.478 2.29094L15.983 7.56488C15.9226 7.6604 15.8306 7.73164 15.723 7.76612C15.6154 7.80059 15.499 7.79611 15.3942 7.75346C15.3324 7.72613 15.2772 7.68562 15.2326 7.63477C15.188 7.58392 15.1551 7.52396 15.136 7.45907C15.117 7.39418 15.1124 7.32594 15.1226 7.25912C15.1327 7.1923 15.1573 7.12852 15.1947 7.07223L18.7034 1.77764C18.771 1.67521 18.7952 1.55021 18.7708 1.42991C18.7464 1.30962 18.6754 1.20382 18.5732 1.13561L18.554 1.12284C18.4549 1.05684 18.3343 1.03147 18.2171 1.05201C18.0999 1.07254 17.9951 1.13739 17.9246 1.23312C17.2051 2.21159 15.1702 4.9957 13.9646 6.81483C13.6345 7.31207 13.4435 7.88865 13.4114 8.48482C13.3793 9.08098 13.5073 9.67503 13.7822 10.2054C13.8802 10.3868 13.9373 10.5874 13.9496 10.7932C13.9619 10.9989 13.9291 11.2048 13.8534 11.3965C13.0127 13.4291 11.4142 15.6434 4.94899 23.4336C3.93743 24.654 4.33449 25.7369 5.22319 26.3258C6.11189 26.9148 7.26316 26.8606 7.99273 25.4506C12.6478 16.4616 14.0644 14.126 15.6079 12.5599C15.755 12.4157 15.9318 12.3053 16.126 12.2366C16.3202 12.1678 16.5271 12.1423 16.7323 12.1618C17.3279 12.2084 17.925 12.0949 18.4616 11.8331C18.9983 11.5713 19.4549 11.1707 19.7842 10.6728C20.9898 8.85368 22.7617 5.89322 23.3815 4.85079C23.4425 4.7485 23.4617 4.62659 23.435 4.51044C23.4084 4.39429 23.338 4.29284 23.2384 4.22721V4.22721Z"/>
</mask>
<path d="M23.2384 4.22721L23.2196 4.21476C23.1169 4.14742 22.9918 4.12341 22.8715 4.14796C22.7513 4.17252 22.6457 4.24366 22.5778 4.34584L19.0827 9.61978C19.0225 9.71539 18.9305 9.78669 18.8228 9.82118C18.7152 9.85567 18.5988 9.85113 18.494 9.80836C18.4322 9.78098 18.3772 9.74045 18.3327 9.6896C18.2881 9.63875 18.2553 9.57882 18.2363 9.51397C18.2173 9.44913 18.2128 9.38095 18.2229 9.31419C18.233 9.24742 18.2576 9.18369 18.295 9.12744L21.79 3.8535C21.8545 3.76073 21.8842 3.64821 21.874 3.53566C21.8638 3.4231 21.8144 3.31768 21.7343 3.23784C21.685 3.19121 21.6262 3.15592 21.5619 3.13444C21.4976 3.11296 21.4293 3.10582 21.362 3.11352C21.2946 3.12122 21.2298 3.14357 21.1721 3.17901C21.1143 3.21444 21.0651 3.26209 21.0277 3.31862L17.5327 8.59257C17.4724 8.68809 17.3803 8.75932 17.2727 8.7938C17.1651 8.82828 17.0487 8.8238 16.944 8.78115C16.8822 8.75374 16.8271 8.71319 16.7825 8.66233C16.738 8.61147 16.7051 8.55153 16.6861 8.48667C16.6671 8.42181 16.6625 8.35361 16.6726 8.28681C16.6826 8.22001 16.7072 8.15623 16.7445 8.09992L20.2395 2.82597C20.304 2.7332 20.3337 2.62069 20.3235 2.50813C20.3133 2.39557 20.2638 2.29015 20.1837 2.21032C20.1346 2.16363 20.0759 2.12828 20.0116 2.10676C19.9473 2.08524 19.8792 2.07807 19.8119 2.08576C19.7446 2.09345 19.6798 2.11581 19.6221 2.15126C19.5644 2.18671 19.5152 2.23439 19.478 2.29094L15.983 7.56488C15.9226 7.6604 15.8306 7.73164 15.723 7.76612C15.6154 7.80059 15.499 7.79611 15.3942 7.75346C15.3324 7.72613 15.2772 7.68562 15.2326 7.63477C15.188 7.58392 15.1551 7.52396 15.136 7.45907C15.117 7.39418 15.1124 7.32594 15.1226 7.25912C15.1327 7.1923 15.1573 7.12852 15.1947 7.07223L18.7034 1.77764C18.771 1.67521 18.7952 1.55021 18.7708 1.42991C18.7464 1.30962 18.6754 1.20382 18.5732 1.13561L18.554 1.12284C18.4549 1.05684 18.3343 1.03147 18.2171 1.05201C18.0999 1.07254 17.9951 1.13739 17.9246 1.23312C17.2051 2.21159 15.1702 4.9957 13.9646 6.81483C13.6345 7.31207 13.4435 7.88865 13.4114 8.48482C13.3793 9.08098 13.5073 9.67503 13.7822 10.2054C13.8802 10.3868 13.9373 10.5874 13.9496 10.7932C13.9619 10.9989 13.9291 11.2048 13.8534 11.3965C13.0127 13.4291 11.4142 15.6434 4.94899 23.4336C3.93743 24.654 4.33449 25.7369 5.22319 26.3258C6.11189 26.9148 7.26316 26.8606 7.99273 25.4506C12.6478 16.4616 14.0644 14.126 15.6079 12.5599C15.755 12.4157 15.9318 12.3053 16.126 12.2366C16.3202 12.1678 16.5271 12.1423 16.7323 12.1618C17.3279 12.2084 17.925 12.0949 18.4616 11.8331C18.9983 11.5713 19.4549 11.1707 19.7842 10.6728C20.9898 8.85368 22.7617 5.89322 23.3815 4.85079C23.4425 4.7485 23.4617 4.62659 23.435 4.51044C23.4084 4.39429 23.338 4.29284 23.2384 4.22721V4.22721Z" fill="#070707" stroke="#070707" stroke-width="2" mask="url(#path-2-inside-2_139_979)"/>
</svg>
