<svg width="32" height="27" viewBox="0 0 32 27" fill="none" xmlns="http://www.w3.org/2000/svg">
    <mask id="path-1-inside-1_139_959" fill="white">
        <path d="M22.4871 4.68993C22.2268 4.92483 22.2092 5.33185 22.4441 5.59215C23.7796 7.08534 24.7675 9.40977 25.2087 12.0952C25.2662 12.4555 25.6099 12.6898 25.9431 12.6388L25.9976 12.6257C26.3241 12.5476 26.5377 12.2376 26.4802 11.8772C25.9675 8.8924 24.9198 6.43839 23.3895 4.73289C23.1544 4.47262 22.7474 4.45502 22.4871 4.68991L22.4871 4.68993Z"/>
    </mask>
    <path d="M22.4871 4.68993C22.2268 4.92483 22.2092 5.33185 22.4441 5.59215C23.7796 7.08534 24.7675 9.40977 25.2087 12.0952C25.2662 12.4555 25.6099 12.6898 25.9431 12.6388L25.9976 12.6257C26.3241 12.5476 26.5377 12.2376 26.4802 11.8772C25.9675 8.8924 24.9198 6.43839 23.3895 4.73289C23.1544 4.47262 22.7474 4.45502 22.4871 4.68991L22.4871 4.68993Z"
          fill="white" stroke="#FFF" stroke-width="2" mask="url(#path-1-inside-1_139_959)"/>
    <mask id="path-2-inside-2_139_959" fill="white">
        <path d="M25.9237 3.78122C25.6888 3.52091 25.2818 3.50331 25.0215 3.7382C24.7612 3.9731 24.7436 4.38012 24.9785 4.64042C26.3609 6.20871 27.3747 8.64195 27.7941 11.4765C27.8516 11.8369 28.1681 12.0776 28.5285 12.0201L28.583 12.0071C28.9095 11.929 29.1231 11.6189 29.0721 11.2857C28.5941 8.20624 27.467 5.54105 25.9237 3.78111L25.9237 3.78122Z"/>
    </mask>
    <path d="M25.9237 3.78122C25.6888 3.52091 25.2818 3.50331 25.0215 3.7382C24.7612 3.9731 24.7436 4.38012 24.9785 4.64042C26.3609 6.20871 27.3747 8.64195 27.7941 11.4765C27.8516 11.8369 28.1681 12.0776 28.5285 12.0201L28.583 12.0071C28.9095 11.929 29.1231 11.6189 29.0721 11.2857C28.5941 8.20624 27.467 5.54105 25.9237 3.78111L25.9237 3.78122Z"
          fill="#FFF" stroke="#FFF" stroke-width="2" mask="url(#path-2-inside-2_139_959)"/>
    <mask id="path-3-inside-3_139_959" fill="white">
        <path d="M6.29226 12.7661C6.23473 12.4058 5.89106 12.1715 5.55784 12.2225C5.19749 12.2801 4.96323 12.6237 5.01424 12.957C5.52698 15.9418 6.57463 18.3958 8.10491 20.1013C8.26579 20.293 8.50956 20.3497 8.72729 20.2976C8.83607 20.2716 8.9114 20.2249 9.00714 20.1443C9.26744 19.9094 9.28505 19.5024 9.05016 19.2421C7.72129 17.776 6.73986 15.4789 6.29225 12.7662L6.29226 12.7661Z"/>
    </mask>
    <path d="M6.29226 12.7661C6.23473 12.4058 5.89106 12.1715 5.55784 12.2225C5.19749 12.2801 4.96323 12.6237 5.01424 12.957C5.52698 15.9418 6.57463 18.3958 8.10491 20.1013C8.26579 20.293 8.50956 20.3497 8.72729 20.2976C8.83607 20.2716 8.9114 20.2249 9.00714 20.1443C9.26744 19.9094 9.28505 19.5024 9.05016 19.2421C7.72129 17.776 6.73986 15.4789 6.29225 12.7662L6.29226 12.7661Z"
          fill="white" stroke="#FFF" stroke-width="2" mask="url(#path-3-inside-3_139_959)"/>
    <mask id="path-4-inside-4_139_959" fill="white">
        <path d="M3.7133 13.412C3.65577 13.0517 3.33925 12.8109 2.97888 12.8684C2.61848 12.9258 2.37777 13.2425 2.43524 13.6027C2.88588 16.6887 4.01297 19.3539 5.58339 21.1073C5.74427 21.299 5.98805 21.3557 6.20578 21.3036C6.31456 21.2776 6.38988 21.2308 6.48562 21.1503C6.74593 20.9154 6.76354 20.5084 6.52864 20.2481C5.11912 18.6865 4.13248 16.2468 3.71325 13.4119L3.7133 13.412Z"/>
    </mask>
    <path d="M3.7133 13.412C3.65577 13.0517 3.33925 12.8109 2.97888 12.8684C2.61848 12.9258 2.37777 13.2425 2.43524 13.6027C2.88588 16.6887 4.01297 19.3539 5.58339 21.1073C5.74427 21.299 5.98805 21.3557 6.20578 21.3036C6.31456 21.2776 6.38988 21.2308 6.48562 21.1503C6.74593 20.9154 6.76354 20.5084 6.52864 20.2481C5.11912 18.6865 4.13248 16.2468 3.71325 13.4119L3.7133 13.412Z"
          fill="white" stroke="#FFF" stroke-width="2" mask="url(#path-4-inside-4_139_959)"/>
    <mask id="path-5-inside-5_139_959" fill="white">
        <path d="M23.661 16.8104C24.6382 15.4831 23.9309 13.6095 23.0604 11.7749C22.0234 9.60611 19.1103 3.68524 19.1103 3.68524C18.844 3.17356 18.215 2.94995 17.7033 3.21626C17.1851 3.45528 16.9681 4.11155 17.2344 4.62324L19.3496 8.89351C19.4432 9.04374 19.3733 9.23307 19.2231 9.32662L19.1959 9.33312C19.0457 9.42667 18.829 9.36331 18.7357 9.21304L15.5718 3.92769C15.2783 3.42251 14.6014 3.23906 14.1299 3.5534C13.6247 3.84689 13.4686 4.51729 13.7556 4.99532L16.9195 10.2807C17.013 10.4309 16.9497 10.6476 16.7994 10.7409C16.6492 10.8345 16.4664 10.7919 16.3793 10.6688L12.1066 4.95826C11.7651 4.49323 11.1078 4.39162 10.6428 4.73312C10.1842 5.10176 10.0826 5.75909 10.4241 6.22411L14.5565 11.7093C14.6772 11.853 14.614 12.0697 14.4429 12.1969L14.3406 12.2501C14.2176 12.3371 14.0413 12.3217 13.9271 12.2051L10.0464 8.01208C9.65693 7.58745 8.99195 7.57378 8.53995 7.96974C8.11532 8.35916 8.10815 9.05131 8.4976 9.47614C8.4976 9.47614 11.7149 12.8208 12.3588 13.5875C12.9558 14.279 13.2908 14.7169 13.7594 15.3528C14.0139 15.6947 13.7642 16.2149 13.33 16.2036C13.2147 16.2025 13.1264 16.1947 13.0927 16.1741C13.0318 16.16 12.9371 16.125 12.8424 16.0901C12.3822 15.97 11.6649 15.7388 11.2112 15.6461C10.4863 15.503 9.91491 15.6398 9.65115 16.2209C9.36674 16.8357 9.65785 17.5716 10.2868 17.7953C10.2868 17.7953 14.2452 19.6678 16.2694 20.1906C16.9734 20.3673 17.8344 20.4778 18.5354 20.2814L19.9391 22.42C20.2066 22.8164 20.7213 22.9234 21.1242 22.6831L24.8277 20.2433C25.2241 19.9758 25.3583 19.4546 25.0844 19.031L23.661 16.8104Z"/>
    </mask>
    <path d="M23.661 16.8104C24.6382 15.4831 23.9309 13.6095 23.0604 11.7749C22.0234 9.60611 19.1103 3.68524 19.1103 3.68524C18.844 3.17356 18.215 2.94995 17.7033 3.21626C17.1851 3.45528 16.9681 4.11155 17.2344 4.62324L19.3496 8.89351C19.4432 9.04374 19.3733 9.23307 19.2231 9.32662L19.1959 9.33312C19.0457 9.42667 18.829 9.36331 18.7357 9.21304L15.5718 3.92769C15.2783 3.42251 14.6014 3.23906 14.1299 3.5534C13.6247 3.84689 13.4686 4.51729 13.7556 4.99532L16.9195 10.2807C17.013 10.4309 16.9497 10.6476 16.7994 10.7409C16.6492 10.8345 16.4664 10.7919 16.3793 10.6688L12.1066 4.95826C11.7651 4.49323 11.1078 4.39162 10.6428 4.73312C10.1842 5.10176 10.0826 5.75909 10.4241 6.22411L14.5565 11.7093C14.6772 11.853 14.614 12.0697 14.4429 12.1969L14.3406 12.2501C14.2176 12.3371 14.0413 12.3217 13.9271 12.2051L10.0464 8.01208C9.65693 7.58745 8.99195 7.57378 8.53995 7.96974C8.11532 8.35916 8.10815 9.05131 8.4976 9.47614C8.4976 9.47614 11.7149 12.8208 12.3588 13.5875C12.9558 14.279 13.2908 14.7169 13.7594 15.3528C14.0139 15.6947 13.7642 16.2149 13.33 16.2036C13.2147 16.2025 13.1264 16.1947 13.0927 16.1741C13.0318 16.16 12.9371 16.125 12.8424 16.0901C12.3822 15.97 11.6649 15.7388 11.2112 15.6461C10.4863 15.503 9.91491 15.6398 9.65115 16.2209C9.36674 16.8357 9.65785 17.5716 10.2868 17.7953C10.2868 17.7953 14.2452 19.6678 16.2694 20.1906C16.9734 20.3673 17.8344 20.4778 18.5354 20.2814L19.9391 22.42C20.2066 22.8164 20.7213 22.9234 21.1242 22.6831L24.8277 20.2433C25.2241 19.9758 25.3583 19.4546 25.0844 19.031L23.661 16.8104Z"
          fill="#FFF" stroke="#FFF" stroke-width="2" mask="url(#path-5-inside-5_139_959)"/>
</svg>
