<svg width="30" height="25" viewBox="0 0 30 25" fill="none" xmlns="http://www.w3.org/2000/svg">
<mask id="path-1-inside-1_139_969" fill="white">
<path d="M15.7673 7.25691L18.1279 5.36839C18.2398 5.2788 18.305 5.14328 18.305 4.99975C18.305 4.85621 18.2398 4.72068 18.1279 4.63111L15.7673 2.74258L15.1771 3.48008L16.4868 4.52762H11.6951V5.47188H16.4868L15.1771 6.51963L15.7673 7.25691Z"/>
</mask>
<path d="M15.7673 7.25691L18.1279 5.36839C18.2398 5.2788 18.305 5.14328 18.305 4.99975C18.305 4.85621 18.2398 4.72068 18.1279 4.63111L15.7673 2.74258L15.1771 3.48008L16.4868 4.52762H11.6951V5.47188H16.4868L15.1771 6.51963L15.7673 7.25691Z" fill="#070707" stroke="#070707" stroke-width="2" mask="url(#path-1-inside-1_139_969)"/>
<mask id="path-2-inside-2_139_969" fill="white">
<path d="M21.3508 14.8923L21.1297 13.9739L19.4993 14.3669L22.4359 10.5805L21.6898 10.0018L18.7531 13.7882L18.7279 12.1111L17.7834 12.1255L17.829 15.1483C17.8313 15.2917 17.8985 15.4263 18.0119 15.5142C18.1253 15.6022 18.2724 15.6338 18.4117 15.6002L21.3508 14.8923Z"/>
</mask>
<path d="M21.3508 14.8923L21.1297 13.9739L19.4993 14.3669L22.4359 10.5805L21.6898 10.0018L18.7531 13.7882L18.7279 12.1111L17.7834 12.1255L17.829 15.1483C17.8313 15.2917 17.8985 15.4263 18.0119 15.5142C18.1253 15.6022 18.2724 15.6338 18.4117 15.6002L21.3508 14.8923Z" fill="#070707" stroke="#070707" stroke-width="2" mask="url(#path-2-inside-2_139_969)"/>
<mask id="path-3-inside-3_139_969" fill="white">
<path d="M7.00532 13.5422L7.94683 13.6182L8.08144 11.9466L10.7644 15.9167L11.5468 15.388L8.86381 11.4178L10.4653 11.9164L10.7458 11.0144L7.85935 10.1159C7.72229 10.0735 7.57353 10.0954 7.45461 10.1757C7.33568 10.2561 7.25985 10.386 7.2483 10.5288L7.00532 13.5422Z"/>
</mask>
<path d="M7.00532 13.5422L7.94683 13.6182L8.08144 11.9466L10.7644 15.9167L11.5468 15.388L8.86381 11.4178L10.4653 11.9164L10.7458 11.0144L7.85935 10.1159C7.72229 10.0735 7.57353 10.0954 7.45461 10.1757C7.33568 10.2561 7.25985 10.386 7.2483 10.5288L7.00532 13.5422Z" fill="#070707" stroke="#070707" stroke-width="2" mask="url(#path-3-inside-3_139_969)"/>
<mask id="path-4-inside-4_139_969" fill="white">
<path d="M5.55749 9.72118C8.16516 9.72118 10.2788 7.60754 10.2788 4.99987C10.2788 2.3922 8.16516 0.278564 5.55749 0.278564C2.94982 0.278564 0.836182 2.3922 0.836182 4.99987C0.836182 7.60754 2.94982 9.72118 5.55749 9.72118ZM5.08536 4.05561H6.02962V5.94413H5.08536V4.05561Z"/>
</mask>
<path d="M5.55749 9.72118C8.16516 9.72118 10.2788 7.60754 10.2788 4.99987C10.2788 2.3922 8.16516 0.278564 5.55749 0.278564C2.94982 0.278564 0.836182 2.3922 0.836182 4.99987C0.836182 7.60754 2.94982 9.72118 5.55749 9.72118ZM5.08536 4.05561H6.02962V5.94413H5.08536V4.05561Z" fill="#070707" stroke="#070707" stroke-width="2" mask="url(#path-4-inside-4_139_969)"/>
<mask id="path-5-inside-5_139_969" fill="white">
<path d="M24.4427 0.278564C21.8351 0.278564 19.7214 2.3922 19.7214 4.99987C19.7214 7.60754 21.8351 9.72118 24.4427 9.72118C27.0504 9.72118 29.164 7.60754 29.164 4.99987C29.164 2.3922 27.0504 0.278564 24.4427 0.278564ZM23.9706 6.41626H23.0263V4.99987H23.9706V6.41626ZM25.8591 6.41626H24.9149V3.58348H25.8591V6.41626Z"/>
</mask>
<path d="M24.4427 0.278564C21.8351 0.278564 19.7214 2.3922 19.7214 4.99987C19.7214 7.60754 21.8351 9.72118 24.4427 9.72118C27.0504 9.72118 29.164 7.60754 29.164 4.99987C29.164 2.3922 27.0504 0.278564 24.4427 0.278564ZM23.9706 6.41626H23.0263V4.99987H23.9706V6.41626ZM25.8591 6.41626H24.9149V3.58348H25.8591V6.41626Z" fill="#070707" stroke="#070707" stroke-width="2" mask="url(#path-5-inside-5_139_969)"/>
<mask id="path-6-inside-6_139_969" fill="white">
<path d="M14.0829 24.7215C16.6905 24.7215 18.8042 22.6078 18.8042 20.0001C18.8042 17.3925 16.6905 15.2788 14.0829 15.2788C11.4752 15.2788 9.36157 17.3925 9.36157 20.0001C9.36157 22.6078 11.4752 24.7215 14.0829 24.7215ZM15.4993 18.1116H16.4435V21.8887H15.4993V18.1116ZM13.6107 19.0559H14.555V21.8887H13.6107V19.0559ZM11.7222 20.4723H12.6665V21.8887H11.7222V20.4723Z"/>
</mask>
<path d="M14.0829 24.7215C16.6905 24.7215 18.8042 22.6078 18.8042 20.0001C18.8042 17.3925 16.6905 15.2788 14.0829 15.2788C11.4752 15.2788 9.36157 17.3925 9.36157 20.0001C9.36157 22.6078 11.4752 24.7215 14.0829 24.7215ZM15.4993 18.1116H16.4435V21.8887H15.4993V18.1116ZM13.6107 19.0559H14.555V21.8887H13.6107V19.0559ZM11.7222 20.4723H12.6665V21.8887H11.7222V20.4723Z" fill="#070707" stroke="#070707" stroke-width="2" mask="url(#path-6-inside-6_139_969)"/>
</svg>
