<svg width="20" height="27" viewBox="0 0 20 27" fill="none" xmlns="http://www.w3.org/2000/svg">
    <rect x="3" y="7.5" width="15" height="15" />
    <mask id="path-2-inside-1_139_1014" fill="white">
        <path d="M17.7136 3.41462H15.6502C15.8839 3.93748 16.0167 4.51551 16.0167 5.12461V5.91389H3.98315V5.12461C3.98315 4.51551 4.11584 3.93748 4.34971 3.41462H2.28629C1.55983 3.41462 0.970947 4.00376 0.970947 4.72997V25.4484C0.970947 26.1749 1.55988 26.764 2.28629 26.764H17.7136C18.44 26.764 19.0289 26.1748 19.0289 25.4484V4.72997C19.0289 4.00392 18.44 3.41462 17.7136 3.41462H17.7136ZM5.9923 20.4969H4.01915V18.5238H5.9923V20.4969ZM5.9923 16.1311H4.01915V14.1582H5.9923V16.1311ZM4.96576 12.0229L4.51902 12.4694L3.27756 11.2281L3.83801 10.6671L4.51902 11.3477L6.15368 9.71323L6.71454 10.2741L4.96576 12.0229ZM16.7227 20.0366H8.81909V18.9843H16.7227V20.0366ZM16.7227 15.8272H8.81909V14.775H16.7227V15.8272ZM16.7227 11.6181H8.81909V10.5658H16.7227V11.6181ZM15.2276 5.1244V5.1242C15.2276 5.0212 15.2212 4.91981 15.2121 4.81964C15.2094 4.79016 15.2062 4.76107 15.2028 4.73199C15.1933 4.64798 15.1808 4.56517 15.1648 4.48338C15.1573 4.44339 15.1481 4.40462 15.139 4.36564C15.1248 4.30404 15.1091 4.24285 15.0921 4.18286C15.078 4.13419 15.0628 4.08653 15.0469 4.03907C15.035 4.00514 15.0226 3.97222 15.0097 3.9389C14.9717 3.8361 14.9287 3.73572 14.8809 3.63757C14.8742 3.62404 14.8677 3.61011 14.8613 3.59637C14.2964 2.47811 13.1393 1.7044 11.8072 1.7044H11.4686C11.4686 0.893299 10.811 0.235962 10.0003 0.235962C9.18923 0.235962 8.5319 0.893557 8.5319 1.7044H8.19321C6.92791 1.7044 5.82605 2.39348 5.23432 3.41459C5.20079 3.47316 5.16909 3.53213 5.13839 3.59292C5.1299 3.60948 5.12223 3.62584 5.11435 3.6428C5.06911 3.73651 5.02832 3.83245 4.99196 3.9308C4.97843 3.96675 4.9647 4.00229 4.95238 4.03844C4.93643 4.08509 4.92249 4.13195 4.90876 4.17921C4.89078 4.24061 4.87543 4.30281 4.86069 4.36562C4.85221 4.40238 4.84352 4.43893 4.83666 4.47589C4.8201 4.56011 4.80737 4.64553 4.79748 4.73177C4.79425 4.76045 4.79142 4.78853 4.78879 4.8172C4.7795 4.91878 4.77324 5.02098 4.77324 5.12458L15.2276 5.1244ZM10.0001 2.26446C9.69046 2.26446 9.44003 2.01403 9.44003 1.70443C9.44003 1.39543 9.69046 1.14439 10.0001 1.14439C10.3093 1.14439 10.5601 1.39543 10.5601 1.70443C10.5597 2.01403 10.3091 2.26446 10.0001 2.26446Z"/>
    </mask>
    <path d="M17.7136 3.41462H15.6502C15.8839 3.93748 16.0167 4.51551 16.0167 5.12461V5.91389H3.98315V5.12461C3.98315 4.51551 4.11584 3.93748 4.34971 3.41462H2.28629C1.55983 3.41462 0.970947 4.00376 0.970947 4.72997V25.4484C0.970947 26.1749 1.55988 26.764 2.28629 26.764H17.7136C18.44 26.764 19.0289 26.1748 19.0289 25.4484V4.72997C19.0289 4.00392 18.44 3.41462 17.7136 3.41462H17.7136ZM5.9923 20.4969H4.01915V18.5238H5.9923V20.4969ZM5.9923 16.1311H4.01915V14.1582H5.9923V16.1311ZM4.96576 12.0229L4.51902 12.4694L3.27756 11.2281L3.83801 10.6671L4.51902 11.3477L6.15368 9.71323L6.71454 10.2741L4.96576 12.0229ZM16.7227 20.0366H8.81909V18.9843H16.7227V20.0366ZM16.7227 15.8272H8.81909V14.775H16.7227V15.8272ZM16.7227 11.6181H8.81909V10.5658H16.7227V11.6181ZM15.2276 5.1244V5.1242C15.2276 5.0212 15.2212 4.91981 15.2121 4.81964C15.2094 4.79016 15.2062 4.76107 15.2028 4.73199C15.1933 4.64798 15.1808 4.56517 15.1648 4.48338C15.1573 4.44339 15.1481 4.40462 15.139 4.36564C15.1248 4.30404 15.1091 4.24285 15.0921 4.18286C15.078 4.13419 15.0628 4.08653 15.0469 4.03907C15.035 4.00514 15.0226 3.97222 15.0097 3.9389C14.9717 3.8361 14.9287 3.73572 14.8809 3.63757C14.8742 3.62404 14.8677 3.61011 14.8613 3.59637C14.2964 2.47811 13.1393 1.7044 11.8072 1.7044H11.4686C11.4686 0.893299 10.811 0.235962 10.0003 0.235962C9.18923 0.235962 8.5319 0.893557 8.5319 1.7044H8.19321C6.92791 1.7044 5.82605 2.39348 5.23432 3.41459C5.20079 3.47316 5.16909 3.53213 5.13839 3.59292C5.1299 3.60948 5.12223 3.62584 5.11435 3.6428C5.06911 3.73651 5.02832 3.83245 4.99196 3.9308C4.97843 3.96675 4.9647 4.00229 4.95238 4.03844C4.93643 4.08509 4.92249 4.13195 4.90876 4.17921C4.89078 4.24061 4.87543 4.30281 4.86069 4.36562C4.85221 4.40238 4.84352 4.43893 4.83666 4.47589C4.8201 4.56011 4.80737 4.64553 4.79748 4.73177C4.79425 4.76045 4.79142 4.78853 4.78879 4.8172C4.7795 4.91878 4.77324 5.02098 4.77324 5.12458L15.2276 5.1244ZM10.0001 2.26446C9.69046 2.26446 9.44003 2.01403 9.44003 1.70443C9.44003 1.39543 9.69046 1.14439 10.0001 1.14439C10.3093 1.14439 10.5601 1.39543 10.5601 1.70443C10.5597 2.01403 10.3091 2.26446 10.0001 2.26446Z"
           stroke="#070707" stroke-width="2" mask="url(#path-2-inside-1_139_1014)"/>
</svg>
