<svg width="39" height="17" viewBox="0 0 39 17" fill="none" xmlns="http://www.w3.org/2000/svg">
<path fill-rule="evenodd" clip-rule="evenodd" d="M5.63924 3.77163C6.35102 3.83276 7.0628 3.40487 7.50766 2.86236C7.9451 2.30457 8.23426 1.55575 8.16012 0.791656C7.5299 0.82222 6.75139 1.21955 6.30653 1.77734C5.89874 2.25872 5.55027 3.0381 5.63924 3.77163ZM14.1053 13.6132V1.70092H18.4427C20.6819 1.70092 22.2463 3.29024 22.2463 5.61309C22.2463 7.93594 20.6522 9.54054 18.3834 9.54054H15.8996V13.6132H14.1053ZM8.15181 3.9168C7.52474 3.87961 6.95258 4.11115 6.49042 4.29817C6.19301 4.41852 5.94116 4.52044 5.74956 4.52044C5.53454 4.52044 5.2723 4.41307 4.97785 4.29253C4.59203 4.13457 4.15094 3.95398 3.68838 3.96265C2.62813 3.97793 1.64202 4.59685 1.10077 5.58253C-0.0113779 7.5539 0.811613 10.4727 1.88669 12.0773C2.41311 12.872 3.04333 13.7431 3.87373 13.7125C4.23906 13.6983 4.50186 13.5834 4.77383 13.4645C5.08694 13.3275 5.41221 13.1853 5.92009 13.1853C6.41037 13.1853 6.72141 13.3238 7.01999 13.4568C7.3039 13.5833 7.57654 13.7047 7.98128 13.6972C8.84134 13.6819 9.38259 12.9026 9.909 12.1079C10.4771 11.255 10.7267 10.4227 10.7646 10.2963L10.7691 10.2817C10.7682 10.2808 10.7612 10.2775 10.749 10.2717L10.7489 10.2717L10.7488 10.2716L10.7488 10.2716C10.5589 10.182 9.10735 9.49723 9.09343 7.66087C9.07945 6.11952 10.2447 5.33858 10.4282 5.21564C10.4393 5.20816 10.4468 5.20311 10.4502 5.20048C9.70882 4.06962 8.55218 3.94737 8.15181 3.9168ZM25.5237 13.7049C26.6506 13.7049 27.6961 13.1165 28.1706 12.1843H28.2076V13.6132H29.8685V7.68381C29.8685 5.96459 28.5339 4.85665 26.4801 4.85665C24.5746 4.85665 23.1659 5.97988 23.114 7.52335H24.7303C24.8638 6.78982 25.5237 6.30844 26.4282 6.30844C27.5255 6.30844 28.1409 6.83566 28.1409 7.80607V8.46319L25.9018 8.60073C23.8184 8.73062 22.6914 9.60933 22.6914 11.1375C22.6914 12.681 23.8554 13.7049 25.5237 13.7049ZM26.0051 12.2913C25.0486 12.2913 24.4406 11.8176 24.4406 11.0917C24.4406 10.3429 25.0264 9.90733 26.1459 9.83856L28.1404 9.70867V10.3811C28.1404 11.4967 27.221 12.2913 26.0051 12.2913ZM35.3762 14.0793C34.657 16.1653 33.834 16.853 32.0842 16.853C31.9508 16.853 31.5059 16.8377 31.4021 16.8071V15.3783C31.5133 15.3936 31.7877 15.4089 31.9285 15.4089C32.7219 15.4089 33.1667 15.065 33.4411 14.171L33.6042 13.6438L30.5643 4.97131H32.4401L34.5532 12.0086H34.5903L36.7034 4.97131H38.5273L35.3762 14.0793ZM15.8985 3.25969H17.9671C19.5241 3.25969 20.4139 4.11548 20.4139 5.62075C20.4139 7.12602 19.5241 7.98945 17.9597 7.98945H15.8985V3.25969Z" fill="black"/>
</svg>
