<svg width="39" height="17" viewBox="0 0 39 17" fill="none" xmlns="http://www.w3.org/2000/svg">
<path fill-rule="evenodd" clip-rule="evenodd" d="M18.0296 13.2937V8.63639H20.3907C21.3582 8.63639 22.1748 8.30634 22.8405 7.65542L23.0002 7.4904C24.2163 6.14271 24.1364 4.04326 22.8405 2.79642C22.1925 2.13633 21.3049 1.77878 20.3907 1.79712H16.6006V13.2937H18.0296ZM18.0295 7.22455V3.209H20.4264C20.9413 3.209 21.4296 3.41069 21.7935 3.77741C22.5659 4.54752 22.5836 5.83103 21.8379 6.62864C21.4739 7.02286 20.9591 7.24289 20.4264 7.22455H18.0295ZM29.6668 6.04188C29.0544 5.4643 28.22 5.17093 27.1638 5.17093C25.8057 5.17093 24.785 5.68433 24.1104 6.70197L25.3708 7.51791C25.8323 6.82115 26.4625 6.47277 27.2614 6.47277C27.7673 6.47277 28.2555 6.6653 28.6372 7.01368C29.01 7.34372 29.223 7.82046 29.223 8.32469V8.6639C28.6727 8.3522 27.9804 8.18717 27.1283 8.18717C26.1341 8.18717 25.3353 8.42554 24.7406 8.91144C24.1459 9.39734 23.8441 10.0391 23.8441 10.855C23.8264 11.5976 24.137 12.3036 24.6873 12.7803C25.2465 13.2937 25.9566 13.5504 26.791 13.5504C27.7762 13.5504 28.5573 13.1012 29.152 12.2027H29.2141V13.2937H30.581V8.44387C30.581 7.42624 30.2793 6.61946 29.6668 6.04188ZM25.7893 11.8452C25.4963 11.6251 25.3187 11.2676 25.3187 10.8825C25.3187 10.4517 25.514 10.0941 25.8958 9.8099C26.2864 9.52569 26.7747 9.37901 27.3517 9.37901C28.1507 9.36984 28.7721 9.5532 29.216 9.91992C29.216 10.5433 28.9763 11.0842 28.5058 11.5426C28.0796 11.9827 27.5026 12.2302 26.8989 12.2302C26.4995 12.2394 26.1088 12.1019 25.7893 11.8452ZM33.6509 16.75L38.4262 5.42761H36.8729L34.6627 11.0751H34.6361L32.3727 5.42761H30.8194L33.9527 12.7895L32.1774 16.75H33.6509Z" fill="#3C4043"/>
<path d="M13.0972 7.62795C13.0972 7.17872 13.0617 6.72949 12.9907 6.28943H6.96387V8.82894H10.4167C10.2746 9.64489 9.81309 10.3783 9.13851 10.8367V12.4869H11.1978C12.4049 11.341 13.0972 9.64489 13.0972 7.62795Z" fill="#4285F4"/>
<path d="M6.96317 14.0821C8.68513 14.0821 10.1408 13.4954 11.1971 12.4869L9.13781 10.8367C8.56087 11.2401 7.82415 11.4693 6.96317 11.4693C5.29447 11.4693 3.88318 10.3049 3.37724 8.7464H1.25586V10.4516C2.33874 12.6794 4.54888 14.0821 6.96317 14.0821Z" fill="#34A853"/>
<path d="M3.37879 8.74646C3.11247 7.93052 3.11247 7.04123 3.37879 6.21611V4.52005H1.25707C0.342694 6.38114 0.342694 8.58144 1.25707 10.4425L3.37879 8.74646Z" fill="#FBBC04"/>
<path d="M6.96317 3.4932C7.87741 3.47486 8.75614 3.83241 9.41297 4.48333L11.2414 2.59474C10.0787 1.47626 8.55199 0.862007 6.96317 0.880343C4.54888 0.880343 2.33874 2.2922 1.25586 4.52001L3.37724 6.22524C3.88318 4.65752 5.29447 3.4932 6.96317 3.4932Z" fill="#EA4335"/>
</svg>
