<svg width="35" height="22" viewBox="0 0 35 22" fill="none" xmlns="http://www.w3.org/2000/svg">
<path fill-rule="evenodd" clip-rule="evenodd" d="M17.8774 19.4504C16.073 21.0356 13.7325 21.9926 11.1749 21.9926C5.4681 21.9926 0.841797 17.2279 0.841797 11.3504C0.841797 5.47298 5.4681 0.708344 11.1749 0.708344C13.7325 0.708344 16.073 1.66528 17.8774 3.25047C19.6817 1.66528 22.0222 0.708347 24.5798 0.708347C30.2866 0.708347 34.9129 5.47298 34.9129 11.3505C34.9129 17.2279 30.2866 21.9926 24.5798 21.9926C22.0222 21.9926 19.6817 21.0356 17.8774 19.4504Z" fill="#ED0006"/>
<path fill-rule="evenodd" clip-rule="evenodd" d="M17.877 19.4504C20.0988 17.4985 21.5077 14.5939 21.5077 11.3504C21.5077 8.10699 20.0988 5.20244 17.877 3.25048C19.6813 1.66529 22.0218 0.708344 24.5794 0.708344C30.2862 0.708344 34.9125 5.47298 34.9125 11.3504C34.9125 17.2279 30.2862 21.9926 24.5794 21.9926C22.0218 21.9926 19.6813 21.0356 17.877 19.4504Z" fill="#F9A000"/>
<path fill-rule="evenodd" clip-rule="evenodd" d="M17.8768 19.4504C20.0986 17.4984 21.5075 14.5939 21.5075 11.3504C21.5075 8.10698 20.0986 5.20242 17.8768 3.25046C15.655 5.20242 14.2461 8.10698 14.2461 11.3504C14.2461 14.5939 15.655 17.4984 17.8768 19.4504Z" fill="#FF5E00"/>
</svg>
