<svg width="28" height="26" viewBox="0 0 28 26" fill="none" xmlns="http://www.w3.org/2000/svg">
<path d="M4.80005 10.6942H15.0234L11.402 17.6788H1.22217L4.80005 10.6942Z" fill="#F7F3EF" stroke="#EFAF00" stroke-width="1.84" stroke-linejoin="round"/>
<path d="M6.11938 17.6789L8.12278 25H23.0261L26.7777 10.6942H15.0234L11.4021 17.6789H6.11938Z" fill="#EFAF00" stroke="#EFAF00" stroke-width="1.84" stroke-linejoin="round"/>
<path d="M15.0723 10.9981H26.4574L23.1782 24.1696H15.0723V10.9981Z" fill="#F7F3EF" stroke="#EFAF00" stroke-width="1.97" stroke-linejoin="round"/>
<path d="M24.3507 10.6942C22.8196 3.80177 18.8128 8.83268 18.8128 8.83268C18.3785 7.32938 17.7269 6.48275 17.0048 6.04858C14.8331 4.74608 11.9556 7.20456 11.9556 7.20456C8.12257 5.84236 6.52637 10.6942 6.52637 10.6942H24.3507Z" fill="#F7F3EF" stroke="#EFAF00" stroke-width="1.97" stroke-linejoin="round"/>
<path d="M18.3678 1.99998L18.547 9.18545" stroke="#EFAF00" stroke-width="2.29" stroke-linecap="round" stroke-linejoin="round"/>
<path d="M24.2314 2.75978L18.5144 9.34827" stroke="#EFAF00" stroke-width="1.84" stroke-linecap="round" stroke-linejoin="round"/>
</svg>
