<svg width="33" height="28" viewBox="0 0 33 28" fill="none" xmlns="http://www.w3.org/2000/svg">
<path d="M32.497 8.57146C32.3295 9.19424 31.9001 9.54904 31.3306 9.82008C28.9643 10.9499 26.6056 12.0955 24.2546 13.2568C23.6029 13.5812 22.9862 13.703 22.2934 13.2995C22.4091 13.7867 22.537 14.2222 22.6116 14.6699C22.9999 16.9722 22.4471 19.0857 21.2016 21.0119C19.2053 24.103 16.2969 25.8846 12.7475 26.6338C9.96249 27.223 7.25209 26.9596 4.697 25.6318C2.94298 24.7384 1.54831 23.2706 0.745594 21.4733C0.349692 20.6099 0.424283 19.8486 1.0288 19.1573C1.30441 18.8421 1.32116 18.5741 1.22066 18.1858C1.07841 17.6106 0.986184 17.0242 0.94504 16.4332C0.928971 16.2687 0.946061 16.1027 0.995301 15.945C1.04454 15.7873 1.12492 15.6411 1.2317 15.515C1.33847 15.3889 1.4695 15.2855 1.61695 15.211C1.7644 15.1364 1.92528 15.0922 2.09012 15.081C2.38704 15.0551 2.48298 14.9287 2.48146 14.6486C2.47385 13.502 2.46776 12.3554 2.48146 11.2088C2.49287 10.8179 2.63993 10.4432 2.89742 10.1489C3.1549 9.85466 3.50676 9.65915 3.89264 9.59595C4.27852 9.53274 4.67437 9.60578 5.01228 9.80254C5.3502 9.9993 5.6091 10.3075 5.7446 10.6743C5.82634 10.9419 5.8614 11.2216 5.84817 11.5011C5.80009 12.7327 5.90906 13.9653 6.17249 15.1693C6.19685 15.2698 6.22427 15.3703 6.25625 15.4937L8.5403 14.4948C8.12003 12.8944 8.54031 11.4951 9.61534 10.2312L10.2807 10.9804C9.56202 11.862 9.1844 12.8975 9.49199 14.105C10.5579 13.773 11.6009 13.4197 12.6592 13.1228C14.8489 12.5061 17.0751 12.0143 19.3591 12.092C20.0032 12.1148 20.6458 12.3021 21.2823 12.4391C21.5411 12.4939 21.5868 12.4802 21.5457 12.2214C21.3782 11.221 21.8122 10.5266 22.7395 10.1231C24.3703 9.41504 25.9813 8.65673 27.6 7.91974C28.4146 7.54973 29.246 7.21169 30.0363 6.79751C30.924 6.33309 31.9625 6.57824 32.3919 7.75529C32.4223 7.84056 32.4635 7.92431 32.5 8.00806L32.497 8.57146ZM21.6858 15.3779C20.7204 16.421 19.6225 17.1717 18.4607 17.8295C15.088 19.719 11.44 21.0682 7.6495 21.8281C6.30627 22.1256 4.93378 22.2707 3.55802 22.2606C3.13928 22.2529 2.72053 22.1981 2.30179 22.1646L2.23781 22.2316C2.64894 22.6808 3.02812 23.165 3.47731 23.5716C5.10508 25.0395 7.06936 25.7308 9.22094 25.8785C12.0101 26.0863 14.7871 25.34 17.0964 23.7619C19.2799 22.3032 20.859 20.3694 21.5122 17.7716C21.7162 16.9927 21.7776 16.1833 21.6934 15.3825L21.6858 15.3779ZM9.57879 16.4042L8.89659 15.4236L6.55621 16.4575C7.31756 18.364 8.62101 19.576 10.6066 20.0009C10.71 20.0149 10.8152 20.0007 10.9112 19.9598C12.2816 19.4603 13.6337 18.9319 15.0072 18.4568C15.8036 18.1828 16.3243 17.6315 16.702 16.9341C16.9406 16.4615 17.1442 15.9719 17.311 15.4693C17.4024 15.2181 17.4161 14.9394 17.4847 14.679C17.5704 14.3589 17.7602 14.0765 18.0241 13.8761C18.288 13.6757 18.6111 13.5687 18.9424 13.572C19.2738 13.5754 19.5946 13.6888 19.8545 13.8944C20.1143 14.1 20.2984 14.3862 20.3778 14.708C20.4159 14.8602 20.4296 15.0125 20.4661 15.2226C20.6915 14.9638 20.9047 14.7521 21.0752 14.513C21.567 13.84 21.4376 13.4807 20.626 13.2583C19.79 13.0284 18.9358 13.0497 18.0815 13.1061C15.8279 13.2766 13.6505 13.8172 11.505 14.5024C10.9736 14.6729 10.4483 14.8602 9.88028 15.0521L10.3553 15.7586L9.57879 16.4042ZM8.82807 20.5688C8.23117 20.0937 7.60991 19.6948 7.10894 19.1817C5.76591 17.8112 5.20251 16.0753 4.97715 14.2237C4.86447 13.2766 4.8782 12.3143 4.85079 11.3565C4.84166 11.0519 4.75487 10.8037 4.47774 10.6545C4.00418 10.4018 3.47274 10.7444 3.46817 11.3169C3.45903 12.4422 3.46817 13.5674 3.46817 14.6927C3.46817 15.4937 3.04333 15.9733 2.24086 16.0632C2.02159 16.0906 1.91804 16.1956 1.9287 16.4073C1.99265 17.5585 2.25762 18.6518 2.89411 19.6293C3.41335 20.4272 4.13205 20.9617 5.09136 21.0683C5.55457 21.1071 6.02087 21.0856 6.47855 21.0043C7.28711 20.8901 8.07739 20.712 8.83569 20.5688H8.82807ZM25.0738 11.7372C25.1001 11.7295 25.1256 11.7193 25.1499 11.7067C27.1406 10.7403 29.1308 9.77186 31.1205 8.80139C31.5011 8.61562 31.5773 8.37046 31.3824 7.98217C31.1875 7.59388 30.9636 7.48425 30.5555 7.67002C29.2358 8.27301 27.9126 8.87702 26.5858 9.48204L24.4662 10.452L25.0738 11.7372ZM17.9034 17.0133C18.2704 16.7819 18.6571 16.5443 19.0378 16.2946C19.1154 16.2434 19.1738 16.1679 19.2038 16.0799C19.2933 15.7609 19.3619 15.4364 19.4093 15.1084C19.4159 15.0459 19.4099 14.9827 19.3919 14.9225C19.3739 14.8622 19.3442 14.8062 19.3044 14.7575C19.2647 14.7088 19.2156 14.6684 19.1602 14.6388C19.1048 14.6091 19.0441 14.5907 18.9815 14.5846C18.8565 14.5699 18.7304 14.6021 18.6278 14.6749C18.5251 14.7478 18.4531 14.8561 18.4257 14.979C18.2612 15.6444 18.0892 16.3129 17.911 17.0088L17.9034 17.0133ZM22.5263 11.728C23.0318 11.5346 23.2328 11.5316 23.379 11.7646C23.4553 11.885 23.4876 12.0281 23.4704 12.1696C23.4205 12.3077 23.3468 12.436 23.2526 12.5488C23.7094 12.5107 23.9988 12.2153 23.9896 11.8011C23.9829 11.6177 23.9102 11.443 23.7848 11.3089C23.6595 11.1749 23.49 11.0907 23.3075 11.0717C23.2129 11.0623 23.1173 11.072 23.0265 11.1C22.9357 11.1281 22.8514 11.1741 22.7786 11.2352C22.7058 11.2964 22.6459 11.3715 22.6026 11.4561C22.5593 11.5408 22.5333 11.6332 22.5263 11.728ZM1.77795 19.812C1.71248 19.9202 1.62569 20.045 1.55717 20.1805C1.42774 20.444 1.42774 20.7181 1.70944 20.8521C2.07489 21.0196 2.47079 21.1231 2.85147 21.254L2.86518 21.1825L1.77795 19.812Z" fill="#EFAF00" stroke="#EFAF00" stroke-width="0.5"/>
<path d="M9.97919 2.55982C9.98096 2.85587 9.89507 3.14582 9.73235 3.39314C9.56963 3.64047 9.33736 3.8341 9.06479 3.94966C8.79222 4.06522 8.49155 4.09753 8.20065 4.04252C7.90975 3.98751 7.64167 3.84764 7.43012 3.64054C7.21857 3.43343 7.07303 3.16835 7.01186 2.87868C6.95069 2.58902 6.97661 2.28773 7.08636 2.01277C7.19611 1.73781 7.38478 1.50148 7.6286 1.33356C7.87241 1.16563 8.16047 1.07361 8.45649 1.06909C8.65439 1.06688 8.85076 1.1037 9.03442 1.17744C9.21808 1.25118 9.38543 1.3604 9.52685 1.49885C9.66826 1.63729 9.78098 1.80226 9.8586 1.98431C9.93622 2.16636 9.97721 2.36192 9.97919 2.55982V2.55982ZM8.97877 2.58114C8.98148 2.48238 8.95477 2.38505 8.902 2.30153C8.84923 2.218 8.7728 2.15207 8.68244 2.1121C8.59209 2.07214 8.49189 2.05996 8.3946 2.07711C8.2973 2.09426 8.20732 2.13996 8.13608 2.20841C8.06483 2.27685 8.01555 2.36494 7.99451 2.46147C7.97348 2.558 7.98166 2.65861 8.01797 2.75049C8.05428 2.84237 8.11712 2.92137 8.19846 2.97744C8.2798 3.0335 8.376 3.06411 8.47478 3.06535C8.60525 3.06547 8.73068 3.01515 8.8249 2.9249C8.91912 2.83466 8.97479 2.71148 8.98029 2.58114H8.97877Z" fill="#EFAF00" stroke="#EFAF00" stroke-width="0.5"/>
<path d="M5.03041 4.5713C5.32626 4.58099 5.61262 4.67801 5.85344 4.85014C6.09426 5.02226 6.27876 5.2618 6.38371 5.53858C6.48866 5.81536 6.50937 6.11701 6.44322 6.40553C6.37707 6.69406 6.22704 6.95656 6.01199 7.15997C5.79695 7.36339 5.52652 7.49862 5.23477 7.54864C4.94301 7.59867 4.64297 7.56124 4.37245 7.44108C4.10192 7.32092 3.873 7.1234 3.71452 6.87339C3.55603 6.62338 3.47508 6.33207 3.48184 6.03614C3.48716 5.83822 3.53143 5.64329 3.61217 5.46251C3.69291 5.28173 3.80853 5.11865 3.95236 4.98259C4.0962 4.84653 4.26545 4.74017 4.45044 4.6696C4.63543 4.59902 4.8325 4.56562 5.03041 4.5713V4.5713ZM4.96952 6.56908C5.06866 6.5712 5.16618 6.54375 5.24967 6.49024C5.33316 6.43673 5.39882 6.35958 5.4383 6.26862C5.47779 6.17765 5.48931 6.07699 5.47139 5.97946C5.45346 5.88193 5.40688 5.79194 5.33763 5.72096C5.26838 5.64998 5.17959 5.60123 5.08253 5.58091C4.98547 5.56058 4.88455 5.56961 4.79264 5.60685C4.70073 5.64408 4.62198 5.70783 4.56643 5.78998C4.51088 5.87213 4.48103 5.96895 4.4807 6.06811C4.4822 6.19828 4.53385 6.32286 4.6249 6.41589C4.71595 6.50893 4.83941 6.56325 4.96952 6.56756V6.56908Z" fill="#EFAF00" stroke="#EFAF00" stroke-width="0.5"/>
<path d="M10.6172 4.21957L11.2994 4.89565C10.9921 5.29166 10.708 5.70499 10.4482 6.13361C10.2167 6.56606 10.0782 7.04723 9.88022 7.55277H8.97876C9.05642 6.20974 9.75838 5.1941 10.6172 4.21957Z" fill="#EFAF00" stroke="#EFAF00" stroke-width="0.5"/>
<path d="M2.45705 8.55623H1.49316V7.5954H2.45705V8.55623Z" fill="#EFAF00" stroke="#EFAF00" stroke-width="0.5"/>
<path d="M7.96767 8.09332V9.05415H7.00684V8.09332H7.96767Z" fill="#EFAF00" stroke="#EFAF00" stroke-width="0.5"/>
<path d="M6.50439 12.5868H7.4637V13.5553H6.50439V12.5868Z" fill="#EFAF00" stroke="#EFAF00" stroke-width="0.5"/>
<path d="M21.6934 15.3825C21.7791 16.1846 21.7187 16.9956 21.5152 17.7762C20.8635 20.3739 19.2845 22.3078 17.0994 23.7665C14.7902 25.3446 12.0132 26.0909 9.22397 25.8831C7.0724 25.7308 5.11268 25.0441 3.48035 23.5762C3.03115 23.1696 2.65197 22.6854 2.24084 22.2362L2.30482 22.1692C2.72357 22.2027 3.14231 22.2575 3.56105 22.2651C4.93681 22.2753 6.3093 22.1302 7.65254 21.8327C11.443 21.0728 15.091 19.7235 18.4637 17.8341C19.6301 17.1717 20.728 16.421 21.6934 15.3825Z" fill="#F7F3EF" stroke="#EFAF00" stroke-width="0.5"/>
<path d="M9.58637 16.4042L10.3477 15.7647L9.87266 15.0582C10.4406 14.8663 10.9659 14.679 11.4974 14.5085C13.6429 13.8233 15.8203 13.2827 18.0739 13.1122C18.9281 13.0482 19.7824 13.0269 20.6184 13.2644C21.43 13.4867 21.5594 13.8461 21.0676 14.5191C20.894 14.7582 20.6808 14.9759 20.4585 15.2287C20.4219 15.0125 20.4082 14.8602 20.3702 14.714C20.2908 14.3923 20.1067 14.1061 19.8468 13.9005C19.587 13.6948 19.2662 13.5814 18.9348 13.5781C18.6035 13.5748 18.2804 13.6818 18.0165 13.8822C17.7526 14.0826 17.5628 14.365 17.477 14.6851C17.4085 14.9455 17.3948 15.2241 17.3035 15.4754C17.1366 15.9779 16.933 16.4675 16.6944 16.9402C16.3167 17.6392 15.796 18.1904 14.9996 18.4629C13.6292 18.938 12.2694 19.4664 10.9035 19.9658C10.8076 20.0067 10.7024 20.0209 10.599 20.007C8.61947 19.5821 7.30994 18.37 6.54858 16.4636L8.889 15.4297L9.58637 16.4042ZM9.50566 17.0895V18.0518H10.4665V17.0895H9.50566Z" fill="#F7F3EF" stroke="#EFAF00" stroke-width="0.5"/>
<path d="M8.83567 20.5688C8.07432 20.7211 7.28709 20.8901 6.4892 21.0119C6.03152 21.0932 5.56521 21.1147 5.102 21.0759C4.1427 20.9693 3.42704 20.4348 2.90475 19.6369C2.26826 18.6594 2.0033 17.5661 1.93934 16.4149C1.92869 16.2032 2.03224 16.0982 2.25151 16.0708C3.05397 15.9733 3.47729 15.4937 3.47881 14.7003C3.47881 13.5751 3.47881 12.4498 3.47881 11.3245C3.47881 10.752 4.01479 10.4109 4.48835 10.6621C4.76548 10.8144 4.85227 11.0565 4.8614 11.3641C4.88881 12.3219 4.87512 13.2842 4.9878 14.2313C5.20707 16.0829 5.77047 17.8219 7.11958 19.1893C7.61903 19.6948 8.23877 20.0937 8.83567 20.5688ZM6.24708 20.1805C5.28168 19.3385 5.28168 19.3385 4.9543 18.5939H3.97217C4.14119 19.7009 4.84161 20.3861 5.70651 20.9921L6.24708 20.1805Z" fill="#F7F3EF" stroke="#EFAF00" stroke-width="0.5"/>
<path d="M25.0814 11.728L24.4723 10.4429L26.5919 9.47289C27.9116 8.86381 29.2348 8.25981 30.5616 7.66088C30.9697 7.47511 31.1859 7.5619 31.3884 7.97303C31.5909 8.38416 31.5072 8.60647 31.1265 8.79224C29.1378 9.76373 27.1477 10.7322 25.156 11.6976C25.1321 11.71 25.1071 11.7202 25.0814 11.728V11.728Z" fill="#F7F3EF" stroke="#EFAF00" stroke-width="0.5"/>
<path d="M17.911 17.0087C18.0892 16.3129 18.2612 15.6383 18.4333 14.9744C18.4607 14.8515 18.5327 14.7432 18.6353 14.6704C18.738 14.5975 18.864 14.5653 18.9891 14.58C19.0516 14.5861 19.1124 14.6045 19.1678 14.6342C19.2233 14.6638 19.2723 14.7042 19.312 14.7529C19.3518 14.8016 19.3815 14.8576 19.3995 14.9179C19.4176 14.9781 19.4235 15.0413 19.4169 15.1038C19.3695 15.4318 19.3008 15.7563 19.2114 16.0753C19.1814 16.1633 19.123 16.2389 19.0454 16.29C18.6587 16.5397 18.278 16.7773 17.911 17.0087Z" fill="#F7F3EF" stroke="#EFAF00" stroke-width="0.5"/>
<path d="M22.5262 11.728C22.5333 11.6332 22.5592 11.5408 22.6026 11.4561C22.6459 11.3715 22.7057 11.2964 22.7785 11.2352C22.8513 11.1741 22.9356 11.1281 23.0264 11.1C23.1173 11.0719 23.2128 11.0623 23.3074 11.0717C23.4899 11.0907 23.6594 11.1749 23.7848 11.3089C23.9101 11.443 23.9829 11.6177 23.9896 11.8011C23.9987 12.2153 23.7063 12.5107 23.2526 12.5488C23.3467 12.436 23.4204 12.3077 23.4704 12.1696C23.4875 12.0281 23.4552 11.885 23.379 11.7646C23.2267 11.5362 23.0318 11.5392 22.5262 11.728Z" fill="#F7F3EF" stroke="#EFAF00" stroke-width="0.5"/>
<path d="M1.77795 19.8166L2.87281 21.187L2.85909 21.2586C2.47689 21.1276 2.08251 21.0241 1.71706 20.8566C1.42775 20.7226 1.42775 20.4485 1.56479 20.1851C1.62265 20.0496 1.71248 19.9247 1.77795 19.8166Z" fill="#F7F3EF" stroke="#EFAF00" stroke-width="0.5"/>
<path d="M8.98034 2.58113C8.97723 2.67979 8.94487 2.77531 8.88736 2.85554C8.82986 2.93577 8.74983 2.99709 8.65739 3.03172C8.56496 3.06636 8.46431 3.07274 8.36824 3.05006C8.27218 3.02737 8.18501 2.97664 8.11783 2.90432C8.05066 2.83199 8.00649 2.74133 7.99095 2.64385C7.97541 2.54637 7.98919 2.44647 8.03054 2.35684C8.0719 2.26721 8.13897 2.1919 8.22322 2.14047C8.30748 2.08904 8.40513 2.0638 8.50375 2.06798C8.63421 2.07506 8.75681 2.13253 8.84573 2.22826C8.93464 2.32399 8.9829 2.4505 8.98034 2.58113Z" fill="#F7F3EF" stroke="#EFAF00" stroke-width="0.5"/>
<path d="M4.96959 6.56759C4.87046 6.56571 4.77412 6.53436 4.69286 6.47755C4.6116 6.42073 4.5491 6.34102 4.5133 6.24855C4.47751 6.15609 4.47004 6.05506 4.49185 5.95833C4.51367 5.86161 4.56377 5.77357 4.6358 5.70543C4.70782 5.63729 4.7985 5.59212 4.89628 5.57569C4.99407 5.55926 5.09453 5.57231 5.18488 5.61317C5.27522 5.65403 5.35135 5.72085 5.40358 5.80513C5.45581 5.88941 5.48176 5.98733 5.47815 6.08642C5.47224 6.21689 5.41592 6.33996 5.32105 6.42972C5.22618 6.51948 5.10019 6.5689 4.96959 6.56759Z" fill="#F7F3EF" stroke="#EFAF00" stroke-width="0.5"/>
<path d="M9.50562 17.0894H10.4664V18.0518H9.50562V17.0894Z" fill="#EFAF00" stroke="#EFAF00" stroke-width="0.5"/>
<path d="M6.24402 20.1805L5.70346 20.9921C4.83856 20.383 4.13814 19.7009 3.96912 18.5939H4.9543C5.27864 19.3415 5.27863 19.3415 6.24402 20.1805Z" fill="#EFAF00" stroke="#EFAF00" stroke-width="0.5"/>
</svg>
