<svg width="30" height="28" viewBox="0 0 30 28" fill="none" xmlns="http://www.w3.org/2000/svg">
<path fill-rule="evenodd" clip-rule="evenodd" d="M3.71025 19.4964H1.39906C1.2409 19.4964 1.10639 19.6156 1.08172 19.7776L0.146956 25.9274C0.128376 26.0488 0.218944 26.1582 0.337566 26.1582H1.44095C1.59911 26.1582 1.73362 26.0389 1.75829 25.8766L2.01041 24.2179C2.03472 24.0555 2.16957 23.9364 2.3274 23.9364H3.05904C4.58151 23.9364 5.46012 23.1719 5.6897 21.657C5.79307 20.9942 5.69408 20.4735 5.3949 20.1087C5.06648 19.7083 4.48377 19.4964 3.71025 19.4964ZM3.9769 21.7425C3.85054 22.6031 3.21687 22.6031 2.60418 22.6031H2.25541L2.50008 20.9958C2.51461 20.8988 2.59572 20.8272 2.69035 20.8272H2.8502C3.26756 20.8272 3.6613 20.8272 3.86477 21.0741C3.98597 21.2214 4.02319 21.4402 3.9769 21.7425ZM10.619 21.7149H9.51222C9.41791 21.7149 9.33643 21.7865 9.32189 21.8837L9.27294 22.2048L9.19553 22.0885C8.95593 21.7276 8.4217 21.607 7.88841 21.607C6.66527 21.607 5.62073 22.5682 5.41727 23.9166C5.31155 24.5891 5.46184 25.2322 5.82951 25.6807C6.16685 26.0931 6.64947 26.265 7.22359 26.265C8.20901 26.265 8.7556 25.6074 8.7556 25.6074L8.70618 25.9266C8.68756 26.0486 8.77812 26.158 8.89603 26.158H9.89303C10.0516 26.158 10.1853 26.0387 10.2103 25.8765L10.8085 21.9457C10.8275 21.8248 10.7372 21.7149 10.619 21.7149ZM9.0762 23.9502C8.96938 24.6063 8.46752 25.0467 7.82757 25.0467C7.50619 25.0467 7.24923 24.9398 7.0844 24.7371C6.92081 24.5359 6.85857 24.2493 6.91065 23.9302C7.01042 23.2796 7.52073 22.8249 8.15099 22.8249C8.46518 22.8249 8.72072 22.9332 8.889 23.1376C9.05759 23.3442 9.12452 23.6324 9.0762 23.9502ZM15.4013 21.7148H16.5135C16.6693 21.7148 16.7602 21.896 16.6717 22.0286L12.9725 27.5692C12.9126 27.659 12.814 27.7123 12.7085 27.7123H11.5977C11.4413 27.7123 11.35 27.5296 11.4405 27.3967L12.5923 25.7096L11.3673 21.9791C11.3249 21.8494 11.4172 21.7148 11.5502 21.7148H12.643C12.785 21.7148 12.9103 21.8115 12.9513 21.9525L13.6014 24.2056L15.1354 21.861C15.1955 21.7694 15.2953 21.7148 15.4013 21.7148Z" fill="#253B80"/>
<path fill-rule="evenodd" clip-rule="evenodd" d="M27.4589 25.9274L28.4075 19.6652C28.422 19.568 28.5032 19.4964 28.5975 19.4961H29.6653C29.7832 19.4961 29.8738 19.6058 29.8552 19.7272L28.9198 25.8766C28.8954 26.0389 28.7609 26.1582 28.6025 26.1582H27.6488C27.5309 26.1582 27.4403 26.0488 27.4589 25.9274ZM20.1947 19.4964H17.8831C17.7253 19.4964 17.5908 19.6157 17.5661 19.7776L16.6313 25.9274C16.6127 26.0488 16.7033 26.1582 16.8214 26.1582H18.0074C18.1177 26.1582 18.212 26.0748 18.2292 25.9612L18.4944 24.218C18.5188 24.0555 18.6536 23.9364 18.8114 23.9364H19.5427C21.0655 23.9364 21.944 23.1719 22.1737 21.657C22.2774 20.9942 22.1778 20.4735 21.8787 20.1087C21.5505 19.7083 20.9682 19.4964 20.1947 19.4964ZM20.4614 21.7425C20.3353 22.6031 19.7016 22.6031 19.0886 22.6031H18.7401L18.9852 20.9959C18.9997 20.8988 19.0801 20.8273 19.175 20.8273H19.3349C19.752 20.8273 20.1461 20.8273 20.3494 21.0741C20.4707 21.2214 20.5077 21.4402 20.4614 21.7425ZM27.1028 21.7149H25.9968C25.9018 21.7149 25.8211 21.7865 25.8068 21.8837L25.7579 22.2049L25.6801 22.0885C25.4406 21.7276 24.9066 21.607 24.3733 21.607C23.1502 21.607 22.106 22.5682 21.9025 23.9166C21.7971 24.5891 21.9468 25.2322 22.3144 25.6808C22.6524 26.0931 23.1344 26.265 23.7085 26.265C24.6939 26.265 25.2404 25.6074 25.2404 25.6074L25.1911 25.9266C25.1725 26.0486 25.2631 26.158 25.3818 26.158H26.3783C26.5361 26.158 26.6706 26.0387 26.6953 25.8765L27.2938 21.9457C27.3121 21.8248 27.2215 21.7149 27.1028 21.7149ZM25.5602 23.9502C25.454 24.6063 24.9515 25.0467 24.3114 25.0467C23.9906 25.0467 23.7332 24.9398 23.5682 24.7371C23.4046 24.5359 23.3432 24.2493 23.3946 23.9302C23.4949 23.2796 24.0046 22.8249 24.6348 22.8249C24.9492 22.8249 25.2046 22.9332 25.373 23.1376C25.5422 23.3442 25.6091 23.6324 25.5602 23.9502Z" fill="#179BD7"/>
<path d="M12.2646 17.2964L12.5487 15.4236L11.9158 15.4084H8.89355L10.9939 1.58913C11.0003 1.54741 11.0216 1.50851 11.0525 1.48089C11.0835 1.45327 11.1232 1.43805 11.1645 1.43805H16.2605C17.9524 1.43805 19.1198 1.80336 19.7294 2.52439C20.0152 2.86265 20.1972 3.21611 20.2853 3.6051C20.3775 4.01327 20.3792 4.50091 20.289 5.09567L20.2824 5.13908V5.52016L20.5683 5.68818C20.809 5.82065 21.0001 5.9723 21.1468 6.14594C21.3914 6.43514 21.5495 6.80271 21.6163 7.23848C21.6853 7.68667 21.6624 8.21997 21.5495 8.82375C21.4191 9.5183 21.2083 10.1232 20.9236 10.6182C20.6617 11.0743 20.3281 11.4524 19.9321 11.7457C19.554 12.0242 19.1047 12.2356 18.5967 12.371C18.1044 12.5039 17.5432 12.5711 16.9277 12.5711H16.5311C16.2475 12.5711 15.972 12.677 15.7558 12.8671C15.5391 13.061 15.3955 13.3258 15.3516 13.6157L15.3217 13.7843L14.8197 17.0849L14.7969 17.2061C14.7909 17.2446 14.7806 17.2637 14.7654 17.2767C14.7518 17.2884 14.7323 17.2964 14.7132 17.2964H12.2646Z" fill="#253B80"/>
<path d="M20.8384 5.18323C20.8232 5.28413 20.8059 5.3873 20.7863 5.49328C20.1142 9.07367 17.8151 10.3105 14.8785 10.3105H13.3834C13.0243 10.3105 12.7217 10.5811 12.6657 10.9487L11.9002 15.9864L11.6834 17.4144C11.647 17.6557 11.8264 17.8733 12.061 17.8733H14.7129C15.0269 17.8733 15.2936 17.6365 15.343 17.3152L15.3691 17.1753L15.8685 13.8875L15.9005 13.7072C15.9493 13.3848 16.2166 13.148 16.5306 13.148H16.9272C19.4964 13.148 21.5078 12.0656 22.0956 8.9333C22.3412 7.62483 22.214 6.53229 21.5642 5.76389C21.3676 5.53218 21.1237 5.33994 20.8384 5.18323Z" fill="#179BD7"/>
<path d="M20.1357 4.89255C20.0331 4.86153 19.9271 4.83334 19.8184 4.80798C19.7093 4.78318 19.5973 4.76119 19.4822 4.74203C19.079 4.67437 18.6374 4.64224 18.1641 4.64224H14.1699C14.0715 4.64224 13.9781 4.66535 13.8945 4.70707C13.7102 4.79896 13.5734 4.97993 13.5402 5.20148L12.6904 10.786L12.666 10.9489C12.722 10.5814 13.0246 10.3108 13.3837 10.3108H14.8788C17.8154 10.3108 20.1146 9.07333 20.7866 5.4935C20.8067 5.38752 20.8235 5.28436 20.8387 5.18345C20.6687 5.08986 20.4845 5.00981 20.2862 4.94159C20.2374 4.92468 20.1869 4.90833 20.1357 4.89255Z" fill="#222D65"/>
<path d="M13.5405 5.20138C13.5737 4.97981 13.7107 4.79885 13.8947 4.70752C13.979 4.6658 14.0719 4.64269 14.1701 4.64269H18.1645C18.6378 4.64269 19.0794 4.67482 19.4824 4.74248C19.5977 4.76164 19.7097 4.78363 19.8188 4.80843C19.9275 4.83381 20.0334 4.862 20.1362 4.89299C20.1871 4.90878 20.2376 4.92512 20.2871 4.94148C20.4854 5.00969 20.6696 5.09031 20.8396 5.18333C21.0396 3.8602 20.838 2.95933 20.1487 2.14358C19.3886 1.24553 18.0167 0.861053 16.2614 0.861053H11.1652C10.8066 0.861053 10.5009 1.13164 10.4454 1.49978L8.32283 15.4611C8.28092 15.7373 8.48626 15.9865 8.75463 15.9865H11.9009L12.6908 10.7859L13.5405 5.20138Z" fill="#253B80"/>
</svg>
