<svg width="38" height="13" viewBox="0 0 38 13" fill="none" xmlns="http://www.w3.org/2000/svg">
<path fill-rule="evenodd" clip-rule="evenodd" d="M10.0889 12.0648H6.87809L4.47041 2.71324C4.35613 2.28307 4.11348 1.90277 3.75655 1.72353C2.8658 1.2731 1.88426 0.914624 0.813477 0.733827V0.373793H5.98578C6.69963 0.373793 7.23502 0.914624 7.32425 1.54274L8.5735 8.28832L11.7827 0.373793H14.9042L10.0889 12.0648ZM16.69 12.0648H13.6577L16.1546 0.373793H19.1869L16.69 12.0648ZM23.108 3.61258C23.1973 2.98291 23.7327 2.62287 24.3573 2.62287C25.3388 2.53247 26.4081 2.71327 27.3004 3.16215L27.8358 0.645019C26.9434 0.284984 25.9619 0.104187 25.0711 0.104187C22.1281 0.104187 19.9865 1.72356 19.9865 3.97106C19.9865 5.68083 21.5034 6.57858 22.5742 7.11941C23.7327 7.65868 24.1788 8.01872 24.0896 8.55799C24.0896 9.3669 23.1973 9.72694 22.3065 9.72694C21.2357 9.72694 20.165 9.4573 19.185 9.00687L18.6496 11.5256C19.7204 11.9744 20.8788 12.1552 21.9496 12.1552C25.2496 12.2441 27.3004 10.6262 27.3004 8.19796C27.3004 5.14 23.108 4.96076 23.108 3.61258ZM37.9139 12.0648L35.5062 0.373793H32.9201C32.3847 0.373793 31.8493 0.733827 31.6708 1.2731L27.2124 12.0648H30.3339L30.957 10.3566H34.7924L35.1493 12.0648H37.9139ZM33.3661 3.52218L34.2568 7.92832H31.7599L33.3661 3.52218Z" fill="#172B85"/>
</svg>
