<svg width="467" height="457" viewBox="0 0 467 457" fill="none" xmlns="http://www.w3.org/2000/svg">
<rect x="120.198" y="85.7379" width="171.472" height="318.01" rx="15" fill="#4E4E4E" stroke="#4E4E4E" stroke-width="4"/>
<path d="M127.432 105.099C127.432 97.9194 133.252 92.0992 140.432 92.0992H271.437C278.616 92.0992 284.437 97.9194 284.437 105.099V383.431H127.432V105.099Z" fill="white"/>
<circle cx="161.887" cy="104.747" r="3.05288" fill="#EFAF00"/>
<rect x="171.918" y="102.566" width="81.9916" height="4.36125" rx="2.18063" fill="#EFAF00"/>
<rect x="137.026" y="116.522" width="138.688" height="236.38" fill="#F7F3EF"/>
<rect x="157.089" y="338.946" width="96.8198" height="26.1675" rx="13.0838" fill="#E7871E"/>
<rect x="148.494" y="130.606" width="56.4408" height="42.4848" rx="7" fill="white" stroke="#EFAF00" stroke-width="2"/>
<rect x="148.494" y="182.069" width="56.4408" height="42.4848" rx="7" fill="white" stroke="#EFAF00" stroke-width="2"/>
<rect x="147.494" y="232.531" width="58.4408" height="44.4848" rx="8" fill="#EFAF00"/>
<rect x="148.494" y="284.994" width="56.4408" height="42.4848" rx="7" fill="white" stroke="#EFAF00" stroke-width="2"/>
<path d="M109.292 332.805C109.292 332.805 116.714 320.484 128.486 324.224" stroke="#4E4E4E" stroke-width="3" stroke-linecap="round" stroke-linejoin="round"/>
<path d="M113.658 327.499C113.658 327.499 118.415 327.195 117.376 329.541C116.725 331.023 110.789 330.057 110.789 330.057C110.789 330.057 110.99 323.543 113.599 323.598C115.682 323.638 113.658 327.499 113.658 327.499V327.499Z" stroke="#4E4E4E" stroke-width="3" stroke-linecap="round" stroke-linejoin="round"/>
<path d="M117.236 324.985C117.236 324.985 121.58 325.464 120.006 326.855C119.208 327.561 114.301 326.983 114.301 326.983C114.301 326.983 116.497 321.186 118.623 321.007C120.749 320.828 117.236 324.985 117.236 324.985Z" stroke="#4E4E4E" stroke-width="3" stroke-linecap="round" stroke-linejoin="round"/>
<path d="M122.872 323.459C122.872 323.459 126.261 324.615 125.086 325.735C124.515 326.276 119.923 324.11 119.923 324.11C119.923 324.11 121.998 320.37 124.014 320.974C125.346 321.384 122.872 323.459 122.872 323.459V323.459Z" stroke="#4E4E4E" stroke-width="3" stroke-linecap="round" stroke-linejoin="round"/>
<path d="M124.376 323.419C124.376 323.419 131.834 321.395 131.439 324.516C131.157 326.847 124.376 323.419 124.376 323.419Z" stroke="#4E4E4E" stroke-width="3" stroke-linecap="round" stroke-linejoin="round"/>
<path d="M107.91 338.85C107.91 338.85 109.19 324.721 97.2607 321.472" stroke="#4E4E4E" stroke-width="3" stroke-linecap="round" stroke-linejoin="round"/>
<path d="M106.055 328.143C106.055 328.143 102.194 326.207 102.651 328.194C102.886 329.208 107.27 331.367 107.27 331.367C107.27 331.367 108.927 325.406 107.299 324.125C105.67 322.844 106.055 328.143 106.055 328.143V328.143Z" stroke="#4E4E4E" stroke-width="3" stroke-linecap="round" stroke-linejoin="round"/>
<path d="M102.329 323.858C102.329 323.858 98.8489 322.99 99.1454 324.542C99.2881 325.296 104.367 325.98 104.367 325.98C104.367 325.98 104.905 321.786 102.882 321.201C101.546 320.813 102.329 323.858 102.329 323.858Z" stroke="#4E4E4E" stroke-width="3" stroke-linecap="round" stroke-linejoin="round"/>
<path d="M101.103 323.012C101.103 323.012 96.1809 317.337 94.6403 320.107C93.4767 322.196 101.103 323.012 101.103 323.012Z" stroke="#4E4E4E" stroke-width="3" stroke-linecap="round" stroke-linejoin="round"/>
<path d="M107.218 332.088C107.218 332.088 114.449 318.676 105.106 310.944" stroke="#4E4E4E" stroke-width="3" stroke-linecap="round" stroke-linejoin="round"/>
<path d="M109.74 320.202C109.74 320.202 107.463 317.212 106.984 319.192C106.743 320.202 109.736 323.916 109.736 323.916C109.736 323.916 113.827 319.891 112.415 317.205C111.456 315.412 109.74 320.202 109.74 320.202V320.202Z" stroke="#4E4E4E" stroke-width="3" stroke-linecap="round" stroke-linejoin="round"/>
<path d="M108.642 315.163C108.642 315.163 105.883 312.967 105.448 314.501C105.239 315.232 109.532 317.896 109.532 317.896C109.532 317.896 111.91 314.325 110.34 312.982C109.294 312.074 108.642 315.163 108.642 315.163V315.163Z" stroke="#4E4E4E" stroke-width="3" stroke-linecap="round" stroke-linejoin="round"/>
<path d="M107.909 313.886C107.909 313.886 106.01 306.776 103.368 308.66C101.362 310.08 107.909 313.886 107.909 313.886Z" stroke="#4E4E4E" stroke-width="3" stroke-linecap="round" stroke-linejoin="round"/>
<path d="M83.1246 408.587C81.6755 408.21 80.779 406.757 81.0973 405.293L97.1474 337.156C98.1391 333.112 102.552 330.712 106.761 331.93L108.887 332.549C113.095 333.767 115.334 338.096 113.761 341.975L86.7438 406.94C86.1253 408.323 84.5738 409.026 83.1246 408.587Z" fill="#E57B07" stroke="#4E4E4E" stroke-width="3" stroke-linecap="round" stroke-linejoin="round"/>
<path d="M134.323 343.805C134.323 343.805 141.744 331.487 153.513 335.224" stroke="#4E4E4E" stroke-width="3" stroke-linecap="round" stroke-linejoin="round"/>
<path d="M138.685 338.499C138.685 338.499 143.442 338.195 142.403 340.544C141.751 342.008 135.816 341.06 135.816 341.06C135.816 341.06 136.014 334.547 138.623 334.598C140.709 334.642 138.685 338.499 138.685 338.499V338.499Z" stroke="#4E4E4E" stroke-width="3" stroke-linecap="round" stroke-linejoin="round"/>
<path d="M142.267 335.985C142.267 335.985 146.607 336.468 145.034 337.855C144.236 338.561 139.333 337.983 139.333 337.983C139.333 337.983 141.528 332.186 143.651 332.007C145.773 331.828 142.267 335.985 142.267 335.985V335.985Z" stroke="#4E4E4E" stroke-width="3" stroke-linecap="round" stroke-linejoin="round"/>
<path d="M147.903 334.459C147.903 334.459 151.288 335.615 150.099 336.735C149.531 337.28 144.939 335.11 144.939 335.11C144.939 335.11 147.01 331.37 149.026 331.974C150.377 332.362 147.903 334.459 147.903 334.459Z" stroke="#4E4E4E" stroke-width="3" stroke-linecap="round" stroke-linejoin="round"/>
<path d="M149.422 334.422C149.422 334.422 156.876 332.395 156.484 335.52C156.188 337.851 149.422 334.422 149.422 334.422Z" stroke="#4E4E4E" stroke-width="3" stroke-linecap="round" stroke-linejoin="round"/>
<path d="M132.929 349.854C132.929 349.854 134.213 335.721 122.28 332.475" stroke="#4E4E4E" stroke-width="3" stroke-linecap="round" stroke-linejoin="round"/>
<path d="M131.08 339.147C131.08 339.147 127.22 337.207 127.681 339.198C127.915 340.208 132.299 342.367 132.299 342.367C132.299 342.367 133.953 336.406 132.328 335.129C130.703 333.851 131.08 339.147 131.08 339.147V339.147Z" stroke="#4E4E4E" stroke-width="3" stroke-linecap="round" stroke-linejoin="round"/>
<path d="M127.359 334.861C127.359 334.861 123.879 333.994 124.171 335.546C124.314 336.3 129.393 336.98 129.393 336.98C129.393 336.98 129.931 332.79 127.908 332.201C126.572 331.813 127.359 334.861 127.359 334.861Z" stroke="#4E4E4E" stroke-width="3" stroke-linecap="round" stroke-linejoin="round"/>
<path d="M126.133 334.012C126.133 334.012 121.207 328.337 119.667 331.107C118.521 333.196 126.133 334.012 126.133 334.012Z" stroke="#4E4E4E" stroke-width="3" stroke-linecap="round" stroke-linejoin="round"/>
<path d="M132.245 343.088C132.245 343.088 139.475 329.68 130.137 321.947" stroke="#4E4E4E" stroke-width="3" stroke-linecap="round" stroke-linejoin="round"/>
<path d="M134.751 331.202C134.751 331.202 132.475 328.212 131.996 330.196C131.751 331.202 134.748 334.92 134.748 334.92C134.748 334.92 138.835 330.895 137.423 328.205C136.486 326.412 134.751 331.202 134.751 331.202Z" stroke="#4E4E4E" stroke-width="3" stroke-linecap="round" stroke-linejoin="round"/>
<path d="M133.657 326.141C133.657 326.141 130.898 323.945 130.466 325.479C130.254 326.211 134.546 328.878 134.546 328.878C134.546 328.878 136.925 325.303 135.355 323.96C134.319 323.075 133.657 326.141 133.657 326.141V326.141Z" stroke="#4E4E4E" stroke-width="3" stroke-linecap="round" stroke-linejoin="round"/>
<path d="M132.928 324.886C132.928 324.886 131.028 317.776 128.386 319.66C126.392 321.084 132.928 324.886 132.928 324.886Z" stroke="#4E4E4E" stroke-width="3" stroke-linecap="round" stroke-linejoin="round"/>
<path d="M108.151 419.587C106.702 419.214 105.805 417.757 106.127 416.293L122.181 348.167C123.173 344.123 127.586 341.723 131.794 342.945L133.924 343.563C138.132 344.782 140.368 349.111 138.795 352.986L111.778 417.94C111.159 419.327 109.604 420.033 108.151 419.587Z" fill="#E57B07" stroke="#4E4E4E" stroke-width="3" stroke-linecap="round" stroke-linejoin="round"/>
<path d="M45.2992 332.634L43.5825 333.552L95.3498 430.341L97.0665 429.423L45.2992 332.634Z" fill="#F7F3EF" stroke="#4E4E4E" stroke-width="3" stroke-linecap="round" stroke-linejoin="round"/>
<path d="M48.2577 331.055L46.541 331.973L98.3083 428.762L100.025 427.844L48.2577 331.055Z" fill="#F7F3EF" stroke="#4E4E4E" stroke-width="3" stroke-linecap="round" stroke-linejoin="round"/>
<path d="M54.183 327.882L52.4663 328.8L104.234 425.589L105.95 424.671L54.183 327.882Z" fill="#F7F3EF" stroke="#4E4E4E" stroke-width="3" stroke-linecap="round" stroke-linejoin="round"/>
<path d="M60.1058 324.714L58.3892 325.632L110.156 422.421L111.873 421.503L60.1058 324.714Z" fill="#F7F3EF" stroke="#4E4E4E" stroke-width="3" stroke-linecap="round" stroke-linejoin="round"/>
<path d="M51.2177 329.466L49.501 330.384L101.268 427.173L102.985 426.255L51.2177 329.466Z" fill="#F7F3EF" stroke="#4E4E4E" stroke-width="3" stroke-linecap="round" stroke-linejoin="round"/>
<path d="M57.1425 326.296L55.4258 327.215L107.193 424.003L108.91 423.085L57.1425 326.296Z" fill="#F7F3EF" stroke="#4E4E4E" stroke-width="3" stroke-linecap="round" stroke-linejoin="round"/>
<path d="M63.0682 323.133L61.3516 324.051L113.119 420.84L114.835 419.922L63.0682 323.133Z" fill="#F7F3EF" stroke="#4E4E4E" stroke-width="3" stroke-linecap="round" stroke-linejoin="round"/>
<path d="M67.5116 330.256L65.7949 331.174L117.562 427.963L119.279 427.045L67.5116 330.256Z" fill="#F7F3EF" stroke="#4E4E4E" stroke-width="3" stroke-linecap="round" stroke-linejoin="round"/>
<path d="M70.4667 328.675L68.75 329.593L120.517 426.382L122.234 425.464L70.4667 328.675Z" fill="#F7F3EF" stroke="#4E4E4E" stroke-width="3" stroke-linecap="round" stroke-linejoin="round"/>
<path d="M73.4315 327.091L71.7148 328.009L123.482 424.798L125.199 423.88L73.4315 327.091Z" fill="#F7F3EF" stroke="#4E4E4E" stroke-width="3" stroke-linecap="round" stroke-linejoin="round"/>
<path d="M76.3973 325.51L74.6807 326.428L126.448 423.217L128.165 422.299L76.3973 325.51Z" fill="#F7F3EF" stroke="#4E4E4E" stroke-width="3" stroke-linecap="round" stroke-linejoin="round"/>
<path d="M45.7363 348.961H158.884V432.629C158.884 441.378 151.789 448.474 143.039 448.474H61.5814C52.8319 448.474 45.7363 441.378 45.7363 432.629V348.961Z" fill="#F7F3EF" stroke="#4E4E4E" stroke-width="3" stroke-linecap="round" stroke-linejoin="round"/>
<path d="M158.884 357.246H172.084L186.282 348.419C187.05 347.826 187.336 346.798 186.988 345.894C186.384 344.368 184.306 343.878 182.963 344.943L170.228 352.595H158.884V357.246Z" fill="#F7F3EF" stroke="#4E4E4E" stroke-width="3" stroke-linecap="round" stroke-linejoin="round"/>
<path d="M45.7292 357.246H32.5262L18.3278 348.408C17.5593 347.816 17.2739 346.787 17.6215 345.883C18.2253 344.357 20.3075 343.867 21.6469 344.932L34.3559 352.584H45.6999L45.7292 357.246Z" fill="#F7F3EF" stroke="#4E4E4E" stroke-width="3" stroke-linecap="round" stroke-linejoin="round"/>
<path d="M158.884 324.238L53.6147 282.755C61.5593 277.556 85.3196 280.662 111.228 290.868C137.136 301.074 156.623 315.017 158.884 324.238Z" fill="#F7F3EF" stroke="#4E4E4E" stroke-width="3" stroke-linecap="round" stroke-linejoin="round"/>
<path d="M123.58 284.867L107.442 278.507C105.879 277.892 104.236 278.917 104.284 280.483L104.522 288.263L119.06 293.993L124.549 288.464C125.644 287.352 125.142 285.482 123.58 284.867Z" fill="#F7F3EF" stroke="#4E4E4E" stroke-width="3" stroke-linecap="round" stroke-linejoin="round"/>
<path d="M211.785 356.316H209.739C209.908 356.657 209.995 357.034 209.999 357.414V359.284C209.999 360.225 209.238 360.986 208.297 360.989H197.952C197.012 360.989 196.247 360.225 196.247 359.284V357.429C196.247 357.048 196.339 356.671 196.507 356.331H194.374V352.756C194.374 351.372 195.493 350.249 196.877 350.245H209.275C210.658 350.245 211.781 351.365 211.785 352.748V356.316Z" fill="#F7F3EF" stroke="#4E4E4E" stroke-width="3" stroke-linecap="round" stroke-linejoin="round"/>
<path d="M219.952 404.492L217.812 435.988C217.662 438.733 215.411 440.895 212.663 440.932H193.495C190.747 440.895 188.493 438.733 188.346 435.988L186.22 404.492H219.952Z" fill="#F7F3EF" stroke="#4E4E4E" stroke-width="3" stroke-linecap="round" stroke-linejoin="round"/>
<path d="M223.85 395.45L220.805 438.945C220.564 442.187 217.867 444.698 214.613 444.705H191.559C188.303 444.698 185.602 442.18 185.368 438.93L182.309 395.45C182.06 391.929 183.659 388.533 186.531 386.484C189.657 384.314 191.523 380.754 191.53 376.948L191.398 360.601C191.296 358.34 193.049 356.422 195.314 356.32C195.376 356.32 195.435 356.316 195.497 356.316H210.658C212.923 356.313 214.764 358.146 214.767 360.411C214.767 360.473 214.767 360.539 214.764 360.601L214.628 376.948C214.639 380.754 216.505 384.314 219.63 386.484C222.503 388.533 224.099 391.929 223.85 395.45Z" fill="#E57B07" stroke="#4E4E4E" stroke-width="3" stroke-linecap="round" stroke-linejoin="round"/>
<path d="M213.731 421.845C213.406 423.674 208.744 425.94 203.046 425.94C197.348 425.94 192.686 423.656 192.357 421.845L192.401 398.948C192.986 397.213 197.524 395.029 203.046 395.029C208.568 395.029 213.106 397.224 213.691 398.948L213.731 421.845Z" fill="#F7F3EF" stroke="#4E4E4E" stroke-width="3" stroke-linecap="round" stroke-linejoin="round"/>
<path d="M13.165 386.784V387.567C13.165 388.464 13.8896 389.188 14.7861 389.192V391.644C14.7861 392.573 15.5436 393.327 16.4731 393.327H19.719C20.6485 393.327 21.4023 392.577 21.406 391.648V389.192C22.3025 389.192 23.0271 388.468 23.0271 387.571V386.784C23.0271 385.888 22.3025 385.163 21.406 385.163H14.7861C13.8933 385.163 13.1687 385.891 13.165 386.784Z" fill="#F7F3EF" stroke="#4E4E4E" stroke-width="3" stroke-linecap="round" stroke-linejoin="round"/>
<path d="M2 428.633C2 432.794 4.51765 439.128 6.8194 442.853C7.34635 443.713 8.28315 444.236 9.29314 444.236H25.6359C26.6569 444.233 27.6047 443.695 28.1316 442.82C30.426 438.985 32.9437 432.208 32.9437 428.047C32.9437 419.704 29.1526 413.505 22.6718 410.995V394.571L26.1921 389.185H12.2865V410.987C5.79111 413.505 2 420.293 2 428.633Z" fill="#F7F3EF" stroke="#4E4E4E" stroke-width="3" stroke-linecap="round" stroke-linejoin="round"/>
<path d="M12.2749 393.342H7.6421C5.12079 393.342 3.08252 395.391 3.08252 397.909C3.08252 398.436 3.174 398.963 3.35697 399.46L8.35202 413.234" stroke="#4E4E4E" stroke-width="3" stroke-linecap="round" stroke-linejoin="round"/>
<path d="M4.44768 428.757C4.44768 432.259 6.57012 437.591 8.50593 440.727C8.95238 441.452 9.73914 441.891 10.5881 441.891H24.3437C25.2037 441.891 26.0014 441.437 26.4442 440.698C28.3764 437.47 30.4951 431.762 30.4951 428.256C30.5171 426.141 30.1877 424.04 29.5144 422.035H5.55648C4.80264 424.194 4.42573 426.47 4.44768 428.757Z" fill="#F7F3EF" stroke="#4E4E4E" stroke-width="3" stroke-linecap="round" stroke-linejoin="round"/>
<path d="M186.389 403.014V442.619C186.389 443.673 185.532 444.529 184.479 444.529H169.387C168.333 444.529 167.481 443.68 167.477 442.626V403.014C167.473 400.269 169.42 397.909 172.113 397.389V387.941H181.752V397.389C184.446 397.909 186.392 400.269 186.389 403.014Z" fill="#F7F3EF" stroke="#4E4E4E" stroke-width="3" stroke-linecap="round" stroke-linejoin="round"/>
<path d="M183.611 408.708V440.05C183.611 441.199 182.795 442.129 181.782 442.129H172.073C171.067 442.129 170.244 441.199 170.244 440.05V408.708H183.611Z" fill="#EFAF00" stroke="#4E4E4E" stroke-width="3" stroke-linecap="round" stroke-linejoin="round"/>
<path d="M183.03 386.462H170.837C170.352 386.462 169.958 386.855 169.958 387.34V388.651C169.958 389.136 170.352 389.529 170.837 389.529H183.03C183.515 389.529 183.908 389.136 183.908 388.651V387.34C183.908 386.855 183.515 386.462 183.03 386.462Z" fill="#F7F3EF" stroke="#4E4E4E" stroke-width="3" stroke-linecap="round" stroke-linejoin="round"/>
<rect x="229.262" y="180.621" width="153.247" height="120.641" fill="#F7F3EF"/>
<path d="M368.454 148.08H357.337V145.611C357.354 145.06 357.26 144.512 357.06 143.998C356.861 143.484 356.561 143.015 356.177 142.62C355.793 142.224 355.334 141.91 354.826 141.695C354.319 141.48 353.773 141.37 353.222 141.37C352.671 141.37 352.126 141.48 351.618 141.695C351.11 141.91 350.651 142.224 350.267 142.62C349.884 143.015 349.583 143.484 349.384 143.998C349.185 144.512 349.09 145.06 349.107 145.611V148.08H262.67V145.611C262.67 144.519 262.236 143.472 261.464 142.7C260.692 141.928 259.644 141.494 258.553 141.494C257.461 141.494 256.413 141.928 255.641 142.7C254.869 143.472 254.436 144.519 254.436 145.611V148.08H243.327C237.87 148.086 232.639 150.255 228.78 154.113C224.921 157.97 222.75 163.201 222.742 168.657V287.199C222.75 292.655 224.921 297.885 228.78 301.743C232.639 305.6 237.87 307.77 243.327 307.776H368.454C373.909 307.769 379.139 305.599 382.996 301.741C386.854 297.884 389.024 292.654 389.031 287.199V168.657C389.023 163.202 386.853 157.973 382.995 154.116C379.138 150.258 373.909 148.088 368.454 148.08ZM380.801 287.202C380.798 290.476 379.496 293.615 377.181 295.93C374.866 298.245 371.728 299.547 368.454 299.55H243.327C240.053 299.546 236.914 298.244 234.599 295.929C232.284 293.614 230.981 290.476 230.976 287.202V180.621H380.797L380.801 287.202Z" fill="#EFAF00"/>
<path d="M234.6 159.928C232.285 162.243 230.982 165.383 230.979 168.657V176.067H380.801L380.805 168.657C380.802 165.383 379.5 162.245 377.185 159.93C374.87 157.615 371.731 156.313 368.458 156.31H357.341V158.782C357.358 159.333 357.264 159.882 357.064 160.396C356.865 160.909 356.564 161.378 356.181 161.774C355.797 162.169 355.338 162.484 354.83 162.698C354.323 162.913 353.777 163.024 353.226 163.024C352.675 163.024 352.129 162.913 351.622 162.698C351.114 162.484 350.655 162.169 350.271 161.774C349.887 161.378 349.587 160.909 349.388 160.396C349.188 159.882 349.094 159.333 349.111 158.782V156.31H262.673V158.782C262.673 159.874 262.24 160.921 261.467 161.694C260.695 162.466 259.648 162.899 258.556 162.899C257.464 162.899 256.417 162.466 255.645 161.694C254.873 160.921 254.439 159.874 254.439 158.782V156.31M368.454 148.08H357.337V145.611C357.354 145.06 357.26 144.512 357.06 143.998C356.861 143.484 356.561 143.015 356.177 142.62C355.793 142.224 355.334 141.91 354.826 141.695C354.319 141.48 353.773 141.37 353.222 141.37C352.671 141.37 352.125 141.48 351.618 141.695C351.11 141.91 350.651 142.224 350.267 142.62C349.884 143.015 349.583 143.484 349.384 143.998C349.185 144.512 349.09 145.06 349.107 145.611V148.08H262.67V145.611C262.67 144.519 262.236 143.472 261.464 142.7C260.692 141.928 259.644 141.494 258.553 141.494C257.461 141.494 256.413 141.928 255.641 142.7C254.869 143.472 254.436 144.519 254.436 145.611V148.08H243.327C237.87 148.086 232.639 150.255 228.78 154.113C224.921 157.97 222.75 163.201 222.742 168.657V287.199C222.75 292.655 224.921 297.885 228.78 301.743C232.639 305.6 237.87 307.77 243.327 307.776H368.454C373.909 307.769 379.139 305.599 382.996 301.741C386.854 297.884 389.024 292.654 389.031 287.199V168.657C389.023 163.202 386.853 157.973 382.995 154.116C379.138 150.258 373.909 148.088 368.454 148.08ZM380.801 287.202C380.798 290.476 379.496 293.615 377.181 295.93C374.866 298.245 371.728 299.547 368.454 299.55H243.327C240.053 299.546 236.914 298.244 234.599 295.929C232.284 293.614 230.981 290.476 230.976 287.202V180.621H380.797L380.801 287.202Z" stroke="#EFAF00" stroke-width="0.5"/>
<mask id="path-69-inside-1_496_11827" fill="white">
<rect x="245.566" y="206.212" width="25.5906" height="25.5906" rx="1"/>
</mask>
<rect x="245.566" y="206.212" width="25.5906" height="25.5906" rx="1" fill="#EFAF00" stroke="#4E4E4E" stroke-width="4" stroke-linejoin="round" mask="url(#path-69-inside-1_496_11827)"/>
<mask id="path-70-inside-2_496_11827" fill="white">
<rect x="293.093" y="206.212" width="25.5906" height="25.5906" rx="1"/>
</mask>
<rect x="293.093" y="206.212" width="25.5906" height="25.5906" rx="1" fill="#EFAF00" stroke="#4E4E4E" stroke-width="4" stroke-linejoin="round" mask="url(#path-70-inside-2_496_11827)"/>
<mask id="path-71-inside-3_496_11827" fill="white">
<rect x="340.615" y="206.212" width="25.5906" height="25.5906" rx="1"/>
</mask>
<rect x="340.615" y="206.212" width="25.5906" height="25.5906" rx="1" fill="#EFAF00" stroke="#4E4E4E" stroke-width="4" stroke-linejoin="round" mask="url(#path-71-inside-3_496_11827)"/>
<mask id="path-72-inside-4_496_11827" fill="white">
<rect x="245.566" y="250.081" width="25.5906" height="25.5906" rx="1"/>
</mask>
<rect x="245.566" y="250.081" width="25.5906" height="25.5906" rx="1" fill="#EFAF00" stroke="#4E4E4E" stroke-width="4" stroke-linejoin="round" mask="url(#path-72-inside-4_496_11827)"/>
<mask id="path-73-inside-5_496_11827" fill="white">
<rect x="293.093" y="250.081" width="25.5906" height="25.5906" rx="1"/>
</mask>
<rect x="293.093" y="250.081" width="25.5906" height="25.5906" rx="1" fill="#EFAF00" stroke="#4E4E4E" stroke-width="4" stroke-linejoin="round" mask="url(#path-73-inside-5_496_11827)"/>
<mask id="path-74-inside-6_496_11827" fill="white">
<rect x="340.615" y="250.081" width="25.5906" height="25.5906" rx="1"/>
</mask>
<rect x="340.615" y="250.081" width="25.5906" height="25.5906" rx="1" fill="#EFAF00" stroke="#4E4E4E" stroke-width="4" stroke-linejoin="round" mask="url(#path-74-inside-6_496_11827)"/>
<path d="M340.021 437.88C340.081 431.56 349.168 418.441 351.617 413.652L331.286 412.926C331.286 412.926 328.092 425.362 323.442 434.471C321.828 437.635 315.883 445.784 303.753 448.241C292.493 450.509 294.168 455.536 294.168 455.536H337.836C347.225 455.536 340.765 441.059 340.765 441.059L340.021 437.88Z" fill="#FCBE9F" stroke="#4E4E4E" stroke-width="2" stroke-linecap="round" stroke-linejoin="round"/>
<path d="M330.68 415.678C334.327 417.344 341.199 420.213 347.311 421.056C349.106 418.01 350.766 415.334 351.616 413.67L331.284 412.941C331.284 412.941 331.103 413.935 330.68 415.678Z" fill="#4E4E4E"/>
<path d="M340.776 441.048C340.776 441.048 347.236 455.525 337.847 455.525H294.159C294.159 455.525 292.402 450.048 303.745 448.23C305.321 447.976 309.834 446.85 309.834 446.85C309.834 446.85 308.432 451.159 318.415 450.717C328.397 450.274 332.899 441.758 340.776 441.048Z" fill="#E57B07" stroke="#4E4E4E" stroke-width="2" stroke-linecap="round" stroke-linejoin="round"/>
<path d="M440.638 436.425C439.239 431.477 443.14 417.685 444.217 413.652H426.074C426.074 413.652 428.459 427.149 428.199 434.441C428.081 437.669 424.487 445.841 412.788 448.211C404.132 450.373 404.51 455.506 404.51 455.506H441.504C450.896 455.506 442.864 441.029 442.864 441.029L440.638 436.425Z" fill="#FCBE9F" stroke="#4E4E4E" stroke-width="2" stroke-linecap="round" stroke-linejoin="round"/>
<path d="M444.213 413.655H426.069C426.069 413.655 426.519 416.248 427.007 419.775C433.61 420.399 440.399 418.206 443.29 417.129C443.668 415.678 443.997 414.464 444.213 413.655Z" fill="#4E4E4E"/>
<path d="M442.859 441.048C442.859 441.048 450.892 455.525 441.499 455.525H404.505C404.505 455.525 404.127 450.392 412.783 448.23C414.333 447.852 417.561 446.718 417.561 446.718C417.561 446.718 420.762 443.951 430.072 449.802C437.919 454.738 438.913 441.048 442.859 441.048Z" fill="#E57B07" stroke="#4E4E4E" stroke-width="2" stroke-linecap="round" stroke-linejoin="round"/>
<path d="M454.874 242.096C452.315 279.981 446.279 308.523 446.872 314.79C446.872 314.79 458.779 361.743 453.453 413.655C453.453 413.655 432.407 415.833 423.456 413.655C423.456 413.655 422.595 407.834 420.905 399.103C417.662 382.343 414.672 354.849 411.145 337.204C409.977 331.357 405.294 308.617 400.758 284.094C394.129 300.88 387.918 311.732 382.506 326.473C382.506 326.473 383.435 383.409 361.974 415.111L328.083 412.983C328.083 412.983 337.692 367.798 342.163 328.363L370.83 159.446H422.043C422.043 159.446 457.883 189.469 454.874 242.096Z" fill="#E57B07" stroke="#4E4E4E" stroke-width="2" stroke-linecap="round" stroke-linejoin="round"/>
<path d="M400.493 285.927L393.742 235.769" stroke="#4E4E4E" stroke-width="2" stroke-linecap="round" stroke-linejoin="round"/>
<path d="M415.291 65.0713C422.397 66.8176 440.317 71.4139 445.568 79.2155C452.394 89.3568 463.62 138.215 463.62 138.215L444.041 132.439C444.041 132.439 431.469 109.677 430.618 109.677C429.768 109.677 422.042 159.446 422.042 159.446H370.829L366.584 134.307C366.584 134.307 355.713 125.473 356.379 120.038C357.044 114.602 357.263 113.007 357.263 113.007C357.263 113.007 351.461 115.147 335.484 130.943L316.815 122.74C316.815 122.74 345.689 81.9181 354.005 77.0345C362.32 72.151 372.178 71.1191 372.178 71.1191L415.291 65.0713Z" fill="#F7F3EF" stroke="#4E4E4E" stroke-width="2" stroke-linecap="round" stroke-linejoin="round"/>
<path d="M390.64 31.2985C390.64 31.2985 397.035 57.077 418.259 66.0427C418.259 66.0427 402.762 76.7699 370.176 72.7897C370.176 72.7897 381.735 59.6359 379.55 45.0306L390.64 31.2985Z" fill="#FCBE9F" stroke="#4E4E4E" stroke-width="2" stroke-linecap="round" stroke-linejoin="round"/>
<path d="M376.482 68.0687C375.597 68.0997 374.717 67.9209 373.915 67.5471C377.071 62.3801 380.889 53.9813 379.551 45.0382L390.267 31.7634C390.701 32.3606 390.924 32.7273 390.924 32.7273C392.432 37.3765 393.313 67.3354 376.482 68.0687Z" fill="#4E4E4E"/>
<path d="M390.642 31.2985C392.154 35.9477 390.075 58.1354 377.768 59.6473C368.519 60.7812 358.283 42.2033 356.956 38.0342C355.629 33.865 357.251 23.8825 367.162 20.8813C380.41 16.852 390.642 31.2985 390.642 31.2985Z" fill="#FCBE9F" stroke="#4E4E4E" stroke-width="2" stroke-linecap="round" stroke-linejoin="round"/>
<path d="M362.034 26.3923C362.034 26.3923 371.17 34.1409 390.643 31.3061C390.643 31.3061 396.313 57.5079 418.263 66.0579C418.263 66.0579 432.422 50.0163 422.9 38.9791C416.853 31.9789 403.294 38.1287 403.294 38.1287C403.294 38.1287 415.39 7.70854 385.386 7.56491C355.381 7.42127 348.955 39.2664 357.963 40.4495C357.963 40.4382 353.548 31.2985 362.034 26.3923Z" fill="#4E4E4E"/>
<path d="M424.31 36.2614C413.938 28.3615 402.708 38.2647 402.708 38.2647" stroke="#4E4E4E" stroke-width="2" stroke-linecap="round" stroke-linejoin="round"/>
<path d="M361.745 26.105C361.745 26.105 366.852 37.573 386.314 34.7306" stroke="#4E4E4E" stroke-width="2" stroke-linecap="round" stroke-linejoin="round"/>
<path d="M354.254 33.9557C354.254 33.9557 351.275 22.7711 354.401 17.5134C357.527 12.2556 371.743 1.73635 381.832 1.02952C391.92 0.322692 413.96 12.5429 413.96 12.5429C413.96 12.5429 395.518 13.4727 392.158 36.2463C392.158 36.2463 383.744 17.2564 368.723 20.4843C353.702 23.7123 354.254 33.9557 354.254 33.9557Z" fill="#EFAF00" stroke="#4E4E4E" stroke-width="2" stroke-linecap="round" stroke-linejoin="round"/>
<path d="M409.568 61.7791C409.568 61.7791 403.116 79.703 402.435 92.8229C402.435 92.8229 379.794 96.0282 374.563 93.1441C371.305 91.3487 375.459 66.5643 375.459 66.5643L367.612 71.9128C367.612 71.9128 358.162 105.977 357.266 113.007C356.37 120.038 353.664 124.286 366.572 134.307L370.817 159.446L356.983 230.228C356.983 230.228 410.067 234.007 428.921 229.094C447.774 224.18 422.041 159.446 422.041 159.446L425.863 135.524C425.863 135.524 404.318 115.453 415.309 65.0713L409.568 61.7791Z" fill="#EFAF00" stroke="#4E4E4E" stroke-width="2" stroke-linecap="round" stroke-linejoin="round"/>
<path d="M444.155 143.832C442.67 143.223 438.198 129.514 448.959 126.573C463.069 122.714 465.882 130.005 465.507 136.041C464.785 147.687 457.4 149.248 444.155 143.832Z" fill="#F7F3EF" stroke="#4E4E4E" stroke-width="2" stroke-linecap="round" stroke-linejoin="round"/>
<path d="M391.162 157.001L391.011 156.921C390.736 156.777 390.529 156.53 390.436 156.234C390.344 155.938 390.372 155.617 390.516 155.341L399.41 136.083C399.481 135.947 399.578 135.826 399.695 135.728C399.813 135.629 399.949 135.555 400.095 135.509C400.242 135.463 400.396 135.446 400.548 135.46C400.701 135.473 400.85 135.517 400.986 135.588L403.004 136.646C403.14 136.717 403.261 136.814 403.36 136.932C403.458 137.05 403.532 137.185 403.578 137.332C403.624 137.478 403.641 137.632 403.628 137.785C403.614 137.938 403.57 138.086 403.499 138.222L392.742 156.506C392.598 156.781 392.351 156.987 392.054 157.08C391.758 157.173 391.437 157.144 391.162 157.001Z" fill="#F7F3EF" stroke="#4E4E4E" stroke-width="2" stroke-linecap="round" stroke-linejoin="round"/>
<path d="M390.584 156.288L374.378 187.248L375.711 187.945L391.917 156.986L390.584 156.288Z" fill="#F7F3EF" stroke="#4E4E4E" stroke-width="2" stroke-linecap="round" stroke-linejoin="round"/>
<path d="M377.12 195.914C375.018 199.921 369.938 203.761 367.292 202.389C364.646 201.017 364.926 194.648 367.024 190.637C369.121 186.627 372.531 186.102 375.109 187.455C377.687 188.808 379.217 191.911 377.12 195.914Z" fill="#F7F3EF" stroke="#4E4E4E" stroke-width="2" stroke-linecap="round" stroke-linejoin="round"/>
<path d="M455.64 146.863C443.117 154.336 417.463 165.335 402.949 168.559C401.176 172.521 395.268 178.655 393.798 178.962C392.104 179.317 391.477 178.482 389.806 177.869C386.952 176.818 388.321 174.762 386.438 174.396C384.556 174.029 384.133 171.19 384.133 171.19C384.133 171.19 382.36 171.421 381.294 174.339C379.963 177.986 378.024 177.14 378.024 177.14C378.024 177.14 379.015 171.232 379.861 170.117C381.246 168.311 382.813 166.653 384.537 165.169C385.592 164.277 394.705 162.565 399.229 162.61C410.569 152.881 429.846 138.623 442.599 133.354C451.75 129.57 466.907 140.128 455.64 146.863Z" fill="#FCBE9F" stroke="#4E4E4E" stroke-width="2" stroke-linecap="round" stroke-linejoin="round"/>
<path d="M312.141 140.914C310.655 140.305 306.244 125.515 316.945 122.374C327.646 119.233 335.371 126.577 335.799 132.609C335.995 135.437 325.385 146.33 312.141 140.914Z" fill="#F7F3EF" stroke="#4E4E4E" stroke-width="2" stroke-linecap="round" stroke-linejoin="round"/>
<path d="M322.887 151.947C321.186 151.267 303.987 140.683 314.484 132.42C328.197 121.621 333.088 141.042 333.088 141.042L322.887 151.947Z" fill="#FCBE9F" stroke="#4E4E4E" stroke-width="2" stroke-linecap="round" stroke-linejoin="round"/>
<path d="M339.559 144.391L339.4 144.455C339.119 144.573 338.802 144.574 338.519 144.46C338.236 144.345 338.009 144.124 337.889 143.843L328.624 124.744C328.508 124.462 328.507 124.145 328.621 123.862C328.736 123.58 328.957 123.353 329.237 123.232L331.331 122.34C331.616 122.22 331.938 122.218 332.225 122.334C332.513 122.45 332.743 122.675 332.865 122.959L340.172 142.875C340.287 143.158 340.288 143.475 340.173 143.758C340.059 144.041 339.839 144.268 339.559 144.391Z" fill="#F7F3EF" stroke="#4E4E4E" stroke-width="2" stroke-linecap="round" stroke-linejoin="round"/>
<path d="M340.024 143.799L338.639 144.386L352.287 176.556L353.672 175.968L340.024 143.799Z" fill="#F7F3EF" stroke="#4E4E4E" stroke-width="2" stroke-linecap="round" stroke-linejoin="round"/>
<path d="M360.726 179.933C362.495 184.091 362.238 190.467 359.509 191.624C356.78 192.781 352.025 188.543 350.256 184.378C348.487 180.213 350.256 177.246 352.924 176.112C355.593 174.978 358.961 175.768 360.726 179.933Z" fill="#F7F3EF" stroke="#4E4E4E" stroke-width="2" stroke-linecap="round" stroke-linejoin="round"/>
<path d="M331.864 141.11C332.771 140.521 335.043 139.485 338.214 142.346C341.385 145.208 350.03 154.85 348.798 156.063C346.466 158.392 341.85 150.571 340.932 151.452C340.667 151.705 340.781 152.314 340.69 152.964C340.649 153.362 340.487 153.737 340.225 154.039C339.963 154.342 339.615 154.556 339.227 154.653C337.783 155.16 339.246 157.008 337.213 158.123C335.179 159.238 336.173 159.783 334.718 161.525C333.074 163.479 323.756 157.7 322.297 154.597C320.838 151.494 327.994 143.631 331.864 141.11Z" fill="#FCBE9F" stroke="#4E4E4E" stroke-width="2" stroke-linecap="round" stroke-linejoin="round"/>
<path d="M361.943 43.031C361.943 43.031 365.039 44.7282 366.294 41.3339" stroke="#4E4E4E" stroke-width="2" stroke-linecap="round" stroke-linejoin="round"/>
<path d="M372.458 39.066C372.458 39.066 375.905 41.1412 378.449 37.1232" stroke="#4E4E4E" stroke-width="2" stroke-linecap="round" stroke-linejoin="round"/>
<path d="M368.793 40.8463V46.2666L371.254 47.96" stroke="#4E4E4E" stroke-width="2" stroke-linecap="round" stroke-linejoin="round"/>
<path d="M373.284 51.3618C373.284 51.3618 376.712 50.2845 377.193 47.7483" stroke="#4E4E4E" stroke-width="2" stroke-linecap="round" stroke-linejoin="round"/>
<path d="M373.422 99.0634H401.937" stroke="#4E4E4E" stroke-width="2" stroke-linecap="round" stroke-linejoin="round"/>
<path d="M374.655 146.818H388.811" stroke="#4E4E4E" stroke-width="2" stroke-linecap="round" stroke-linejoin="round"/>
<path d="M404.227 40.895C407.355 37.4475 408.834 33.6929 407.529 32.509C406.224 31.325 402.63 33.16 399.502 36.6075C396.374 40.055 394.896 43.8096 396.2 44.9935C397.505 46.1775 401.099 44.3425 404.227 40.895Z" fill="#E57B07" stroke="#4E4E4E" stroke-width="2" stroke-linecap="round" stroke-linejoin="round"/>
</svg>
