<svg width="490" height="479" viewBox="0 0 490 479" fill="none" xmlns="http://www.w3.org/2000/svg">
<rect x="143.067" y="62.3316" width="188.353" height="349.662" rx="15" fill="#4E4E4E" stroke="#4E4E4E" stroke-width="4"/>
<path d="M150.828 82.1324C150.828 74.9527 156.648 69.1324 163.828 69.1324H310.659C317.839 69.1324 323.659 74.9527 323.659 82.1324V389.83H150.828V82.1324Z" fill="white"/>
<circle cx="188.755" cy="83.055" r="3.3606" fill="#EFAF00"/>
<rect x="199.797" y="80.6545" width="90.2562" height="4.80086" rx="2.40043" fill="#EFAF00"/>
<rect x="161.39" y="96.0173" width="152.667" height="260.207" fill="#F7F3EF"/>
<rect x="183.475" y="340.861" width="106.579" height="28.8052" rx="14.4026" fill="#E7871E"/>
<rect x="173.913" y="111.42" width="62.3315" height="46.9688" rx="7" fill="white" stroke="#EFAF00" stroke-width="2"/>
<path d="M205.424 137.417C213.452 127.483 221.48 117.55 229.508 107.618L229.508 107.618L229.514 107.61C230.177 106.756 230.906 105.958 231.694 105.225C232.066 104.897 232.631 104.688 233.233 104.531C233.497 104.463 233.719 104.512 233.898 104.631C234.085 104.756 234.251 104.977 234.344 105.29L234.344 105.291C234.386 105.432 234.442 105.566 234.491 105.682L234.499 106.218C233.987 107.961 233.147 109.527 232.184 111.056C231.724 111.786 231.239 112.503 230.749 113.227L230.659 113.36C230.141 114.127 229.618 114.903 229.127 115.698C224.318 123.48 219.457 131.226 214.595 138.973C212.672 142.037 210.749 145.101 208.829 148.168C207.924 149.613 206.612 150.379 205.286 150.487C203.961 150.594 202.564 150.049 201.472 148.756C197.519 144.071 193.59 139.367 189.685 134.644L189.685 134.644C187.538 132.053 188.423 128.451 191.406 127.23L205.424 137.417ZM205.424 137.417C205.343 137.52 205.256 137.616 205.177 137.701C205.161 137.719 205.144 137.736 205.129 137.753C205.064 137.822 205.003 137.887 204.942 137.957L204.556 138.401L204.18 137.949C204.086 137.836 204.001 137.737 203.919 137.642L203.912 137.634C203.834 137.543 203.756 137.453 203.68 137.361C201.298 134.496 198.911 131.634 196.518 128.778L196.518 128.778C195.086 127.067 193.135 126.527 191.407 127.23L205.424 137.417Z" fill="#EFAF00" stroke="#EFAF00"/>
<rect x="173.913" y="168.07" width="62.3315" height="46.9688" rx="7" fill="white" stroke="#EFAF00" stroke-width="2"/>
<rect x="172.913" y="223.72" width="64.3315" height="48.9688" rx="8" fill="#EFAF00"/>
<rect x="256.408" y="139.185" width="173.871" height="173.871" rx="9" fill="#EFAF00" stroke="#4E4E4E" stroke-width="2"/>
<rect opacity="0.4" x="272.73" y="154.548" width="142.185" height="142.185" rx="9" fill="white" stroke="#4E4E4E" stroke-width="2"/>
<rect x="173.913" y="281.37" width="62.3315" height="46.9688" rx="7" fill="white" stroke="#EFAF00" stroke-width="2"/>
<path d="M302.856 209.981H347.669L331.795 240.598H287.173L302.856 209.981Z" fill="#F5CF66" stroke="white" stroke-width="3" stroke-linejoin="round"/>
<path d="M308.64 240.598L317.421 272.689H382.749L399.193 209.981H347.669L331.796 240.598H308.64Z" fill="white" stroke="white" stroke-width="3" stroke-linejoin="round"/>
<path d="M347.883 211.313H397.789L383.414 269.049H347.883V211.313Z" fill="#F5CF66" stroke="white" stroke-width="4" stroke-linejoin="round"/>
<path d="M388.556 209.981C381.844 179.769 364.281 201.821 364.281 201.821C362.377 195.232 359.521 191.521 356.356 189.618C346.837 183.908 334.223 194.685 334.223 194.685C317.422 188.714 310.425 209.981 310.425 209.981H388.556Z" fill="#EFAF00" stroke="white" stroke-width="3" stroke-linejoin="round"/>
<path d="M362.328 171.871L363.113 203.368" stroke="white" stroke-width="3" stroke-linecap="round" stroke-linejoin="round"/>
<path d="M388.032 175.201L362.972 204.081" stroke="white" stroke-width="3" stroke-linecap="round" stroke-linejoin="round"/>
<path d="M264.129 170.911V150.906C264.129 148.697 265.92 146.906 268.129 146.906H288.133" stroke="white" stroke-width="2" stroke-linecap="round"/>
<path d="M398.552 146.906L418.557 146.906C420.766 146.906 422.557 148.697 422.557 150.906L422.557 170.911" stroke="white" stroke-width="2" stroke-linecap="round"/>
<path d="M422.557 281.331L422.557 301.335C422.557 303.544 420.766 305.335 418.557 305.335L398.552 305.335" stroke="white" stroke-width="2" stroke-linecap="round"/>
<path d="M288.133 305.335L268.129 305.335C265.92 305.335 264.129 303.544 264.129 301.335L264.129 281.331" stroke="white" stroke-width="2" stroke-linecap="round"/>
<path d="M205.424 195.417C213.452 185.483 221.48 175.55 229.508 165.618L229.508 165.618L229.514 165.61C230.177 164.756 230.906 163.958 231.694 163.225C232.066 162.897 232.631 162.688 233.233 162.531C233.497 162.463 233.719 162.512 233.898 162.631C234.085 162.756 234.251 162.977 234.344 163.29L234.344 163.291C234.386 163.432 234.442 163.566 234.491 163.682L234.499 164.218C233.987 165.961 233.147 167.527 232.184 169.056C231.724 169.786 231.239 170.503 230.749 171.227L230.659 171.36C230.141 172.127 229.618 172.903 229.127 173.698C224.318 181.48 219.457 189.226 214.595 196.973C212.672 200.037 210.749 203.101 208.829 206.168C207.924 207.613 206.612 208.379 205.286 208.487C203.961 208.594 202.564 208.049 201.472 206.756C197.519 202.071 193.59 197.367 189.685 192.644L189.685 192.644C187.538 190.053 188.423 186.451 191.406 185.23L205.424 195.417ZM205.424 195.417C205.343 195.52 205.256 195.616 205.177 195.701C205.161 195.719 205.144 195.736 205.129 195.753C205.064 195.822 205.003 195.887 204.942 195.957L204.556 196.401L204.18 195.949C204.086 195.836 204.001 195.737 203.919 195.642L203.912 195.634C203.834 195.543 203.756 195.453 203.68 195.361C201.298 192.496 198.911 189.634 196.518 186.778L196.518 186.778C195.086 185.067 193.135 184.527 191.407 185.23L205.424 195.417Z" fill="#EFAF00" stroke="#EFAF00"/>
<path d="M205.424 309.417C213.452 299.483 221.48 289.55 229.508 279.618L229.508 279.618L229.514 279.61C230.177 278.756 230.906 277.958 231.694 277.225C232.066 276.897 232.631 276.688 233.233 276.531C233.497 276.463 233.719 276.512 233.898 276.631C234.085 276.756 234.251 276.977 234.344 277.29L234.344 277.291C234.386 277.432 234.442 277.566 234.491 277.682L234.499 278.218C233.987 279.961 233.147 281.527 232.184 283.056C231.724 283.786 231.239 284.503 230.749 285.227L230.659 285.36C230.141 286.127 229.618 286.903 229.127 287.698C224.318 295.48 219.457 303.226 214.595 310.973C212.672 314.037 210.749 317.101 208.829 320.168C207.924 321.613 206.612 322.379 205.286 322.487C203.961 322.594 202.564 322.049 201.472 320.756C197.519 316.071 193.59 311.367 189.685 306.644L189.685 306.644C187.538 304.053 188.423 300.451 191.406 299.23L205.424 309.417ZM205.424 309.417C205.343 309.52 205.256 309.616 205.177 309.701C205.161 309.719 205.144 309.736 205.129 309.753C205.064 309.822 205.003 309.887 204.942 309.957L204.556 310.401L204.18 309.949C204.086 309.836 204.001 309.737 203.919 309.642L203.912 309.634C203.834 309.543 203.756 309.453 203.68 309.361C201.298 306.496 198.911 303.634 196.518 300.778L196.518 300.778C195.086 299.067 193.135 298.527 191.407 299.23L205.424 309.417Z" fill="#EFAF00" stroke="#EFAF00"/>
<path d="M205.424 253.417C213.452 243.483 221.48 233.55 229.508 223.618L229.508 223.618L229.514 223.61C230.177 222.756 230.906 221.958 231.694 221.225C232.066 220.897 232.631 220.688 233.233 220.531C233.497 220.463 233.719 220.512 233.898 220.631C234.085 220.756 234.251 220.977 234.344 221.29L234.344 221.291C234.386 221.432 234.442 221.566 234.491 221.682L234.499 222.218C233.987 223.961 233.147 225.527 232.184 227.056C231.724 227.786 231.239 228.503 230.749 229.227L230.659 229.36C230.141 230.127 229.618 230.903 229.127 231.698C224.318 239.48 219.457 247.226 214.595 254.973C212.672 258.037 210.749 261.101 208.829 264.168C207.924 265.613 206.612 266.379 205.286 266.487C203.961 266.594 202.564 266.049 201.472 264.756C197.519 260.071 193.59 255.367 189.685 250.644L189.685 250.644C187.538 248.053 188.423 244.451 191.406 243.23L205.424 253.417ZM205.424 253.417C205.343 253.52 205.256 253.616 205.177 253.701C205.161 253.719 205.144 253.736 205.129 253.753C205.064 253.822 205.003 253.887 204.942 253.957L204.556 254.401L204.18 253.949C204.086 253.836 204.001 253.737 203.919 253.642L203.912 253.634C203.834 253.543 203.756 253.453 203.68 253.361C201.298 250.496 198.911 247.634 196.518 244.778L196.518 244.778C195.086 243.067 193.135 242.527 191.407 243.23L205.424 253.417Z" fill="white" stroke="white"/>
<path d="M384.566 152.884C364.228 151.574 342.425 122.205 335.424 111.967C332.17 113.732 327.35 116.112 323.376 116.246C321.968 116.295 321.529 113.094 321.529 113.094C320.756 112.809 320.166 111.467 320.207 110.108C320.207 110.108 318.641 109.323 318.734 107.139C317.925 106.534 317.344 105.674 317.083 104.698C316.603 102.603 321.81 100.488 322.473 100.097C323.754 99.3368 322.013 99.4629 321.11 98.3931C318.588 95.3992 320.227 93.9633 320.227 93.9633C320.227 93.9633 322.969 95.8263 325.515 96.3063C328.062 96.7863 331.328 97.7544 332.166 98.2547C334.28 99.6142 336.229 101.214 337.975 103.022C348.189 110.059 374.816 125.374 374.816 125.374C375.877 72.852 386.169 70.928 392.775 69.1788C392.787 69.1504 409.233 154.474 384.566 152.884Z" fill="#C48270" stroke="#4E4E4E" stroke-width="2" stroke-linecap="round" stroke-linejoin="round"/>
<path d="M329.481 110.889C330.047 113.049 328.049 114.18 323.111 115.77C323.111 115.77 322.92 115.904 320.894 111.296C317.917 104.503 318.267 103.36 318.267 103.36C320.98 102.363 323.673 101.733 324.645 101.436C326.666 100.838 329.111 109.494 329.481 110.889Z" fill="#C48270"/>
<path d="M327.223 110.889C327.223 110.889 328.907 109.766 329.48 110.889C330.493 112.878 327.821 114.098 322.887 115.701" fill="#C48270"/>
<path d="M327.223 110.889C327.223 110.889 328.907 109.766 329.48 110.889C330.493 112.878 327.821 114.098 322.887 115.701" stroke="#4E4E4E" stroke-width="2" stroke-linecap="round" stroke-linejoin="round"/>
<path d="M321.581 112.825C327.133 111.235 328.63 110.177 328.63 110.177C329.415 109.868 328.822 106.581 327.227 107.216" fill="#C48270"/>
<path d="M321.581 112.825C327.133 111.235 328.63 110.177 328.63 110.177C329.415 109.868 328.822 106.581 327.227 107.216" stroke="#4E4E4E" stroke-width="2" stroke-linecap="round" stroke-linejoin="round"/>
<path d="M320.178 109.709C326.027 107.924 327.227 107.216 327.227 107.216C328.077 106.951 327.597 103.697 325.543 104.368" fill="#C48270"/>
<path d="M320.178 109.709C326.027 107.924 327.227 107.216 327.227 107.216C328.077 106.951 327.597 103.697 325.543 104.368" stroke="#4E4E4E" stroke-width="2" stroke-linecap="round" stroke-linejoin="round"/>
<path d="M318.267 103.368C318.592 104.251 323.673 101.741 324.645 101.444C326.016 101.037 327.272 103.75 325.544 104.356C323.375 105.382 321.114 106.199 318.791 106.797" fill="#C48270"/>
<path d="M318.267 103.368C318.592 104.251 323.673 101.741 324.645 101.444C326.016 101.037 327.272 103.75 325.544 104.356C323.375 105.382 321.114 106.199 318.791 106.797" stroke="#4E4E4E" stroke-width="2" stroke-linecap="round" stroke-linejoin="round"/>
<path d="M469.014 470.97C471.101 474.094 472.138 474.285 471.76 477.791H447.801C447.801 477.791 447.992 473.809 451.868 472.503C455.745 471.198 460.516 461.866 459.532 457.888C456.416 445.754 452.137 426.343 448.618 409.714C460.39 409.121 469.242 408.136 475.595 407.176C474.2 426.64 470.226 447.67 467.106 459.702C466.919 461.48 466.919 467.846 469.014 470.97Z" fill="#C48270" stroke="#4E4E4E" stroke-width="2" stroke-linecap="round" stroke-linejoin="round"/>
<path d="M469.32 471.287C471.354 473.366 472.167 474.948 471.76 477.795H447.802C447.802 477.795 446.744 473.524 453.403 470.661C455.705 469.66 467.107 469.005 469.32 471.287Z" fill="#EFAF00" stroke="#4E4E4E" stroke-width="2" stroke-linecap="round" stroke-linejoin="round"/>
<path d="M397.972 456.944C397.086 459.328 397.26 464.136 398.241 466.707C399.949 471.181 401.369 477.8 395.393 477.8H362.526C362.526 477.8 361.77 473.443 370.483 472.211C378.895 471.023 389.772 466.109 389.694 457.709C387.933 445.478 385.798 425.383 384.114 408.291C390.451 409.031 399.286 409.735 411.18 410.056C407.885 427.344 402.308 445.417 397.993 456.908C397.987 456.921 397.981 456.933 397.972 456.944Z" fill="#C48270" stroke="#4E4E4E" stroke-width="2" stroke-linecap="round" stroke-linejoin="round"/>
<path d="M398.24 466.699C398.24 466.699 403.19 477.791 395.995 477.791H362.526C362.526 477.791 361.179 473.598 369.872 472.202C371.092 472.007 374.537 471.344 374.537 471.344C374.537 471.344 373.468 474.448 381.115 474.11C388.762 473.773 392.212 467.244 398.24 466.699Z" fill="#EFAF00" stroke="#4E4E4E" stroke-width="2" stroke-linecap="round" stroke-linejoin="round"/>
<path d="M488.69 404.434C488.69 404.434 476.707 358.225 480.018 312.37C482.938 271.913 490.805 240.844 475.36 197.173L475.254 197.218C464.988 168.394 449.506 152.693 449.506 152.693C444.259 132.879 462.763 94.6141 462.714 79.0674C462.677 68.7069 444.259 62.459 444.259 62.459L396.04 68.048L392.786 69.1666C392.786 69.1666 385.187 88.9763 381.396 97.8642C374.583 113.98 388.852 124.898 390.793 126.061C392.733 127.225 396.04 152.693 396.04 152.693C379.716 198.951 373.493 239.835 373.493 239.835C364.202 291.975 370.568 405.976 370.568 405.976C370.568 405.976 385.013 410.491 428.594 410.235C472.175 409.979 488.69 404.434 488.69 404.434Z" fill="#F7F3EF" stroke="#4E4E4E" stroke-width="2" stroke-linecap="round" stroke-linejoin="round"/>
<mask id="mask0_650_8187" style="mask-type:alpha" maskUnits="userSpaceOnUse" x="368" y="62" width="121" height="349">
<path d="M488.69 404.434C488.69 404.434 476.707 358.225 480.018 312.37C482.938 271.913 490.805 240.844 475.36 197.173L475.254 197.218C464.988 168.394 449.506 152.693 449.506 152.693C444.259 132.879 462.763 94.6141 462.714 79.0674C462.677 68.707 444.259 62.459 444.259 62.459L396.04 68.048L392.786 69.1666C392.786 69.1666 385.187 88.9763 381.396 97.8642C374.583 113.98 388.852 124.898 390.793 126.062C392.733 127.225 396.04 152.693 396.04 152.693C379.716 198.951 373.493 239.835 373.493 239.835C364.202 291.975 370.568 405.976 370.568 405.976C370.568 405.976 385.013 410.491 428.594 410.235C472.175 409.979 488.69 404.434 488.69 404.434Z" fill="#F7F3EF"/>
</mask>
<g mask="url(#mask0_650_8187)">
<path d="M376.604 85.771H475.348" stroke="#4E4E4E" stroke-width="2" stroke-linecap="round" stroke-linejoin="round"/>
<path d="M376.604 104.434H475.348" stroke="#4E4E4E" stroke-width="2" stroke-linecap="round" stroke-linejoin="round"/>
<path d="M376.604 123.096H475.348" stroke="#4E4E4E" stroke-width="2" stroke-linecap="round" stroke-linejoin="round"/>
<path d="M376.604 141.755H475.348" stroke="#4E4E4E" stroke-width="2" stroke-linecap="round" stroke-linejoin="round"/>
<path d="M376.604 160.417H475.348" stroke="#4E4E4E" stroke-width="2" stroke-linecap="round" stroke-linejoin="round"/>
<path d="M376.604 179.08H475.348" stroke="#4E4E4E" stroke-width="2" stroke-linecap="round" stroke-linejoin="round"/>
<path d="M376.604 197.738H475.348" stroke="#4E4E4E" stroke-width="2" stroke-linecap="round" stroke-linejoin="round"/>
<path d="M376.604 216.401H486.07" stroke="#4E4E4E" stroke-width="2" stroke-linecap="round" stroke-linejoin="round"/>
<path d="M367.54 235.064H486.069" stroke="#4E4E4E" stroke-width="2" stroke-linecap="round" stroke-linejoin="round"/>
<path d="M362.705 253.722H509.061" stroke="#4E4E4E" stroke-width="2" stroke-linecap="round" stroke-linejoin="round"/>
<path d="M362.705 272.385H509.061" stroke="#4E4E4E" stroke-width="2" stroke-linecap="round" stroke-linejoin="round"/>
<path d="M362.705 291.047H509.061" stroke="#4E4E4E" stroke-width="2" stroke-linecap="round" stroke-linejoin="round"/>
<path d="M362.705 309.706H509.061" stroke="#4E4E4E" stroke-width="2" stroke-linecap="round" stroke-linejoin="round"/>
<path d="M362.705 328.369H509.061" stroke="#4E4E4E" stroke-width="2" stroke-linecap="round" stroke-linejoin="round"/>
<path d="M362.705 347.031H509.061" stroke="#4E4E4E" stroke-width="2" stroke-linecap="round" stroke-linejoin="round"/>
<path d="M362.705 365.69H509.061" stroke="#4E4E4E" stroke-width="2" stroke-linecap="round" stroke-linejoin="round"/>
<path d="M362.705 384.352H524.957" stroke="#4E4E4E" stroke-width="2" stroke-linecap="round" stroke-linejoin="round"/>
<path d="M349.269 403.011H524.957" stroke="#4E4E4E" stroke-width="2" stroke-linecap="round" stroke-linejoin="round"/>
<path d="M399.049 62.4631V417.223" stroke="#4E4E4E" stroke-width="2" stroke-linecap="round" stroke-linejoin="round"/>
<path d="M415.906 62.4631V417.223" stroke="#4E4E4E" stroke-width="2" stroke-linecap="round" stroke-linejoin="round"/>
<path d="M432.759 62.4631V417.223" stroke="#4E4E4E" stroke-width="2" stroke-linecap="round" stroke-linejoin="round"/>
<path d="M449.615 62.4631V417.223" stroke="#4E4E4E" stroke-width="2" stroke-linecap="round" stroke-linejoin="round"/>
<path d="M466.471 62.4631V417.223" stroke="#4E4E4E" stroke-width="2" stroke-linecap="round" stroke-linejoin="round"/>
<path d="M382.192 62.4631V417.223" stroke="#4E4E4E" stroke-width="2" stroke-linecap="round" stroke-linejoin="round"/>
</g>
<path d="M414.822 232.672C398.868 232.672 390.415 229.369 386.1 225.179C390.639 227.693 398.132 229.499 410.282 229.747C446.249 230.479 449.971 174.158 450.288 157.635C451.02 170.277 452.684 232.672 414.822 232.672Z" fill="#4E4E4E"/>
<path d="M450.297 153.112C450.297 153.112 452.424 230.585 410.283 229.727C371.745 228.942 380.055 212.451 380.812 207.594C383.537 190.103 396.835 153.112 396.835 153.112C396.835 153.112 412.105 158.558 450.297 153.112Z" fill="#EFAF00" stroke="#4E4E4E" stroke-width="2" stroke-linecap="round" stroke-linejoin="round"/>
<path d="M482.816 139.001C479.936 159.701 433.809 203.677 432.625 204.816L432.666 204.934C432.666 204.934 429.09 211.975 425.551 211.975C422.012 211.975 418.693 210.055 416.826 212.036C414.959 214.017 413.031 217.239 411.607 217.524C409.886 217.891 408.092 217.657 406.522 216.861C406.522 216.861 407.743 213.891 409.008 211.032C407.869 212.085 406.331 214.424 405.469 215.343C404.171 216.731 403.028 215.47 403.028 215.47C403.028 215.47 405.518 210.706 406.478 209.486C407.438 208.266 410.33 206.317 411.912 205.719C413.665 204.78 422.98 199.772 428.7 198.255C435.822 183.859 453.024 150.171 462.868 139.729C462.868 139.729 446.451 98.4947 445.674 86.8489C444.897 75.203 448.806 65.229 455.099 68.0561C470.141 74.8003 483.939 131.093 482.816 139.001Z" fill="#C48270" stroke="#4E4E4E" stroke-width="2" stroke-linecap="round" stroke-linejoin="round"/>
<path d="M408.567 216.869C408.567 216.869 411.85 209.396 412.997 208.619L417.634 205.443" stroke="#4E4E4E" stroke-width="2" stroke-linecap="round" stroke-linejoin="round"/>
<path d="M410.566 217.186C410.566 217.186 413.731 210.792 414.878 210.011C416.912 208.64 419.528 206.834 419.528 206.834" stroke="#4E4E4E" stroke-width="2" stroke-linecap="round" stroke-linejoin="round"/>
<path d="M387.298 8.60666C387.298 8.60666 372.439 4.88065 367.924 15.6316C363.408 26.3825 375.514 28.7662 375.062 34.5423C374.798 37.9429 376.482 47.3434 386.265 40.2371C395.669 33.4074 432.604 65.6236 444.258 62.4671C455.912 59.3105 464.653 40.9571 455.465 34.2576C446.276 27.5581 440.752 36.8772 437.693 33.9647C434.634 31.0522 436.115 26.0327 428.667 24.7839C421.914 23.6409 418.904 29.8848 418.904 29.8848C418.904 29.8848 423.212 9.26156 412.237 3.14374C401.262 -2.97408 391.447 0.365505 387.298 8.60666Z" fill="#4E4E4E"/>
<path d="M455.709 31.6095C446.17 25.4348 441.879 34.1763 438.681 31.4387C435.484 28.7011 435.94 24.064 428.41 23.2179C421.605 22.4532 418.514 30.0272 418.514 30.0272" stroke="#4E4E4E" stroke-width="2" stroke-linecap="round" stroke-linejoin="round"/>
<path d="M414.929 31.6786C414.929 31.6786 421.36 58.6759 444.258 62.4833C444.258 62.4833 410.597 80.2673 396.039 68.0683C396.039 68.0683 406.965 62.227 400.749 45.5983L414.929 31.6786Z" fill="#C48270" stroke="#4E4E4E" stroke-width="2" stroke-linecap="round" stroke-linejoin="round"/>
<path d="M414.225 32.541C414.962 35.2094 416.133 57.236 401.616 61.1206C402.95 57.5817 403.336 52.5256 400.745 45.5983L414.225 32.541Z" fill="#4E4E4E"/>
<path d="M415.808 22.9372C418.587 23.7507 417.029 32.6997 414.588 33.9973C415.337 36.6901 411.301 50.2681 397.972 54.2137C394.176 55.3405 386.322 44.3048 384.784 40.6561C382.535 35.3396 380.481 30.4299 380.098 28.453C379.484 25.2558 379.329 18.0926 388.469 16.5997C396.483 15.2859 399.074 31.6827 412.034 25.9554C412.054 25.9636 412.998 22.1074 415.808 22.9372Z" fill="#C48270" stroke="#4E4E4E" stroke-width="2" stroke-linecap="round" stroke-linejoin="round"/>
<path d="M388.685 32.5248V39.3382L391.727 40.6561" stroke="#4E4E4E" stroke-width="2" stroke-linecap="round" stroke-linejoin="round"/>
<path d="M393.407 44.9923C393.407 44.9923 397.044 45.757 398.655 41.5835" stroke="#4E4E4E" stroke-width="2" stroke-linecap="round" stroke-linejoin="round"/>
<path d="M394.417 32.4274C394.994 32.1433 395.157 31.2971 394.783 30.5375C394.408 29.7779 393.637 29.3925 393.061 29.6767C392.485 29.9609 392.321 30.807 392.696 31.5666C393.07 32.3262 393.841 32.7116 394.417 32.4274Z" fill="#4E4E4E"/>
<path d="M385.688 36.7163C386.296 36.5074 386.565 35.6888 386.29 34.8879C386.014 34.0869 385.299 33.607 384.691 33.8158C384.083 34.0247 383.814 34.8433 384.089 35.6442C384.365 36.4452 385.08 36.9252 385.688 36.7163Z" fill="#4E4E4E"/>
<path d="M381.839 30.133C382.044 29.6609 382.404 29.2731 382.86 29.0334C383.316 28.7938 383.839 28.7168 384.345 28.815" stroke="#4E4E4E" stroke-width="2" stroke-linecap="round" stroke-linejoin="round"/>
<path d="M413.107 32.5248C416.086 32.5248 418.5 30.1099 418.5 27.131C418.5 24.1521 416.086 21.7372 413.107 21.7372C410.128 21.7372 407.713 24.1521 407.713 27.131C407.713 30.1099 410.128 32.5248 413.107 32.5248Z" fill="#C48270"/>
<path d="M411.062 30.4217C410.704 29.1011 410.687 27.7114 411.013 26.3825C411.21 25.6865 411.595 25.0581 412.125 24.566C412.655 24.0739 413.31 23.737 414.019 23.5921" stroke="#4E4E4E" stroke-width="2" stroke-linecap="round" stroke-linejoin="round"/>
<path d="M414.019 27.7778L411.013 26.3826" stroke="#4E4E4E" stroke-width="2" stroke-linecap="round" stroke-linejoin="round"/>
<path d="M417.117 35.6894C418.503 35.6894 419.627 34.5658 419.627 33.1797C419.627 31.7936 418.503 30.6699 417.117 30.6699C415.731 30.6699 414.607 31.7936 414.607 33.1797C414.607 34.5658 415.731 35.6894 417.117 35.6894Z" fill="#F7F3EF" stroke="#4E4E4E" stroke-width="2" stroke-linecap="round" stroke-linejoin="round"/>
<path d="M390.206 26.472C390.206 26.472 390.906 23.9989 394.042 24.788" stroke="#4E4E4E" stroke-width="2" stroke-linecap="round" stroke-linejoin="round"/>
<path d="M177.428 342.148C172.65 360.182 158.087 410.459 144.414 409.391C127.763 408.093 148.383 332.686 148.383 332.686C148.383 332.686 164.975 266.362 181.661 266.932C198.346 267.502 177.428 342.148 177.428 342.148Z" fill="#F7F3EF" stroke="#4E4E4E" stroke-width="3" stroke-linecap="round" stroke-linejoin="round"/>
<path d="M157.392 375.144C157.436 374.052 154.782 373.058 151.464 372.926C148.147 372.793 145.422 373.571 145.378 374.664C145.334 375.756 147.988 376.75 151.306 376.882C154.624 377.015 157.348 376.237 157.392 375.144Z" fill="#F7F3EF" stroke="#4E4E4E" stroke-width="3" stroke-linecap="round" stroke-linejoin="round"/>
<path d="M175.624 294.325C178.942 294.325 181.631 293.439 181.631 292.347C181.631 291.254 178.942 290.369 175.624 290.369C172.307 290.369 169.617 291.254 169.617 292.347C169.617 293.439 172.307 294.325 175.624 294.325Z" fill="#F7F3EF" stroke="#4E4E4E" stroke-width="3" stroke-linecap="round" stroke-linejoin="round"/>
<path d="M171.377 311.806C175.799 311.806 179.383 310.627 179.383 309.173C179.383 307.718 175.799 306.539 171.377 306.539C166.955 306.539 163.37 307.718 163.37 309.173C163.37 310.627 166.955 311.806 171.377 311.806Z" fill="#F7F3EF" stroke="#4E4E4E" stroke-width="3" stroke-linecap="round" stroke-linejoin="round"/>
<path d="M164.507 329.436C169.472 329.436 173.496 328.112 173.496 326.479C173.496 324.846 169.472 323.522 164.507 323.522C159.542 323.522 155.518 324.846 155.518 326.479C155.518 328.112 159.542 329.436 164.507 329.436Z" fill="#F7F3EF" stroke="#4E4E4E" stroke-width="3" stroke-linecap="round" stroke-linejoin="round"/>
<path d="M164.491 360.153C164.554 358.7 161.024 357.365 156.607 357.173C152.189 356.98 148.556 358.001 148.493 359.454C148.429 360.907 151.959 362.241 156.377 362.434C160.795 362.627 164.427 361.606 164.491 360.153Z" fill="#F7F3EF" stroke="#4E4E4E" stroke-width="3" stroke-linecap="round" stroke-linejoin="round"/>
<path d="M167.977 346.515C168.048 344.884 164.085 343.386 159.125 343.169C154.165 342.953 150.087 344.1 150.016 345.731C149.944 347.362 153.908 348.861 158.867 349.077C163.827 349.294 167.906 348.147 167.977 346.515Z" fill="#F7F3EF" stroke="#4E4E4E" stroke-width="3" stroke-linecap="round" stroke-linejoin="round"/>
<path d="M109.91 317.871C109.91 317.871 113.907 312.57 107.81 307.049L109.9 306.289C115.472 309.949 115.946 315.404 115.946 315.404L109.91 317.871Z" fill="#F7F3EF" stroke="#4E4E4E" stroke-width="3" stroke-linecap="round" stroke-linejoin="round"/>
<path d="M117.852 363.675C115.382 364.573 112.666 364.527 110.228 363.546C107.789 362.565 105.799 360.717 104.639 358.358L92.5363 336.504C89.7376 330.815 93.6579 323.53 99.6121 321.363L99.7803 321.297C102.437 320.33 105.369 320.457 107.932 321.651C110.495 322.845 112.479 325.008 113.448 327.664L124.224 350.003C124.704 351.319 124.92 352.717 124.859 354.116C124.798 355.516 124.462 356.89 123.871 358.159C123.279 359.429 122.443 360.57 121.41 361.516C120.377 362.462 119.168 363.196 117.852 363.675Z" fill="#EFAF00" stroke="#4E4E4E" stroke-width="3" stroke-linecap="round" stroke-linejoin="round"/>
<path d="M138.794 356.034C141.265 355.132 143.315 353.35 144.552 351.028C145.788 348.707 146.123 346.011 145.492 343.457L140.904 318.855C139.375 312.702 131.463 309.735 125.509 311.907L125.341 311.968C122.684 312.937 120.522 314.921 119.328 317.484C118.134 320.047 118.006 322.979 118.973 325.635L125.091 349.672C125.569 350.988 126.302 352.196 127.247 353.229C128.193 354.262 129.332 355.098 130.601 355.691C131.87 356.283 133.242 356.619 134.641 356.681C136.04 356.742 137.437 356.528 138.753 356.049L138.794 356.034Z" fill="#EFAF00" stroke="#4E4E4E" stroke-width="3" stroke-linecap="round" stroke-linejoin="round"/>
<path d="M129.042 361.234C127.93 361.639 126.749 361.822 125.567 361.771C124.384 361.721 123.223 361.438 122.15 360.938C121.077 360.439 120.112 359.733 119.312 358.861C118.512 357.989 117.891 356.967 117.485 355.855L107.121 327.43C106.302 325.183 106.408 322.703 107.417 320.535C108.425 318.367 110.254 316.688 112.5 315.868C113.612 315.462 114.794 315.28 115.977 315.331C117.16 315.382 118.322 315.665 119.396 316.165C120.469 316.665 121.434 317.371 122.234 318.244C123.035 319.117 123.656 320.139 124.062 321.251L134.425 349.677C135.245 351.92 135.14 354.398 134.134 356.564C133.127 358.731 131.301 360.408 129.057 361.228L129.042 361.234Z" fill="#EFAF00" stroke="#4E4E4E" stroke-width="3" stroke-linecap="round" stroke-linejoin="round"/>
<path d="M87.5657 322.453C87.5657 322.453 92.1663 319.779 89.3791 313.806L91.1592 313.894C94.137 318.33 92.7914 322.507 92.7914 322.507L87.5657 322.453Z" fill="#F7F3EF" stroke="#4E4E4E" stroke-width="3" stroke-linecap="round" stroke-linejoin="round"/>
<path d="M79.1923 358.757C77.0882 358.652 75.0968 357.774 73.6005 356.291C72.1042 354.808 71.2083 352.824 71.0849 350.721L68.9398 330.815C68.6412 325.743 73.8019 321.58 78.8737 321.831L79.0186 321.834C81.2818 321.946 83.4081 322.952 84.93 324.63C86.4519 326.309 87.2449 328.524 87.1347 330.787L88.1502 350.639C88.0952 351.76 87.8199 352.859 87.3399 353.874C86.86 354.889 86.1848 355.799 85.353 356.553C84.5211 357.307 83.5489 357.89 82.4918 358.268C81.4348 358.646 80.3136 358.812 79.1923 358.757Z" fill="#E7871E" stroke="#4E4E4E" stroke-width="3" stroke-linecap="round" stroke-linejoin="round"/>
<path d="M97.0382 359.623C99.1436 359.725 101.213 359.046 102.848 357.716C104.483 356.385 105.568 354.498 105.896 352.416L110.156 332.816C110.939 327.796 106.017 323.144 100.944 322.897L100.801 322.89C98.5375 322.78 96.3231 323.573 94.6443 325.095C92.9656 326.617 91.9598 328.743 91.8483 331.006L88.8941 350.663C88.8382 351.784 89.0036 352.905 89.3809 353.961C89.7581 355.018 90.3399 355.99 91.093 356.822C91.846 357.654 92.7556 358.33 93.7697 358.81C94.7838 359.29 95.8826 359.566 97.0033 359.622L97.0382 359.623Z" fill="#E7871E" stroke="#4E4E4E" stroke-width="3" stroke-linecap="round" stroke-linejoin="round"/>
<path d="M88.2165 360.432C87.2689 360.386 86.3397 360.154 85.4819 359.749C84.6241 359.344 83.8545 358.773 83.2171 358.071C82.5796 357.368 82.0868 356.547 81.7668 355.654C81.4467 354.761 81.3057 353.814 81.3518 352.866L82.5338 328.647C82.6268 326.733 83.4762 324.934 84.8953 323.646C86.3144 322.358 88.1869 321.686 90.1012 321.778C91.0492 321.825 91.9788 322.057 92.837 322.463C93.6951 322.868 94.465 323.439 95.1026 324.142C95.7403 324.845 96.2332 325.667 96.5533 326.56C96.8733 327.454 97.0142 328.401 96.968 329.349L95.786 353.569C95.694 355.481 94.8462 357.279 93.4291 358.566C92.012 359.853 90.1416 360.525 88.2293 360.433L88.2165 360.432Z" fill="#E7871E" stroke="#4E4E4E" stroke-width="3" stroke-linecap="round" stroke-linejoin="round"/>
<path d="M63.7861 343.147C63.7861 343.147 50.3638 317.868 10.8711 338.548" stroke="#4E4E4E" stroke-width="3" stroke-linecap="round" stroke-linejoin="round"/>
<path d="M28.5175 331.657C28.5175 331.657 20.3748 333.784 20.3748 335.911C20.3748 338.038 24.4462 336.877 24.4462 336.877C24.4462 336.877 18.5412 339.791 18.7454 341.735C18.9496 343.679 23.1231 341.735 23.1231 341.735C23.1231 341.735 20.294 347.644 22.519 348.325C24.744 349.006 24.8503 344.394 24.8503 344.394C24.8503 344.394 27.7007 346.64 28.5175 345.84C29.3344 345.041 26.5818 339.484 26.5818 339.484C26.5818 339.484 29.228 342.964 30.8361 341.735C32.4443 340.505 27.7901 335.056 28.5175 331.657Z" fill="#F7F3EF" stroke="#4E4E4E" stroke-width="3" stroke-linecap="round" stroke-linejoin="round"/>
<path d="M14.4148 336.783C14.4148 336.783 6.95277 334.766 5.83389 336.783C4.71501 338.799 8.29712 337.927 8.29712 337.927C8.29712 337.927 1.49025 341.02 2.03054 343.147C2.57084 345.275 6.16998 343.147 6.16998 343.147C6.16998 343.147 5.54459 348.253 8.20778 347.253C10.871 346.253 10.3477 339.374 14.4148 336.783Z" fill="#F7F3EF" stroke="#4E4E4E" stroke-width="3" stroke-linecap="round" stroke-linejoin="round"/>
<path d="M55.4733 316.8C55.4733 316.8 61.4676 313.967 61.2337 312.121C60.9997 310.274 59.0214 312.767 59.0214 312.767C59.0214 312.767 62.1015 307.199 60.6849 306.216C59.2682 305.233 57.9068 308.462 57.9068 308.462C57.9068 308.462 55.8477 305.059 54.5374 307.092C53.2271 309.126 56.9368 313.031 55.4733 316.8Z" fill="#F7F3EF" stroke="#4E4E4E" stroke-width="3" stroke-linecap="round" stroke-linejoin="round"/>
<path d="M65.9984 343.147C65.9984 343.147 59.434 318.494 30.6494 319.987" stroke="#4E4E4E" stroke-width="3" stroke-linecap="round" stroke-linejoin="round"/>
<path d="M32.2063 319.664C32.2063 319.664 28.9645 328.074 25.727 326.415C22.4895 324.756 27.1012 323.259 27.1012 323.259C27.1012 323.259 17.6396 325.62 18.0055 322.259C18.3713 318.898 25.0974 320.212 25.0974 320.212C25.0974 320.212 21.5195 318.204 25.0974 317.332C28.6752 316.46 32.2063 319.664 32.2063 319.664Z" fill="#F7F3EF" stroke="#4E4E4E" stroke-width="3" stroke-linecap="round" stroke-linejoin="round"/>
<path d="M48.3255 322.982C48.3255 322.982 47.3258 314.758 43.9096 314.758C40.4934 314.758 44.603 319.923 44.603 319.923C44.603 319.923 40.4934 316.52 39.7446 318.868C38.9959 321.216 43.9096 322.374 43.9096 322.374C43.9096 322.374 40.7401 326.364 43.1098 326.164C45.4794 325.964 48.3255 322.982 48.3255 322.982Z" fill="#F7F3EF" stroke="#4E4E4E" stroke-width="3" stroke-linecap="round" stroke-linejoin="round"/>
<path d="M47.832 331.622C47.832 331.622 39.9318 329.121 38.5151 332.231C37.0984 335.341 43.5054 333.741 43.5054 333.741C43.5054 333.741 38.6895 336.064 40.5274 337.723C42.3652 339.382 45.4453 335.405 45.4453 335.405C45.4453 335.405 47.7597 339.94 48.5637 337.706C49.3678 335.473 47.832 331.622 47.832 331.622Z" fill="#F7F3EF" stroke="#4E4E4E" stroke-width="3" stroke-linecap="round" stroke-linejoin="round"/>
<path d="M53.7416 323.544C53.7416 323.544 60.3103 319.808 59.0893 317.987C57.8683 316.167 53.8778 320.851 53.8778 320.851C53.8778 320.851 52.4866 315.652 50.8274 316.477C49.1682 317.303 53.7416 323.544 53.7416 323.544Z" fill="#F7F3EF" stroke="#4E4E4E" stroke-width="3" stroke-linecap="round" stroke-linejoin="round"/>
<path d="M59.2426 342.841C59.2426 342.841 48.5856 322.165 57.0346 314.452" stroke="#4E4E4E" stroke-width="3" stroke-linecap="round" stroke-linejoin="round"/>
<path d="M187.551 342.841L171.708 463.604H164.693L146.582 342.841H187.551Z" fill="#F7F3EF" stroke="#4E4E4E" stroke-width="3" stroke-linecap="round" stroke-linejoin="round"/>
<path d="M192.027 346.747L176.46 464.208H169.445L151.615 346.747H192.027Z" fill="#F7F3EF" stroke="#4E4E4E" stroke-width="3" stroke-linecap="round" stroke-linejoin="round"/>
<path d="M188.007 342.841L172.16 463.604H165.144L147.038 342.841H188.007Z" fill="#F7F3EF" stroke="#4E4E4E" stroke-width="3" stroke-linecap="round" stroke-linejoin="round"/>
<path d="M165.144 463.604H66.5123L50.665 342.841H147.038L165.144 463.604Z" fill="#F7F3EF" stroke="#4E4E4E" stroke-width="3" stroke-linecap="round" stroke-linejoin="round"/>
<path d="M68.207 421.052C68.207 421.052 74.0397 418.593 71.7083 411.02L73.8355 411.42C74.6588 413.085 75.1251 414.903 75.2042 416.758C75.2833 418.613 74.9736 420.464 74.2949 422.192L68.207 421.052Z" fill="#4E4E4E"/>
<path d="M52.1597 462.859C49.6691 462.389 47.4404 461.014 45.902 459C44.3636 456.985 43.624 454.473 43.8255 451.947L44.5445 427.889C45.0295 421.801 51.8576 417.7 57.8562 418.831L58.0306 418.865C59.3572 419.113 60.6221 419.619 61.7528 420.356C62.8836 421.092 63.8581 422.045 64.6206 423.158C65.3832 424.271 65.9188 425.524 66.1969 426.845C66.475 428.165 66.4901 429.528 66.2414 430.854L64.1696 454.678C63.9188 456.004 63.4092 457.268 62.6698 458.397C61.9303 459.526 60.9756 460.498 59.8602 461.258C58.7449 462.018 57.4906 462.55 56.1693 462.825C54.848 463.1 53.4855 463.111 52.1597 462.859Z" fill="#4E4E4E"/>
<path d="M73.2658 466.862C75.7562 467.333 78.3327 466.866 80.4995 465.551C82.6663 464.236 84.2705 462.167 85.0034 459.741L93.329 437.082C95.0946 431.237 89.9979 424.885 83.9994 423.754L83.8292 423.72C81.1519 423.215 78.3839 423.795 76.1335 425.33C73.8831 426.866 72.3344 429.232 71.8278 431.909L65.0805 454.831C64.8249 456.156 64.8328 457.519 65.104 458.84C65.3751 460.162 65.9041 461.418 66.6608 462.535C67.4174 463.652 68.3867 464.61 69.5135 465.352C70.6403 466.095 71.9023 466.608 73.2275 466.862H73.2658Z" fill="#4E4E4E"/>
<path d="M62.6292 466.348C60.3653 465.92 58.3639 464.611 57.065 462.709C55.7661 460.806 55.2763 458.465 55.7032 456.201L61.1105 427.557C61.5376 425.294 62.8461 423.294 64.7481 421.996C66.6501 420.698 68.9899 420.208 71.2527 420.635C73.5166 421.062 75.5181 422.371 76.8169 424.274C78.1158 426.177 78.6056 428.518 78.1787 430.782L72.7715 459.426C72.5605 460.547 72.1307 461.615 71.5067 462.569C70.8827 463.524 70.0767 464.346 69.1348 464.989C68.1929 465.631 67.1335 466.082 66.0173 466.315C64.901 466.549 63.7497 466.56 62.6292 466.348Z" fill="#4E4E4E"/>
<path d="M63 417.695C63 417.695 68.8326 415.236 66.5013 407.664L68.6072 408.064C69.4354 409.727 69.9057 411.545 69.9878 413.401C70.0699 415.257 69.7619 417.11 69.0836 418.84L63 417.695Z" fill="#F7F3EF" stroke="#4E4E4E" stroke-width="3" stroke-linecap="round" stroke-linejoin="round"/>
<path d="M46.9349 459.502C44.442 459.035 42.2103 457.661 40.6693 455.647C39.1283 453.632 38.387 451.119 38.588 448.59L39.3197 424.532C39.8047 418.444 46.6329 414.343 52.6314 415.475L52.8016 415.509C55.4774 416.011 57.8439 417.556 59.3805 419.804C60.9172 422.051 61.498 424.817 60.9954 427.493L58.9236 451.317C58.4169 453.991 56.8699 456.355 54.6223 457.889C52.3746 459.424 49.6099 460.004 46.9349 459.502Z" fill="#E7871E" stroke="#4E4E4E" stroke-width="3" stroke-linecap="round" stroke-linejoin="round"/>
<path d="M68.0522 463.484C70.5426 463.955 73.1191 463.488 75.2859 462.173C77.4527 460.859 79.0569 458.789 79.7898 456.363L88.1154 433.738C89.881 427.893 84.7843 421.541 78.7858 420.41L78.6156 420.376C77.2894 420.125 75.9269 420.138 74.6059 420.415C73.2849 420.691 72.0314 421.225 70.917 421.987C69.8027 422.748 68.8495 423.722 68.1119 424.852C67.3743 425.983 66.8668 427.247 66.6185 428.574L59.8584 451.487C59.3528 454.162 59.9301 456.929 61.4633 459.179C62.9966 461.428 65.3604 462.977 68.0351 463.484H68.0522Z" fill="#E7871E" stroke="#4E4E4E" stroke-width="3" stroke-linecap="round" stroke-linejoin="round"/>
<path d="M57.4169 462.991C55.1546 462.562 53.1552 461.252 51.8581 459.349C50.561 457.447 50.0723 455.107 50.4994 452.844L55.9066 424.2C56.3338 421.936 57.6428 419.935 59.5456 418.636C61.4484 417.337 63.7892 416.847 66.0531 417.274C68.3168 417.704 70.3176 419.014 71.6162 420.917C72.9148 422.82 73.405 425.161 72.9791 427.425L67.5719 456.069C67.3609 457.19 66.9312 458.258 66.3072 459.213C65.6831 460.167 64.8772 460.989 63.9352 461.632C62.9933 462.275 61.934 462.726 60.8177 462.959C59.7014 463.192 58.5502 463.203 57.4297 462.991H57.4169Z" fill="#E7871E" stroke="#4E4E4E" stroke-width="3" stroke-linecap="round" stroke-linejoin="round"/>
</svg>
